<?xml version="1.0" encoding="utf-8"?>
<!-- Generator: Adobe Illustrator 25.0.1, SVG Export Plug-In . SVG Version: 6.00 Build 0)  -->
<svg version="1.1" id="Capa_1" xmlns="http://www.w3.org/2000/svg" xmlns:xlink="http://www.w3.org/1999/xlink" x="0px" y="0px"
	 viewBox="0 0 4000 6000" style="enable-background:new 0 0 4000 6000;" xml:space="preserve">
<style type="text/css">
	.st0{fill:none;}
	.st1{fill:#B3B3B3;stroke:#B3B3B3;stroke-miterlimit:10;}
	.st2{fill:#B3B3B3;stroke:#B3B3B3;stroke-width:0.75;stroke-miterlimit:10;}
	.st3{stroke:#B3B3B3;stroke-width:2;stroke-miterlimit:10;}
	.st4{fill:none;stroke:#B3B3B3;stroke-width:3;stroke-miterlimit:10;}
	.st5{fill:none;stroke:#B3B3B3;stroke-width:2;stroke-miterlimit:10;}
	.st6{fill:none;stroke:#B3B3B3;stroke-width:4;stroke-miterlimit:10;}
	.st7{fill:url(#Nueva_muestra_de_motivo_16);}
</style>
<pattern  width="600" height="600" patternUnits="userSpaceOnUse" id="Nueva_muestra_de_motivo_16" viewBox="105.3 -670.9 600 600" style="overflow:visible;">
	<g>
		<rect x="105.3" y="-670.9" class="st0" width="600" height="600"/>
		<g>
			<g>
				<path class="st1" d="M313.7-219.1c-3.2,3.5-8,4.9-12.5,3.4c-3-1-6.3-0.3-8.6,2l-31.2,31.3c-2.2,2.3-3.1,5.7-2.2,8.9
					c0.2,0.8,0.3,1.7,0.4,2.6c0.4,7-4.7,13-11.4,13.4c-6.7,0.4-12.4-4.9-12.8-12c-3.1-0.3-6-1.9-8-4.3c-4-5-3.9-12.3,0.4-17.1
					c3.2-3.5,8-4.9,12.5-3.4c3,1,6.3,0.3,8.6-2l31.2-31.3c2.2-2.3,3.1-5.7,2.2-8.9c-1.2-4.7,0.3-9.7,3.8-12.9
					c4.7-4.3,11.7-4.1,16.3,0.3c2.3,2.2,3.6,5.3,3.8,8.6c3.1,0.3,6,1.9,8,4.3C318.1-231.2,317.9-223.9,313.7-219.1z M311.8-220.9
					c1.7-1.9,2.7-4.4,2.7-7c0-5.6-4.4-10.1-9.7-10c-0.3,0-0.7-0.1-0.9-0.4c-0.2-0.3-0.4-0.6-0.3-1c0.1-2.6-0.7-5.2-2.4-7.1
					c-3.5-4.2-9.6-4.6-13.6-1c-2.8,2.5-4,6.5-3,10.2c1.1,4.1,0,8.5-2.9,11.5l-31.2,31.3c-3,2.9-7.2,3.9-11.1,2.6
					c-3.5-1.2-7.4-0.1-9.9,2.7c-3.4,3.8-3.5,9.6-0.3,13.6c1.8,2.2,4.5,3.5,7.3,3.5l0,0c0,0,0,0,0,0c0.7,0,1.2,0.6,1.2,1.4
					c-0.1,2.6,0.7,5.2,2.4,7.1c3.5,4.2,9.6,4.6,13.6,0.9c2.8-2.5,4-6.5,3-10.2c-1.1-4.1,0-8.5,2.9-11.5l31.2-31.3
					c3-2.9,7.2-3.9,11.1-2.6C305.5-217.1,309.3-218.1,311.8-220.9L311.8-220.9z"/>
				<path class="st1" d="M308.5-231.2c1.6,2,1.5,4.9-0.2,6.8c-0.9,1-2.3,1.6-3.6,1.6c-0.5,0-0.9-0.1-1.4-0.2c-0.6-0.2-1-0.9-0.8-1.6
					c0.2-0.7,0.9-1.1,1.6-0.9c0.9,0.3,1.8,0,2.4-0.7c0.8-0.9,0.8-2.3,0.1-3.3c0,0,0,0,0,0c-0.5-0.5-0.4-1.4,0.1-1.8
					C307.3-231.8,308.1-231.7,308.5-231.2z"/>
			</g>
			<g>
				<path class="st1" d="M1.2-541.1c-0.6-0.6-0.9-1.5-0.6-2.3c0.3-0.8,1-1.4,1.9-1.5l14.5-2.2c0.7-0.1,1.5,0.1,2,0.6l6.6,5.6
					c-2.2-8.6-0.8-17.6,3.7-25.3c-1.8-4.5-7.7-20.7-3.9-25.8c0.9-1.2,2.4-1.9,4-1.9c7.9,0,17.1,4.4,22.8,8.8
					c13.2-5.1,28.2-5.1,41.4,0c5.7-4.4,14.9-8.8,22.8-8.8c1.6,0,3.1,0.7,4,1.9c3.9,5.2-2.1,21.3-3.8,25.8c3.1,5.3,4.7,11.2,4.7,17.2
					c0,2.7-0.3,5.5-1,8.1l6.6-5.6c0.5-0.5,1.3-0.7,2-0.5l14.5,2.2c0.9,0.1,1.6,0.7,1.9,1.5c0.3,0.8,0,1.7-0.6,2.3l-21,19.4v54.9
					c0,3.7-3.2,6.7-7.3,6.7h-87c-4,0-7.2-3-7.3-6.7v-54.9L1.2-541.1z M118.9-520.3h-4.8c0,5.4-4,9.3-11.1,10.6
					c-1.4,1.7-3.5,2.8-5.9,2.8c-2.3,0-4.5-1-5.9-2.8c-7-1.3-11.1-5.2-11.1-10.6H65.8c0,5.4-4,9.3-11.1,10.6
					c-1.4,1.7-3.5,2.8-5.9,2.8c-2.3,0-4.5-1-5.9-2.8c-7-1.3-11.1-5.2-11.1-10.6h-4.8v53.6c0,1.2,1.1,2.2,2.4,2.2h2.4v-4.5
					c0-1.2,1.1-2.2,2.4-2.2c1.3,0,2.4,1,2.4,2.2v4.5h4.8v-4.5c0-1.2,1.1-2.2,2.4-2.2c1.3,0,2.4,1,2.4,2.2v4.5h4.8v-4.5
					c0-1.2,1.1-2.2,2.4-2.2c1.3,0,2.4,1,2.4,2.2v4.5h4.8v-4.5c0-1.2,1.1-2.2,2.4-2.2c1.3,0,2.4,1,2.4,2.2v4.5h4.8v-4.5
					c0-1.2,1.1-2.2,2.4-2.2c1.3,0,2.4,1,2.4,2.2v4.5h4.8v-4.5c0-1.2,1.1-2.2,2.4-2.2c1.3,0,2.4,1,2.4,2.2v4.5h4.8v-4.5
					c0-1.2,1.1-2.2,2.4-2.2c1.3,0,2.4,1,2.4,2.2v4.5h4.8v-4.5c0-1.2,1.1-2.2,2.4-2.2c1.3,0,2.4,1,2.4,2.2v4.5h4.8v-4.5
					c0-1.2,1.1-2.2,2.4-2.2c1.3,0,2.4,1,2.4,2.2v4.5h2.4c1.3,0,2.4-1,2.4-2.2V-520.3z M48.8-531.5c-4.4,0.2-8.3,2.5-10.4,6.1
					c-0.7,1-1.2,2.2-1.5,3.3c-0.1,0.6-0.2,1.2-0.2,1.8c0.1,2.7,2,5,4.8,5.6v-1.2c0-1.2,1.1-2.2,2.4-2.2c1.3,0,2.4,1,2.4,2.2v2.2
					c0,1.2,1.1,2.2,2.4,2.2s2.4-1,2.4-2.2v-2.2c0-1.2,1.1-2.2,2.4-2.2c1.3,0,2.4,1,2.4,2.2v1.2c2.8-0.7,4.8-3,4.8-5.7
					c0-0.6-0.1-1.2-0.2-1.8C59.4-527.3,54.6-531.1,48.8-531.5z M107.6-525.4c-2.1-3.6-6-5.9-10.4-6.1c-5.8,0.4-10.6,4.2-11.9,9.4
					c-0.1,0.6-0.2,1.2-0.2,1.8c0.1,2.7,2,5,4.8,5.6v-1.2c0-1.2,1.1-2.2,2.4-2.2c1.3,0,2.4,1,2.4,2.2v2.2c0,1.2,1.1,2.2,2.4,2.2
					c1.3,0,2.4-1,2.4-2.2v-2.2c0-1.2,1.1-2.2,2.4-2.2c1.3,0,2.4,1,2.4,2.2v1.2c2.8-0.7,4.8-3,4.8-5.7c0-0.6-0.1-1.2-0.2-1.8
					C108.7-523.2,108.3-524.4,107.6-525.4L107.6-525.4z M116.5-531.7c-1.1,1.9-2.5,3.8-3.9,5.5c0.2,0.5,0.5,0.9,0.6,1.4h7.2
					l17.7-16.4l-8.7-1.3L116.5-531.7z M34.3-566.9c0.1,0.3,0.2,0.5,0.2,0.8c0,0.4-0.1,0.8-0.3,1.1c-5.9,9.5-6.2,21.1-0.6,30.8
					c0,0,0,0.1,0.1,0.1l0,0l0,0.1c0.8,1.3,1.6,2.6,2.6,3.8c3.1-3.5,7.7-5.6,12.6-5.7c7.3,0.3,13.7,4.7,16,11.2h16.3
					c2.3-6.4,8.7-10.9,16-11.2c4.9,0.1,9.5,2.2,12.6,5.7c1-1.3,1.9-2.6,2.7-4c2.7-4.6,4.1-9.7,4.1-14.9c0-5.6-1.6-11-4.6-15.9
					c-0.4-0.6-0.4-1.3-0.2-1.9c4-9.7,6.4-21.2,4.8-22.7c-6.9,0-15.6,4.4-20.7,8.7c-0.7,0.6-1.8,0.7-2.6,0.4
					c-12.8-5.4-27.4-5.4-40.2,0c-0.9,0.4-1.9,0.2-2.6-0.4c-5.1-4.3-13.9-8.6-20.8-8.6C27.9-588.1,30.3-576.6,34.3-566.9z M7.9-541.1
					l17.7,16.4h7.2c0.2-0.5,0.4-0.9,0.6-1.4c-1.5-1.7-2.8-3.6-4-5.5l-12.8-10.8L7.9-541.1z"/>
				<path class="st1" d="M46.4-558.3c0-0.6,0.3-1.2,0.7-1.6c2.1-1.9,4.6-3.2,7.3-4.1c-1.8-0.7-3.7-1.1-5.6-1.1c-1.3,0-2.4-1-2.4-2.2
					c0-1.2,1.1-2.2,2.4-2.2c5.1,0.1,10,1.9,13.8,5.1c0.7,0.6,0.9,1.6,0.5,2.4c-0.4,0.8-1.3,1.4-2.2,1.4c-3.8,0.1-7.5,1.5-10.4,3.8
					c-0.5,0.4-1.1,0.7-1.7,0.7c-0.6,0-1.3-0.2-1.7-0.7C46.7-557.1,46.4-557.7,46.4-558.3z"/>
				<path class="st1" d="M82.9-561.9c-0.4-0.8-0.2-1.8,0.5-2.4c3.8-3.2,8.7-5,13.8-5.1c1.3,0,2.4,1,2.4,2.2c0,1.2-1.1,2.2-2.4,2.2
					c-1.9,0-3.9,0.4-5.6,1.1c2.8,0.8,5.3,2.2,7.4,4.1c0.9,0.9,0.9,2.3,0,3.1c-0.9,0.9-2.4,0.9-3.4,0c-2.9-2.4-6.5-3.7-10.4-3.8
					C84.1-560.5,83.2-561,82.9-561.9z"/>
				<path class="st1" d="M70.6-546.7v-0.8c-0.9-0.3-1.6-0.8-2.2-1.4l-3.6-3.6c-1.4-1.3-1.8-3.2-1-4.9c1-2,3.3-3.2,5.6-3.2h7.2
					c2.4-0.1,4.6,1.2,5.6,3.2c0.8,1.7,0.4,3.6-1,4.9l-3.6,3.6c-0.6,0.6-1.4,1.1-2.2,1.4v0.8c4.4,1.5,7.2,7,7.2,10.7
					c0,4.4-3.3,6.7-9.7,6.7c-6.4,0-9.7-2.3-9.7-6.7C63.3-539.7,66.1-545.2,70.6-546.7z M73-542.6c-2.3,0-4.8,3.9-4.8,6.7
					c0,1,0,2.2,4.8,2.2s4.8-1.2,4.8-2.2C77.8-538.7,75.3-542.6,73-542.6z M71.9-551.9c0.7,0.5,1.6,0.5,2.3,0l3.6-3.6
					c0.1-0.2-0.3-0.5-1.1-0.5h-7.2c-0.8,0-1.2,0.4-1.2,0.5L71.9-551.9z"/>
			</g>
			<g>
				<path class="st1" d="M501.9-213.6c-0.4-0.3-0.5-0.8-0.3-1.3c0.2-0.5,0.6-0.8,1.1-0.9l8.3-1.3c0.4-0.1,0.8,0.1,1.2,0.3l3.8,3.2
					c-1.2-4.9-0.5-10.1,2.1-14.5c-1-2.6-4.4-11.9-2.2-14.9c0.5-0.7,1.4-1.1,2.3-1.1c4.5,0,9.8,2.5,13.1,5.1c7.6-3,16.1-3,23.7,0
					c3.3-2.5,8.5-5.1,13.1-5.1c0.9,0,1.8,0.4,2.3,1.1c2.2,3-1.2,12.3-2.2,14.8c1.8,3,2.7,6.4,2.7,9.9c0,1.6-0.2,3.1-0.6,4.7l3.8-3.2
					c0.3-0.3,0.7-0.4,1.2-0.3l8.3,1.3c0.5,0.1,0.9,0.4,1.1,0.9c0.2,0.5,0,1-0.3,1.3l-12,11.2v31.6c0,2.1-1.9,3.8-4.2,3.9h-49.8
					c-2.3,0-4.1-1.7-4.2-3.9v-31.6L501.9-213.6z M569.3-201.7h-2.8c0,3.1-2.3,5.3-6.3,6.1c-0.8,1-2,1.6-3.3,1.6
					c-1.3,0-2.6-0.6-3.3-1.6c-4-0.8-6.3-3-6.3-6.1h-8.3c0,3.1-2.3,5.3-6.3,6.1c-0.8,1-2,1.6-3.3,1.6c-1.3,0-2.6-0.6-3.3-1.6
					c-4-0.8-6.3-3-6.3-6.1h-2.8v30.8c0,0.7,0.6,1.3,1.4,1.3h1.4v-2.6c0-0.7,0.6-1.3,1.4-1.3c0.8,0,1.4,0.6,1.4,1.3v2.6h2.8v-2.6
					c0-0.7,0.6-1.3,1.4-1.3c0.8,0,1.4,0.6,1.4,1.3v2.6h2.8v-2.6c0-0.7,0.6-1.3,1.4-1.3c0.8,0,1.4,0.6,1.4,1.3v2.6h2.8v-2.6
					c0-0.7,0.6-1.3,1.4-1.3c0.8,0,1.4,0.6,1.4,1.3v2.6h2.8v-2.6c0-0.7,0.6-1.3,1.4-1.3c0.8,0,1.4,0.6,1.4,1.3v2.6h2.8v-2.6
					c0-0.7,0.6-1.3,1.4-1.3c0.8,0,1.4,0.6,1.4,1.3v2.6h2.8v-2.6c0-0.7,0.6-1.3,1.4-1.3c0.8,0,1.4,0.6,1.4,1.3v2.6h2.8v-2.6
					c0-0.7,0.6-1.3,1.4-1.3c0.8,0,1.4,0.6,1.4,1.3v2.6h2.8v-2.6c0-0.7,0.6-1.3,1.4-1.3c0.8,0,1.4,0.6,1.4,1.3v2.6h1.4
					c0.8,0,1.4-0.6,1.4-1.3V-201.7z M529.2-208.1c-2.5,0.1-4.8,1.4-6,3.5c-0.4,0.6-0.7,1.2-0.8,1.9c-0.1,0.3-0.1,0.7-0.1,1
					c0,1.5,1.2,2.9,2.8,3.2v-0.7c0-0.7,0.6-1.3,1.4-1.3c0.8,0,1.4,0.6,1.4,1.3v1.3c0,0.7,0.6,1.3,1.4,1.3c0.8,0,1.4-0.6,1.4-1.3
					v-1.3c0-0.7,0.6-1.3,1.4-1.3c0.8,0,1.4,0.6,1.4,1.3v0.7c1.6-0.4,2.7-1.7,2.8-3.2c0-0.3,0-0.7-0.1-1
					C535.2-205.7,532.5-207.9,529.2-208.1z M562.8-204.6c-1.2-2-3.5-3.4-6-3.5c-3.3,0.2-6.1,2.4-6.8,5.4c-0.1,0.3-0.1,0.7-0.1,1
					c0,1.5,1.2,2.9,2.8,3.2v-0.7c0-0.7,0.6-1.3,1.4-1.3c0.8,0,1.4,0.6,1.4,1.3v1.3c0,0.7,0.6,1.3,1.4,1.3c0.8,0,1.4-0.6,1.4-1.3
					v-1.3c0-0.7,0.6-1.3,1.4-1.3c0.8,0,1.4,0.6,1.4,1.3v0.7c1.6-0.4,2.7-1.7,2.8-3.2c0-0.3,0-0.7-0.1-1
					C563.5-203.3,563.2-204,562.8-204.6L562.8-204.6z M567.9-208.2c-0.6,1.1-1.4,2.2-2.3,3.2c0.1,0.3,0.3,0.5,0.4,0.8h4.1l10.1-9.4
					l-5-0.8L567.9-208.2z M520.8-228.4c0.1,0.1,0.1,0.3,0.1,0.5c0,0.2-0.1,0.5-0.2,0.7c-3.4,5.4-3.5,12.1-0.3,17.7c0,0,0,0.1,0,0.1
					l0,0l0,0c0.4,0.8,0.9,1.5,1.5,2.2c1.8-2,4.4-3.2,7.2-3.3c4.2,0.2,7.8,2.7,9.2,6.4h9.3c1.3-3.7,5-6.2,9.2-6.4
					c2.8,0.1,5.4,1.3,7.2,3.3c0.6-0.7,1.1-1.5,1.5-2.3c3.2-5.6,3.1-12.2-0.3-17.7c-0.2-0.3-0.2-0.7-0.1-1.1
					c2.3-5.6,3.7-12.2,2.7-13.1c-3.9,0-9,2.5-11.9,5c-0.4,0.3-1,0.4-1.5,0.2c-7.3-3.1-15.7-3.1-23,0c-0.5,0.2-1.1,0.1-1.5-0.2
					c-2.9-2.5-7.9-5-11.9-5C517.2-240.6,518.5-234,520.8-228.4z M505.8-213.6l10.1,9.4h4.1c0.1-0.3,0.2-0.5,0.4-0.8
					c-0.9-1-1.6-2.1-2.3-3.2l-7.3-6.2L505.8-213.6z"/>
				<path class="st1" d="M526.4-228.6c0-0.7,0.6-1.3,1.4-1.3c3.4-0.1,6.7,0.9,9.3,2.9c0.5,0.5,0.5,1.3,0,1.8c-0.5,0.5-1.4,0.5-2,0
					c-2.1-1.5-4.7-2.3-7.3-2.2C527-227.3,526.4-227.9,526.4-228.6z"/>
				<path class="st1" d="M548.6-225.5c-0.2-0.5-0.1-1,0.3-1.4c2.6-2,5.9-3.1,9.3-2.9c0.8,0,1.4,0.6,1.4,1.3c0,0.7-0.6,1.3-1.4,1.3
					c-2.7-0.1-5.3,0.7-7.3,2.2c-0.3,0.2-0.6,0.4-1,0.4C549.4-224.8,548.9-225.1,548.6-225.5z"/>
				<path class="st1" d="M538.3-218.8c-0.8-0.7-1-1.9-0.6-2.8c0.6-1.1,1.9-1.9,3.2-1.8h4.1c1.4,0,2.6,0.7,3.2,1.8
					c0.4,1,0.2,2.1-0.6,2.8l-2.1,2.1c-0.3,0.2-0.5,0.4-0.9,0.6c0.6,1.2,1.8,3,3.7,3c0.7,0,1.5-0.2,2-0.7c0.5-0.5,0.8-1.2,0.8-1.9
					c0-0.7,0.6-1.3,1.4-1.3c0.8,0,1.4,0.6,1.4,1.3c0,1.4-0.5,2.7-1.6,3.7c-1,1-2.5,1.5-4,1.5c-2.3-0.1-4.5-1.3-5.5-3.2
					c-1.1,1.9-3.2,3.2-5.5,3.2c-1.5,0-2.9-0.5-4-1.5c-1-1-1.6-2.3-1.6-3.7c0-0.7,0.6-1.3,1.4-1.3c0.8,0,1.4,0.6,1.4,1.3
					c0,0.7,0.2,1.4,0.8,1.9c0.5,0.5,1.3,0.7,2,0.7c2,0,3.1-1.8,3.7-3c-0.3-0.2-0.6-0.4-0.9-0.6L538.3-218.8z M540.2-220.6l2.1,2.1
					c0.4,0.3,0.9,0.3,1.3,0l2.1-2.1c0-0.1-0.2-0.3-0.6-0.3h-4.1C540.5-220.9,540.2-220.7,540.2-220.6z"/>
			</g>
			<g>
				<path class="st2" d="M294.2-389.3v-2c0-0.6,0.5-1,1.1-1s1.1,0.5,1.1,1v2c0,0.6-0.5,1-1.1,1S294.2-388.8,294.2-389.3z"/>
				<path class="st2" d="M310-389.3v-2c0-0.6,0.5-1,1.1-1s1.1,0.5,1.1,1v2c0,0.6-0.5,1-1.1,1S310-388.8,310-389.3z"/>
				<path class="st2" d="M265-406.5c1.4,2.2,3.9,3.4,5.7,4.1c-0.7-2-0.6-4.1-0.3-5.8c0.2-0.8,0.8-1.4,1.7-1.7c0.9-0.2,1.8,0,2.4,0.6
					c2.1,2.1,7.9,5.5,23.7,5.5c10.3,0,18.7,7.4,18.7,16.6v6.8c4.5,1.7,7.5,5.7,7.5,10.2c0,3.6-1.2,6.7-3.6,9.2c-2,2-4.7,3.6-8.2,4.7
					c-1.6,1.7-3.5,3.1-5.7,4.1v3.9c0,0.3,0.3,0.5,0.6,0.5h1.3c3,0,5.4,2.1,5.4,4.7c0,1-0.9,1.8-2,1.8c1.6,0-24.4,0-25.4,0
					c-1.1,0-2-0.8-2-1.8c0-2.1,1.5-3.9,3.8-4.5c0.3-0.1,0.5-0.3,0.5-0.5v-4.5c-2.1-1.1-4-2.5-5.5-4.3c-5.2,1.2-11,1.4-16.3,1.1
					c-2.8-0.1-4.8-2.6-3.9-5c1.3-3.7,3.5-9,7.1-13.5c2.8-3.5,5.9-5.9,9.3-7.2v-5.7c0-0.7,0.1-1.5,0.2-2.2c-6.2-0.1-11-1.5-14.2-4
					c-0.5-0.4-0.5-1-0.1-1.4c0.4-0.4,1.1-0.5,1.6-0.1c2.9,2.2,7.3,3.4,13.2,3.5c0.5-1.7,1.3-3.4,2.4-4.9c-3.9-0.1-8-1-10.4-3.7
					c-1.6-0.3-6.6-1.6-9.2-5.6c-0.1-0.1-0.2,0-0.2,0.1c-0.2,3.1,0.3,5.7,1.7,7.8c0.3,0.5,0.1,1.1-0.4,1.4s-1.2,0.1-1.5-0.4
					c-1.5-2.5-2.2-5.5-1.9-8.9c0.1-0.9,0.8-1.7,1.9-1.9C263.4-407.8,264.5-407.4,265-406.5L265-406.5z M296.8-350.4v2.1
					c0,0.3,0.3,0.5,0.6,0.5h1.7v-2.6C298.4-350.4,297.7-350.4,296.8-350.4z M289.2-345.7c-1.2,0.3-2.1,1.3-2.2,2.4h16.3
					c-0.1-1.1-0.9-2-2.1-2.3c-0.7-0.2-1.1-0.1-3.8-0.1c-1.6,0-2.9-1.1-2.9-2.5v-2.4c-1.1-0.2-2.3-0.5-3.3-0.9v3.5
					C291.2-347,290.4-346,289.2-345.7L289.2-345.7z M301.4-350.6v2.9c2.4,0.5,4.1,2.3,4.2,4.4h6.3c-0.1-1.4-1.5-2.5-3.1-2.5h-1.3
					c-1.6,0-2.9-1.1-2.9-2.5v-3C303.6-351,302.4-350.7,301.4-350.6z M322.2-370.2c0-3.3-2-6.4-5.2-7.9v11.2c0,2.5-0.6,5-2,7.5
					C319.8-361.8,322.2-365.4,322.2-370.2L322.2-370.2z M272.7-407.9c-1.3,6.6,2.8,9.6,10.6,9.6c1.5,0,2.5,1.5,1.6,2.7
					c-1.3,1.7-2.2,3.5-2.7,5.4c0,0,0,0,0,0c-0.2,1-0.3,2-0.3,3v5.1c8.4-1.9,15.2,2.7,16.2,9c0.4,2.8-0.2,6.4-2.2,9.2
					c-0.3,0.5-1,0.6-1.6,0.3c-0.5-0.3-0.7-0.9-0.4-1.4c1.3-1.8,2-4,2-6.6c0-5.8-5.9-10.2-13.1-8.7c-10.2,2.1-15.5,14.5-17.4,20.1
					c-0.4,1.2,0.5,2.3,1.9,2.4c7.7,0.4,17.9-0.2,23.9-4.5c0.5-0.3,1.2-0.3,1.6,0.1c0.4,0.4,0.3,1.1-0.2,1.4c-2,1.4-4.4,2.5-6.8,3.2
					c2.3,2.4,5.5,4.1,9,4.8c10.2,2,20-4.9,20-14.2v-20.3c0-8-7.4-14.6-16.5-14.6c-15.8,0-22.5-3.4-25.4-6.2
					C272.9-408,272.9-408,272.7-407.9C272.7-408,272.7-407.9,272.7-407.9L272.7-407.9z"/>
				<path class="st2" d="M303.9-377.1c-3.7,0-6.7-2.6-6.7-5.9v-2.1c0-3.3,3-5.9,6.7-5.9s6.7,2.6,6.7,5.9v2.1
					C310.5-379.8,307.6-377.1,303.9-377.1L303.9-377.1z M307.2-380.4c-0.5-1.2-1.8-1.7-3.3-1.7c-1.8,0-3.3-0.3-4.4-0.7
					c0.1,2.1,2,3.7,4.4,3.7C305.2-379.1,306.4-379.6,307.2-380.4z M303.9-389c-2.4,0-4.4,1.7-4.4,3.9l0.2,0.1c3,1.5,6-0.1,8.6,2.3
					c0-0.3,0-0.3,0-2.4C308.2-387.2,306.3-389,303.9-389L303.9-389z"/>
			</g>
			<g>
				<path class="st3" d="M623.4-640.2c0.4-5.3-3.7-10.1-9.1-10.8l2.4-34.4c5.5,0.1,10.1-3.9,10.5-9.2c0.4-5.5-4-10.4-9.7-10.9
					c-3-0.2-5.9,0.8-8.1,2.8c-1.8-2.3-4.6-3.8-7.6-4c-5.8-0.5-10.8,3.7-11.2,9.2c-0.4,5.3,3.7,10.1,9.1,10.8l-2.4,34.4
					c-5.5-0.1-10.1,3.9-10.5,9.2c-0.4,5.5,4,10.4,9.7,10.9c3,0.2,5.9-0.8,8.1-2.8c1.8,2.3,4.6,3.8,7.6,4
					C618-630.6,623.1-634.7,623.4-640.2z M604.3-636.4c-1.9,2.1-4.7,3.2-7.6,2.9c-5.1-0.4-8.9-4.7-8.5-9.6c0.3-4.9,4.7-8.5,9.8-8.1
					c0.3,0,0.6-0.2,0.7-0.6l2.5-35.5c0-0.3-0.2-0.6-0.6-0.7c-5.1-0.4-8.9-4.7-8.5-9.6c0.3-4.9,4.7-8.5,9.8-8.1
					c2.9,0.2,5.5,1.7,7.1,4.1c0.2,0.3,0.7,0.4,1,0.1c1.9-2.1,4.7-3.2,7.6-2.9c5.1,0.4,8.9,4.7,8.5,9.6c-0.3,4.9-4.7,8.5-9.8,8.1
					c-0.3,0-0.6,0.2-0.7,0.6l-2.5,35.5c0,0.3,0.2,0.6,0.6,0.7c5.1,0.4,8.9,4.7,8.5,9.6c-0.3,4.9-4.7,8.5-9.8,8.1
					c-2.9-0.2-5.5-1.7-7.1-4.1c-0.1-0.2-0.3-0.3-0.5-0.3C604.6-636.7,604.4-636.6,604.3-636.4z"/>
				<path class="st3" d="M662-664.5c0.7-10.4-7.4-19.5-18.2-20.4c-10.8-0.9-20.1,6.9-20.9,17.2c-0.7,10.4,7.4,19.5,18.2,20.4
					C651.9-646.4,661.2-654.1,662-664.5z M660.7-664.6c-0.7,9.7-9.5,16.9-19.5,16.1c-10.1-0.8-17.7-9.4-17-19.1s9.5-16.9,19.5-16.1
					C653.8-682.9,661.4-674.3,660.7-664.6z"/>
				<path class="st3" d="M656.1-652.4c0.2-0.2,0.3-0.6,0.1-0.8c-3.4-4.3-8.6-7-14.1-7.4c-5.5-0.4-11,1.4-15,5.1
					c-0.2,0.2-0.3,0.6-0.1,0.8c3.4,4.3,8.6,7,14.1,7.4C646.6-646.8,652.1-648.7,656.1-652.4z M642-659.4c5,0.4,9.7,2.8,12.8,6.5
					c-3.7,3.2-8.6,4.8-13.6,4.4c-5-0.4-9.7-2.8-12.8-6.5C632-658.2,636.9-659.8,642-659.4z"/>
				<path class="st3" d="M657.8-676.7c0.2-0.2,0.3-0.6,0.1-0.8c-3.4-4.3-8.6-7-14.1-7.4c-5.5-0.4-11,1.4-15,5.1
					c-0.2,0.2-0.3,0.6-0.1,0.8c3.4,4.3,8.6,7,14.1,7.4C648.4-671.1,653.8-673,657.8-676.7z M643.7-683.7c5,0.4,9.7,2.8,12.8,6.5
					c-3.7,3.2-8.6,4.8-13.6,4.4c-5-0.4-9.7-2.8-12.8-6.5C633.7-682.5,638.7-684.1,643.7-683.7z"/>
			</g>
			<g>
				<path class="st3" d="M623.4-40.2c0.4-5.3-3.6-10.1-9.1-10.8l2.5-34.4c5.5,0.1,10.1-3.9,10.5-9.2c0.4-5.5-4-10.4-9.7-10.9
					c-3-0.2-5.9,0.8-8.1,2.8c-1.8-2.3-4.5-3.8-7.6-4c-5.8-0.5-10.8,3.7-11.2,9.2c-0.4,5.3,3.6,10.1,9.1,10.8l-2.5,34.4
					c-5.5-0.1-10.1,3.9-10.5,9.2c-0.4,5.5,4,10.4,9.7,10.9c3,0.2,5.9-0.8,8.1-2.8c1.8,2.3,4.5,3.8,7.6,4
					C618-30.6,623-34.7,623.4-40.2z M604.3-36.5c-1.9,2.1-4.7,3.2-7.6,2.9c-5.1-0.4-8.9-4.7-8.5-9.6c0.4-4.9,4.8-8.5,9.8-8.1
					c0.3,0,0.7-0.2,0.7-0.6l2.6-35.5c0-0.3-0.2-0.6-0.6-0.7c-5.1-0.4-8.9-4.7-8.5-9.6c0.4-4.9,4.8-8.5,9.8-8.1
					c2.9,0.2,5.5,1.7,7.1,4.1c0.2,0.3,0.7,0.4,1,0.1c1.9-2.1,4.7-3.2,7.6-2.9c5.1,0.4,8.9,4.7,8.5,9.6c-0.4,4.9-4.8,8.5-9.8,8.1
					c-0.3,0-0.7,0.2-0.7,0.6L613-50.6c0,0.3,0.2,0.6,0.6,0.7c5.1,0.4,8.9,4.7,8.5,9.6c-0.4,4.9-4.8,8.5-9.8,8.1
					c-2.9-0.2-5.5-1.7-7.1-4.1c-0.1-0.2-0.3-0.3-0.5-0.3C604.6-36.7,604.4-36.6,604.3-36.5z"/>
				<path class="st3" d="M662-64.5c0.7-10.4-7.4-19.5-18.2-20.4c-10.8-0.9-20.2,6.9-20.9,17.2c-0.7,10.4,7.4,19.5,18.2,20.4
					C651.8-46.4,661.2-54.1,662-64.5z M660.7-64.6c-0.7,9.7-9.5,16.9-19.6,16.1c-10.1-0.8-17.7-9.4-17-19.1s9.5-16.9,19.6-16.1
					C653.8-82.9,661.4-74.3,660.7-64.6z"/>
				<path class="st3" d="M656.1-52.3c0.2-0.2,0.3-0.6,0.1-0.8c-3.4-4.3-8.6-7-14.1-7.5c-5.5-0.4-11,1.4-15,5.1
					c-0.2,0.2-0.3,0.6-0.1,0.8c3.4,4.3,8.6,7,14.1,7.4C646.6-46.8,652.1-48.7,656.1-52.3z M641.9-59.4c5,0.4,9.6,2.8,12.8,6.5
					c-3.7,3.2-8.6,4.8-13.6,4.4s-9.6-2.8-12.8-6.5C632-58.2,636.9-59.8,641.9-59.4z"/>
				<path class="st3" d="M657.8-76.6c0.2-0.2,0.3-0.6,0.1-0.8c-3.4-4.3-8.6-7-14.1-7.5c-5.5-0.4-11,1.4-15,5.1
					c-0.2,0.2-0.3,0.6-0.1,0.8c3.4,4.3,8.6,7,14.1,7.4C648.4-71.1,653.8-72.9,657.8-76.6z M643.7-83.7c5,0.4,9.6,2.8,12.8,6.5
					c-3.7,3.2-8.6,4.8-13.6,4.4c-5-0.4-9.6-2.8-12.8-6.5C633.8-82.5,638.7-84.1,643.7-83.7z"/>
			</g>
			<g>
				<g>
					<path class="st4" d="M183.5-371.9c0,1.5-1.2,2.7-2.7,2.7c-5.4,0-13.5,4.3-13.5,16.1c0,5.7,2.2,9.8,4.7,14.5
						c2.9,5.3,6.1,11.3,6.1,20.4c0,15.6-8.6,24.2-24.3,24.2H89c-1.5,0-2.7-1.2-2.7-2.7v-5.4c0-4.4,3.6-8.1,8.1-8.1h2.7v-23.5
						c-1.3-2.5-5.4-11.1-5.4-16.8c0-8.5,2.3-12.3,3.9-15c1-1.6,1.5-2.5,1.5-3.8v-1.4c0-4.6,0-8.5-0.5-9.2c0,0,0,0,0,0
						c-0.1,0-0.6-0.1-2.2-0.1c-7.3,0-18.9-3.6-18.9-13.4c0-3.5,3.3-5.9,6.2-7.9c1-0.7,2-1.4,2.6-2c0.6-0.6,1.2-1.5,1.9-2.6
						c1.9-2.8,4.2-6.3,8.1-6.3c0.8,0,2.7-3.9,2.7-8.1c0-1.5,1.2-2.7,2.7-2.7c8.2,0,11.9,8.2,13,11.5c2.7,1.3,8.6,5,8.6,12.7v26.9
						c0,3.4,8.1,10.6,13,14.9c2,1.7,3.8,3.4,5.1,4.7c0.9,0.9,2,1.8,3.1,2.8c5.9,5.1,13.9,12.1,13.9,25.9v10.8c0,5.3-2.2,10-5.7,13.4
						h3c12.7,0,18.9-6.2,18.9-18.8c0-7.8-2.6-12.7-5.4-17.9c-2.6-4.9-5.4-10-5.4-17c0-14,9.7-21.5,18.9-21.5
						C182.3-374.6,183.5-373.4,183.5-371.9z"/>
				</g>
			</g>
			<path class="st4" d="M494.2-457.9c0,0.1-0.2,0.3-0.2,0.3c-5.7,10.5-16.3,16.4-27.6,16.4c-1.1,0-2.4-0.1-3.6-0.2v60.8
				c7.8,12.1,22.5,33.7,22.6,33.9c0.8,1.1,0.8,2.5,0.1,3.7c-0.7,1.2-2,1.9-3.4,1.9H468c-1.3,0-2.5-0.6-3.3-1.6l-23.3-33.3l-1,0.1
				c0.4,3.6,0.1,9.1-3.4,15.4c7.4,1.6,15.7,6.1,15.7,15.8c0,2-1.7,3.6-3.9,3.6c0,0-73.8,0-74.2,0c-18.2,0-35-9.8-42.9-25.2
				c-0.9-1.8-0.1-4,1.8-4.8c1.9-0.9,4.3-0.1,5.2,1.7c6.8,13.1,21.2,21.4,36.8,21c0,0,0.1,0,0.1,0h3.3c-4.2-3.5-8.3-8.8-10.5-16.9
				c-3.7-13.8-1.1-28.5,7.4-41.4c9.3-14,24.3-24.3,41.6-28.5l24-61.6c0.6-1.5,2.1-2.4,3.8-2.4c1.7,0.1,3.1,1.1,3.6,2.6l2.8,9.1
				l4.5-4.7c1-1.1,2.7-1.5,4.1-1c1.5,0.5,2.5,1.7,2.6,3.1l0.9,10.1c5.5,1.3,9.7,5.5,10.8,10.7l17.3,6.5
				C494.1-461.9,495-459.8,494.2-457.9z"/>
			<path class="st4" d="M155.7-471c-5.9,0-11.4,3.5-13.6,9.2c-1.2,2.8-1.3,6.1-0.4,9.1c-4,0.7-7.5,3-9.7,6.5
				c-4.6,6.8-2.5,16.1,4.6,20.9c2.7,1.8,5.7,2.7,8.7,2.7c4.1,0,8.1-1.6,10.9-4.8l47.8,30.6c-2.9,7.6,1,16.4,8.8,19.7
				c1.9,0.8,3.9,1.2,5.9,1.2c5.9,0,11.4-3.5,13.6-9.2c1.2-2.8,1.3-6.1,0.4-9.1c8.1-1.5,13.3-9.2,11.5-17.5c-0.7-3.9-3.2-7.6-6.8-9.8
				c-2.6-1.7-5.5-2.5-8.4-2.5c-4,0-7.9,1.6-10.7,4.6l-47.8-30.6c2.9-7.6-1-16.4-8.8-19.7C159.6-470.6,157.6-471,155.7-471"/>
			<path class="st4" d="M333.3-273.1c-3.8,7.1-9.3,11.9-12.5,11.9c-0.4,0-0.8-0.1-1.2-0.3c-3.9-2.1-2.5-11.7-2.5-11.7
				c-2.3-1.1-4.8-1.8-7.4-2c0.5,2.6,0.2,5.6-2.6,7.5c-1,0.7-1.9,1-2.8,1c-2.9,0-4.7-3.9-5.3-7c-0.1-0.2-0.1-0.5-0.1-0.7
				c-0.1,0-0.3,0-0.4,0c-3.6,0-7.5-0.6-11.6-2.9c-7.8-4.2-14.2-17.9-8.5-28.6c0.4-0.9,0.9-1.8,1.4-2.7c2.7-3.3,9.7-5.8,16.3-5.8
				c0.7,0,1.4,0,2,0.1c2.1-1.8,4.4-3.2,6.7-4.1c2-0.7,4.4-1.3,6.6-1.3c3.4,0,6.3,1.4,6.3,5.9c0,4-2.5,6.4-5.3,7.7l0,0
				c0.9,1.3,1.7,2.7,2.5,4.4c1.8-0.7,4-1.4,5.9-1.4c2.8,0,5.1,1.3,4.9,5.2c-0.2,4.1-3,6.5-5.9,7.8c1.5,2.4,2.7,2.5,4.5,3.5l0-0.1
				c0,0,6.4-3.8,10.7-3.8c0.8,0,1.6,0.1,2.3,0.5C341.2-287.8,335.4-277.1,333.3-273.1z M287.9-307.6c-0.2-0.1-0.5-0.2-0.8-0.2
				c-0.9,0-2,0.7-2.5,1.8c-0.8,1.5-0.5,3.1,0.5,3.7c0.2,0.1,0.5,0.2,0.8,0.2c0.9,0,2-0.7,2.5-1.8C289.2-305.4,289-307,287.9-307.6z"
				/>
			<path class="st4" d="M408.9-619.8c1.6,1,3.3,1.5,5,1.6C412.3-618.3,410.6-618.8,408.9-619.8 M408.4-632.6c-0.9,0-1.7,0.2-2.6,0.6
				c-0.4,0.2-1.2,0.9-1.6,1.3c-0.9,1.5-0.9,3.7-0.1,5.6c0.5,1.2,1.8,2.8,2.9,3.8c2.1,1.9,4.7,3,7.1,3c0.6,0,1.1-0.1,1.7-0.2
				c0.8-0.2,1.2-0.4,1.7-0.8c0.9-0.8,1.4-1.9,1.5-3.3c0.1-0.8,0-1.3-0.2-2.1c-0.4-1.7-1.4-3.2-2.9-4.7c-2.1-1.9-4.3-3-6.6-3.2
				C409-632.6,408.7-632.6,408.4-632.6"/>
			<path class="st4" d="M414.2-618.2c-2.4,0-5-1.1-7.1-3c-1.1-1-2.4-2.7-2.9-3.8c-0.9-1.8-0.8-4,0.1-5.6c0.4-0.4,1.2-1.1,1.6-1.3
				c0.9-0.4,1.7-0.6,2.6-0.6c0.3,0,0.6,0,0.9,0.1c2.3,0.2,4.5,1.3,6.6,3.2c1.6,1.5,2.6,3.1,2.9,4.7c0.2,0.8,0.3,1.3,0.2,2.1
				c-0.1,1.4-0.6,2.5-1.5,3.3c-0.5,0.4-0.9,0.6-1.7,0.8C415.3-618.3,414.8-618.2,414.2-618.2 M408.4-632.6c-0.9,0-1.7,0.2-2.6,0.6
				l0,0c-0.4,0.2-1.2,0.9-1.6,1.3c-0.9,1.5-0.9,3.7-0.1,5.6c0.5,1.2,1.8,2.8,2.9,3.8c0.6,0.5,1.2,1,1.9,1.4c1.6,1,3.3,1.5,5,1.6
				c0.1,0,0.2,0,0.2,0c0.6,0,1.1-0.1,1.7-0.2c0.8-0.2,1.2-0.4,1.7-0.8c0.9-0.8,1.4-1.9,1.5-3.3c0.1-0.8,0-1.3-0.2-2.1
				c-0.4-1.7-1.4-3.2-2.9-4.7c-2.1-1.9-4.3-3-6.6-3.2C409-632.6,408.7-632.6,408.4-632.6"/>
			<path class="st4" d="M426.5-626.8c-0.4,0.1-0.8,0.2-1.2,0.2C425.7-626.6,426.1-626.7,426.5-626.8 M416.6-639.2
				c-0.4,1.3-0.3,2.7,0,4.2C416.3-636.5,416.3-638,416.6-639.2 M420.9-643c-0.6,0-1.3,0.1-1.8,0.3c-0.5,0.2-1.4,1-1.7,1.6
				c-1.4,2.3-1.3,5.3,0.2,8.5c0.5,1,1,1.9,1.8,2.8c1.3,1.6,2.7,2.5,4.4,3c0.4,0.1,0.8,0.2,1.2,0.2c1.4,0,2.7-0.6,3.4-1.5
				c0.6-0.9,1.1-2.2,1.2-3.5c0.3-3.1-1-6.5-3.6-9c-0.4-0.5-0.9-0.9-1.2-1.1C423.6-642.5,422.2-643,420.9-643"/>
			<path class="st4" d="M425-626.6c-0.4,0-0.8,0-1.2-0.2c-1.7-0.5-3.1-1.4-4.4-3c-0.8-0.9-1.3-1.8-1.8-2.8c-1.5-3.1-1.6-6.2-0.2-8.5
				c0.3-0.7,1.2-1.4,1.7-1.6c0.6-0.2,1.2-0.3,1.8-0.3c1.3,0,2.6,0.5,3.9,1.4c0.2,0.2,0.8,0.6,1.2,1.1c2.5,2.5,3.9,5.9,3.6,9
				c-0.1,1.2-0.5,2.6-1.2,3.5C427.7-627.1,426.3-626.6,425-626.6 M420.9-643c-0.6,0-1.3,0.1-1.8,0.3c-0.5,0.2-1.4,1-1.7,1.7
				c-0.3,0.6-0.6,1.1-0.8,1.8c-0.3,1.3-0.3,2.7,0,4.2c0.2,0.8,0.5,1.7,0.9,2.5c0.5,1,1,1.9,1.8,2.8c1.3,1.6,2.7,2.5,4.4,3
				c0.4,0.1,0.8,0.2,1.2,0.2c0.1,0,0.2,0,0.3,0c0.4,0,0.9-0.1,1.2-0.2c0.8-0.2,1.4-0.7,1.9-1.2c0.6-0.9,1.1-2.2,1.2-3.5
				c0.3-3.1-1-6.5-3.6-9c-0.4-0.5-0.9-0.9-1.2-1.1C423.6-642.5,422.2-643,420.9-643"/>
			<path class="st4" d="M410.1-615.5c0.7,0,1.4,0.1,2,0.2c2,0.5,3.6,1.4,5.2,2.7c0.9,0.8,1.2,1.2,1.7,1.9c0.8,1.3,1.1,2.6,1,3.7
				c-0.1,0.8-0.2,1.4-0.7,2c-0.9,1.2-2.7,2-4.7,2c-0.2,0-0.4,0-0.6,0c-1.5-0.1-3.5-0.7-4.9-1.6c-1.2-0.8-2.6-2-3.3-3.1
				c-0.7-1-1.1-2.2-1.2-3.1c0-0.3,0-1.2,0.2-1.6c0.2-1,1-1.8,2-2.4C407.7-615.2,408.9-615.5,410.1-615.5"/>
			<path class="st4" d="M414.5-602.9c-0.2,0-0.4,0-0.6,0c-1.5-0.1-3.5-0.7-4.9-1.6c-1.2-0.8-2.6-2-3.3-3.1c-0.7-1-1.1-2.2-1.2-3.1
				c0-0.3,0-1.2,0.2-1.6c0.2-1,1-1.8,2-2.4c1-0.5,2.2-0.8,3.4-0.8c0.7,0,1.4,0.1,2,0.2c2,0.5,3.6,1.4,5.2,2.7
				c0.9,0.8,1.2,1.2,1.7,1.9c0.8,1.3,1.1,2.6,1,3.7c-0.1,0.8-0.2,1.4-0.7,2C418.3-603.7,416.5-602.9,414.5-602.9 M410.1-615.5
				c-1.2,0-2.4,0.3-3.5,0.8c-1,0.5-1.7,1.4-2,2.4c-0.2,0.5-0.2,1.3-0.2,1.6c0.1,1,0.5,2.1,1.2,3.1c0.7,1,2.1,2.3,3.3,3.1
				c1.4,0.8,3.4,1.5,4.9,1.6c0.2,0,0.4,0,0.6,0c2,0,3.8-0.7,4.7-2c0.5-0.7,0.6-1.2,0.7-2c0.2-1.1-0.2-2.4-1-3.7
				c-0.5-0.7-0.8-1.1-1.7-1.9c-1.6-1.4-3.2-2.3-5.2-2.7C411.5-615.4,410.8-615.5,410.1-615.5"/>
			<path class="st4" d="M442.6-623c-0.3,0.2-0.5,0.3-0.8,0.4C442-622.7,442.3-622.8,442.6-623 M438.2-638.3c-0.8,0-1.7,0.2-2.4,0.7
				v0c-0.3,0.2-0.9,0.8-1.2,1.2c-0.6,0.7-1,2.1-1.2,3.8c-0.2,2.3,0.3,4.4,1.5,6.4c0.1,0.1,0.1,0.2,0.1,0.2c0.3,0.5,0.5,0.8,1,1.3
				c1.4,1.5,2.4,2.1,3.8,2.3c0.2,0,0.5,0,0.7,0c1.4,0,2.5-0.6,3.3-1.8c0.7-1.2,1.1-2.3,1.3-3.8c0.2-2.2-0.4-4.5-1.7-6.5
				c-0.7-1.1-1.6-2.1-2.8-2.9C439.9-638.1,439.1-638.3,438.2-638.3 M438.2-638.3c-0.2,0-0.3,0-0.5,0
				C437.8-638.3,438-638.3,438.2-638.3c0.3,0,0.6,0,0.9,0.1C438.8-638.3,438.5-638.3,438.2-638.3"/>
			<path class="st4" d="M440.6-622.4c-0.2,0-0.4,0-0.7,0c-1.4-0.2-2.4-0.8-3.8-2.3c-0.6-0.5-0.7-0.9-1-1.3c0-0.1-0.1-0.1-0.1-0.2
				c-1.2-1.9-1.7-4.1-1.5-6.4c0.2-1.7,0.6-3.1,1.2-3.8c0.2-0.3,0.9-1,1.2-1.2v0c0.8-0.5,1.6-0.7,2.4-0.7c0.9,0,1.7,0.3,2.5,0.8
				c1.2,0.8,2.1,1.8,2.8,2.9c1.3,2,1.8,4.3,1.7,6.5c-0.2,1.6-0.5,2.7-1.3,3.8C443.1-623.1,442-622.4,440.6-622.4 M438.2-638.3
				c-0.2,0-0.3,0-0.5,0c-0.7,0.1-1.3,0.3-1.9,0.7c-0.3,0.2-0.9,0.8-1.2,1.2c-0.6,0.7-1,2.1-1.2,3.8c-0.2,2.3,0.3,4.4,1.5,6.4
				c0.1,0.1,0.1,0.2,0.1,0.2c0.3,0.5,0.5,0.8,1,1.3c1.4,1.5,2.4,2.1,3.8,2.3c0.2,0,0.5,0,0.7,0c0.4,0,0.8-0.1,1.2-0.2
				c0.3-0.1,0.6-0.2,0.8-0.4c0.5-0.3,0.9-0.8,1.3-1.3c0.7-1.2,1.1-2.3,1.3-3.8c0.2-2.2-0.4-4.5-1.7-6.5c-0.7-1.1-1.6-2.1-2.8-2.9
				c-0.5-0.3-1-0.6-1.6-0.7C438.8-638.3,438.5-638.3,438.2-638.3"/>
			<path class="st4" d="M434.3-620.8c1.1,0,2.1,0.1,3.1,0.4c2.8,0.7,5.5,1.7,7.8,3c1.5,0.8,3.3,2.2,3.9,2.8c1.2,1.4,1.5,3.6,0.7,5.3
				c-0.3,0.6-0.8,1.1-1.5,1.6c-1.1,0.8-2,1.2-4.5,2c-2.7,0.9-3.3,1.2-4.7,2c-1.8,1.2-2.8,2.4-4.3,5.3c-1.4,2.7-1.8,3.2-2.6,3.9
				c-1,0.8-2.1,1.3-3.2,1.3c-0.8,0-1.5-0.2-2.1-0.6c-0.6-0.4-1.6-1.6-2-2.3c-0.9-1.7-1.4-3.6-1.7-6c-0.8-5.2-0.7-8.5,0.2-11.5
				c0.4-1.4,1-2.5,1.7-3.4c0.4-0.6,1.7-1.7,2.2-2C429.4-620.1,431.9-620.8,434.3-620.8"/>
			<path class="st4" d="M429.1-593.1c-0.8,0-1.5-0.2-2.1-0.6c-0.6-0.4-1.6-1.6-2-2.3c-0.9-1.7-1.4-3.6-1.7-6
				c-0.8-5.2-0.7-8.5,0.2-11.5c0.4-1.4,1-2.5,1.7-3.4c0.4-0.6,1.7-1.7,2.2-2c2-1.3,4.5-1.9,7-1.9c1.1,0,2.1,0.1,3.1,0.4
				c2.8,0.7,5.5,1.7,7.8,3c1.5,0.8,3.3,2.2,3.9,2.8c1.2,1.4,1.5,3.6,0.7,5.3c-0.3,0.6-0.8,1.1-1.5,1.6c-1.1,0.8-2,1.2-4.5,2
				c-2.7,0.9-3.3,1.2-4.7,2c-1.8,1.2-2.8,2.4-4.3,5.3c-1.4,2.7-1.8,3.2-2.6,3.9C431.3-593.5,430.1-593.1,429.1-593.1 M434.3-620.8
				c-0.7,0-1.4,0.1-2.1,0.2c-1.7,0.3-3.4,0.9-4.8,1.8c-0.5,0.4-1.8,1.5-2.2,2c-0.8,0.9-1.3,2-1.7,3.4c-0.9,3-0.9,6.4-0.2,11.5
				c0.3,2.3,0.9,4.2,1.7,6c0.4,0.7,1.4,1.9,2,2.3c0.6,0.4,1.4,0.6,2.1,0.6c1.1,0,2.2-0.4,3.2-1.3c0.9-0.7,1.3-1.2,2.6-3.9
				c1.5-3,2.5-4.2,4.3-5.3c1.3-0.9,2-1.1,4.7-2c2.5-0.9,3.4-1.3,4.5-2c0.7-0.5,1.2-1.1,1.5-1.6c0.8-1.7,0.5-3.9-0.7-5.3
				c-0.6-0.6-2.4-2-3.9-2.8c-2.4-1.3-5-2.3-7.8-3C436.4-620.7,435.4-620.8,434.3-620.8"/>
			<path class="st4" d="M492.8-561.1c-2.6,1.6-5.4,2.5-8,2.6C487.4-558.6,490.2-559.5,492.8-561.1 M493.6-582c1.5,0,2.8,0.3,4.2,1
				c0.6,0.4,1.9,1.5,2.5,2.2c1.4,2.5,1.5,6.1,0.1,9.1c-0.9,1.9-2.9,4.6-4.7,6.3c-3.5,3.2-7.6,4.9-11.4,4.9c-0.9,0-1.8-0.1-2.7-0.3
				c-1.3-0.3-2-0.7-2.8-1.3c-1.5-1.4-2.3-3.2-2.4-5.4c-0.1-1.3,0-2.1,0.4-3.5c0.6-2.7,2.2-5.3,4.7-7.7c3.3-3.1,6.9-4.9,10.6-5.3
				C492.6-581.9,493.1-582,493.6-582"/>
			<path class="st4" d="M484.3-558.5c3.9,0,8-1.7,11.4-4.9c1.8-1.7,3.8-4.4,4.7-6.3c1.4-3,1.3-6.6-0.1-9.1c-0.7-0.7-1.9-1.8-2.5-2.2
				c-1.4-0.7-2.7-1-4.2-1c-0.5,0-1,0-1.5,0.1c-3.7,0.4-7.2,2.1-10.6,5.3c-2.5,2.4-4.1,5-4.7,7.7c-0.4,1.4-0.5,2.2-0.4,3.5
				c0.1,2.2,0.9,4,2.4,5.4c0.8,0.6,1.5,1,2.8,1.3C482.5-558.6,483.4-558.5,484.3-558.5 M493.6-582c1.5,0,2.8,0.3,4.2,1l0,0
				c0.6,0.4,1.9,1.5,2.5,2.2c1.4,2.5,1.5,6.1,0.1,9.1c-0.9,1.9-2.9,4.6-4.7,6.3c-1,0.9-2,1.7-3,2.3c-2.6,1.6-5.4,2.5-8,2.6
				c-0.1,0-0.2,0-0.4,0c-0.9,0-1.8-0.1-2.7-0.3c-1.3-0.3-2-0.7-2.8-1.3c-1.5-1.4-2.3-3.2-2.4-5.4c-0.1-1.3,0-2.1,0.4-3.5
				c0.6-2.7,2.2-5.3,4.7-7.7c3.3-3.1,6.9-4.9,10.6-5.3C492.6-582,493.1-582,493.6-582"/>
			<path class="st4" d="M464.5-572.5c0.6,0.2,1.3,0.3,2,0.4C465.9-572.2,465.2-572.3,464.5-572.5 M480.5-592.8
				c0.6,2.1,0.6,4.4,0,6.8C481-588.5,481-590.8,480.5-592.8 M473.5-599c1,0,2,0.2,2.9,0.6c0.9,0.4,2.3,1.6,2.8,2.7
				c2.3,3.8,2.2,8.7-0.3,13.8c-0.8,1.7-1.7,3.1-2.9,4.6c-2.1,2.5-4.4,4.1-7.1,4.9c-0.6,0.2-1.3,0.3-1.9,0.3c-2.2,0-4.4-0.9-5.5-2.4
				c-1-1.4-1.8-3.6-1.9-5.6c-0.5-5,1.7-10.7,5.7-14.7c0.6-0.8,1.5-1.5,1.9-1.8C469.3-598.2,471.5-599,473.5-599"/>
			<path class="st4" d="M467-572.2c0.6,0,1.3-0.1,1.9-0.3c2.7-0.8,5-2.3,7.1-4.9c1.3-1.5,2.2-2.9,2.9-4.6c2.4-5.1,2.5-10,0.3-13.8
				c-0.5-1.1-1.9-2.3-2.8-2.7c-0.9-0.4-1.9-0.6-2.9-0.6c-2.1,0-4.3,0.8-6.2,2.2c-0.4,0.3-1.3,1-1.9,1.8c-4,4.1-6.2,9.7-5.7,14.7
				c0.1,2,0.9,4.2,1.9,5.6C462.7-573.1,464.9-572.2,467-572.2 M473.5-599c1,0,2,0.2,2.9,0.6c0.9,0.4,2.3,1.6,2.8,2.7
				c0.5,0.9,0.9,1.9,1.2,2.9c0.6,2.1,0.6,4.4,0,6.8c-0.3,1.4-0.8,2.7-1.5,4.2c-0.8,1.7-1.7,3.1-2.9,4.6c-2.1,2.5-4.4,4.1-7.1,4.9
				c-0.6,0.2-1.3,0.3-1.9,0.3c-0.2,0-0.3,0-0.5,0c-0.7,0-1.4-0.2-2-0.4c-1.2-0.4-2.3-1.1-3-2c-1-1.4-1.8-3.7-1.9-5.6
				c-0.5-5,1.7-10.7,5.7-14.7c0.6-0.8,1.5-1.5,1.9-1.8C469.3-598.2,471.5-599,473.5-599"/>
			<path class="st4" d="M490.9-554.1c-1.1,0-2.2,0.1-3.2,0.4c-3.1,0.8-5.8,2.2-8.3,4.5c-1.4,1.3-1.9,1.9-2.7,3.1
				c-1.2,2.1-1.8,4.2-1.5,6c0.1,1.3,0.3,2.2,1.1,3.3c1.4,2,4.3,3.2,7.5,3.2c0.3,0,0.6,0,0.9,0c2.4-0.1,5.7-1.2,7.9-2.6
				c2-1.2,4.2-3.3,5.3-5c1.1-1.6,1.8-3.5,1.9-5.1c0-0.5,0-1.9-0.3-2.7c-0.4-1.6-1.5-3-3.2-3.8C494.8-553.6,492.9-554.1,490.9-554.1"
				/>
			<path class="st4" d="M483.8-533.5c0.3,0,0.6,0,0.9,0c2.4-0.1,5.7-1.2,7.9-2.6c2-1.2,4.2-3.3,5.3-5c1.1-1.6,1.8-3.5,1.9-5.1
				c0-0.5,0-1.9-0.3-2.7c-0.4-1.6-1.5-3-3.2-3.8c-1.6-0.9-3.6-1.3-5.5-1.3c-1.1,0-2.2,0.1-3.2,0.4c-3.1,0.8-5.8,2.2-8.3,4.5
				c-1.4,1.3-1.9,1.9-2.7,3.1c-1.2,2.1-1.8,4.2-1.5,6c0.1,1.3,0.3,2.2,1.1,3.3C477.7-534.8,480.6-533.5,483.8-533.5 M490.9-554.1
				c2,0,3.9,0.4,5.5,1.3c1.6,0.9,2.8,2.3,3.2,3.9c0.3,0.8,0.3,2.2,0.3,2.7c-0.1,1.6-0.8,3.5-1.9,5.1c-1.2,1.7-3.4,3.8-5.3,5
				c-2.2,1.4-5.5,2.4-7.9,2.6c-0.3,0-0.6,0-0.9,0c-3.2,0-6.1-1.2-7.5-3.2c-0.8-1.1-1-2-1.1-3.3c-0.2-1.8,0.3-4,1.5-6
				c0.8-1.2,1.3-1.8,2.7-3.1c2.5-2.3,5.1-3.7,8.3-4.5C488.7-554,489.8-554.1,490.9-554.1"/>
			<path class="st4" d="M438.8-566.3c0.4,0.3,0.8,0.5,1.3,0.6C439.7-565.8,439.2-566,438.8-566.3 M445.8-591.4
				c1.3,0,2.7,0.4,3.9,1.1v0c0.5,0.3,1.5,1.4,1.9,1.9c0.9,1.2,1.6,3.4,1.9,6.1c0.3,3.8-0.6,7.3-2.4,10.4c-0.1,0.1-0.2,0.3-0.2,0.4
				c-0.5,0.8-0.8,1.3-1.7,2.2c-2.2,2.5-3.8,3.5-6.1,3.7c-0.4,0.1-0.7,0.1-1.1,0.1c-2.3,0-4.1-1-5.3-3c-1.2-1.9-1.8-3.7-2-6.3
				c-0.3-3.7,0.7-7.3,2.7-10.6c1.1-1.8,2.5-3.4,4.5-4.7C443.1-590.9,444.4-591.4,445.8-591.4 M445.8-591.4c0.3,0,0.6,0,0.8,0.1
				C446.4-591.3,446.1-591.4,445.8-591.4c-0.5,0-1,0.1-1.4,0.2C444.9-591.3,445.3-591.4,445.8-591.4"/>
			<path class="st4" d="M442-565.4c0.4,0,0.7,0,1.1-0.1c2.3-0.3,3.9-1.3,6.1-3.7c0.9-0.9,1.2-1.4,1.7-2.2c0.1-0.1,0.1-0.2,0.2-0.4
				c1.9-3.1,2.7-6.6,2.4-10.4c-0.3-2.7-1-5-1.9-6.1c-0.4-0.5-1.4-1.7-1.9-1.9v0c-1.2-0.8-2.6-1.1-3.9-1.1c-1.4,0-2.8,0.4-4,1.3
				c-1.9,1.4-3.4,2.9-4.5,4.7c-2,3.3-2.9,7-2.7,10.6c0.3,2.6,0.8,4.4,2,6.3C438-566.4,439.8-565.4,442-565.4 M445.8-591.4
				c0.3,0,0.6,0,0.8,0.1c1,0.1,2.1,0.5,3.1,1.1c0.5,0.3,1.5,1.4,1.9,1.9c0.9,1.2,1.6,3.4,1.9,6.2c0.3,3.8-0.6,7.3-2.4,10.4
				c-0.1,0.1-0.2,0.3-0.2,0.4c-0.5,0.8-0.8,1.3-1.7,2.2c-2.2,2.5-3.8,3.5-6.1,3.7c-0.4,0.1-0.7,0.1-1.1,0.1c-0.7,0-1.3-0.1-1.9-0.3
				c-0.5-0.1-0.9-0.3-1.3-0.6c-0.8-0.5-1.5-1.2-2.1-2.2c-1.2-1.9-1.8-3.7-2-6.3c-0.3-3.7,0.7-7.4,2.7-10.6c1.1-1.8,2.5-3.4,4.5-4.7
				c0.8-0.5,1.7-0.9,2.5-1.1C444.9-591.3,445.3-591.4,445.8-591.4"/>
			<path class="st4" d="M452-562.8c-1.7,0-3.4,0.2-5,0.6c-4.6,1.1-8.8,2.8-12.6,4.9c-2.4,1.4-5.3,3.6-6.2,4.6
				c-2,2.4-2.4,5.9-1.1,8.7c0.5,0.9,1.3,1.8,2.4,2.7c1.8,1.3,3.2,1.9,7.2,3.3c4.3,1.5,5.3,1.9,7.5,3.3c2.9,1.9,4.5,3.9,6.9,8.7
				c2.2,4.4,2.8,5.3,4.2,6.4c1.6,1.4,3.4,2.1,5.1,2.1c1.2,0,2.4-0.3,3.4-1c0.9-0.6,2.6-2.6,3.2-3.7c1.4-2.8,2.3-5.9,2.8-9.7
				c1.2-8.4,1.2-13.9-0.3-18.8c-0.6-2.2-1.6-4-2.8-5.5c-0.7-0.9-2.7-2.7-3.6-3.3C460-561.7,456-562.8,452-562.8"/>
			<path class="st4" d="M460.5-517.4c1.2,0,2.4-0.3,3.4-1c0.9-0.6,2.6-2.6,3.2-3.7c1.4-2.8,2.3-5.9,2.8-9.7
				c1.2-8.4,1.2-13.9-0.3-18.8c-0.6-2.2-1.6-4-2.8-5.5c-0.7-0.9-2.7-2.7-3.6-3.3c-3.2-2.1-7.2-3.2-11.2-3.2c-1.7,0-3.4,0.2-5,0.6
				c-4.6,1.1-8.8,2.8-12.6,4.9c-2.4,1.4-5.3,3.6-6.2,4.6c-2,2.4-2.4,5.9-1.1,8.7c0.5,0.9,1.3,1.8,2.4,2.7c1.8,1.3,3.2,1.9,7.2,3.3
				c4.3,1.5,5.3,1.9,7.5,3.3c2.9,1.9,4.5,3.9,6.9,8.7c2.2,4.4,2.8,5.3,4.2,6.4C456.9-518.1,458.7-517.4,460.5-517.4 M452.1-562.8
				c1.1,0,2.3,0.1,3.4,0.3c2.8,0.5,5.5,1.5,7.7,2.9c0.9,0.6,2.9,2.4,3.6,3.3c1.2,1.5,2.2,3.3,2.8,5.5c1.4,5,1.5,10.4,0.3,18.8
				c-0.5,3.8-1.4,6.9-2.8,9.7c-0.6,1.1-2.3,3.1-3.2,3.7c-1,0.7-2.2,1-3.4,1c-1.7,0-3.6-0.7-5.1-2.1c-1.4-1.1-2-2-4.2-6.4
				c-2.4-4.8-3.9-6.8-6.9-8.7c-2.2-1.4-3.2-1.8-7.5-3.3c-4.1-1.4-5.5-2.1-7.3-3.3c-1.1-0.9-2-1.8-2.4-2.7c-1.3-2.8-0.8-6.4,1.1-8.7
				c0.9-1,3.9-3.2,6.2-4.6c3.8-2.1,8-3.8,12.6-4.9C448.7-562.6,450.4-562.8,452.1-562.8"/>
			<path class="st5" d="M379.4-295.9c2.1,1.3,4.3,2,6.4,2C383.6-293.9,381.4-294.6,379.4-295.9 M378.7-312.2c-1.2,0-2.2,0.2-3.4,0.8
				c-0.5,0.3-1.5,1.2-2,1.7c-1.2,2-1.2,4.7-0.1,7.1c0.7,1.5,2.3,3.6,3.7,4.9c2.7,2.5,6,3.8,9.1,3.8c0.7,0,1.4-0.1,2.1-0.2
				c1-0.2,1.6-0.5,2.2-1c1.2-1.1,1.8-2.5,1.9-4.2c0.1-1,0-1.6-0.3-2.7c-0.5-2.1-1.7-4.1-3.7-6c-2.7-2.4-5.5-3.8-8.4-4.1
				C379.5-312.1,379.1-312.2,378.7-312.2"/>
			<path class="st5" d="M386.1-293.9c-3.1,0-6.4-1.4-9.1-3.8c-1.4-1.3-3.1-3.4-3.7-4.9c-1.1-2.3-1-5.1,0.1-7.1
				c0.5-0.5,1.5-1.4,2-1.7c1.1-0.5,2.2-0.8,3.4-0.8c0.4,0,0.8,0,1.2,0.1c2.9,0.3,5.7,1.7,8.4,4.1c2,1.9,3.3,3.9,3.7,6
				c0.3,1.1,0.4,1.7,0.3,2.7c-0.1,1.7-0.7,3.1-1.9,4.2c-0.7,0.5-1.2,0.8-2.2,1C387.5-294,386.8-293.9,386.1-293.9 M378.7-312.2
				c-1.2,0-2.2,0.2-3.4,0.8l0,0c-0.5,0.3-1.5,1.2-2,1.7c-1.2,2-1.2,4.8-0.1,7.1c0.7,1.5,2.3,3.6,3.7,4.9c0.8,0.7,1.6,1.3,2.4,1.8
				c2.1,1.3,4.3,2,6.4,2c0.1,0,0.2,0,0.3,0c0.7,0,1.4-0.1,2.1-0.2c1-0.2,1.6-0.5,2.2-1c1.2-1.1,1.8-2.5,1.9-4.2c0.1-1,0-1.6-0.3-2.7
				c-0.5-2.1-1.7-4.1-3.7-6c-2.7-2.4-5.5-3.8-8.4-4.1C379.5-312.2,379.1-312.2,378.7-312.2"/>
			<path class="st5" d="M401.8-304.8c-0.5,0.2-1,0.3-1.6,0.3C400.8-304.5,401.3-304.6,401.8-304.8 M389.1-320.6
				c-0.4,1.6-0.4,3.4,0,5.3C388.7-317.2,388.7-319,389.1-320.6 M394.7-325.4c-0.8,0-1.6,0.1-2.3,0.4c-0.7,0.3-1.8,1.3-2.2,2.1
				c-1.8,3-1.7,6.8,0.2,10.8c0.6,1.3,1.3,2.4,2.3,3.6c1.7,2,3.5,3.2,5.7,3.8c0.5,0.1,1,0.2,1.5,0.2c1.7,0,3.5-0.7,4.3-1.9
				c0.8-1.1,1.4-2.8,1.5-4.4c0.4-3.9-1.3-8.3-4.6-11.5c-0.5-0.6-1.2-1.2-1.5-1.4C398.1-324.8,396.3-325.4,394.7-325.4"/>
			<path class="st5" d="M399.9-304.5c-0.5,0-1-0.1-1.5-0.2c-2.2-0.6-4-1.8-5.7-3.8c-1-1.2-1.7-2.3-2.3-3.6c-1.9-4-2-7.8-0.2-10.8
				c0.4-0.8,1.5-1.8,2.2-2.1c0.7-0.3,1.5-0.4,2.3-0.4c1.6,0,3.4,0.6,5,1.7c0.3,0.2,1,0.8,1.5,1.4c3.2,3.2,5,7.6,4.6,11.5
				c-0.1,1.6-0.7,3.3-1.5,4.4C403.3-305.2,401.6-304.5,399.9-304.5 M394.7-325.4c-0.8,0-1.6,0.1-2.3,0.4c-0.7,0.3-1.8,1.3-2.2,2.1
				c-0.4,0.7-0.8,1.5-1,2.3c-0.4,1.6-0.4,3.4,0,5.3c0.2,1.1,0.6,2.1,1.2,3.2c0.6,1.3,1.3,2.4,2.3,3.6c1.7,2,3.5,3.2,5.7,3.8
				c0.5,0.1,1,0.2,1.5,0.2c0.1,0,0.3,0,0.4,0c0.5,0,1.1-0.1,1.6-0.3c1-0.3,1.8-0.9,2.4-1.6c0.8-1.1,1.4-2.8,1.5-4.4
				c0.4-3.9-1.3-8.3-4.6-11.5c-0.5-0.6-1.2-1.2-1.5-1.4C398.1-324.8,396.3-325.4,394.7-325.4"/>
			<path class="st5" d="M380.9-290.4c0.9,0,1.7,0.1,2.6,0.3c2.5,0.6,4.6,1.7,6.6,3.5c1.1,1,1.5,1.5,2.1,2.4c1,1.6,1.4,3.3,1.2,4.7
				c-0.1,1-0.3,1.8-0.9,2.6c-1.1,1.6-3.4,2.5-6,2.5c-0.2,0-0.5,0-0.7,0c-1.9-0.1-4.5-0.9-6.3-2c-1.6-1-3.3-2.6-4.3-3.9
				c-0.9-1.3-1.4-2.8-1.5-4c0-0.4,0-1.5,0.2-2.1c0.3-1.2,1.2-2.3,2.5-3C377.7-290.1,379.3-290.4,380.9-290.4"/>
			<path class="st5" d="M386.5-274.4c-0.2,0-0.5,0-0.7,0c-1.9-0.1-4.5-0.9-6.3-2c-1.6-1-3.3-2.6-4.3-3.9c-0.9-1.3-1.4-2.8-1.5-4
				c0-0.4,0-1.5,0.2-2.1c0.3-1.2,1.2-2.3,2.5-3c1.3-0.7,2.8-1,4.4-1c0.9,0,1.7,0.1,2.6,0.3c2.5,0.6,4.6,1.7,6.6,3.5
				c1.1,1,1.5,1.5,2.1,2.4c1,1.6,1.4,3.3,1.2,4.7c-0.1,1-0.3,1.8-0.9,2.6C391.3-275.3,389-274.4,386.5-274.4 M380.9-290.4
				c-1.6,0-3.1,0.3-4.4,1c-1.3,0.7-2.2,1.8-2.5,3c-0.2,0.6-0.2,1.7-0.2,2.1c0.1,1.2,0.7,2.7,1.5,4c0.9,1.3,2.7,2.9,4.3,3.9
				c1.7,1.1,4.4,1.9,6.3,2c0.2,0,0.5,0,0.7,0c2.5,0,4.8-1,6-2.5c0.6-0.8,0.8-1.6,0.9-2.6c0.2-1.4-0.2-3.1-1.2-4.7
				c-0.6-0.9-1-1.4-2.1-2.4c-2-1.8-4.1-2.9-6.6-3.5C382.6-290.3,381.7-290.4,380.9-290.4"/>
			<path class="st5" d="M422.3-299.9c-0.3,0.2-0.7,0.4-1,0.5C421.6-299.6,422-299.7,422.3-299.9 M416.7-319.5c-1,0-2.1,0.3-3.1,0.9
				v0c-0.4,0.2-1.2,1.1-1.5,1.5c-0.7,0.9-1.3,2.7-1.5,4.8c-0.2,2.9,0.4,5.7,1.9,8.1c0.1,0.1,0.1,0.2,0.2,0.3c0.4,0.6,0.6,1,1.3,1.7
				c1.7,1.9,3.1,2.7,4.9,2.9c0.3,0,0.6,0.1,0.9,0.1c1.8,0,3.2-0.8,4.2-2.4c1-1.5,1.4-2.9,1.6-4.9c0.2-2.9-0.5-5.7-2.1-8.3
				c-0.9-1.4-2-2.6-3.5-3.7C418.9-319.1,417.8-319.5,416.7-319.5 M416.7-319.5c-0.2,0-0.4,0-0.7,0
				C416.3-319.5,416.5-319.5,416.7-319.5c0.4,0,0.8,0,1.1,0.1C417.5-319.4,417.1-319.5,416.7-319.5"/>
			<path class="st5" d="M419.8-299.2c-0.3,0-0.6,0-0.9-0.1c-1.8-0.2-3.1-1-4.9-2.9c-0.7-0.7-1-1.1-1.3-1.7c-0.1-0.1-0.1-0.2-0.2-0.3
				c-1.5-2.4-2.1-5.2-1.9-8.1c0.2-2.1,0.8-3.9,1.5-4.8c0.3-0.4,1.1-1.3,1.5-1.5v0c1-0.6,2.1-0.9,3.1-0.9c1.1,0,2.2,0.3,3.2,1
				c1.5,1.1,2.7,2.3,3.5,3.7c1.6,2.6,2.3,5.4,2.1,8.3c-0.2,2-0.7,3.4-1.6,4.9C423-300,421.5-299.2,419.8-299.2 M416.7-319.5
				c-0.2,0-0.4,0-0.7,0c-0.8,0.1-1.7,0.4-2.4,0.8c-0.4,0.2-1.2,1.1-1.5,1.5c-0.7,0.9-1.3,2.7-1.5,4.8c-0.2,2.9,0.4,5.7,1.9,8.1
				c0.1,0.1,0.1,0.2,0.2,0.3c0.4,0.6,0.6,1,1.3,1.7c1.7,1.9,3.1,2.7,4.9,2.9c0.3,0,0.6,0.1,0.9,0.1c0.5,0,1-0.1,1.5-0.2
				c0.4-0.1,0.7-0.3,1-0.5c0.6-0.4,1.2-1,1.6-1.7c1-1.5,1.4-2.9,1.6-4.9c0.2-2.9-0.5-5.7-2.1-8.3c-0.9-1.4-2-2.6-3.5-3.7
				c-0.6-0.4-1.3-0.7-2-0.9C417.5-319.4,417.1-319.5,416.7-319.5"/>
			<path class="st5" d="M411.8-297.2c1.3,0,2.7,0.2,4,0.5c3.6,0.9,7,2.1,10,3.8c1.9,1.1,4.2,2.8,5,3.6c1.6,1.8,1.9,4.6,0.9,6.8
				c-0.4,0.7-1,1.4-1.9,2.1c-1.4,1-2.5,1.5-5.8,2.6c-3.5,1.2-4.3,1.5-6,2.6c-2.3,1.5-3.6,3-5.5,6.8c-1.7,3.4-2.2,4.1-3.3,5
				c-1.2,1.1-2.7,1.6-4.1,1.6c-1,0-1.9-0.3-2.7-0.8c-0.7-0.5-2-2-2.5-2.9c-1.1-2.2-1.8-4.6-2.2-7.6c-1-6.6-0.9-10.8,0.2-14.7
				c0.5-1.7,1.2-3.1,2.2-4.3c0.5-0.7,2.2-2.1,2.8-2.6C405.4-296.3,408.6-297.2,411.8-297.2"/>
			<path class="st5" d="M405.1-261.8c-1,0-1.9-0.3-2.7-0.8c-0.7-0.5-2-2-2.5-2.9c-1.1-2.2-1.8-4.6-2.2-7.6c-1-6.6-0.9-10.8,0.2-14.7
				c0.5-1.7,1.2-3.1,2.2-4.3c0.5-0.7,2.2-2.1,2.8-2.6c2.6-1.6,5.8-2.5,8.9-2.5c1.3,0,2.7,0.2,4,0.5c3.6,0.9,7,2.1,10,3.8
				c1.9,1.1,4.2,2.8,5,3.6c1.6,1.8,1.9,4.6,0.9,6.8c-0.4,0.7-1,1.4-1.9,2.1c-1.4,1-2.5,1.5-5.8,2.6c-3.5,1.2-4.3,1.5-6,2.6
				c-2.3,1.5-3.6,3-5.5,6.8c-1.7,3.4-2.2,4.1-3.3,5C407.9-262.3,406.4-261.8,405.1-261.8 M411.7-297.2c-0.9,0-1.8,0.1-2.7,0.2
				c-2.2,0.4-4.4,1.1-6.2,2.3c-0.7,0.5-2.3,1.9-2.8,2.6c-1,1.2-1.7,2.6-2.2,4.3c-1.1,3.9-1.2,8.1-0.2,14.7c0.4,3,1.1,5.4,2.2,7.6
				c0.5,0.9,1.8,2.4,2.5,2.9c0.8,0.5,1.7,0.8,2.7,0.8c1.4,0,2.8-0.5,4.1-1.6c1.1-0.9,1.6-1.6,3.3-5c1.9-3.8,3.1-5.3,5.5-6.8
				c1.7-1.1,2.5-1.4,6-2.6c3.2-1.1,4.4-1.6,5.8-2.6c0.9-0.7,1.6-1.4,1.9-2.1c1-2.2,0.7-5-0.9-6.8c-0.7-0.8-3.1-2.5-5-3.6
				c-3-1.7-6.4-2.9-10-3.8C414.5-297,413.1-297.2,411.7-297.2"/>
			<path class="st5" d="M381.9-241.6c-1.6,1-3.4,1.5-5,1.5C378.6-240.2,380.3-240.7,381.9-241.6 M382.5-253.8c0.9,0,1.8,0.2,2.7,0.6
				c0.4,0.2,1.2,0.9,1.6,1.3c0.9,1.5,0.9,3.5,0.1,5.3c-0.5,1.1-1.8,2.7-3,3.7c-2.2,1.8-4.7,2.9-7.2,2.9c-0.6,0-1.1-0.1-1.7-0.2
				c-0.8-0.2-1.2-0.4-1.8-0.7c-0.9-0.8-1.4-1.8-1.5-3.1c-0.1-0.8,0-1.2,0.2-2c0.4-1.6,1.4-3.1,3-4.5c2.1-1.8,4.3-2.8,6.6-3.1
				C381.8-253.8,382.2-253.8,382.5-253.8"/>
			<path class="st5" d="M376.6-240.1c2.4,0,5-1,7.2-2.9c1.1-1,2.4-2.6,3-3.7c0.9-1.8,0.8-3.8-0.1-5.3c-0.4-0.4-1.2-1-1.6-1.3
				c-0.9-0.4-1.7-0.6-2.7-0.6c-0.3,0-0.6,0-0.9,0.1c-2.3,0.2-4.5,1.3-6.6,3.1c-1.6,1.4-2.6,2.9-3,4.5c-0.2,0.8-0.3,1.3-0.2,2
				c0.1,1.3,0.6,2.3,1.5,3.1c0.5,0.4,0.9,0.6,1.8,0.7C375.5-240.2,376.1-240.1,376.6-240.1 M382.5-253.8c0.9,0,1.8,0.2,2.7,0.6l0,0
				c0.4,0.2,1.2,0.9,1.6,1.3c0.9,1.5,0.9,3.6,0.1,5.3c-0.5,1.1-1.8,2.7-3,3.7c-0.6,0.5-1.2,1-1.9,1.4c-1.6,0.9-3.4,1.5-5,1.5
				c-0.1,0-0.2,0-0.2,0c-0.6,0-1.1-0.1-1.7-0.2c-0.8-0.2-1.2-0.4-1.8-0.7c-0.9-0.8-1.4-1.9-1.5-3.1c-0.1-0.8,0-1.2,0.2-2
				c0.4-1.6,1.4-3.1,3-4.5c2.1-1.8,4.3-2.8,6.6-3.1C381.8-253.8,382.2-253.8,382.5-253.8"/>
			<path class="st5" d="M364.2-248.3c0.4,0.1,0.8,0.2,1.3,0.2C365-248.1,364.6-248.2,364.2-248.3 M374.2-260.1c0.4,1.2,0.3,2.6,0,4
				C374.6-257.6,374.6-258.9,374.2-260.1 M369.9-263.7c0.6,0,1.3,0.1,1.8,0.3c0.5,0.2,1.4,0.9,1.8,1.6c1.4,2.2,1.4,5.1-0.2,8.1
				c-0.5,1-1,1.8-1.8,2.7c-1.3,1.5-2.8,2.4-4.5,2.8c-0.4,0.1-0.8,0.1-1.2,0.1c-1.4,0-2.7-0.5-3.4-1.4c-0.6-0.8-1.1-2.1-1.2-3.3
				c-0.3-2.9,1.1-6.2,3.6-8.6c0.4-0.4,0.9-0.9,1.2-1C367.2-263.3,368.6-263.7,369.9-263.7"/>
			<path class="st5" d="M365.8-248.1c0.4,0,0.8,0,1.2-0.1c1.7-0.5,3.1-1.4,4.5-2.8c0.8-0.9,1.4-1.7,1.8-2.7c1.5-3,1.6-5.9,0.2-8.1
				c-0.3-0.6-1.2-1.4-1.8-1.6c-0.6-0.2-1.2-0.3-1.8-0.3c-1.3,0-2.7,0.4-3.9,1.3c-0.3,0.2-0.8,0.6-1.2,1c-2.5,2.4-3.9,5.7-3.6,8.6
				c0.1,1.2,0.5,2.5,1.2,3.3C363.1-248.6,364.4-248.1,365.8-248.1 M369.9-263.7c0.6,0,1.3,0.1,1.8,0.3c0.5,0.2,1.4,1,1.8,1.6
				c0.3,0.5,0.6,1.1,0.8,1.7c0.3,1.2,0.3,2.6,0,4c-0.2,0.8-0.5,1.6-0.9,2.4c-0.5,1-1,1.8-1.8,2.7c-1.3,1.5-2.8,2.4-4.5,2.8
				c-0.4,0.1-0.8,0.1-1.2,0.1c-0.1,0-0.2,0-0.3,0c-0.4,0-0.9-0.1-1.3-0.2c-0.8-0.2-1.4-0.6-1.9-1.2c-0.7-0.8-1.1-2.1-1.2-3.3
				c-0.3-2.9,1.1-6.2,3.6-8.6c0.4-0.4,0.9-0.9,1.2-1C367.2-263.3,368.6-263.7,369.9-263.7"/>
			<path class="st5" d="M380.8-237.5c-0.7,0-1.4,0.1-2,0.2c-2,0.5-3.6,1.3-5.2,2.6c-0.9,0.7-1.2,1.1-1.7,1.8c-0.8,1.2-1.1,2.4-1,3.5
				c0.1,0.8,0.2,1.3,0.7,1.9c0.9,1.2,2.7,1.9,4.7,1.9c0.2,0,0.4,0,0.6,0c1.5-0.1,3.6-0.7,4.9-1.5c1.2-0.7,2.6-1.9,3.4-2.9
				c0.7-0.9,1.1-2.1,1.2-3c0-0.3,0-1.1-0.2-1.6c-0.2-0.9-1-1.7-2-2.2C383.2-237.3,382-237.5,380.8-237.5"/>
			<path class="st5" d="M376.3-225.6c0.2,0,0.4,0,0.6,0c1.5-0.1,3.6-0.7,4.9-1.5c1.2-0.7,2.6-1.9,3.4-2.9c0.7-0.9,1.1-2.1,1.2-3
				c0-0.3,0-1.1-0.2-1.6c-0.2-0.9-1-1.7-2-2.2c-1-0.5-2.2-0.8-3.5-0.8c-0.7,0-1.4,0.1-2,0.2c-2,0.5-3.6,1.3-5.2,2.6
				c-0.9,0.7-1.2,1.1-1.7,1.8c-0.8,1.2-1.1,2.4-1,3.5c0.1,0.8,0.2,1.3,0.7,1.9C372.5-226.3,374.3-225.6,376.3-225.6 M380.8-237.5
				c1.2,0,2.5,0.3,3.5,0.8c1,0.5,1.8,1.3,2,2.2c0.2,0.4,0.2,1.3,0.2,1.6c-0.1,0.9-0.5,2-1.2,3c-0.7,1-2.1,2.2-3.4,2.9
				c-1.4,0.8-3.5,1.4-5,1.5c-0.2,0-0.4,0-0.6,0c-2,0-3.8-0.7-4.7-1.9c-0.5-0.6-0.6-1.2-0.7-1.9c-0.2-1.1,0.2-2.3,1-3.5
				c0.5-0.7,0.8-1.1,1.7-1.8c1.6-1.3,3.2-2.2,5.2-2.6C379.4-237.5,380.1-237.5,380.8-237.5"/>
			<path class="st5" d="M348.1-244.6c0.3,0.1,0.5,0.3,0.8,0.4C348.6-244.4,348.3-244.5,348.1-244.6 M352.5-259.3
				c0.8,0,1.7,0.2,2.4,0.7v0c0.3,0.1,0.9,0.8,1.2,1.1c0.6,0.7,1,2,1.2,3.6c0.2,2.2-0.3,4.2-1.5,6.1c-0.1,0.1-0.1,0.2-0.1,0.2
				c-0.3,0.5-0.5,0.8-1.1,1.3c-1.4,1.4-2.4,2-3.8,2.2c-0.2,0-0.5,0-0.7,0c-1.4,0-2.5-0.6-3.3-1.8c-0.7-1.1-1.1-2.1-1.3-3.7
				c-0.2-2.1,0.4-4.3,1.7-6.2c0.7-1.1,1.6-2,2.8-2.8C350.8-259,351.6-259.3,352.5-259.3 M352.5-259.3c0.2,0,0.4,0,0.5,0
				C352.8-259.3,352.7-259.3,352.5-259.3c-0.3,0-0.6,0-0.9,0.1C351.9-259.3,352.2-259.3,352.5-259.3"/>
			<path class="st5" d="M350.1-244.1c0.2,0,0.5,0,0.7,0c1.4-0.1,2.5-0.7,3.8-2.2c0.6-0.5,0.8-0.8,1.1-1.3c0-0.1,0.1-0.1,0.1-0.2
				c1.2-1.8,1.7-3.9,1.5-6.1c-0.2-1.6-0.6-2.9-1.2-3.6c-0.2-0.3-0.9-1-1.2-1.1v0c-0.8-0.4-1.6-0.7-2.4-0.7c-0.9,0-1.7,0.2-2.5,0.7
				c-1.2,0.8-2.1,1.7-2.8,2.8c-1.3,1.9-1.8,4.1-1.7,6.2c0.2,1.5,0.5,2.5,1.3,3.7C347.6-244.7,348.7-244.1,350.1-244.1 M352.5-259.3
				c0.2,0,0.3,0,0.5,0c0.7,0.1,1.3,0.3,1.9,0.6c0.3,0.1,0.9,0.8,1.2,1.1c0.6,0.7,1,2,1.2,3.6c0.2,2.2-0.3,4.2-1.5,6.1
				c-0.1,0.1-0.1,0.2-0.1,0.2c-0.3,0.5-0.5,0.8-1.1,1.3c-1.4,1.4-2.4,2-3.8,2.2c-0.2,0-0.5,0-0.7,0c-0.4,0-0.8-0.1-1.2-0.2
				c-0.3-0.1-0.6-0.2-0.8-0.4c-0.5-0.3-0.9-0.7-1.3-1.3c-0.7-1.1-1.1-2.2-1.3-3.7c-0.2-2.1,0.4-4.3,1.7-6.2c0.7-1.1,1.6-2,2.8-2.8
				c0.5-0.3,1-0.5,1.6-0.6C351.9-259.3,352.2-259.3,352.5-259.3"/>
			<path class="st5" d="M356.4-242.6c-1.1,0-2.1,0.1-3.1,0.4c-2.9,0.7-5.5,1.6-7.9,2.8c-1.5,0.8-3.3,2.1-3.9,2.7
				c-1.2,1.4-1.5,3.5-0.7,5.1c0.3,0.5,0.8,1.1,1.5,1.6c1.1,0.7,2,1.1,4.5,1.9c2.7,0.9,3.4,1.1,4.7,1.9c1.8,1.1,2.8,2.3,4.3,5.1
				c1.4,2.6,1.8,3.1,2.6,3.7c1,0.8,2.1,1.2,3.2,1.2c0.8,0,1.5-0.2,2.1-0.6c0.6-0.4,1.6-1.5,2-2.2c0.9-1.7,1.4-3.5,1.8-5.7
				c0.8-4.9,0.7-8.1-0.2-11c-0.4-1.3-1-2.3-1.8-3.2c-0.4-0.5-1.7-1.6-2.2-1.9C361.4-242,358.9-242.6,356.4-242.6"/>
			<path class="st5" d="M361.7-216.2c0.8,0,1.5-0.2,2.1-0.6c0.6-0.4,1.6-1.5,2-2.2c0.9-1.7,1.4-3.5,1.8-5.7c0.8-4.9,0.7-8.1-0.2-11
				c-0.4-1.3-1-2.3-1.8-3.2c-0.4-0.5-1.7-1.6-2.2-1.9c-2-1.2-4.5-1.9-7-1.9c-1.1,0-2.1,0.1-3.1,0.4c-2.9,0.7-5.5,1.6-7.9,2.8
				c-1.5,0.8-3.3,2.1-3.9,2.7c-1.2,1.4-1.5,3.5-0.7,5.1c0.3,0.5,0.8,1.1,1.5,1.6c1.1,0.7,2,1.1,4.5,1.9c2.7,0.9,3.4,1.1,4.7,1.9
				c1.8,1.1,2.8,2.3,4.3,5.1c1.4,2.6,1.8,3.1,2.6,3.7C359.4-216.6,360.6-216.2,361.7-216.2 M356.4-242.6c0.7,0,1.4,0.1,2.1,0.2
				c1.8,0.3,3.4,0.9,4.9,1.7c0.5,0.4,1.8,1.4,2.2,1.9c0.8,0.9,1.4,1.9,1.8,3.2c0.9,2.9,0.9,6.1,0.2,11c-0.3,2.2-0.9,4-1.8,5.7
				c-0.4,0.7-1.4,1.8-2,2.2c-0.6,0.4-1.4,0.6-2.1,0.6c-1.1,0-2.2-0.4-3.2-1.2c-0.9-0.7-1.3-1.2-2.6-3.7c-1.5-2.8-2.5-4-4.3-5.1
				c-1.4-0.8-2-1-4.7-1.9c-2.5-0.8-3.4-1.2-4.6-1.9c-0.7-0.5-1.2-1-1.5-1.6c-0.8-1.6-0.5-3.7,0.7-5.1c0.6-0.6,2.4-1.9,3.9-2.7
				c2.4-1.2,5-2.2,7.9-2.8C354.3-242.5,355.3-242.6,356.4-242.6"/>
			<g>
				<path class="st4" d="M513.7-454.4c0.1,1,0.2,2,0.4,2.9c0.2,1.4,0.6,2.7,1.1,3.9c1.3,4.1,3.6,7.6,6.4,10.6
					c0.6,0.6,1.2,1.2,1.8,1.7l-0.3,0.1c-1.9,0.8-3.9,1.1-5.9,1.1c-6.8,0-13.2-4.5-15.7-11.8c-0.6-1.8,0.2-3.9,2.1-4.7L513.7-454.4"
					/>
				<path class="st4" d="M581.1-392.7l-0.2,0c-3.6,1.5-7.2,2.2-10.7,2.2c-2,0-4-0.2-5.9-0.6c-5.5-1.4-9.5-4.8-11.3-9.5
					c-1.7-4.7-0.9-10.2,2.5-15.1c3.2-4.7,7.9-8.5,13.5-10.8l0.2,0c3.7-1.5,7.4-2.3,10.9-2.3c5.3-0.1,10,1.5,13.4,4.7
					c0.8,0.6,1.1,1.4,1.2,2.4c0,1-0.4,2-0.9,2.7l-2.2,2.7l3.2,0.4c0.9,0,1.7,0.4,2.1,1.4c0.6,0.8,1,1.6,0.8,2.6
					C596.7-404.1,590.3-396.5,581.1-392.7 M529.6-453c-1.4,0-2.7-0.9-3.2-2.4c-0.7-1.9,0.2-4,2-4.7c0.4-0.2,0.8-0.2,1.2-0.2
					c1.4,0,2.7,0.9,3.2,2.4c0.7,1.9-0.2,4-2,4.7C530.4-453.1,530-453,529.6-453 M539.9-486c-3.1,0-6.2,0.6-9.2,1.9
					c-6,2.5-11.1,7.3-14.2,13.4c-2.5,5.3-3.5,11.1-2.9,16.9c0.1,1,0.3,2,0.5,2.9c0.2,1.4,0.6,2.6,1.2,3.9c1.4,4.1,3.7,7.5,6.5,10.6
					c0.6,0.6,1.2,1.2,1.8,1.7c0.8,0.7,1.7,1.3,2.6,1.9c-3.3,6.4-4.8,13.5-4.5,21.1c0.2,4.5,1,9.2,2.6,13.7
					c3.5,10.2,10.6,18.1,20.5,22.7c3.2,1.5,10.6,4.5,20.8,4.4c6.3-0.1,13.6-1.3,21.6-4.8c9.2-4,16.9-9.2,22.9-14.9
					c5.8-5.6,10.3-12.2,13.1-19.1c6.3-15.8,2.9-30.1,0.4-37.2c-4.1-11.5-11-19-16.9-18.9c-0.9,0-1.7,0.2-2.6,0.5
					c-3,1.3-5.4,4.3-8.8,8.5c-3.9,4.9-8.8,11.1-15,13.6c-2.4,1-5,1.4-7.3,1.4c-3.6,0-6.8-0.9-8.8-2.1c3.5-7.2,4-15.8,1.3-23.5
					c0-0.2-0.2-0.4-0.2-0.6c-3.1-7.9-9.2-13.8-16.2-16.4C546-485.5,542.9-486,539.9-486"/>
			</g>
			<g>
				<path class="st1" d="M150.9-254.2c-0.4-0.4-0.6-1-0.4-1.5c0.2-0.5,0.7-0.9,1.3-1l9.9-1.5c0.5-0.1,1,0.1,1.4,0.4l4.5,3.8
					c-1.5-5.8-0.6-11.9,2.5-17.1c-1.2-3-5.3-14-2.6-17.5c0.6-0.8,1.6-1.3,2.7-1.3c5.4,0,11.7,3,15.6,6c9-3.5,19.2-3.5,28.3,0
					c3.9-3,10.2-6,15.6-6c1.1,0,2.1,0.5,2.7,1.3c2.6,3.5-1.4,14.4-2.6,17.5c2.1,3.6,3.2,7.6,3.2,11.6c0,1.9-0.2,3.7-0.7,5.5l4.5-3.8
					c0.4-0.3,0.9-0.4,1.4-0.4l9.9,1.5c0.6,0.1,1.1,0.5,1.3,1c0.2,0.5,0,1.1-0.4,1.5L234.6-241v37.1c0,2.5-2.2,4.5-5,4.5h-59.4
					c-2.7,0-5-2-5-4.5V-241L150.9-254.2z M231.3-240.1H228c0,3.7-2.8,6.3-7.6,7.2c-0.9,1.2-2.4,1.9-4,1.9c-1.6,0-3.1-0.7-4-1.9
					c-4.8-0.9-7.6-3.5-7.6-7.2H195c0,3.7-2.8,6.3-7.6,7.2c-0.9,1.2-2.4,1.9-4,1.9s-3.1-0.7-4-1.9c-4.8-0.9-7.6-3.5-7.6-7.2h-3.3
					v36.3c0,0.8,0.7,1.5,1.7,1.5h1.7v-3c0-0.8,0.7-1.5,1.7-1.5c0.9,0,1.7,0.7,1.7,1.5v3h3.3v-3c0-0.8,0.7-1.5,1.7-1.5
					c0.9,0,1.7,0.7,1.7,1.5v3h3.3v-3c0-0.8,0.7-1.5,1.7-1.5c0.9,0,1.7,0.7,1.7,1.5v3h3.3v-3c0-0.8,0.7-1.5,1.7-1.5
					c0.9,0,1.7,0.7,1.7,1.5v3h3.3v-3c0-0.8,0.7-1.5,1.7-1.5c0.9,0,1.7,0.7,1.7,1.5v3h3.3v-3c0-0.8,0.7-1.5,1.7-1.5
					c0.9,0,1.7,0.7,1.7,1.5v3h3.3v-3c0-0.8,0.7-1.5,1.7-1.5c0.9,0,1.7,0.7,1.7,1.5v3h3.3v-3c0-0.8,0.7-1.5,1.7-1.5
					c0.9,0,1.7,0.7,1.7,1.5v3h3.3v-3c0-0.8,0.7-1.5,1.7-1.5c0.9,0,1.7,0.7,1.7,1.5v3h1.7c0.9,0,1.6-0.7,1.7-1.5V-240.1z
					 M183.5-247.7c-3,0.2-5.7,1.7-7.1,4.1c-0.5,0.7-0.8,1.5-1,2.3c-0.1,0.4-0.1,0.8-0.1,1.2c0,1.8,1.4,3.4,3.3,3.8v-0.8
					c0-0.8,0.7-1.5,1.7-1.5c0.9,0,1.7,0.7,1.7,1.5v1.5c0,0.8,0.7,1.5,1.7,1.5s1.7-0.7,1.7-1.5v-1.5c0-0.8,0.7-1.5,1.7-1.5
					c0.9,0,1.7,0.7,1.7,1.5v0.8c1.9-0.5,3.3-2,3.3-3.8c0-0.4-0.1-0.8-0.1-1.2C190.7-244.9,187.4-247.5,183.5-247.7z M223.6-243.6
					c-1.4-2.4-4.1-4-7.1-4.1c-3.9,0.2-7.2,2.8-8.1,6.4c-0.1,0.4-0.1,0.8-0.1,1.2c0,1.8,1.4,3.4,3.3,3.8v-0.8c0-0.8,0.7-1.5,1.7-1.5
					c0.9,0,1.7,0.7,1.7,1.5v1.5c0,0.8,0.7,1.5,1.7,1.5c0.9,0,1.7-0.7,1.7-1.5v-1.5c0-0.8,0.7-1.5,1.7-1.5c0.9,0,1.7,0.7,1.7,1.5v0.8
					c1.9-0.5,3.3-2,3.3-3.8c0-0.4-0.1-0.8-0.1-1.2C224.4-242.1,224.1-242.9,223.6-243.6L223.6-243.6z M229.7-247.8
					c-0.8,1.3-1.7,2.6-2.7,3.7c0.2,0.3,0.3,0.6,0.4,1h4.9l12.1-11.1l-6-0.9L229.7-247.8z M173.5-271.6c0.1,0.2,0.1,0.4,0.1,0.5
					c0,0.3-0.1,0.5-0.2,0.8c-4.1,6.4-4.2,14.3-0.4,20.8c0,0,0,0.1,0,0.1l0,0l0,0c0.5,0.9,1.1,1.7,1.8,2.6c2.1-2.4,5.3-3.8,8.6-3.9
					c5,0.2,9.4,3.2,11,7.6h11.1c1.6-4.3,5.9-7.3,11-7.6c3.4,0.1,6.5,1.5,8.6,3.9c0.7-0.9,1.3-1.7,1.8-2.7c1.8-3.1,2.8-6.6,2.8-10.1
					c0-3.8-1.1-7.5-3.1-10.7c-0.2-0.4-0.3-0.9-0.1-1.3c2.7-6.6,4.4-14.3,3.2-15.4c-4.7,0-10.7,3-14.2,5.9c-0.5,0.4-1.2,0.5-1.8,0.3
					c-8.7-3.6-18.7-3.6-27.5,0c-0.6,0.3-1.3,0.2-1.8-0.3c-3.5-2.9-9.5-5.8-14.2-5.8C169.1-286,170.8-278.2,173.5-271.6z
					 M155.5-254.2l12.1,11.1h4.9c0.1-0.3,0.3-0.6,0.4-1c-1-1.2-1.9-2.4-2.7-3.7l-8.8-7.3L155.5-254.2z"/>
				<path class="st1" d="M181.8-265.8c0-0.4,0.2-0.8,0.5-1.1c1.4-1.3,3.1-2.2,5-2.7c-1.2-0.5-2.5-0.7-3.8-0.7
					c-0.9,0-1.7-0.7-1.7-1.5c0-0.8,0.7-1.5,1.7-1.5c3.5,0.1,6.9,1.3,9.4,3.5c0.5,0.4,0.6,1.1,0.4,1.6c-0.3,0.6-0.9,0.9-1.5,0.9
					c-2.6,0.1-5.1,1-7.1,2.6c-0.3,0.3-0.7,0.4-1.2,0.4s-0.9-0.2-1.2-0.4C182-265,181.8-265.4,181.8-265.8z"/>
				<path class="st1" d="M206.7-268.3c-0.3-0.6-0.1-1.2,0.4-1.6c2.6-2.2,5.9-3.4,9.4-3.5c0.9,0,1.7,0.7,1.7,1.5
					c0,0.8-0.7,1.5-1.7,1.5c-1.3,0-2.6,0.2-3.9,0.7c1.9,0.5,3.6,1.5,5,2.7c0.6,0.6,0.6,1.5,0,2.1c-0.6,0.6-1.7,0.6-2.3,0
					c-2-1.6-4.5-2.5-7.1-2.6C207.6-267.3,207-267.7,206.7-268.3z"/>
				<path class="st1" d="M198.3-258v-0.6c-0.6-0.2-1.1-0.5-1.5-0.9l-2.5-2.4c-0.9-0.9-1.2-2.2-0.7-3.3c0.7-1.4,2.2-2.2,3.9-2.1h4.9
					c1.6-0.1,3.1,0.8,3.9,2.1c0.5,1.1,0.3,2.4-0.7,3.3l-2.5,2.4c-0.4,0.4-1,0.7-1.5,0.9v0.6c3,1,5,4.7,5,7.3c0,3-2.2,4.5-6.6,4.5
					c-4.4,0-6.6-1.5-6.6-4.5C193.4-253.3,195.3-257,198.3-258z M200-255.3c-1.6,0-3.3,2.7-3.3,4.5c0,0.7,0,1.5,3.3,1.5
					s3.3-0.8,3.3-1.5C203.3-252.6,201.6-255.3,200-255.3z M199.2-261.5c0.5,0.3,1.1,0.3,1.5,0l2.5-2.4c0-0.1-0.2-0.4-0.8-0.4h-4.9
					c-0.6,0-0.8,0.3-0.8,0.3L199.2-261.5z"/>
			</g>
			<path class="st4" d="M23-204.8c5,3,10.4,4.6,15.5,4.7C33.3-200.3,27.9-201.9,23-204.8 M21.3-242.9c-2.9,0-5.4,0.6-8.2,1.8
				c-1.2,0.7-3.6,2.8-4.9,4C5.4-232.5,5.3-226,8-220.5c1.7,3.4,5.6,8.4,9.1,11.4c6.7,5.8,14.6,8.9,22.1,8.9c1.8,0,3.5-0.2,5.2-0.5
				c2.5-0.5,3.8-1.2,5.4-2.3c2.9-2.5,4.4-5.8,4.6-9.8c0.2-2.4,0-3.8-0.8-6.3c-1.2-4.9-4.3-9.7-9.1-14c-6.5-5.7-13.3-8.9-20.4-9.6
				C23.1-242.9,22.2-242.9,21.3-242.9"/>
			<path class="st4" d="M77.4-225.8c-1.2,0.4-2.5,0.6-3.9,0.7C74.9-225.2,76.2-225.4,77.4-225.8 M46.6-262.8c-1.1,3.8-1.1,8,0,12.4
				C45.5-254.8,45.5-259,46.6-262.8 M60-274.1c-2,0-3.9,0.3-5.7,1c-1.7,0.7-4.4,3-5.4,4.9c-4.3,6.9-4.2,15.9,0.5,25.3
				c1.5,3,3.2,5.6,5.7,8.4c4.2,4.6,8.5,7.4,13.8,8.9c1.2,0.3,2.5,0.5,3.7,0.5c4.2,0,8.4-1.7,10.5-4.5c2-2.6,3.4-6.7,3.7-10.3
				c1-9.2-3.3-19.5-11.1-26.9c-1.2-1.4-2.9-2.8-3.7-3.3C68.2-272.7,64-274.1,60-274.1"/>
			<path class="st4" d="M26.6-192c2.1,0,4.2,0.2,6.3,0.7c6.1,1.4,11.1,4,16,8.2c2.7,2.3,3.7,3.5,5.2,5.6c2.4,3.8,3.4,7.7,3,11
				c-0.2,2.4-0.6,4.1-2.2,6.1c-2.7,3.7-8.3,5.9-14.4,5.9c-0.6,0-1.2,0-1.8-0.1c-4.6-0.2-11-2.2-15.3-4.6c-3.8-2.3-8.1-6-10.3-9.1
				c-2.1-3-3.5-6.5-3.7-9.3c0-1,0-3.5,0.5-4.9c0.7-2.8,3-5.4,6.1-7C19-191.2,22.8-192,26.6-192"/>
			<path class="st4" d="M127.2-214.5c-0.8,0.5-1.6,0.8-2.5,1.1C125.5-213.6,126.4-214,127.2-214.5 M113.5-260.2
				c-2.5,0-5.1,0.7-7.5,2.1l0,0c-1,0.5-2.9,2.5-3.7,3.5c-1.8,2.1-3.1,6.2-3.7,11.2c-0.5,6.9,1.1,13.2,4.7,18.9
				c0.2,0.2,0.3,0.5,0.4,0.7c0.9,1.4,1.5,2.4,3.2,4c4.2,4.5,7.4,6.3,11.8,6.8c0.7,0.1,1.4,0.1,2.1,0.1c4.3,0,7.8-1.9,10.2-5.5
				c2.3-3.5,3.4-6.7,3.9-11.5c0.5-6.7-1.3-13.4-5.2-19.4c-2.1-3.3-4.9-6.1-8.6-8.6C118.9-259.5,116.2-260.2,113.5-260.2
				 M113.5-260.2c-0.5,0-1.1,0-1.6,0.1C112.5-260.2,113-260.2,113.5-260.2c0.9,0,1.9,0.1,2.8,0.3
				C115.4-260.2,114.5-260.2,113.5-260.2"/>
			<path class="st4" d="M727.2-214.5c-0.8,0.5-1.6,0.8-2.5,1.1C725.5-213.6,726.4-214,727.2-214.5 M713.5-260.2
				c-2.5,0-5.1,0.7-7.5,2.1v0c-1,0.5-2.9,2.5-3.7,3.5c-1.8,2.1-3.1,6.2-3.7,11.2c-0.5,6.9,1.1,13.2,4.7,18.9
				c0.2,0.2,0.3,0.5,0.4,0.7c0.9,1.4,1.5,2.4,3.2,4c4.2,4.5,7.4,6.3,11.8,6.8c0.7,0.1,1.4,0.1,2.1,0.1c4.3,0,7.8-1.9,10.2-5.5
				c2.3-3.5,3.4-6.7,3.9-11.5c0.5-6.7-1.3-13.4-5.2-19.4c-2.1-3.3-4.9-6.1-8.6-8.6C718.9-259.5,716.2-260.2,713.5-260.2
				 M713.5-260.2c-0.5,0-1.1,0-1.6,0.1C712.5-260.2,713-260.2,713.5-260.2c0.9,0,1.9,0.1,2.8,0.3
				C715.4-260.2,714.5-260.2,713.5-260.2"/>
			<path class="st4" d="M101.6-208c3.3,0,6.5,0.4,9.6,1.1c8.8,2,17,5,24.4,8.8c4.6,2.5,10.3,6.5,12.1,8.4c3.8,4.3,4.8,10.9,2.2,15.9
				c-0.9,1.7-2.4,3.3-4.7,4.9c-3.4,2.3-6.2,3.5-14,6.1c-8.4,2.8-10.3,3.5-14.5,6.1c-5.7,3.5-8.6,7.1-13.3,15.9
				c-4.2,8-5.4,9.6-8.1,11.7c-3,2.5-6.6,3.8-9.9,3.8c-2.3,0-4.6-0.6-6.5-1.9c-1.7-1.2-5-4.7-6.2-6.8c-2.7-5.2-4.5-10.8-5.4-17.8
				c-2.4-15.4-2.3-25.3,0.4-34.4c1.2-4,3-7.3,5.4-10.1c1.3-1.7,5.2-5,6.9-6.1C86.3-206,94-208,101.6-208"/>
			<g>
				<path class="st1" d="M601.2-541.1c-0.6-0.6-0.9-1.5-0.6-2.3c0.3-0.8,1-1.4,1.9-1.5l14.5-2.2c0.7-0.1,1.5,0.1,2,0.6l6.6,5.6
					c-2.2-8.6-0.8-17.6,3.7-25.3c-1.8-4.5-7.7-20.7-3.9-25.8c0.9-1.2,2.4-1.9,4-1.9c7.9,0,17.1,4.4,22.8,8.8
					c13.2-5.1,28.2-5.1,41.4,0c5.7-4.4,14.9-8.8,22.8-8.8c1.6,0,3.1,0.7,4,1.9c3.9,5.2-2.1,21.3-3.8,25.8c3.1,5.3,4.7,11.2,4.7,17.2
					c0,2.7-0.3,5.5-1,8.1l6.6-5.6c0.5-0.5,1.3-0.7,2-0.5l14.5,2.2c0.9,0.1,1.6,0.7,1.9,1.5c0.3,0.8,0,1.7-0.6,2.3l-21,19.4v54.9
					c0,3.7-3.2,6.7-7.3,6.7h-87c-4,0-7.2-3-7.3-6.7v-54.9L601.2-541.1z M718.9-520.3h-4.8c0,5.4-4,9.3-11.1,10.6
					c-1.4,1.7-3.5,2.8-5.9,2.8c-2.3,0-4.5-1-5.9-2.8c-7-1.3-11.1-5.2-11.1-10.6h-14.5c0,5.4-4,9.3-11.1,10.6
					c-1.4,1.7-3.5,2.8-5.9,2.8c-2.3,0-4.5-1-5.9-2.8c-7-1.3-11.1-5.2-11.1-10.6h-4.8v53.6c0,1.2,1.1,2.2,2.4,2.2h2.4v-4.5
					c0-1.2,1.1-2.2,2.4-2.2c1.3,0,2.4,1,2.4,2.2v4.5h4.8v-4.5c0-1.2,1.1-2.2,2.4-2.2c1.3,0,2.4,1,2.4,2.2v4.5h4.8v-4.5
					c0-1.2,1.1-2.2,2.4-2.2c1.3,0,2.4,1,2.4,2.2v4.5h4.8v-4.5c0-1.2,1.1-2.2,2.4-2.2c1.3,0,2.4,1,2.4,2.2v4.5h4.8v-4.5
					c0-1.2,1.1-2.2,2.4-2.2c1.3,0,2.4,1,2.4,2.2v4.5h4.8v-4.5c0-1.2,1.1-2.2,2.4-2.2c1.3,0,2.4,1,2.4,2.2v4.5h4.8v-4.5
					c0-1.2,1.1-2.2,2.4-2.2c1.3,0,2.4,1,2.4,2.2v4.5h4.8v-4.5c0-1.2,1.1-2.2,2.4-2.2c1.3,0,2.4,1,2.4,2.2v4.5h4.8v-4.5
					c0-1.2,1.1-2.2,2.4-2.2c1.3,0,2.4,1,2.4,2.2v4.5h2.4c1.3,0,2.4-1,2.4-2.2V-520.3z M648.8-531.5c-4.4,0.2-8.3,2.5-10.4,6.1
					c-0.7,1-1.2,2.2-1.5,3.3c-0.1,0.6-0.2,1.2-0.2,1.8c0.1,2.7,2,5,4.8,5.6v-1.2c0-1.2,1.1-2.2,2.4-2.2c1.3,0,2.4,1,2.4,2.2v2.2
					c0,1.2,1.1,2.2,2.4,2.2c1.3,0,2.4-1,2.4-2.2v-2.2c0-1.2,1.1-2.2,2.4-2.2c1.3,0,2.4,1,2.4,2.2v1.2c2.8-0.7,4.8-3,4.8-5.7
					c0-0.6-0.1-1.2-0.2-1.8C659.4-527.3,654.6-531.1,648.8-531.5z M707.6-525.4c-2.1-3.6-6-5.9-10.4-6.1c-5.8,0.4-10.6,4.2-11.9,9.4
					c-0.1,0.6-0.2,1.2-0.2,1.8c0.1,2.7,2,5,4.8,5.6v-1.2c0-1.2,1.1-2.2,2.4-2.2c1.3,0,2.4,1,2.4,2.2v2.2c0,1.2,1.1,2.2,2.4,2.2
					c1.3,0,2.4-1,2.4-2.2v-2.2c0-1.2,1.1-2.2,2.4-2.2c1.3,0,2.4,1,2.4,2.2v1.2c2.8-0.7,4.8-3,4.8-5.7c0-0.6-0.1-1.2-0.2-1.8
					C708.7-523.2,708.3-524.4,707.6-525.4L707.6-525.4z M716.5-531.7c-1.1,1.9-2.5,3.8-3.9,5.5c0.2,0.5,0.5,0.9,0.6,1.4h7.2
					l17.7-16.4l-8.7-1.3L716.5-531.7z M634.3-566.9c0.1,0.3,0.2,0.5,0.2,0.8c0,0.4-0.1,0.8-0.3,1.1c-5.9,9.5-6.2,21.1-0.6,30.8
					c0,0,0,0.1,0.1,0.1l0,0l0,0.1c0.8,1.3,1.6,2.6,2.6,3.8c3.1-3.5,7.7-5.6,12.6-5.7c7.3,0.3,13.7,4.7,16,11.2h16.3
					c2.3-6.4,8.7-10.9,16-11.2c4.9,0.1,9.5,2.2,12.6,5.7c1-1.3,1.9-2.6,2.7-4c2.7-4.6,4.1-9.7,4.1-14.9c0-5.6-1.6-11-4.6-15.9
					c-0.4-0.6-0.4-1.3-0.2-1.9c4-9.7,6.4-21.2,4.8-22.7c-6.9,0-15.6,4.4-20.7,8.7c-0.7,0.6-1.8,0.7-2.6,0.4
					c-12.8-5.4-27.4-5.4-40.2,0c-0.9,0.4-1.9,0.2-2.6-0.4c-5.1-4.3-13.9-8.6-20.8-8.6C627.9-588.1,630.3-576.6,634.3-566.9z
					 M607.9-541.1l17.7,16.4h7.2c0.2-0.5,0.4-0.9,0.6-1.4c-1.5-1.7-2.8-3.6-4-5.5l-12.8-10.8L607.9-541.1z"/>
				<path class="st1" d="M646.4-558.3c0-0.6,0.3-1.2,0.7-1.6c2.1-1.9,4.6-3.2,7.3-4.1c-1.8-0.7-3.7-1.1-5.6-1.1
					c-1.3,0-2.4-1-2.4-2.2c0-1.2,1.1-2.2,2.4-2.2c5.1,0.1,10,1.9,13.8,5.1c0.7,0.6,0.9,1.6,0.5,2.4c-0.4,0.8-1.3,1.4-2.2,1.4
					c-3.8,0.1-7.5,1.5-10.4,3.8c-0.5,0.4-1.1,0.7-1.7,0.7c-0.6,0-1.3-0.2-1.7-0.7C646.7-557.1,646.4-557.7,646.4-558.3z"/>
				<path class="st1" d="M682.9-561.9c-0.4-0.8-0.2-1.8,0.5-2.4c3.8-3.2,8.7-5,13.8-5.1c1.3,0,2.4,1,2.4,2.2c0,1.2-1.1,2.2-2.4,2.2
					c-1.9,0-3.9,0.4-5.6,1.1c2.8,0.8,5.3,2.2,7.4,4.1c0.9,0.9,0.9,2.3,0,3.1c-0.9,0.9-2.4,0.9-3.4,0c-2.9-2.4-6.5-3.7-10.4-3.8
					C684.1-560.5,683.2-561,682.9-561.9z"/>
				<path class="st1" d="M670.6-546.7v-0.8c-0.9-0.3-1.6-0.8-2.2-1.4l-3.6-3.6c-1.4-1.3-1.8-3.2-1-4.9c1-2,3.3-3.2,5.6-3.2h7.2
					c2.4-0.1,4.6,1.2,5.6,3.2c0.8,1.7,0.4,3.6-1,4.9l-3.6,3.6c-0.6,0.6-1.4,1.1-2.2,1.4v0.8c4.4,1.5,7.2,7,7.2,10.7
					c0,4.4-3.3,6.7-9.7,6.7c-6.4,0-9.7-2.3-9.7-6.7C663.3-539.7,666.1-545.2,670.6-546.7z M673-542.6c-2.3,0-4.8,3.9-4.8,6.7
					c0,1,0,2.2,4.8,2.2c4.8,0,4.8-1.2,4.8-2.2C677.8-538.7,675.3-542.6,673-542.6z M671.9-551.9c0.7,0.5,1.6,0.5,2.3,0l3.6-3.6
					c0.1-0.2-0.3-0.5-1.1-0.5h-7.2c-0.8,0-1.2,0.4-1.2,0.5L671.9-551.9z"/>
			</g>
			<g>
				<g>
					<path class="st4" d="M783.5-371.9c0,1.5-1.2,2.7-2.7,2.7c-5.4,0-13.5,4.3-13.5,16.1c0,5.7,2.2,9.8,4.7,14.5
						c2.9,5.3,6.1,11.3,6.1,20.4c0,15.6-8.6,24.2-24.3,24.2H689c-1.5,0-2.7-1.2-2.7-2.7v-5.4c0-4.4,3.6-8.1,8.1-8.1h2.7v-23.5
						c-1.3-2.5-5.4-11.1-5.4-16.8c0-8.5,2.3-12.3,3.9-15c1-1.6,1.5-2.5,1.5-3.8v-1.4c0-4.6,0-8.5-0.5-9.2c0,0,0,0,0,0
						c-0.1,0-0.6-0.1-2.2-0.1c-7.3,0-18.9-3.6-18.9-13.4c0-3.5,3.3-5.9,6.2-7.9c1-0.7,2-1.4,2.6-2c0.6-0.6,1.2-1.5,1.9-2.6
						c1.9-2.8,4.2-6.3,8.1-6.3c0.8,0,2.7-3.9,2.7-8.1c0-1.5,1.2-2.7,2.7-2.7c8.2,0,11.9,8.2,13,11.5c2.7,1.3,8.6,5,8.6,12.7v26.9
						c0,3.4,8.1,10.6,13,14.9c2,1.7,3.8,3.4,5.1,4.7c0.9,0.9,2,1.8,3.1,2.8c5.9,5.1,13.9,12.1,13.9,25.9v10.8c0,5.3-2.2,10-5.7,13.4
						h3c12.7,0,18.9-6.2,18.9-18.8c0-7.8-2.6-12.7-5.4-17.9c-2.6-4.9-5.4-10-5.4-17c0-14,9.7-21.5,18.9-21.5
						C782.3-374.6,783.5-373.4,783.5-371.9z"/>
				</g>
			</g>
			<path class="st4" d="M623-204.8c5,3,10.4,4.6,15.5,4.7C633.3-200.3,627.9-201.9,623-204.8 M621.3-242.9c-2.9,0-5.4,0.6-8.2,1.8
				c-1.2,0.7-3.6,2.8-4.9,4c-2.8,4.6-2.9,11.1-0.2,16.6c1.7,3.4,5.6,8.4,9.1,11.4c6.7,5.8,14.6,8.9,22.1,8.9c1.8,0,3.5-0.2,5.2-0.5
				c2.5-0.5,3.8-1.2,5.4-2.3c2.9-2.5,4.4-5.8,4.6-9.8c0.2-2.4,0-3.8-0.8-6.3c-1.2-4.9-4.3-9.7-9.1-14c-6.5-5.7-13.3-8.9-20.4-9.6
				C623.1-242.9,622.2-242.9,621.3-242.9"/>
			<path class="st4" d="M677.4-225.8c-1.2,0.4-2.5,0.6-3.9,0.7C674.9-225.2,676.2-225.4,677.4-225.8 M646.6-262.8
				c-1.1,3.8-1.1,8,0,12.4C645.5-254.8,645.5-259,646.6-262.8 M660-274.1c-2,0-3.9,0.3-5.7,1c-1.7,0.7-4.4,3-5.4,4.9
				c-4.3,6.9-4.2,15.9,0.5,25.3c1.5,3,3.2,5.6,5.7,8.4c4.2,4.6,8.5,7.4,13.8,8.9c1.2,0.3,2.5,0.5,3.7,0.5c4.2,0,8.4-1.7,10.5-4.5
				c2-2.6,3.4-6.7,3.7-10.3c1-9.2-3.3-19.5-11.1-26.9c-1.2-1.4-2.9-2.8-3.7-3.3C668.2-272.7,664-274.1,660-274.1"/>
			<path class="st4" d="M626.6-192c2.1,0,4.2,0.2,6.3,0.7c6.1,1.4,11.1,4,16,8.2c2.7,2.3,3.7,3.5,5.2,5.6c2.4,3.8,3.4,7.7,3,11
				c-0.2,2.4-0.6,4.1-2.2,6.1c-2.7,3.7-8.3,5.9-14.4,5.9c-0.6,0-1.2,0-1.8-0.1c-4.6-0.2-11-2.2-15.3-4.6c-3.8-2.3-8.1-6-10.3-9.1
				c-2.1-3-3.5-6.5-3.7-9.3c0-1,0-3.5,0.5-4.9c0.7-2.8,3-5.4,6.1-7C619-191.2,622.8-192,626.6-192"/>
			<path class="st4" d="M701.6-208c3.3,0,6.5,0.4,9.6,1.1c8.8,2,17,5,24.4,8.8c4.6,2.5,10.3,6.5,12.1,8.4c3.8,4.3,4.8,10.9,2.2,15.9
				c-0.9,1.7-2.4,3.3-4.7,4.9c-3.4,2.3-6.2,3.5-14,6.1c-8.4,2.8-10.3,3.5-14.5,6.1c-5.7,3.5-8.6,7.1-13.3,15.9
				c-4.2,8-5.4,9.6-8.1,11.7c-3,2.5-6.6,3.8-9.9,3.8c-2.3,0-4.6-0.6-6.5-1.9c-1.7-1.2-5-4.7-6.2-6.8c-2.7-5.2-4.5-10.8-5.4-17.8
				c-2.4-15.4-2.3-25.3,0.4-34.4c1.2-4,3-7.3,5.4-10.1c1.3-1.7,5.2-5,6.9-6.1C686.3-206,694-208,701.6-208"/>
			<path class="st4" d="M626.6-192c2.1,0,4.2,0.2,6.3,0.7c6.1,1.4,11.1,4,16,8.2c2.7,2.3,3.7,3.5,5.2,5.6c2.4,3.8,3.4,7.7,3,11
				c-0.2,2.4-0.6,4.1-2.2,6.1c-2.7,3.7-8.3,5.9-14.4,5.9c-0.6,0-1.2,0-1.8-0.1c-4.6-0.2-11-2.2-15.3-4.6c-3.8-2.3-8.1-6-10.3-9.1
				c-2.1-3-3.5-6.5-3.7-9.3c0-1,0-3.5,0.5-4.9c0.7-2.8,3-5.4,6.1-7C619-191.2,622.8-192,626.6-192"/>
			<path class="st4" d="M513.8-532c5.4,9.8,13.3,16.5,17.9,16.5c0.6,0,1.2-0.1,1.7-0.4c5.6-2.9,3.6-16.3,3.6-16.3
				c3.3-1.6,6.8-2.5,10.6-2.8c-0.8,3.6-0.3,7.7,3.7,10.4c1.4,1,2.8,1.4,3.9,1.4c4.2,0,6.7-5.5,7.6-9.8c0.1-0.3,0.2-0.7,0.2-1
				c0.2,0,0.4,0,0.6,0c5.1,0,10.7-0.9,16.6-4c11.1-5.9,20.3-24.9,12.1-39.8c-0.6-1.3-1.3-2.5-2-3.8c-3.8-4.6-13.9-8.1-23.3-8.1
				c-1,0-1.9,0-2.9,0.1c-3-2.5-6.3-4.4-9.5-5.7c-2.8-1-6.2-1.9-9.4-1.9c-4.9,0-9.1,2-9.1,8.3c0,5.6,3.6,8.9,7.6,10.7l0,0
				c-1.3,1.8-2.5,3.8-3.6,6.2c-2.6-1-5.7-1.9-8.4-1.9c-4,0-7.2,1.8-7,7.3c0.2,5.7,4.3,9.1,8.5,10.8c-2.1,3.3-3.9,3.6-6.4,4.9
				l-0.1-0.1c0,0-9.1-5.3-15.3-5.3c-1.2,0-2.3,0.2-3.2,0.7C502.5-552.5,510.8-537.6,513.8-532z M578.6-580.1
				c0.4-0.2,0.7-0.3,1.1-0.3c1.3,0,2.8,1,3.6,2.5c1.1,2,0.8,4.3-0.8,5.1c-0.4,0.2-0.7,0.3-1.1,0.3c-1.3,0-2.8-1-3.6-2.5
				C576.8-577,577.1-579.3,578.6-580.1z"/>
			<g>
				<path class="st1" d="M196.8-510.6v2.2c0,2.4,1.8,4.3,4.1,4.3s4.1-1.9,4.1-4.3v-6.9c-0.7-0.3-1.4-0.7-1.9-1.3L200-520
					c-1.2-1.2-1.5-3.1-0.8-4.7c0.9-1.9,2.8-3.1,4.8-3h6.2c2-0.1,3.9,1.1,4.8,3c0.7,1.6,0.3,3.5-0.8,4.7l-3.1,3.4
					c-0.5,0.6-1.2,1-1.9,1.3v6.9c0,2.4,1.8,4.3,4.1,4.3c2.3,0,4.1-1.9,4.1-4.3v-2.2c0-1.2,0.9-2.2,2.1-2.2c1.1,0,2.1,1,2.1,2.2v2.2
					c0,3.6-2.1,6.8-5.3,8.1c-3.2,1.3-6.8,0.3-9.1-2.4c-2.2,2.7-5.9,3.7-9.1,2.4c-3.2-1.3-5.3-4.5-5.3-8.1v-2.2
					c0-1.2,0.9-2.2,2.1-2.2C195.9-512.7,196.8-511.8,196.8-510.6z M206.1-519.5c0.6,0.4,1.4,0.4,1.9,0l3.1-3.4c0-0.2-0.3-0.5-1-0.5
					H204c-0.7,0-1,0.4-1,0.5L206.1-519.5z"/>
				<path class="st1" d="M178.4-536.4c-0.4-1.1,0.1-2.4,1.2-2.8c4.9-2,9-2.1,12.2-0.3c2.5,1.5,4.3,4,5,6.9c0.2,1.1-0.5,2.3-1.6,2.5
					c-1.1,0.2-2.2-0.5-2.4-1.6c-0.4-1.7-1.5-3.1-3-4c-2.1-1.2-5-1-8.7,0.5C180-534.7,178.8-535.3,178.4-536.4z"/>
				<path class="st1" d="M215.6-530.9c-0.3-0.5-0.4-1.1-0.3-1.6c0.7-2.9,2.5-5.4,5-6.9c3.2-1.8,7.3-1.7,12.2,0.3
					c1.1,0.4,1.6,1.7,1.2,2.8c-0.4,1.1-1.6,1.7-2.7,1.2c-3.7-1.5-6.6-1.7-8.7-0.5c-1.4,0.9-2.5,2.3-2.9,4c-0.1,0.6-0.4,1-0.9,1.4
					c-0.5,0.3-1,0.4-1.5,0.3C216.4-530.1,215.9-530.5,215.6-530.9z"/>
				<path class="st1" d="M151.5-534.3c0-1.2,0.9-2.2,2.1-2.2c2.3,0,4.7,0.2,7,0.5c0.9-2.2,1.9-4.4,3.1-6.5
					c-1.3-4.6-6.6-23.9-2.1-30.4c1-1.5,2.6-2.3,4.3-2.3c3,0.2,6,1.2,8.7,2.7c5.6-8.4,15.9-14,27.5-15.3c-0.1-1.8-0.3-3.6-0.7-5.3
					c-1.7-7.6,1.2-15.6,7.3-20.2c3-2.1,11.3-6.1,22.6,2.6c1.8,1.4,2.8,3.6,2.5,5.9c-0.2,2.3-1.6,4.3-3.7,5.2c-2,0.9-4.4,0.7-6.2-0.7
					c-1.7-1.3-5.9-4.1-8.4-2.3c-1.8,1.5-2.7,4-2.2,6.4c0.7,2.8,1,5.8,1,8.7c10.6,1.8,19.9,7.2,25.1,15c2.7-1.5,5.7-2.5,8.7-2.7
					c1.7,0,3.3,0.8,4.3,2.3c4.6,6.6-0.7,25.9-2.1,30.5c1.2,2.1,2.2,4.2,3.1,6.4c2.3-0.3,4.7-0.5,7-0.5c1.1,0,2.1,1,2.1,2.2
					c0,1.2-0.9,2.2-2.1,2.2c-1.9,0-3.7,0.1-5.6,0.4c1,3.4,1.5,6.9,1.5,10.4v0c1.9,0.6,3.6,1.4,5.3,2.5c0.6,0.4,1,1.2,0.9,1.9
					c0,0.8-0.5,1.5-1.1,1.8c-0.7,0.3-1.5,0.3-2.1-0.2c-1-0.7-2.1-1.3-3.3-1.7c-0.4,2.6-1.1,5.2-2.1,7.6c3.8,2.6,6.2,6.9,6.6,11.7
					c0,6.6-6.3,10.8-16.5,10.8c-4.6,0.3-9.1-1-13-3.6c-7.8,2.5-15.9,3.7-24.1,3.6c-8.1,0.1-16.3-1.1-24.1-3.6
					c-3.8,2.6-8.4,3.9-13,3.6c-10.2,0-16.5-4.1-16.5-10.8c0.3-4.8,2.8-9.1,6.6-11.7c-1-2.4-1.8-4.9-2.1-7.6c-1.2,0.4-2.3,1-3.3,1.7
					c-0.6,0.4-1.4,0.5-2.1,0.2c-0.7-0.3-1.1-1-1.1-1.8c0-0.8,0.3-1.5,0.9-1.9c1.6-1.1,3.4-1.9,5.3-2.5v0c0-3.5,0.5-7,1.5-10.4
					c-1.9-0.2-3.7-0.4-5.6-0.4C152.4-532.1,151.5-533.1,151.5-534.3z M164-491.9c-0.1-0.5-0.2-1-0.2-1.5v-4.3c0-1.2,0.9-2.2,2.1-2.2
					c1.1,0,2.1,1,2.1,2.2v4.3c0,1.2,0.9,2.2,2.1,2.2c1.1,0,2.1-1,2.1-2.2v-4.3c0-1.2,0.9-2.2,2.1-2.2c1.1,0,2.1,1,2.1,2.2v4.3
					c0,0.5-0.1,1-0.2,1.5c3.6-0.9,6.4-2.7,6.4-5.8c0-4.8-5.7-10.8-12.3-10.8c-6.6,0-12.3,5.9-12.3,10.8
					C157.7-494.5,160.5-492.7,164-491.9z M244.1-508.4c-6.6,0-12.3,5.9-12.3,10.8c0,3.1,2.8,4.9,6.4,5.8c-0.1-0.5-0.2-1-0.2-1.5
					v-4.3c0-1.2,0.9-2.2,2.1-2.2c1.1,0,2.1,1,2.1,2.2v4.3c0,1.2,0.9,2.2,2.1,2.2c1.1,0,2.1-1,2.1-2.2v-4.3c0-1.2,0.9-2.2,2.1-2.2
					c1.1,0,2.1,1,2.1,2.2v4.3c0,0.5-0.1,1-0.2,1.5c3.6-0.9,6.4-2.7,6.4-5.8C256.4-502.5,250.7-508.4,244.1-508.4z M206.2-588
					c0.3,0,0.6,0,0.9,0c1.1,0,2.2,0.1,3.2,0.1c-0.1-2.4-0.4-4.8-0.9-7.2c-0.9-4.1,0.7-8.4,3.9-11c3.4-2.4,8-1.5,13.2,2.4
					c0.6,0.5,1.4,0.5,2,0.2c0.7-0.3,1.1-1,1.2-1.7c0.1-0.8-0.2-1.5-0.8-2c-8.9-6.8-15-4.5-17.9-2.5c-4.7,3.5-6.9,9.7-5.6,15.6
					C205.8-592.1,206.1-590.1,206.2-588z M178.3-570.4c2.8,1.6,5.8,3.7,9.2,6.1c12.5-5.8,26.7-5.8,39.2,0c3.4-2.5,6.4-4.5,9.2-6.1
					c-5.8-8.2-16.8-13.4-28.8-13.4C195.1-583.7,184-578.6,178.3-570.4z M167.7-541c-1.1,1.9-2.1,3.8-3,5.9c4.5,1,8.8,2.9,12.7,5.6
					c0.9,0.7,1.1,2,0.4,3c-0.7,0.9-1.9,1.1-2.8,0.5c-3.6-2.4-7.5-4.1-11.7-4.9c-0.8,2.8-1.3,5.7-1.4,8.6c3.4-0.7,6.8-1,10.2-1.1
					c1.1,0,2.1,1,2.1,2.2c0,1.2-0.9,2.2-2.1,2.2c-3.4,0.1-6.8,0.4-10.1,1.1c0.3,2.3,0.9,4.5,1.8,6.6c2-0.9,4.1-1.3,6.3-1.3
					c9.3,0,16.5,8.1,16.5,15.1c0,1.2-0.2,2.5-0.7,3.6c6.9,2,14.1,2.9,21.3,2.9c7.2,0.1,14.3-0.9,21.3-2.9c-0.5-1.1-0.7-2.3-0.7-3.6
					c0-7,7.2-15.1,16.5-15.1c2.2,0,4.3,0.4,6.3,1.3c0.9-2.1,1.5-4.3,1.8-6.6c-3.3-0.7-6.7-1.1-10.1-1.1c-1.1,0-2.1-1-2.1-2.2
					c0-1.2,0.9-2.2,2.1-2.2c3.4,0.1,6.9,0.4,10.2,1.1c-0.1-2.9-0.6-5.8-1.4-8.6c-4.2,0.9-8.1,2.5-11.7,4.9c-0.9,0.7-2.2,0.5-2.8-0.5
					c-0.7-0.9-0.5-2.3,0.4-3c3.9-2.7,8.2-4.6,12.7-5.6c-0.8-2-1.8-3.9-2.9-5.8c-0.3-0.5-0.4-1.2-0.2-1.8c3.8-12.1,5.1-24.5,3-27.6
					c-0.2-0.3-0.6-0.6-1-0.5c-3.6,0-10.9,3.9-20.2,10.8c-0.6,0.5-1.4,0.5-2.1,0.2c-12-6-25.9-6-37.9,0c-0.7,0.3-1.5,0.3-2.1-0.2
					c-3.7-2.8-7.6-5.4-11.6-7.7c-0.1,0-0.1-0.1-0.2-0.1c0,0,0,0,0,0c-2.5-1.6-5.3-2.6-8.3-3c-0.4,0-0.8,0.2-1,0.5
					c-2.1,3.1-0.8,15.4,2.9,27.5C168.1-542.2,168-541.5,167.7-541z"/>
			</g>
			<path class="st4" d="M406.5-233.5c0.2-4.6,3.1-8.7,7.6-10.2c2.2-0.8,4.7-0.8,7,0c0.7-3.1,2.6-5.7,5.4-7.3
				c5.4-3.3,12.5-1.3,15.8,4.4c1.3,2.2,1.8,4.6,1.7,6.9c-0.2,3.2-1.6,6.2-4.1,8.2l21.6,38.3c5.9-2,12.6,1.5,14.7,7.6
				c0.5,1.5,0.8,3.1,0.7,4.6c-0.2,4.6-3.1,8.7-7.6,10.2c-2.2,0.8-4.7,0.8-7,0c-1.5,6.2-7.6,9.9-13.9,8.2c-3-0.7-5.7-2.8-7.2-5.6
				c-1.2-2.1-1.7-4.4-1.6-6.6c0.2-3.1,1.5-6.1,3.9-8.1l-21.6-38.3c-5.9,2-12.5-1.5-14.7-7.6C406.7-230.4,406.5-232,406.5-233.5"/>
			<g>
				<g>
					<path class="st4" d="M337-509.9c-1.4-6.4-7.6-10.4-14-9.1c-6.4,1.4-10.4,7.6-9.1,14c1.4,6.4,7.6,10.4,14,9.1
						C334.3-497.2,338.3-503.5,337-509.9z"/>
					<path class="st4" d="M263.6-442c0.3,0.8,1.1,1.3,1.9,1.3c0.2,0,0.5,0,0.7-0.1l5.7-2.3l3.6,2.1l-2.1,13.8
						c-0.2,1.5,0.8,2.9,2.3,3.1c0.1,0,0.3,0,0.4,0c1.3,0,2.5-1,2.7-2.3l1.3-8.4l0.3,7.8c0.1,1.5,1.3,2.6,2.7,2.6c0,0,0.1,0,0.1,0
						c1.5-0.1,2.6-1.3,2.6-2.8l-0.5-12.3l11.9-22.8l4.3-1.6c0.8,0.7,1.8,1.1,2.9,1.1c9,0,15.9-2.7,20.4-8l2,9.3l-12.3,3.5
						c-3.1,0.9-5,4-4.4,7.1l3.9,21.3c0.6,3,3.2,5.1,6.1,5.1c0.4,0,0.7,0,1.1-0.1c3.4-0.6,5.6-3.9,5-7.3l-2.9-15.7l7.6-2.2l-3.5,8.6
						c-0.8,1.9-0.6,4.1,0.6,5.8c1.2,1.7,3.1,2.8,5.2,2.8h22.1c3.5,0,6.3-2.8,6.3-6.2s-2.8-6.3-6.3-6.3h-12.8c0,0,5.7-14,5.7-14.2
						c0.5-1.3,0.6-2.8,0.3-4.3l-5.5-25.5c-1-4.7-5.8-7-9.9-7.1l0,0c0,0-1.4,0-2.7,0.2c-1.3,0.2-2.4,0.9-2.4,0.9
						c-3,1.5-5.9,4.5-6.2,8.1c-0.5,7.3-6.7,14.9-17.3,14.9c-1.9,0-3.5,1.2-4.2,2.8l-5.2,1.9l-5.1-2.9l-11.2,8.2l-8.7,15.4l-5.3,2.1
						C263.7-444.2,263.2-443.1,263.6-442z"/>
					<path class="st4" d="M291.2-479.5c0.8-2.3,0.6-5.1-1.9-6.4c-2.4-1.2-6.8,3.9-7.5,4.2c-2.1,0.9-4,0.7-6,1.9
						c-0.3,0.2-0.7,0.4-1,0.7c-0.2,0.1-0.3,0.2-0.5,0c-0.7-0.4-1.4-0.8-2-1.1c-1.2-0.6-2.6-0.8-3.7-0.1c-0.5,0.3-2.3,1.9,0.6,4.2
						c0.6,0.5,1.3,1.1,1.8,1.7c1.9,2.3,3.4,4.9,5.1,7.4c0.7,1.2,1.5,2.3,2.2,3.5l10.9-7.9c0,0-1.5-3.4-1.2-3.6
						c0.4-0.3,0.7-0.7,1.1-1C289.9-477,290.7-478.2,291.2-479.5z"/>
				</g>
			</g>
			<path class="st4" d="M556.2-319.6c-3.3,6.3-9.6,10.1-16.4,10.1c-1,0-2-0.1-3-0.2c0,0-5.2,23.2-5.2,23.3c-0.5,2.4-1.3,4.8-3.5,6.3
				v24.4c0,1.3-1.1,2.3-2.3,2.3h-2.4c-1.2,0-2.1-0.8-2.3-1.9l-3.9-24c-8.9-1.4-22.7-3.7-32.8-5.4c-1,1.7-2.3,3.4-4.2,4.9
				c0,0,0,0,0,0l-19.4,14.1l1.8,9.7c0.1,0.7-0.1,1.3-0.5,1.9c-0.4,0.5-1.1,0.8-1.8,0.8h-3c-1.1,0-2.1-0.8-2.3-1.9l-2.9-15.2
				c-0.1-0.6,0-1.3,0.4-1.8l6.6-8.6c-4.1-7.8-3.7-13.9-2.6-17.8c1-3.5,2.8-5.8,3.6-6.7c-7.8-1.8-14.6-6.8-18.4-13.8
				c-0.6-1.1-0.2-2.5,1-3.1c1.1-0.6,2.6-0.2,3.2,1c4.3,7.9,13,12.7,22.2,12.1c0,0,44.9-2,44.9-2l12.1-32.3c0.3-0.9,1.3-1.5,2.3-1.5
				c1,0,1.9,0.7,2.2,1.6l1.6,5.5l2.6-2.8c0.6-0.7,1.6-0.9,2.5-0.6c0.9,0.3,1.5,1.1,1.6,2l0.6,6.1c3.2,0.8,5.7,3.4,6.4,6.5l10.2,4
				c0.6,0.2,1.1,0.7,1.3,1.3C556.5-320.8,556.4-320.1,556.2-319.6z"/>
			<path class="st6" d="M389.5-632.6c0,10.7-7.7,18.8-23,24.2c-11.9,4.2-27.6,6.5-44.2,6.5c0,0,0,0,0,0c-16.6,0-32.3-2.3-44.2-6.5
				c-15.3-5.3-23-13.5-23-24.2c0-4.2,2.1-7.8,4.9-9.1c0,0,7.1-40.9,7.2-41.2c1.5-6.1,7.4-11,17.6-14.6c10-3.5,23.3-5.5,37.4-5.5
				c14.1,0,27.4,1.9,37.4,5.5c10.2,3.6,16.1,8.5,17.6,14.6c0.1,0.3,7.2,41.2,7.2,41.2C387.4-640.5,389.5-636.9,389.5-632.6z
				 M344.9-638.9c1-1.5,1.7-3.4,1.7-5.6c0-4.5-2.8-8.2-6.3-8.2c-3.4,0-6.1,3.5-6.3,7.9h-23.4c-0.2-4.4-2.9-7.9-6.3-7.9
				c-3.5,0-6.3,3.7-6.3,8.2c0,2.2,0.6,4.1,1.7,5.6c-1,1.5-1.7,3.4-1.7,5.6c0,4.5,2.8,8.2,6.3,8.2c3.4,0,6.1-3.5,6.3-7.9H334
				c0.2,4.4,2.9,7.9,6.3,7.9c3.5,0,6.3-3.7,6.3-8.2C346.5-635.4,345.9-637.4,344.9-638.9z M369.7-680.3c-0.8-1.4-3.9-4.7-12.9-7.6
				c-9.3-3.1-21.6-4.8-34.5-4.8c-13,0-25.2,1.7-34.5,4.8c-8.9,3-12.1,6.3-12.9,7.6c0.8,1.4,3.9,4.6,12.9,7.6
				c9.3,3.1,21.6,4.8,34.5,4.8c13,0,25.2-1.7,34.5-4.8C365.8-675.7,368.9-678.9,369.7-680.3z"/>
			<path class="st6" d="M389.5-32.6c0,10.7-7.7,18.8-23,24.2C354.6-4.3,338.9-2,322.3-2c0,0,0,0,0,0c-16.6,0-32.3-2.3-44.2-6.5
				c-15.3-5.3-23-13.5-23-24.2c0-4.2,2.1-7.8,4.9-9.1c0,0,7.1-40.9,7.2-41.2c1.5-6.1,7.4-11,17.6-14.6c10-3.5,23.3-5.5,37.4-5.5
				c14.1,0,27.4,1.9,37.4,5.5C370-94,375.9-89.1,377.3-83c0.1,0.3,7.2,41.2,7.2,41.2C387.4-40.5,389.5-36.9,389.5-32.6z M344.9-38.9
				c1-1.5,1.7-3.4,1.7-5.6c0-4.5-2.8-8.2-6.3-8.2c-3.4,0-6.1,3.5-6.3,7.9h-23.4c-0.2-4.4-2.9-7.9-6.3-7.9c-3.5,0-6.3,3.7-6.3,8.2
				c0,2.2,0.6,4.1,1.7,5.6c-1,1.5-1.7,3.4-1.7,5.6c0,4.5,2.8,8.2,6.3,8.2c3.4,0,6.1-3.5,6.3-7.9H334c0.2,4.4,2.9,7.9,6.3,7.9
				c3.5,0,6.3-3.7,6.3-8.2C346.5-35.4,345.9-37.4,344.9-38.9z M369.7-80.3c-0.8-1.4-3.9-4.7-12.9-7.6c-9.3-3.1-21.6-4.8-34.5-4.8
				c-13,0-25.2,1.7-34.5,4.8c-8.9,3-12.1,6.3-12.9,7.6c0.8,1.4,3.9,4.6,12.9,7.6c9.3,3.1,21.6,4.8,34.5,4.8c13,0,25.2-1.7,34.5-4.8
				C365.8-75.7,368.9-78.9,369.7-80.3z"/>
			<g>
				<path class="st4" d="M339.6-568.6c2.6-1.1,5.3-1.6,8.1-1.6c3,0,6,0.7,8.7,1.9c4.1,1.9,7.3,5.1,9.2,8.7
					c-3.7-3.2-8.7-5.2-14.1-5.2c-5.7,0-11.1,2.2-15,6c-0.5-0.9-1.1-1.9-1.8-2.8c-1.8-2.3-4.1-3.6-6.5-3.9l3.1-13.8
					c0.1-0.3,0.2-0.5,0.5-0.6c0.2-0.1,0.5-0.2,0.8-0.1C338.3-578.9,339.9-573.5,339.6-568.6z"/>
				<path class="st4" d="M400.2-532.6c-6.2,8.4-15.4,14.1-26,15.8c-2.3,0.4-4.6,0.6-6.9,0.6c-14,0-26.9-7.1-34.1-18.2
					c-0.1-0.1-0.2-0.1-0.4-0.2c-8-3.8-14.1-10.3-17-18.4c-6-16.7,3.3-35.1,20.7-40.8c1.1-0.4,2.3,0.2,2.6,1.2c0.4,1-0.2,2.2-1.3,2.5
					c-15.3,5.1-23.4,21.1-18.1,35.8c1.9,5.4,5.4,9.9,10,13.3c-0.7-1.9-1.3-3.8-1.8-5.9l-3.6-14.3l1.1-0.3c5.6-1.3,8,5.6,8.4,7.1
					c0.2,0.7,0.9,1.3,1.7,1.4c0.8,0.1,1.6-0.2,2-0.8c3.2-4.4,8.4-7,14-7c9.4,0,17,7.3,17,16.3c0,1.1,0.9,2,2.1,2
					c1.1,0,2.1-0.9,2.1-2c0-3.9-1.2-7.6-3.2-10.7l12.2-2l0.5-1.7c-9.3-0.5-16.7-7-18.6-16.2c-0.1-0.3,0-0.6,0.2-0.8
					c0.2-0.2,0.4-0.4,0.7-0.4l14.3-1.5c1.2-3.3,4.5-5.5,8.2-5.5c0.5,0,0.9,0,1.4,0.1l3.2-8.2c0.1-0.4,0.5-0.6,0.9-0.6
					c0.4,0,0.8,0.2,1,0.5l3.6,6.8l5.4-8.5c0.2-0.4,0.7-0.5,1.1-0.4c0.4,0.1,0.8,0.5,0.8,0.9c0,0,2.5,31.2,2.5,31.3
					C408.7-551.3,406.3-541,400.2-532.6z"/>
			</g>
			<g>
				<path class="st4" d="M558.8-650c0,2.5-2,4.4-5.8,5.8c-3.1,1.1-7.3,1.7-11.6,1.7c-4.4,0-8.5-0.6-11.6-1.7
					c-3.9-1.3-5.8-3.3-5.8-5.8c0-0.1,0-0.2,0-0.4c0,0,2.3-12.9,2.3-12.9c0-0.1,0,0.1,0,0c1.4-5.4,13.6-5.6,15.1-5.6
					s13.7,0.2,15.1,5.6c0,0.1,0-0.1,0,0c0,0,2.3,12.9,2.3,12.9C558.8-650.2,558.8-650.1,558.8-650z M541.4-664.9
					c-6.3,0-10.5,1.5-11.8,2.5c1.3,1.1,5.5,2.5,11.8,2.5c6.3,0,10.5-1.5,11.8-2.5C551.9-663.4,547.6-664.9,541.4-664.9z"/>
				<path class="st4" d="M522.3-708l-6.4,4.7l-1.2,9.2c0,0.1,0-0.1,0,0c0,0.1,0-0.1,0,0c-0.4,2.6-1.2,7.1-3.8,9.5v34.4
					c0,2-1.3,3.6-2.8,3.6h-2.6c-1.4,0-2.5-1.3-2.8-3l-4.1-33.8c-7.8-1.7-17.6-4.4-25.4-6.7c-1,2.1-2.3,4-4,5.9c0,0,0,0,0,0
					l-20.6,19.8l1.9,13.6c0.1,1-0.1,2.1-0.6,2.9s-1.3,1.3-2.1,1.3h-3.1c-1.3,0-2.5-1.2-2.8-2.9l-3.1-21.5c-0.1-1,0-2,0.5-2.8
					l6.9-12.1c-4.3-11.1-3.9-19.8-2.7-25.3c1-4.6,2.6-7.7,3.6-9.2c-8.2-2.7-15.3-9.7-19.4-19.7c-0.7-1.8-0.2-3.9,1.2-4.9
					c1.4-0.9,3.1-0.2,3.8,1.5c4.5,11.1,13.7,17.8,23.4,17c0,0,45.7-3.2,46.1-3.3l42.4-18.9c1.1-0.5,2.4,0,3.1,1.2
					c0.7,1.2,0.8,3,0.1,4.2l-3.3,6.1l3.6,0.3c1.1,0.1,2.1,1,2.5,2.3s0.1,2.8-0.7,3.8l-4.7,5.9c1.4,4.2,0.9,9.1-1.4,12.6l3.4,14.3
					c0.2,1,0.1,2-0.3,2.9c-0.4,0.9-1.1,1.5-1.8,1.7c-1.6,0.4-3.1,0.7-4.7,0.7C532.3-692.5,525.4-698.6,522.3-708z"/>
			</g>
			<g>
				<path class="st4" d="M558.8-50c0,2.5-2,4.4-5.8,5.8c-3.1,1.1-7.3,1.7-11.6,1.7c-4.4,0-8.5-0.6-11.6-1.7
					c-3.9-1.3-5.8-3.3-5.8-5.8c0-0.1,0-0.2,0-0.4c0,0,2.3-12.9,2.3-12.9c0-0.1,0,0.1,0,0c1.4-5.4,13.6-5.6,15.1-5.6
					s13.7,0.2,15.1,5.6c0,0.1,0-0.1,0,0c0,0,2.3,12.9,2.3,12.9C558.8-50.2,558.8-50.1,558.8-50z M541.4-64.9
					c-6.3,0-10.5,1.5-11.8,2.5c1.3,1.1,5.5,2.5,11.8,2.5c6.3,0,10.5-1.5,11.8-2.5C551.9-63.4,547.6-64.9,541.4-64.9z"/>
				<path class="st4" d="M522.3-108l-6.4,4.7l-1.2,9.2c0,0.1,0-0.1,0,0c0,0.1,0-0.1,0,0c-0.4,2.6-1.2,7.1-3.8,9.5v34.4
					c0,2-1.3,3.6-2.8,3.6h-2.6c-1.4,0-2.5-1.3-2.8-3l-4.1-33.8c-7.8-1.7-17.6-4.4-25.4-6.7c-1,2.1-2.3,4-4,5.9c0,0,0,0,0,0
					l-20.6,19.8l1.9,13.6c0.1,1-0.1,2.1-0.6,2.9c-0.5,0.8-1.3,1.3-2.1,1.3h-3.1c-1.3,0-2.5-1.2-2.8-2.9L438.9-71c-0.1-1,0-2,0.5-2.8
					l6.9-12.1c-4.3-11.1-3.9-19.8-2.7-25.3c1-4.6,2.6-7.7,3.6-9.2c-8.2-2.7-15.3-9.7-19.4-19.7c-0.7-1.8-0.2-3.9,1.2-4.9
					c1.4-0.9,3.1-0.2,3.8,1.5c4.5,11.1,13.7,17.8,23.4,17c0,0,45.7-3.2,46.1-3.3l42.4-18.9c1.1-0.5,2.4,0,3.1,1.2s0.8,2.9,0.1,4.2
					l-3.3,6.1l3.6,0.3c1.1,0.1,2.1,1,2.5,2.3c0.4,1.3,0.1,2.8-0.7,3.8l-4.7,5.9c1.4,4.2,0.9,9.1-1.4,12.6l3.4,14.3
					c0.2,1,0.1,2-0.3,2.9c-0.4,0.9-1.1,1.5-1.8,1.7c-1.6,0.4-3.1,0.7-4.7,0.7C532.3-92.5,525.4-98.6,522.3-108z"/>
			</g>
			<g>
				<path class="st6" d="M228-689v57.4c0,0.6-0.5,1.1-1,1.1h-63.3c-2.7,0-4.9-2.4-4.9-5.2c0-1.4,0.5-2.6,1.4-3.6
					c0.9-1,2.2-1.5,3.5-1.5c0,0,0,0,0,0l36.9,0c0.9,0,1.6-0.6,1.9-1.4l13.1-36.5c0.4-1.1-0.1-2.3-1.2-2.7c-1.1-0.4-2.3,0.2-2.6,1.3
					l-3.5,9.8c-10.7-9.7-26.5-10.6-38.1-1.9c-0.9,0.7-1.1,2-0.5,3c0.7,1,2,1.2,2.9,0.5c10.5-7.9,24.9-6.7,34.2,2.8l-7.5,21l-35.5,0
					c0,0,0,0,0,0c-2.4,0-4.7,1-6.4,2.7c-1.7,1.8-2.6,4.1-2.6,6.6c0,2,0.6,3.9,1.6,5.4c-15.1-3.2-26.6-17-26.6-33.7v-81.9
					c0-0.9,0.6-1.7,1.4-2c0.8-0.3,1.8,0,2.3,0.8l4.9,7.1l2.3-5.8c0.3-0.8,1-1.3,1.9-1.3c0.8,0,1.6,0.5,1.9,1.2l3.4,7.7
					c0.5-0.1,1-0.1,1.4-0.1c3.6,0,6.9,2.1,8.5,5.3l13.7,0.5c0.6,0,1.1,0.3,1.5,0.7c0.4,0.5,0.5,1,0.5,1.6c-0.3,2.3-0.8,4.5-1.6,6.5
					c1.8-0.4,3-1.7,3-1.7c0.8-0.9,2.1-0.9,2.9-0.1c0.8,0.8,0.9,2.1,0.1,3c-0.1,0.2-2.9,3.3-7.2,3.3c-0.4,0-0.8,0-1.2-0.1
					c-3,4.5-7.5,7.6-12.9,8.7l5.6,17l17.6-12.7c0.5-0.4,1.1-0.5,1.7-0.3c0.6,0.1,1.1,0.5,1.3,1.1l2.1,4.1c0.3,0,31,0,31,0
					C222.6-701.4,228-695.8,228-689z"/>
				<path class="st6" d="M180.8-735.2c0-15.9,12.5-28.8,27.8-28.8c15.3,0,27.8,12.9,27.8,28.8c0,15.9-12.5,28.8-27.8,28.8
					C193.3-706.3,180.8-719.2,180.8-735.2z"/>
			</g>
			<g>
				<path class="st6" d="M228-89v57.4c0,0.6-0.5,1.1-1,1.1h-63.3c-2.7,0-4.9-2.4-4.9-5.2c0-1.4,0.5-2.6,1.4-3.6
					c0.9-1,2.2-1.5,3.5-1.5c0,0,0,0,0,0l36.9,0c0.9,0,1.6-0.6,1.9-1.4l13.1-36.5c0.4-1.1-0.1-2.3-1.2-2.7c-1.1-0.4-2.3,0.2-2.6,1.3
					l-3.5,9.8c-10.7-9.7-26.5-10.6-38.1-1.9c-0.9,0.7-1.1,2-0.5,3c0.7,1,2,1.2,2.9,0.5c10.5-7.9,24.9-6.7,34.2,2.8l-7.5,21l-35.5,0
					c0,0,0,0,0,0c-2.4,0-4.7,1-6.4,2.7c-1.7,1.8-2.6,4.1-2.6,6.6c0,2,0.6,3.9,1.6,5.4c-15.1-3.2-26.6-17-26.6-33.7v-81.9
					c0-0.9,0.6-1.7,1.4-2c0.8-0.3,1.8,0,2.3,0.8l4.9,7.1l2.3-5.8c0.3-0.8,1-1.3,1.9-1.3c0.8,0,1.6,0.5,1.9,1.2l3.4,7.7
					c0.5-0.1,1-0.1,1.4-0.1c3.6,0,6.9,2.1,8.5,5.3l13.7,0.5c0.6,0,1.1,0.3,1.5,0.7c0.4,0.5,0.5,1,0.5,1.6c-0.3,2.3-0.8,4.5-1.6,6.5
					c1.8-0.4,3-1.7,3-1.7c0.8-0.9,2.1-0.9,2.9-0.1c0.8,0.8,0.9,2.1,0.1,3c-0.1,0.2-2.9,3.3-7.2,3.3c-0.4,0-0.8,0-1.2-0.1
					c-3,4.5-7.5,7.6-12.9,8.7l5.6,17l17.6-12.7c0.5-0.4,1.1-0.5,1.7-0.3c0.6,0.1,1.1,0.5,1.3,1.1l2.1,4.1c0.3,0,31,0,31,0
					C222.6-101.4,228-95.8,228-89z"/>
				<path class="st6" d="M180.8-135.2c0-15.9,12.5-28.8,27.8-28.8c15.3,0,27.8,12.9,27.8,28.8c0,15.9-12.5,28.8-27.8,28.8
					C193.3-106.3,180.8-119.2,180.8-135.2z"/>
			</g>
			<g>
				<path class="st1" d="M603.8-329.6v3.5c0,0.7-0.6,1.3-1.3,1.3s-1.3-0.6-1.3-1.3v-2.4l-4.5-0.6c-0.7-0.1-1.2-0.8-1.1-1.5
					c0.1-0.7,0.7-1.2,1.4-1.1l5.6,0.7C603.4-330.9,603.8-330.3,603.8-329.6z"/>
				<path class="st1" d="M631.3-330.6c0.1,0.7-0.4,1.4-1.1,1.5l-4.5,0.6v2.4c0,0.7-0.6,1.3-1.3,1.3c-0.7,0-1.3-0.6-1.3-1.3v-3.5
					c0-0.7,0.5-1.2,1.1-1.3l5.6-0.7C630.5-331.8,631.2-331.3,631.3-330.6z"/>
				<path class="st1" d="M646.1-286.7c-2.9,5-7.1,8.8-12.4,11.5c-5.6,2.8-12.4,4.2-20.1,4.2s-14.6-1.4-20.1-4.2
					c-5.4-2.7-9.5-6.5-12.4-11.5c-3.4-5.9-4.9-13.3-4.3-21.4c0.6-8,3.2-16.7,7.5-25.4v-11.3c0-4.5,3.5-8.2,7.9-8.2
					c3.1,0,5.8,1.8,7.1,4.6c4.4-2.3,9.3-3.4,14.4-3.4c5.1,0,9.9,1.2,14.4,3.4c1.3-2.8,4-4.6,7.1-4.6c4.3,0,7.9,3.7,7.9,8.2v11.3
					c4.3,8.6,7,17.4,7.5,25.4C651-300,649.5-292.6,646.1-286.7z M640.4-332.6c-0.1-0.2-0.1-0.4-0.1-0.6v-11.6c0-3-2.4-5.5-5.3-5.5
					c-2.1,0-4,1.3-4.9,3.3c2.2,1.4,3.8,2.6,5,3.8c0.5,0.5,0.6,1.3,0.1,1.9c-0.3,0.3-0.6,0.4-1,0.4c-0.3,0-0.6-0.1-0.8-0.3
					c-1.2-1.1-3.1-2.5-5.5-4c-4.4-2.5-9.3-3.8-14.4-3.8c-5.2,0-10,1.3-14.4,3.8c-2.4,1.5-4.3,2.9-5.5,4c-0.2,0.2-0.5,0.3-0.8,0.3
					c-0.4,0-0.7-0.2-1-0.4c-0.5-0.5-0.4-1.4,0.1-1.9c1.2-1.1,2.9-2.4,5-3.8c-0.8-2-2.7-3.3-4.9-3.3c-2.9,0-5.3,2.5-5.3,5.5v11.6
					c0,0.2-0.1,0.4-0.1,0.6c-8.7,17.1-9.9,33.3-3.4,44.5c5.5,9.4,16,14.4,30.4,14.4c14.4,0,24.9-5,30.4-14.4
					C650.4-299.3,649.1-315.5,640.4-332.6z"/>
				<path class="st1" d="M617.9-314.8c0,0.7-0.6,1.3-1.3,1.3c-1.2,0-2.3-0.5-3.1-1.3c-0.8,0.8-1.9,1.3-3.1,1.3
					c-0.7,0-1.3-0.6-1.3-1.3s0.6-1.3,1.3-1.3c0.8,0,1.5-0.6,1.7-1.3l-2.1-1.3c-0.6-0.4-0.8-1.2-0.4-1.8c0.4-0.6,1.1-0.8,1.8-0.4
					l2.1,1.4l2.1-1.4c0.6-0.4,1.4-0.2,1.8,0.4c0.4,0.6,0.2,1.4-0.4,1.8l-2.1,1.3c0.2,0.8,0.9,1.3,1.7,1.3
					C617.3-316.1,617.9-315.5,617.9-314.8z"/>
			</g>
			<g>
				<path class="st6" d="M297.7-158.3c-0.5-4.1-7.6-8.1-7.4-13.3c1.1,0.2,2.6,1.1,4.6,1.7c1.9,0.5,9.6,3.2,8.7,3.3
					c1.2-0.2,18.2-22.4,36.5-24c18.4-1.7,28.8,2.5,39.3,14.1c3.1,3.5,3.3,7.9,7.3,12.2c0.6-2.4,3-4.3,5.5-2.8
					c4.4,4.1,1.3,11.5-2.3,12.7c0.3,2.1,1.2,6-0.5,7.2c-0.4-3.6-0.5-7.5-3.2-8.3c-1.5,3-1.1,6.3-2.8,10c-0.9,2-3.3,3-3.2,6.1
					c0.1,2.3,2.3,3.1,2.8,6.1c1.2,7.4,0.4,21.3-6.9,19.3c-0.8-1.5-0.3-1.6-2.3-1.1c1.8-4.8,6.4-12.4,0.9-16.6
					c-1.3,8.3-3.4,17.7-11.3,17.1c0.5,0,0.5-1.6,0-1.7c-0.4-0.1-2.1,1.3-2.5,1.2c1.4-4.4,10.8-10.6,8.3-20.5c-1.5-5.9-5.4-1-9.2,1.1
					c-9,5-20.2,6.2-29.9,6.6c1.2,4-0.9,8.4-0.9,12.7c-2.1,1.6-3.3-0.9-3.3-0.9c-1-0.2-3.5,1.6-4.6,2c2-4.9,7.1-12.5-1.8-13.8
					c-1.1,6.3-3.5,13.5-8.7,14.1c-0.6,0.1-1.2-2.2-1.9-2.3c-0.7-0.1-1.5,1.9-2.3,1.5c0.4-4,6.4-5.9,6.4-12.2
					c-6.7-4-16.7-4.2-21.1-11c-2,0.3-5.5,0-5.5,0l-1.1-10.2C285.5-148.1,298.5-150.9,297.7-158.3z M389.6-158.3
					c4.2-1,0.3-8.5-1.8-3.9C388.1-160.6,388.9-159.5,389.6-158.3z M303.8-150.8c1.5,0,2.7-1.5,2.7-3.3s-1.2-3.3-2.7-3.3
					c-1.5,0-2.7,1.5-2.7,3.3C301.1-152.3,302.3-150.8,303.8-150.8z"/>
			</g>
		</g>
	</g>
</pattern>
<g>
	<rect class="st7" width="4000" height="6000"/>
</g>
</svg>
