<?xml version="1.0" encoding="utf-8"?>
<!-- Generator: Adobe Illustrator 25.2.0, SVG Export Plug-In . SVG Version: 6.00 Build 0)  -->
<svg version="1.1" xmlns="http://www.w3.org/2000/svg" xmlns:xlink="http://www.w3.org/1999/xlink" x="0px" y="0px"
	 viewBox="0 0 100 65" style="enable-background:new 0 0 100 65;" xml:space="preserve">
<style type="text/css">
	.st0{fill:#63C035;}
	.st1{display:none;fill:#FFFFFF;}
	.st2{display:none;fill:#63C132;}
	.st3{fill:#63C132;}
	.st4{display:none;fill:#234125;}
	.st5{fill:#1E3F20;}
	.st6{fill:#FFFFFF;}
	.st7{display:none;}
	.st8{display:inline;}
	.st9{opacity:0.75;fill:#FFFFFF;}
	.st10{display:none;fill:#006837;}
	.st11{opacity:0.8;fill:#63C035;}
	.st12{fill:#234125;}
	.st13{fill:#1A1A1A;}
	.st14{fill:#FFFFFF;stroke:#1E3F20;stroke-width:0.75;stroke-miterlimit:10;}
	.st15{fill:#FFFFFF;stroke:#1A1A1A;stroke-width:0.75;stroke-miterlimit:10;}
	.st16{opacity:0.75;}
	.st17{fill:none;stroke:#234125;stroke-width:4;stroke-miterlimit:10;}
	.st18{fill:none;stroke:#234125;stroke-width:3;stroke-miterlimit:10;}
</style>
<g id="Layer_2">
</g>
<g id="Layer_1">
</g>
<g id="Layer_3">
	<g id="Layer_4_copy" class="st7">
	</g>
	<g id="Layer_4_copy_2" class="st7">
	</g>
	<g id="Layer_4" class="st7">
	</g>
	<g id="Layer_4_copy_3" class="st7">
	</g>
	<g id="Layer_4_copy_5">
	</g>
	<g id="Layer_4_copy_4" class="st7">
	</g>
</g>
<g id="Layer_10">
</g>
<g id="Layer_11">
	<g>
		<path class="st13" d="M64.52,2.21c0.32-0.04,26.66-0.14,28.99,0.05c1.44,0.12,3.2,1.6,3.2,3.05c0.05,16.23,0.09,36.45,0.18,52.55
			c0.02,3.52-1.79,5-5.09,4.99c-14.47-0.03-28.95-0.06-43.42-0.09h3.23c-14.47,0.03-28.95,0.06-43.42,0.09
			c-3.3,0.01-5.11-1.47-5.09-4.99c0.09-16.1,0.13-36.32,0.18-52.55c0-1.45,1.76-2.93,3.2-3.05c2.33-0.19,28.67-0.08,28.99-0.05"/>
		<path class="st3" d="M88.95,59.93c-24.8-0.03-49.61-0.06-74.41-0.1c-7.47-0.01-8.33-0.84-8.32-8.22
			c0.01-13.18,0.04-26.36,0.06-39.54c0-1.21,1.29-1.97,2.35-1.4c12.51,6.77,25.08,13.44,37.45,20.43c4.34,2.45,9.66,2.27,13.89-0.36
			c3.86-2.41,7.92-4.53,11.88-6.79c6.53-3.53,13.05-7.07,19.58-10.6c1.05-0.57,2.35,0.17,2.36,1.36c0,0.56-0.09,1.14-0.09,1.68
			c0.04,12.32-0.01,24.64,0.05,36.96C93.76,56.73,93,59.4,88.95,59.93z"/>
		<path class="st3" d="M92.56,5.22C94.27,6.75,94,8.1,92.01,9.26C85.59,13,76.5,18.55,70.32,22.15c-4.94,2.97-9.85,6.35-14.78,9.14
			c-2.1,1.18-4.42,0.87-6.69-0.42C35.54,23.32,23.36,15.3,8.72,8.32C6.63,7.32,6.49,6.39,8.21,4.85"/>
		<path class="st13" d="M31,33.57c0.08-10.32,8.64-18.72,18.82-18.48c10.2,0.24,18.64,9.02,18.36,19.12
			c-0.28,10.01-8.73,18.18-18.75,18.14C39.05,52.31,30.91,44.01,31,33.57z"/>
		<path class="st12" d="M49.53,49.82c-9-0.03-16.33-7.11-16.52-15.95c-0.18-8.79,7.58-16.37,16.69-16.28
			c8.96,0.09,16.21,7.39,16.15,16.26C65.79,42.8,58.59,49.85,49.53,49.82z"/>
		<g>
			<path class="st6" d="M48.9,44.05c-1.46,0-3.08,0.64-4.51,0.43c-2.21-0.32-4.08-1.53-4.09-3.91c-0.01-4.07,3.3-4.31,3.97-5.9
				c0.46-1.09,2.18-4.38,4.99-4.38c1.88,0,3.43,0.74,4.38,2.41c0.65,1.13,1.06,2.34,2.3,3.08c2.18,1.31,2.75,3.38,1.97,5.69
				c-0.82,2.41-2.83,3.16-5.22,3.15"/>
			<path class="st6" d="M43.18,27.74c-0.18-1.87-0.51-3.81,1.73-4.77c1.24-0.53,2.39-0.07,3.03,0.97c0.97,1.56,1.08,3.36-0.09,4.85
				c-1.39,1.79-3.48,1.19-4.47-0.56"/>
			<path class="st6" d="M43.1,30.67c0.43,1.75,0.17,3.54-1.96,4.17c-1.27,0.38-2.34-0.18-2.92-1.28c-0.77-1.48-0.84-3.15,0.14-4.51
				c1.13-1.57,3.37-1.68,4.06-0.25"/>
			<path class="st6" d="M56.01,27.74c0.18-1.87,0.51-3.81-1.73-4.77c-1.24-0.53-2.39-0.07-3.03,0.97c-0.97,1.56-1.08,3.36,0.09,4.85
				c1.39,1.79,3.48,1.19,4.47-0.56"/>
			<path class="st6" d="M56.09,30.67c-0.43,1.75-0.17,3.54,1.96,4.17c1.27,0.38,2.34-0.18,2.92-1.28c0.77-1.48,0.84-3.15-0.14-4.51
				c-1.13-1.57-3.37-1.68-4.06-0.25"/>
		</g>
	</g>
</g>
<g id="Layer_12">
</g>
<g id="Layer_13">
</g>
<g id="Layer_14">
</g>
</svg>
