<?xml version="1.0" encoding="utf-8"?>
<!-- Generator: Adobe Illustrator 24.3.0, SVG Export Plug-In . SVG Version: 6.00 Build 0)  -->
<svg version="1.1" id="Capa_1" xmlns="http://www.w3.org/2000/svg" xmlns:xlink="http://www.w3.org/1999/xlink" x="0px" y="0px"
	 viewBox="0 0 512 512" style="enable-background:new 0 0 512 512;" xml:space="preserve">
<style type="text/css">
	.st0{fill:#94FF94;stroke:#1E3F20;stroke-width:8;stroke-miterlimit:10;}
	.st1{fill:#63C132;stroke:#1E3F20;stroke-width:8;stroke-miterlimit:10;}
	.st2{fill:#83FF65;stroke:#1E3F20;stroke-width:8;stroke-miterlimit:10;}
	.st3{fill:#63C132;stroke:#1E3F20;stroke-width:8;stroke-miterlimit:10;}
	.st4{fill:#94FFC1;}
	.st5{fill:#1E3F20;}
</style>
<path class="st0" d="M0,217.2L235.5,7.8c11.7-10.4,29.4-10.4,41.1,0L512,217.2l-256,170L0,217.2z"/>
<path class="st1" d="M276.5,7.8c-11.7-10.4-29.4-10.4-41.1,0l-8.7,7.7c6.8,0.4,13.4,3,18.8,7.8L481,234.8l30.9-17.5L276.5,7.8z"/>
<path class="st2" d="M512,217.2L271.2,353.8c-9.5,5.4-21,5.4-30.5,0L0,217.2v263.9C0,498.2,13.8,512,30.9,512h450.2
	c17.1,0,30.9-13.8,30.9-30.9V217.2z"/>
<g>
	<path class="st1" d="M481.1,234.7v246.4c0,17.1-13.8,30.9-30.9,30.9h30.9c17.1,0,30.9-13.8,30.9-30.9V217.2L481.1,234.7z"/>
</g>
<path class="st3" d="M342.1,195c0,51.3-41.7,92.9-93.1,92.9s-93.1-41.6-93.1-92.9s41.7-92.9,93.1-92.9S342.1,143.7,342.1,195z"/>
<path class="st4" d="M321.4,195c0,39.9-32.4,72.2-72.4,72.2s-72.4-32.3-72.4-72.2s32.4-72.2,72.4-72.2S321.4,155.1,321.4,195z"/>
<g>
	<path class="st5" d="M206.2,194.1h-2.6c-6.9,0-12.5-5.6-12.5-12.5v-10c0-6.9,5.6-12.5,12.5-12.5h2.6c6.9,0,12.5,5.6,12.5,12.5v10
		C218.7,188.5,213.1,194.1,206.2,194.1z"/>
	<path class="st5" d="M291.8,194.1h2.6c6.9,0,12.5-5.6,12.5-12.5v-10c0-6.9-5.6-12.5-12.5-12.5h-2.6c-6.9,0-12.5,5.6-12.5,12.5v10
		C279.3,188.5,284.9,194.1,291.8,194.1z"/>
	<path class="st5" d="M232.6,169H230c-6.9,0-12.5-5.6-12.5-12.5v-10c0-6.9,5.6-12.5,12.5-12.5h2.6c6.9,0,12.5,5.6,12.5,12.5v10
		C245.2,163.4,239.6,169,232.6,169z"/>
	<path class="st5" d="M264.6,169h2.6c6.9,0,12.5-5.6,12.5-12.5v-10c0-6.9-5.6-12.5-12.5-12.5h-2.6c-6.9,0-12.5,5.6-12.5,12.5v10
		C252.1,163.4,257.7,169,264.6,169z"/>
	<path class="st5" d="M276.1,195.8c-1.2-0.3-2.1-1.3-2.1-2.5c0-12.8-11.2-23.1-25.1-23.1c-13.8,0-25.1,10.4-25.1,23.1
		c0,1.2-0.8,2.2-2.1,2.5c-10.6,2.6-18.3,11.5-18.3,22.1v0.6c0,12.6,11.1,22.8,24.8,22.8h41.5c13.7,0,24.8-10.2,24.8-22.8v-0.6
		C294.5,207.3,286.7,198.4,276.1,195.8z"/>
</g>
</svg>
