<?xml version="1.0" encoding="utf-8"?>
<!-- Generator: Adobe Illustrator 25.2.0, SVG Export Plug-In . SVG Version: 6.00 Build 0)  -->
<svg version="1.1" xmlns="http://www.w3.org/2000/svg" xmlns:xlink="http://www.w3.org/1999/xlink" x="0px" y="0px"
	 viewBox="0 0 80 80" style="enable-background:new 0 0 80 80;" xml:space="preserve">
<style type="text/css">
	.st0{fill:#63C035;}
	.st1{display:none;fill:#FFFFFF;}
	.st2{display:none;fill:#63C132;}
	.st3{fill:#63C132;}
	.st4{display:none;fill:#234125;}
	.st5{fill:#1E3F20;}
	.st6{fill:#FFFFFF;}
	.st7{opacity:0.3;fill:#1E3F20;}
	.st8{display:none;}
	.st9{display:inline;}
	.st10{opacity:0.15;fill:#1E3F20;}
	.st11{opacity:0.7;fill:none;stroke:#FFFFFF;stroke-width:5;stroke-miterlimit:10;}
	.st12{opacity:0.7;}
	.st13{display:none;fill:#DB4A39;}
	.st14{fill:#DB4A39;}
	.st15{fill:#3B5998;}
	.st16{fill:none;stroke:#FFFFFF;stroke-width:7.5;stroke-miterlimit:10;}
	.st17{fill:none;stroke:#1E3F20;stroke-width:7.5;stroke-miterlimit:10;}
	.st18{fill:#234125;}
	.st19{opacity:0.75;fill:#FFFFFF;}
	.st20{fill:#1A1A1A;}
	.st21{fill:#FFFFFF;stroke:#1E3F20;stroke-width:0.75;stroke-miterlimit:10;}
	.st22{fill:#FFFFFF;stroke:#1A1A1A;stroke-width:0.75;stroke-miterlimit:10;}
	.st23{clip-path:url(#SVGID_2_);fill:#FFFFFF;}
	.st24{display:none;fill:#006837;}
	.st25{opacity:0.75;}
	.st26{fill:none;stroke:#234125;stroke-width:4;stroke-miterlimit:10;}
	.st27{fill:none;stroke:#234125;stroke-width:3;stroke-miterlimit:10;}
</style>
<g id="Layer_2">
</g>
<g id="Layer_1">
</g>
<g id="Layer_3">
	<g id="Layer_4_copy" class="st8">
	</g>
	<g id="Layer_4_copy_2" class="st8">
	</g>
	<g id="Layer_4" class="st8">
	</g>
	<g id="Layer_4_copy_3" class="st8">
	</g>
	<g id="Layer_4_copy_5">
	</g>
	<g id="Layer_4_copy_4" class="st8">
	</g>
	<g>
		<path class="st6" d="M9.89,36.26c-4.44-3.79-8.51-6.71-5.73-13.56c1.53-3.77,5-5.16,8.64-4.18c5.49,1.46,9.61,5.25,10.34,11.04
			c0.88,6.92-5.03,10.36-10.87,8.11L9.89,36.26z"/>
		<path class="st6" d="M15.44,44.49c5.09,2.34,8.95,6.47,6.35,12.89c-1.55,3.84-4.98,5.36-8.77,4.63c-5.1-0.98-9.31-4.06-10.72-9.11
			c-1.63-5.79,3.92-11.41,9.06-9.77L15.44,44.49z"/>
		<g>
			<path class="st6" d="M36.66,9.49c-3.79-4.44-6.71-8.51-13.56-5.73c-3.77,1.53-5.16,5-4.18,8.64c1.46,5.49,5.25,9.61,11.04,10.34
				c6.92,0.88,10.36-5.03,8.11-10.87L36.66,9.49z"/>
			<path class="st6" d="M44.88,15.05c2.34,5.09,6.47,8.95,12.89,6.35c3.84-1.55,5.36-4.98,4.63-8.77c-0.98-5.1-4.06-9.31-9.11-10.72
				c-5.79-1.63-11.41,3.92-9.77,9.06L44.88,15.05z"/>
		</g>
	</g>
</g>
<g id="Layer_15">
</g>
<g id="Layer_10">
</g>
<g id="Layer_11">
	<g>
		<path class="st6" d="M40.66,77.51V55.49h-6.92c-0.6,0-1.08-0.49-1.08-1.08v-8.73c0-0.6,0.49-1.08,1.08-1.08h6.92v-6.02
			c0-6.04,2.9-10.44,7.69-12.21c-0.94-0.28-1.88-0.56-2.85-0.81c-6.23-1.59-10.92-0.31-15.31,4.22c-4.52,4.38-5.81,9.08-4.22,15.31
			c1.08,4.22,2.9,8.1,1.65,12.8c-2.2,8.23,1.25,14.56,8.54,18.28c1.56,0.79,3.07,1.29,4.54,1.55
			C40.69,77.65,40.66,77.59,40.66,77.51z"/>
		<path class="st6" d="M76.58,35.75c-3.25-6.36-8.48-9.79-15.23-9.11v8.07c0,0.6-0.48,1.08-1.08,1.08l-4.64,0
			c-3.2,0-3.78,1.25-3.78,3.7v5.11h8.09c0.29,0,0.56,0.11,0.77,0.32c0.2,0.21,0.32,0.48,0.32,0.77l0,8.73c0,0.6-0.48,1.08-1.08,1.08
			h-8.09v19.55c0.98-0.65,1.94-1.39,2.87-2.21c0.81-0.71,1.54-1.51,2.19-2.36l3.76-5.21c0.12-0.16,1.33-1.85,2.23-2.75
			c0.9-0.9,2.59-2.11,2.75-2.23l5.21-3.76c0.86-0.65,1.65-1.38,2.36-2.19C77.99,48.92,80.17,42.76,76.58,35.75z"/>
	</g>
</g>
<g id="Layer_12">
</g>
<g id="Layer_13">
</g>
<g id="Layer_14">
</g>
</svg>
