<?xml version="1.0" encoding="utf-8"?>
<!-- Generator: Adobe Illustrator 25.2.0, SVG Export Plug-In . SVG Version: 6.00 Build 0)  -->
<svg version="1.1" xmlns="http://www.w3.org/2000/svg" xmlns:xlink="http://www.w3.org/1999/xlink" x="0px" y="0px"
	 viewBox="0 0 99.41 80" style="enable-background:new 0 0 99.41 80;" xml:space="preserve">
<style type="text/css">
	.st0{fill:#63C035;}
	.st1{display:none;fill:#FFFFFF;}
	.st2{display:none;fill:#63C132;}
	.st3{fill:#63C132;}
	.st4{display:none;fill:#234125;}
	.st5{fill:#1E3F20;}
	.st6{fill:#FFFFFF;}
	.st7{opacity:0.3;fill:#1E3F20;}
	.st8{display:none;}
	.st9{display:inline;}
	.st10{opacity:0.15;fill:#1E3F20;}
	.st11{opacity:0.7;fill:none;stroke:#FFFFFF;stroke-width:5;stroke-miterlimit:10;}
	.st12{opacity:0.7;}
	.st13{display:none;fill:#DB4A39;}
	.st14{fill:#DB4A39;}
	.st15{fill:#3B5998;}
	.st16{fill:none;stroke:#FFFFFF;stroke-width:7.5;stroke-miterlimit:10;}
	.st17{fill:none;stroke:#1E3F20;stroke-width:7.5;stroke-miterlimit:10;}
	.st18{fill:#234125;}
	.st19{opacity:0.75;fill:#FFFFFF;}
	.st20{fill:#1A1A1A;}
	.st21{fill:#FFFFFF;stroke:#1E3F20;stroke-width:0.75;stroke-miterlimit:10;}
	.st22{fill:#FFFFFF;stroke:#1A1A1A;stroke-width:0.75;stroke-miterlimit:10;}
	.st23{clip-path:url(#SVGID_2_);fill:#FFFFFF;}
	.st24{display:none;fill:#006837;}
	.st25{opacity:0.75;}
	.st26{fill:none;stroke:#234125;stroke-width:4;stroke-miterlimit:10;}
	.st27{fill:none;stroke:#234125;stroke-width:3;stroke-miterlimit:10;}
</style>
<g id="Layer_2">
</g>
<g id="Layer_1">
</g>
<g id="Layer_3">
	<g id="Layer_4_copy" class="st8">
	</g>
	<g id="Layer_4_copy_2" class="st8">
	</g>
	<g id="Layer_4" class="st8">
	</g>
	<g id="Layer_4_copy_3" class="st8">
	</g>
	<g id="Layer_4_copy_5">
	</g>
	<g id="Layer_4_copy_4" class="st8">
	</g>
	<rect x="-5.18" y="-5.36" class="st13" width="109.06" height="90.35"/>
	<g>
		<path class="st6" d="M9.89,36.26c-4.44-3.79-8.51-6.71-5.73-13.56c1.53-3.77,5-5.16,8.64-4.18c5.49,1.46,9.61,5.25,10.34,11.04
			c0.88,6.92-5.03,10.36-10.87,8.11L9.89,36.26z"/>
		<path class="st6" d="M15.44,44.49c5.09,2.34,8.95,6.47,6.35,12.89c-1.55,3.84-4.98,5.36-8.77,4.63c-5.1-0.98-9.31-4.06-10.72-9.11
			c-1.63-5.79,3.92-11.41,9.06-9.77L15.44,44.49z"/>
		<g>
			<path class="st6" d="M36.66,9.49c-3.79-4.44-6.71-8.51-13.56-5.73c-3.77,1.53-5.16,5-4.18,8.64c1.46,5.49,5.25,9.61,11.04,10.34
				c6.92,0.88,10.36-5.03,8.11-10.87L36.66,9.49z"/>
			<path class="st6" d="M44.88,15.05c2.34,5.09,6.47,8.95,12.89,6.35c3.84-1.55,5.36-4.98,4.63-8.77c-0.98-5.1-4.06-9.31-9.11-10.72
				c-5.79-1.63-11.41,3.92-9.77,9.06L44.88,15.05z"/>
		</g>
	</g>
</g>
<g id="Layer_15">
</g>
<g id="Layer_10">
</g>
<g id="Layer_11">
	<path class="st6" d="M76.58,35.75c-3.72-7.29-10.05-10.74-18.28-8.54c-4.7,1.26-8.57-0.56-12.8-1.65
		c-6.23-1.59-10.92-0.31-15.31,4.22c-4.52,4.38-5.81,9.08-4.22,15.31c1.08,4.22,2.9,8.1,1.65,12.8c-2.2,8.23,1.25,14.56,8.54,18.28
		c7.01,3.58,13.17,1.41,18.57-3.34c0.46-0.41,0.9-0.85,1.31-1.31c-1.71,0.38-3.51,0.59-5.39,0.59c-12.1,0-21.91-9.81-21.91-21.91
		c0-12.09,9.81-21.9,21.91-21.9c5.85,0,10.98,2.09,14.71,5.71l-6.29,6.29C56.95,38.14,54.04,37,50.65,37
		c-7.12,0-12.89,6.07-12.89,13.19c0,7.13,5.77,13.02,12.89,13.02c5.97,0,10.49-2.89,11.79-8.66H50.65v-8.8h20.73
		c0.25,1.42,0.37,2.9,0.37,4.44c0,1.52-0.11,2.98-0.32,4.36c-0.09,0.61-0.21,1.2-0.34,1.78c0.77-0.61,1.5-1.27,2.15-2.01
		C77.99,48.92,80.16,42.76,76.58,35.75z"/>
	<polygon class="st6" points="95.88,21.18 87.55,21.18 87.55,29.51 81.63,29.51 81.63,21.18 73.29,21.18 73.29,15.26 81.63,15.26 
		81.63,6.93 87.55,6.93 87.55,15.26 95.88,15.26 	"/>
</g>
<g id="Layer_12">
</g>
<g id="Layer_13">
</g>
<g id="Layer_14">
</g>
</svg>
