<?xml version="1.0" encoding="utf-8"?>
<!-- Generator: Adobe Illustrator 24.3.0, SVG Export Plug-In . SVG Version: 6.00 Build 0)  -->
<svg version="1.1" id="Capa_1" xmlns="http://www.w3.org/2000/svg" xmlns:xlink="http://www.w3.org/1999/xlink" x="0px" y="0px"
	 viewBox="0 0 512 512" style="enable-background:new 0 0 512 512;" xml:space="preserve">
<style type="text/css">
	.st0{fill:#83FF65;stroke:#1E3F20;stroke-width:8;stroke-miterlimit:10;}
	.st1{fill:#63C132;stroke:#1E3F20;stroke-width:8;stroke-miterlimit:10;}
	.st2{fill:#83FF65;}
	.st3{fill:#1E3F20;}
</style>
<path class="st0" d="M386,195.1v-53c0-78.8-64.1-143-143-143s-143,64.2-143,143v53H53v126c0,104.8,85.2,190,190,190
	s190-85.2,190-190v-126H386z M258,373v46.8h-30V373c-23.1-6.5-40-27.8-40-52.9c0-30.3,24.7-55,55-55s55,24.7,55,55
	C298,345.2,281.1,366.5,258,373z M356,195.1H130v-53c0-62.3,50.7-113,113-113s113,50.7,113,113V195.1z"/>
<path class="st1" d="M429.2,210.8c0,51.3-41.7,92.9-93.1,92.9S243,262.1,243,210.8s41.7-92.9,93.1-92.9S429.2,159.5,429.2,210.8z"/>
<path class="st2" d="M408.5,210.8c0,39.9-32.4,72.2-72.4,72.2s-72.4-32.3-72.4-72.2s32.4-72.2,72.4-72.2S408.5,170.9,408.5,210.8z"
	/>
<g>
	<path class="st3" d="M293.3,209.9h-2.6c-6.9,0-12.5-5.6-12.5-12.5v-10c0-6.9,5.6-12.5,12.5-12.5h2.6c6.9,0,12.5,5.6,12.5,12.5v10
		C305.8,204.3,300.2,209.9,293.3,209.9z"/>
	<path class="st3" d="M378.9,209.9h2.6c6.9,0,12.5-5.6,12.5-12.5v-10c0-6.9-5.6-12.5-12.5-12.5h-2.6c-6.9,0-12.5,5.6-12.5,12.5v10
		C366.4,204.3,372,209.9,378.9,209.9z"/>
	<path class="st3" d="M319.7,184.8h-2.6c-6.9,0-12.5-5.6-12.5-12.5v-10c0-6.9,5.6-12.5,12.5-12.5h2.6c6.9,0,12.5,5.6,12.5,12.5v10
		C332.3,179.2,326.7,184.8,319.7,184.8z"/>
	<path class="st3" d="M351.7,184.8h2.6c6.9,0,12.5-5.6,12.5-12.5v-10c0-6.9-5.6-12.5-12.5-12.5h-2.6c-6.9,0-12.5,5.6-12.5,12.5v10
		C339.2,179.2,344.8,184.8,351.7,184.8z"/>
	<path class="st3" d="M363.2,211.6c-1.2-0.3-2.1-1.3-2.1-2.5c0-12.8-11.2-23.1-25.1-23.1c-13.8,0-25.1,10.4-25.1,23.1
		c0,1.2-0.8,2.2-2.1,2.5c-10.6,2.6-18.3,11.5-18.3,22.1v0.6c0,12.6,11.1,22.8,24.8,22.8h41.5c13.7,0,24.8-10.2,24.8-22.8v-0.6
		C381.6,223.1,373.8,214.2,363.2,211.6z"/>
</g>
</svg>
