<?xml version="1.0" encoding="utf-8"?>
<!-- Generator: Adobe Illustrator 25.2.0, SVG Export Plug-In . SVG Version: 6.00 Build 0)  -->
<svg version="1.1" xmlns="http://www.w3.org/2000/svg" xmlns:xlink="http://www.w3.org/1999/xlink" x="0px" y="0px"
	 viewBox="0 0 100 105" style="enable-background:new 0 0 100 105;" xml:space="preserve">
<style type="text/css">
	.st0{fill:#63C035;}
	.st1{display:none;fill:#FFFFFF;}
	.st2{display:none;fill:#63C132;}
	.st3{fill:#63C132;}
	.st4{display:none;fill:#234125;}
	.st5{fill:#1E3F20;}
	.st6{fill:#FFFFFF;}
	.st7{display:none;}
	.st8{display:inline;}
	.st9{opacity:0.75;fill:#FFFFFF;}
	.st10{display:none;fill:#006837;}
	.st11{opacity:0.8;fill:#63C035;}
	.st12{fill:#234125;}
	.st13{fill:#1A1A1A;}
	.st14{fill:#FFFFFF;stroke:#1E3F20;stroke-width:0.75;stroke-miterlimit:10;}
	.st15{fill:#FFFFFF;stroke:#1A1A1A;stroke-width:0.75;stroke-miterlimit:10;}
	.st16{opacity:0.75;}
	.st17{fill:none;stroke:#234125;stroke-width:4;stroke-miterlimit:10;}
	.st18{fill:none;stroke:#234125;stroke-width:3;stroke-miterlimit:10;}
</style>
<g id="Layer_2">
</g>
<g id="Layer_1">
</g>
<g id="Layer_3">
	<g id="Layer_4_copy" class="st7">
	</g>
	<g id="Layer_4_copy_2" class="st7">
	</g>
	<g id="Layer_4" class="st7">
	</g>
	<g id="Layer_4_copy_3" class="st7">
	</g>
	<g id="Layer_4_copy_5">
	</g>
	<g id="Layer_4_copy_4" class="st7">
	</g>
</g>
<g id="Layer_10">
</g>
<g id="Layer_11">
	<g>
		<path class="st13" d="M73.88,40.3c0.06-2.15-1.23-2.79-2.53-2.82c-5.68-0.16-5.86-0.18-5.65-5.92
			c0.38-10.36-3.26-18.12-11.99-23.86c-3.83-2.52-8.27-3.67-13.75-3.67c-5.48,0-9.92,1.15-13.75,3.67
			c-8.74,5.74-12.37,13.5-11.99,23.86c0.21,5.74,0.03,5.76-5.65,5.92c-1.29,0.04-2.59,0.68-2.53,2.82
			c0.25,8.47-0.3,16.58,0.45,25.03c1.69,19.1,16.13,29.18,33.48,29.18s31.78-10.08,33.48-29.18C74.18,56.88,73.63,48.77,73.88,40.3z
			 M54.1,37.3c-4.02-0.09-10.58-0.01-14.6,0.03c-4.02-0.04-10.58-0.11-14.6-0.03c-1.69,0.04-2.35-0.5-2.26-2.2
			c0.13-2.36,0-4.73,0.1-7.09c0.31-7.97,6.82-16.28,16.76-16.28c9.94,0,16.45,8.31,16.76,16.28c0.09,2.36-0.03,4.73,0.1,7.09
			C56.45,36.8,55.79,37.34,54.1,37.3z"/>
		<path class="st3" d="M71.79,42.76c0.12-2.46-0.67-3.45-3.12-3.1c-0.69,0.1-1.41-0.08-2.09,0.03c-2.52,0.39-3.13-0.72-3.08-3.12
			c0.08-4.18,0.59-8.45-0.6-12.53C59.7,13.05,52.29,7.11,40.95,6.07h-1.92c-11.35,1.04-18.76,6.97-21.95,17.96
			c-1.19,4.09-0.68,8.35-0.6,12.53c0.05,2.4-0.57,3.51-3.08,3.12c-0.68-0.11-1.41,0.07-2.09-0.03c-2.45-0.35-3.24,0.64-3.12,3.1
			c0.35,7.34-0.34,14.7,0.5,22.04c1.8,15.79,15.28,28.03,31.31,27.29c16.02,0.74,29.5-11.5,31.31-27.29
			C72.13,57.46,71.44,50.1,71.79,42.76z M56.47,39.71c-4.67-0.1-12.29-0.01-16.96,0.03c-4.67-0.04-12.3-0.14-16.96-0.03
			c-1.96,0.04-2.73-0.6-2.62-2.61c0.15-2.8,0-5.62,0.11-8.42c0.36-9.47,7.92-19.34,19.47-19.34s19.12,9.87,19.47,19.34
			c0.11,2.8-0.04,5.62,0.11,8.42C59.2,39.11,58.43,39.75,56.47,39.71z"/>
		<g>
			<path class="st15" d="M33.91,53.88c-0.18-1.79-0.49-3.65,1.66-4.57c1.18-0.5,2.29-0.07,2.9,0.93c0.93,1.5,1.03,3.22-0.08,4.65
				c-1.33,1.72-3.33,1.14-4.28-0.53L33.91,53.88z"/>
			<path class="st15" d="M33.37,56.68c0.41,1.67,0.16,3.39-1.88,4c-1.22,0.36-2.24-0.17-2.8-1.22c-0.74-1.41-0.81-3.01,0.13-4.32
				c1.08-1.5,3.23-1.6,3.89-0.24L33.37,56.68z"/>
			<path class="st15" d="M46.2,53.88c0.18-1.79,0.49-3.65-1.66-4.57c-1.18-0.5-2.29-0.07-2.9,0.93c-0.93,1.5-1.03,3.22,0.08,4.65
				c1.33,1.72,3.33,1.14,4.28-0.53L46.2,53.88z"/>
			<path class="st15" d="M46.7,57.07c-0.41,1.67-0.16,3.39,1.88,4c1.22,0.36,2.24-0.17,2.8-1.22c0.74-1.41,0.81-3.01-0.13-4.32
				c-1.08-1.5-3.23-1.6-3.89-0.24L46.7,57.07z"/>
			<path class="st15" d="M46.42,61.59c-1.19-0.71-1.59-1.87-2.21-2.95c-0.91-1.59-2.43-2.31-4.23-2.31s-3.32,0.71-4.23,2.31
				c-0.62,1.08-1.01,2.24-2.21,2.95c-2.09,1.25-2.64,3.24-1.88,5.45c0.79,2.31,2.71,3.03,5,3.02h0.88v6.24
				c0,0.6,0.49,1.08,1.08,1.08h2.85c0.6,0,1.08-0.49,1.08-1.08v-6.24h0.75c2.28,0.01,4.21-0.71,5-3.02
				C49.06,64.83,48.51,62.84,46.42,61.59z"/>
		</g>
	</g>
	<g>
		<path class="st13" d="M95.29,47.96c0.06-2.15-1.23-2.79-2.53-2.82c-5.68-0.16-5.86-0.18-5.65-5.92
			c0.38-10.36-3.26-18.12-11.99-23.86c-3.83-2.52-8.27-3.67-13.75-3.67c-5.48,0-9.92,1.15-13.75,3.67
			c-8.74,5.74-12.37,13.5-11.99,23.86c0.21,5.74,0.03,5.76-5.65,5.92c-1.29,0.04-2.59,0.68-2.53,2.82
			c0.25,8.47-0.3,16.58,0.45,25.03c1.69,19.1,16.13,29.18,33.48,29.18s31.78-10.08,33.48-29.18C95.59,64.54,95.04,56.43,95.29,47.96
			z M75.52,44.97c-4.02-0.09-10.58-0.01-14.6,0.03c-4.02-0.04-10.58-0.11-14.6-0.03c-1.69,0.04-2.35-0.5-2.26-2.2
			c0.13-2.36,0-4.73,0.1-7.09c0.31-7.97,6.82-16.28,16.76-16.28c9.94,0,16.45,8.31,16.76,16.28c0.09,2.36-0.03,4.73,0.1,7.09
			C77.87,44.46,77.21,45,75.52,44.97z"/>
		<path class="st3" d="M93.2,50.43c0.12-2.46-0.67-3.45-3.12-3.1c-0.69,0.1-1.41-0.08-2.09,0.03c-2.52,0.39-3.13-0.72-3.08-3.12
			c0.08-4.18,0.59-8.45-0.6-12.53c-3.19-10.99-10.6-16.92-21.95-17.96h-1.92c-11.35,1.04-18.76,6.97-21.95,17.96
			c-1.19,4.09-0.68,8.35-0.6,12.53c0.05,2.4-0.57,3.51-3.08,3.12c-0.68-0.11-1.41,0.07-2.09-0.03c-2.45-0.35-3.24,0.64-3.12,3.1
			c0.35,7.34-0.34,14.7,0.5,22.04c1.8,15.79,15.28,28.03,31.31,27.29c16.02,0.74,29.5-11.5,31.31-27.29
			C93.54,65.12,92.86,57.77,93.2,50.43z M77.88,47.37c-4.67-0.1-12.29-0.01-16.96,0.03c-4.67-0.04-12.3-0.14-16.96-0.03
			c-1.96,0.04-2.73-0.6-2.62-2.61c0.15-2.8,0.01-5.62,0.11-8.42C41.8,26.87,49.36,17,60.92,17s19.12,9.87,19.47,19.34
			c0.11,2.8-0.04,5.62,0.11,8.42C80.61,46.77,79.84,47.41,77.88,47.37z"/>
		<g>
			<path class="st15" d="M55.22,60.82c-0.18-1.79-0.49-3.65,1.66-4.57c1.18-0.5,2.29-0.07,2.9,0.93c0.93,1.5,1.03,3.22-0.08,4.65
				c-1.33,1.72-3.33,1.14-4.28-0.53L55.22,60.82z"/>
			<path class="st15" d="M54.78,64.35c0.41,1.67,0.16,3.39-1.88,4c-1.22,0.36-2.24-0.17-2.8-1.22c-0.74-1.41-0.81-3.01,0.13-4.32
				c1.08-1.5,3.23-1.6,3.89-0.24L54.78,64.35z"/>
			<path class="st15" d="M67.51,60.82c0.18-1.79,0.49-3.65-1.66-4.57c-1.18-0.5-2.29-0.07-2.9,0.93c-0.93,1.5-1.03,3.22,0.08,4.65
				c1.33,1.72,3.33,1.14,4.28-0.53L67.51,60.82z"/>
			<path class="st15" d="M68.12,64.73c-0.41,1.67-0.16,3.39,1.88,4c1.22,0.36,2.24-0.17,2.8-1.22c0.74-1.41,0.81-3.01-0.13-4.32
				c-1.08-1.5-3.23-1.6-3.89-0.24L68.12,64.73z"/>
			<path class="st15" d="M67.84,69.25c-1.19-0.71-1.59-1.87-2.21-2.95C64.72,64.71,63.2,64,61.4,64s-3.32,0.71-4.23,2.31
				c-0.62,1.08-1.01,2.24-2.21,2.95c-2.09,1.25-2.64,3.24-1.88,5.45c0.79,2.31,2.71,3.03,5,3.02h0.88v6.24
				c0,0.6,0.49,1.08,1.08,1.08h2.85c0.6,0,1.08-0.49,1.08-1.08v-6.24h0.75c2.28,0.01,4.21-0.71,5-3.02
				C70.47,72.49,69.92,70.51,67.84,69.25z"/>
		</g>
	</g>
</g>
<g id="Layer_12">
</g>
<g id="Layer_13">
</g>
<g id="Layer_14">
</g>
</svg>
