<?xml version="1.0" encoding="utf-8"?>
<!-- Generator: Adobe Illustrator 24.3.0, SVG Export Plug-In . SVG Version: 6.00 Build 0)  -->
<svg version="1.1" id="Layer_1" xmlns="http://www.w3.org/2000/svg" xmlns:xlink="http://www.w3.org/1999/xlink" x="0px" y="0px"
	 viewBox="0 0 473 473" style="enable-background:new 0 0 473 473;" xml:space="preserve">
<style type="text/css">
	.st0{fill:#ffffff;}
	.st1{fill:#1E3F20;}
	.st2{fill:#63C132;}
</style>
<path class="st0" d="M310.4,48.4h95.9v167.8h-95.9V48.4z"/>
<path class="st1" d="M406.3,220.3h-95.9c-2.2,0-4-1.8-4-4V48.4c0-2.2,1.8-4,4-4h95.9c2.2,0,4,1.8,4,4v167.8
	C410.3,218.5,408.5,220.3,406.3,220.3z M314.4,212.3h87.9V52.4h-87.9V212.3z"/>
<path class="st2" d="M410.7,66.4H306.1c-4.2,0-7.6-3.4-7.6-7.6V34.1c0-4.2,3.4-7.6,7.6-7.6h104.6c4.2,0,7.6,3.4,7.6,7.6v24.7
	C418.3,63,414.9,66.4,410.7,66.4z"/>
<path class="st1" d="M410.7,70.4H306.1c-6.4,0-11.6-5.2-11.6-11.6V34.1c0-6.4,5.2-11.6,11.6-11.6h104.6c6.4,0,11.6,5.2,11.6,11.6
	v24.7C422.3,65.2,417.1,70.4,410.7,70.4z M306.1,30.4c-2,0-3.6,1.6-3.6,3.6v24.7c0,2,1.6,3.6,3.6,3.6h104.6c2,0,3.6-1.6,3.6-3.6
	V34.1c0-2-1.6-3.6-3.6-3.6H306.1z"/>
<path class="st0" d="M236.5,60.4L66.7,206.3v215.4c0,13.2,10.7,24,24,24h291.7c13.2,0,24-10.7,24-24V206.3L236.5,60.4z"/>
<path class="st2" d="M165.1,446.1v-95.8c0-13.2,10.7-24,24-24h94.8c13.2,0,24,10.7,24,24v95.8H165.1z"/>
<path class="st1" d="M382.4,449.7H90.6c-15.4,0-28-12.5-28-28V206.3c0-1.2,0.5-2.3,1.4-3L233.9,57.4c1.5-1.3,3.7-1.3,5.2,0
	l169.8,145.9c0.9,0.8,1.4,1.9,1.4,3v215.4C410.3,437.1,397.8,449.7,382.4,449.7z M70.7,208.1v213.6c0,11,9,20,20,20h291.7
	c11,0,20-9,20-20V208.1L236.5,65.7L70.7,208.1z"/>
<path class="st2" d="M442.3,264.8c-6.2,3.5-13.5,2.5-18.5-1.7L244.3,108.9c-4.5-3.9-11.1-3.9-15.6,0L49.2,263.1
	c-2.9,2.5-6.6,3.9-10.4,3.9c-4.3,0-8.3-1.7-11.3-4.7L8.7,243.5c-3.1-3.1-4.8-7.5-4.7-11.9c0.2-4.4,2.2-8.6,5.6-11.5L226.1,34.1
	c2.9-2.5,6.6-3.9,10.4-3.9c3.8,0,7.5,1.4,10.4,3.9l216.5,185.9c3.4,2.9,5.4,7.1,5.6,11.5c0.2,4.4-1.5,8.8-4.7,11.9l-18.8,18.7
	C444.6,263.2,443.5,264.1,442.3,264.8z"/>
<g>
	<path class="st1" d="M174,239.5c-10.8,0-19.6-8.8-19.6-19.6v-11.2c0-10.8,8.8-19.6,19.6-19.6s19.6,8.8,19.6,19.6v11.2
		C193.6,230.8,184.8,239.5,174,239.5z"/>
	<path class="st1" d="M299,239.5c10.8,0,19.6-8.8,19.6-19.6v-11.2c0-10.8-8.8-19.6-19.6-19.6c-10.8,0-19.6,8.8-19.6,19.6v11.2
		C279.4,230.8,288.2,239.5,299,239.5z"/>
	<path class="st1" d="M211.5,203.5c-10.8,0-19.6-8.8-19.6-19.6v-11.2c0-10.8,8.8-19.6,19.6-19.6s19.6,8.8,19.6,19.6v11.2
		C231.1,194.7,222.3,203.5,211.5,203.5z"/>
	<path class="st1" d="M260.5,203.5c10.8,0,19.6-8.8,19.6-19.6v-11.2c0-10.8-8.8-19.6-19.6-19.6c-10.8,0-19.6,8.8-19.6,19.6v11.2
		C240.9,194.7,249.6,203.5,260.5,203.5z"/>
	<path class="st1" d="M275,242c-1.7-0.4-2.9-1.9-2.9-3.6c0-18.3-15.9-33.2-35.5-33.2c-19.6,0-35.5,14.9-35.5,33.2
		c0,1.7-1.2,3.1-2.9,3.6c-15,3.7-26,16.5-26,31.7v0.8c0,18.1,15.7,32.8,35.1,32.8h58.8c19.4,0,35.1-14.7,35.1-32.8v-0.8
		C301,258.5,289.9,245.8,275,242z"/>
</g>
<path class="st1" d="M434.2,271c-4.7,0-9.2-1.6-13-4.8L241.7,111.9c-3-2.6-7.4-2.6-10.4,0L51.8,266.1c-3.6,3.1-8.2,4.8-13,4.8
	c-5.3,0-10.4-2.1-14.1-5.8L5.9,246.3c-3.9-3.9-6-9.3-5.8-14.9c0.2-5.5,2.7-10.8,6.9-14.4l216.5-186c3.6-3.1,8.2-4.8,13-4.8
	c4.8,0,9.4,1.7,13,4.8L466,217c4.2,3.6,6.7,8.9,7,14.4c0.2,5.5-1.9,11-5.8,14.9l-18.8,18.8c-1.3,1.3-2.7,2.4-4.1,3.2
	C441.1,270.1,437.6,271,434.2,271z M442.3,264.8L442.3,264.8L442.3,264.8z M236.5,102c3.7,0,7.4,1.3,10.4,3.9l179.5,154.2
	c3.9,3.3,9.3,3.8,13.9,1.3c0.8-0.4,1.6-1.1,2.4-1.9l18.7-18.7c2.4-2.4,3.6-5.6,3.5-8.9c-0.1-3.3-1.6-6.5-4.2-8.6L244.3,37.1
	c-2.2-1.9-4.9-2.9-7.8-2.9c-2.9,0-5.6,1-7.8,2.9L12.2,223.1c-2.5,2.2-4,5.3-4.2,8.6c-0.1,3.3,1.1,6.6,3.5,8.9l18.8,18.8
	c2.3,2.3,5.3,3.5,8.5,3.5c2.9,0,5.6-1,7.8-2.9l179.5-154.2C229.1,103.3,232.8,102,236.5,102z"/>
<path class="st1" d="M307.9,450.1H165.1c-2.2,0-4-1.8-4-4v-95.8c0-15.4,12.5-28,28-28h94.8c15.4,0,28,12.5,28,28v95.8
	C311.9,448.3,310.1,450.1,307.9,450.1z M169.1,442.1h134.8v-91.8c0-11-9-20-20-20h-94.8c-11,0-20,9-20,20V442.1z"/>
</svg>
