<?xml version="1.0" encoding="utf-8"?>
<!-- Generator: Adobe Illustrator 25.2.0, SVG Export Plug-In . SVG Version: 6.00 Build 0)  -->
<svg version="1.1" xmlns="http://www.w3.org/2000/svg" xmlns:xlink="http://www.w3.org/1999/xlink" x="0px" y="0px"
	 viewBox="0 0 80 80" style="enable-background:new 0 0 80 80;" xml:space="preserve">
<style type="text/css">
	.st0{fill:#63C035;}
	.st1{display:none;fill:#FFFFFF;}
	.st2{display:none;fill:#63C132;}
	.st3{fill:#63C132;}
	.st4{display:none;fill:#234125;}
	.st5{fill:#1E3F20;}
	.st6{fill:#FFFFFF;}
	.st7{display:none;}
	.st8{display:inline;}
	.st9{opacity:0.75;fill:#FFFFFF;}
	.st10{display:none;fill:#006837;}
	.st11{opacity:0.8;fill:#63C035;}
	.st12{fill:#234125;}
	.st13{fill:#1A1A1A;}
	.st14{fill:#FFFFFF;stroke:#1E3F20;stroke-width:0.75;stroke-miterlimit:10;}
	.st15{fill:#FFFFFF;stroke:#1A1A1A;stroke-width:0.75;stroke-miterlimit:10;}
	.st16{opacity:0.75;}
	.st17{fill:none;stroke:#234125;stroke-width:4;stroke-miterlimit:10;}
	.st18{fill:none;stroke:#234125;stroke-width:3;stroke-miterlimit:10;}
</style>
<g id="Layer_2">
</g>
<g id="Layer_1">
</g>
<g id="Layer_3">
	<g id="Layer_4_copy" class="st7">
	</g>
	<g id="Layer_4_copy_2" class="st7">
	</g>
	<g id="Layer_4" class="st7">
	</g>
	<g id="Layer_4_copy_3" class="st7">
	</g>
	<g id="Layer_4_copy_5">
	</g>
	<g id="Layer_4_copy_4" class="st7">
	</g>
</g>
<g id="Layer_10">
</g>
<g id="Layer_11">
	<g>
		<ellipse class="st12" cx="40.34" cy="48.55" rx="6.28" ry="4.85"/>
		<path class="st13" d="M38.84,74.39c-16.5,3.64-22.78,0.32-27.75-9.62c-3.32-6.65-1.42-16.63,2.87-23.38
			c-3.82-1.12-7.85-2.59-11.66-8.42c-4.53-6.92,0.85-8.61,3.56-15.86c0.79-2.12,2.64-5.31,3.81-7.23c3.53-5.78,8.17-7.02,13.88-3.52
			c2.37,1.45,5.25,1.89,7.89,1.06c3.77-1.19,7.73-0.93,11.59-0.68c5.59,0.36,10.87,1.8,16.44-1.78c3.34-2.14,7.72,0.4,9.88,4.06
			c3.35,5.68,6.54,11.49,9.24,17.5c1.87,4.14,0.6,8.05-3.35,10.63c-2.96,1.94-5.99,3.83-9.97,4.01c5.74,8.45,6.16,17.05,2.32,25.85
			c-5.07,11.62-17.93,8.81-25.4,7.46 M21.21,61.13c0,1.53-0.03,3.05,0.01,4.58c0.07,3.07-0.17,6.77,3.84,7.2
			c4.33,0.46,9.39,1.99,12.51-2.79c2.79-4.28,0.98-9.26,1.34-13.91c0.25-3.18-2.91-2.1-4.32-3.22c-0.51-0.41-1.21-0.97-1.25-1.51
			c-0.29-3.86-2.56-4.61-5.83-3.95c-3.57,0.72-5.74,2.87-6.09,6.5 M59.18,53.6c-0.47-3.68-2.9-5.49-6.43-6.16
			c-3.29-0.62-5.05,0.51-5.43,3.95c-0.11,0.97-1.03,1.89-2.11,1.95c-3.71,0.19-3.62,2.69-3.51,5.36c0.1,2.37-0.04,4.75,0.05,7.12
			c0.18,4.62,2.55,7.05,7.24,7.42c9.1,0.72,10.47-0.46,10.48-9.49c0-0.68,0-1.36,0-2.03 M40.48,51.35c1.6-0.38,4.53,0.66,4.58-2.28
			c0.05-2.91-2.82-1.74-4.36-1.68c-1.76,0.06-4.78-1.38-5.05,1.5C35.36,51.81,38.34,51.09,40.48,51.35z"/>
		<path class="st3" d="M40.26,9.61c18.55-1.36,22.51,12.22,21.37,26.74c-0.09,1.17-0.42,2.21-1.72,1.67
			c-1.38-0.57-3.65,0.18-3.93-2.23c-0.15-1.33,0.03-2.7-0.1-4.03c-0.18-1.71-1.13-2.83-2.95-2.88c-2.06-0.05-3.54,1.26-3.25,3.06
			c0.99,6.19-3.14,5.26-6.74,5.24c-2.36-0.02-4.73-0.06-7.09,0.01c-3.71,0.11-7.68,0.76-6.64-5.29c0.28-1.65-0.92-2.89-2.74-2.99
			c-2.04-0.12-3.16,1.03-3.35,2.99c-0.13,1.34,0.03,2.71-0.1,4.06c-0.15,1.56-1.59,1.56-2.66,1.85c-1.05,0.28-1.34-0.45-1.62-1.37
			c-2.51-8.28,1.15-19.37,7.89-24.23C30.82,9.18,35.55,9.63,40.26,9.61z"/>
		<path class="st3" d="M61.8,68.07c0-4.18,0.1-8.36-0.02-12.54c-0.21-7.35-3.28-10.19-10.62-10.72c-7.27-0.53-14.5-0.52-21.76,0
			c-7.29,0.52-10.31,3.41-10.5,10.84c-0.11,4.4-0.02,8.81-0.02,13.17c-1.59,0.9-2.31-0.3-3-1.13c-5.2-6.24-4.3-13.53-2.14-20.25
			c1.93-5.99,7.48-7.58,13.64-7.39c8.62,0.26,17.25,0.04,25.88,0.08c8.63,0.04,13.26,4.33,13.79,12.84
			C67.4,58.7,66.5,67.78,61.8,68.07z"/>
		<path class="st12" d="M18.32,7.53c1.93,0.04,3.96,0.45,4.9,2.08c0.95,1.65-1.17,2.54-2.01,3.61c-4.62,5.95-5.69,12.71-5.31,20.01
			c0.27,5.12-1.33,6.08-5.94,3.88C2.18,33.4,2.05,26.66,5.28,23.43c2.81-2.81,3.64-7.21,5.67-10.7C12.56,9.96,14.47,7.27,18.32,7.53
			z"/>
		<path class="st12" d="M61.59,7.55c3.45-0.27,5.31,2.15,6.77,4.57c2.78,4.64,5.21,9.49,7.72,14.29c1.19,2.27,1.32,4.53-0.62,6.56
			c-2.51,2.62-5.3,4.81-9.08,4.96c-1.59,0.06-1.61-1.39-1.71-2.6c-0.3-3.7-0.7-7.39-0.94-11.09c-0.28-4.27-2.42-7.64-4.88-10.92
			c-0.91-1.22-3.54-1.87-2.27-3.87C57.53,7.9,59.62,7.44,61.59,7.55z"/>
	</g>
</g>
<g id="Layer_12">
</g>
<g id="Layer_13">
</g>
<g id="Layer_14">
</g>
</svg>
