<?xml version="1.0" encoding="utf-8"?>
<!-- Generator: Adobe Illustrator 25.0.1, SVG Export Plug-In . SVG Version: 6.00 Build 0)  -->
<svg version="1.1" id="Layer_1" xmlns="http://www.w3.org/2000/svg" xmlns:xlink="http://www.w3.org/1999/xlink" x="0px" y="0px"
	 viewBox="0 0 487 487" style="enable-background:new 0 0 487 487;" xml:space="preserve">
<style type="text/css">
	.st0{fill:#83FF65;}
	.st1{fill:#1E3F20;}
	.st2{fill:#007F1C;}
	.st3{fill:#F6E5E3;}
	.st4{fill:#F9CFCF;}
	.st5{fill:#63C132;stroke:#1E3F20;stroke-width:8;stroke-miterlimit:10;}
</style>
<path class="st0" d="M82.1,265.8l83.5,210.5l37.3-17l-83.5-210.5c-4.3-10.9-15.9-15.8-26-11.3l-0.9,0.4
	C82.5,242.3,77.9,254.9,82.1,265.8z"/>
<path class="st1" d="M165.6,481.5c-1.9,0-3.6-1.2-4.5-3.1L77.7,267.9c-2.6-6.5-2.7-13.7-0.2-20.3s7.2-11.8,13.2-14.5l0.9-0.4
	c12.5-5.8,27.1,0.5,32.3,14l83.5,210.5c0.5,1.3,0.5,2.7,0,4.1s-1.5,2.4-2.7,2.9l-37.3,17C166.8,481.4,166.2,481.5,165.6,481.5z
	 M86.6,263.7l81.5,205.7l28.4-13l-81.6-205.7c-3.3-8.1-12-11.9-19.7-8.5l-0.9,0.4c-3.6,1.7-6.6,4.8-8,8.8
	C85.1,255.4,85.1,259.7,86.6,263.7z"/>
<path class="st0" d="M181.7,319.4h-40.8c-18,0-32.7,16.9-32.7,37.6v36.1c0,4.1,0.5,8.1,1.3,12l16,69.3c1,4.1,4.3,6.9,7.9,6.9h48.1
	L181.7,319.4L181.7,319.4z"/>
<path class="st0" d="M332.5,319.4h40.8c18,0,32.7,16.9,32.7,37.6v36.1c0,4.1-0.5,8.1-1.3,12l-16,69.3c-1,4.1-4.1,6.9-7.9,6.9h-48.1
	L332.5,319.4L332.5,319.4z"/>
<path class="st1" d="M181.7,486.7h-48.1c-6,0-11.1-4.5-12.6-11l-16-69.3c-1-4.3-1.5-8.9-1.5-13.4V357c0-23.6,16.9-42.8,37.5-42.8
	h40.8c2.7,0,4.9,2.4,4.9,5.2v162.1C186.5,484.4,184.3,486.7,181.7,486.7z M140.8,324.7c-15.3,0-27.8,14.5-27.8,32.3v36.1
	c0,3.7,0.4,7.3,1.2,10.9l16,69.3c0.4,1.8,1.7,3,3.2,3h43.3V324.7H140.8L140.8,324.7z"/>
<path class="st1" d="M380.7,486.7h-48.1c-2.7,0-4.9-2.4-4.9-5.2V319.4c0-2.9,2.2-5.2,4.9-5.2h40.8c20.7,0,37.5,19.2,37.5,42.8v36.1
	c0,4.5-0.5,9-1.5,13.4l-16,69.3C391.8,482.2,386.6,486.7,380.7,486.7z M337.4,476.3h43.3c1.5,0,2.8-1.2,3.2-3l16-69.3
	c0.9-3.5,1.2-7.2,1.2-10.9V357c0-17.8-12.5-32.3-27.8-32.3h-36L337.4,476.3L337.4,476.3z"/>
<path class="st0" d="M167.6,168.4h175.1l20.9,148.6c2.6,17.7,3.8,35.5,3.8,53.3v76.2c0,19.4-15.4,35.1-34.5,35.1H177.4
	c-19.1,0-34.5-15.7-34.5-35.1v-76.1c0-17.8,1.2-35.6,3.8-53.3L167.6,168.4z"/>
<path class="st1" d="M332.8,486.7H177.4c-21.7,0-39.4-18.1-39.4-40.3v-76.1c0-18.1,1.2-36.3,3.8-54.1l20.9-148.7
	c0.4-2.6,2.4-4.5,4.9-4.5h175.1c2.4,0,4.5,1.8,4.9,4.5l20.9,148.6c2.6,17.8,3.8,36,3.8,54.1v76.2
	C372.2,468.7,354.4,486.7,332.8,486.7z M171.7,173.6l-20.3,144.1c-2.4,17.3-3.6,35.1-3.6,52.5v76.2c0,16.4,13.4,29.8,29.6,29.8
	h155.4c16.4,0,29.6-13.4,29.6-29.8v-76.1c0-17.5-1.2-35.2-3.6-52.5l-20.3-144.1L171.7,173.6L171.7,173.6z"/>
<path class="st2" d="M137.3,129.7l-18.1-11.1c-11.3-7.1-15.2-22.5-8.6-34.7l32.8-61.1c9.1-17,29.3-22.8,45.2-13l38.5,23.8l-44.7,83
	C173.4,133.7,153.1,139.6,137.3,129.7z"/>
<path class="st2" d="M372.8,129.7l18-11.1c11.3-7.1,15.2-22.5,8.6-34.7l-32.8-61.1c-9.1-17-29.3-22.8-45.2-13l-38.5,23.8l44.7,83
	C336.8,133.7,357,139.6,372.8,129.7z"/>
<path class="st1" d="M153.8,139.7c-6.4,0-12.9-1.7-18.8-5.4l-18.1-11.3c-6.6-4.1-11.3-10.7-13.2-18.6c-1.9-7.9-1-16.1,2.9-23.2
	l32.8-61C149.8,0.9,173-5.7,191.1,5.4l38.5,23.8c1.1,0.7,1.9,1.8,2.3,3.1c0.4,1.3,0.1,2.7-0.5,3.9l-44.7,83
	C179.7,132.4,166.9,139.7,153.8,139.7z M139.7,125.2c13.5,8.4,30.7,3.4,38.5-11.1l42.3-78.5l-34.3-21.1C172.8,6,155.5,11,147.8,25.5
	l-32.8,61c-2.6,4.7-3.2,10.1-1.8,15.2c1.3,5.2,4.4,9.6,8.7,12.3L139.7,125.2z"/>
<path class="st1" d="M356.4,139.7c-13.1,0-25.9-7.3-32.9-20.3l-44.7-83c-0.6-1.2-0.9-2.6-0.5-3.9c0.4-1.3,1.1-2.5,2.3-3.1l38.5-23.8
	c18.1-11.3,41.3-4.6,51.8,14.9l32.8,61.1c3.8,7.1,4.9,15.3,2.9,23.2c-1.9,7.9-6.7,14.5-13.2,18.6l-18.1,11.1
	C369.2,138,362.7,139.7,356.4,139.7z M372.8,129.7L372.8,129.7L372.8,129.7z M289.5,35.6l42.3,78.5c7.8,14.4,25,19.4,38.5,11.1
	l18.1-11.1c4.4-2.7,7.4-7.1,8.7-12.3c1.3-5.2,0.6-10.6-1.8-15.2l-32.8-61.1c-7.8-14.4-25-19.4-38.5-11.1L289.5,35.6z"/>
<path class="st0" d="M245.7,263.5h20.8c42.8,0,77.4-37.3,77.4-83.4V88.5c0-41.2-31-74.6-69.3-74.6h-37.1
	c-38.3,0-69.3,33.4-69.3,74.6v91.6C168.3,226.2,203,263.5,245.7,263.5z"/>
<path class="st1" d="M266.5,268.8h-20.7c-45.3,0-82.3-39.8-82.3-88.6V88.5c0-44,33.3-79.9,74.1-79.9h36.9
	c40.8,0,74.1,35.9,74.1,79.9v91.6C348.7,229.1,311.8,268.8,266.5,268.8z M237.5,19.3c-35.5,0-64.4,31.2-64.4,69.4v91.6
	c0,43.1,32.6,78.2,72.5,78.2h20.7c40,0,72.5-35.1,72.5-78.2V88.6c0-38.2-28.9-69.4-64.4-69.4H237.5L237.5,19.3z"/>
<path class="st0" d="M365.2,207.8v-21.9c0-30.2-22.7-54.7-50.8-54.7H195.6c-28.1,0-50.8,24.5-50.8,54.7v21.9
	c0,30.2,22.7,54.7,50.8,54.7h118.8C342.5,262.5,365.2,238,365.2,207.8z"/>
<path class="st1" d="M314.4,267.7H195.6c-30.7,0-55.6-26.8-55.6-60v-21.9c0-33.1,24.9-60,55.6-60h118.8c30.7,0,55.6,27,55.6,60v21.9
	C370.1,240.9,345.1,267.7,314.4,267.7z M195.6,136.3c-25.3,0-45.9,22.3-45.9,49.5v21.9c0,27.4,20.7,49.5,45.9,49.5h118.8
	c25.4,0,45.9-22.3,45.9-49.5v-21.7c0-27.2-20.7-49.5-45.9-49.5L195.6,136.3L195.6,136.3z"/>
<path class="st1" d="M304.2,129.7h1.6c6.3,0,11.4-5.5,11.4-12.3v-12.2c0-6.8-5.1-12.3-11.4-12.3h-1.6c-6.3,0-11.4,5.5-11.4,12.3
	v12.2C292.9,124.2,298,129.7,304.2,129.7z"/>
<path class="st1" d="M202.2,129.7h1.6c6.3,0,11.3-5.5,11.3-12.3v-12.2c0-6.8-5.1-12.3-11.3-12.3h-1.6c-6.3,0-11.3,5.5-11.3,12.3
	v12.2C190.9,124.2,196,129.7,202.2,129.7z"/>
<path class="st3" d="M227,268.6h-25.9c-11.9,0-21.5-10.3-21.5-23.2v-53.8c0-17.9,13.5-32.5,30.1-32.5h47.4v77
	C257.1,254.1,243.6,268.6,227,268.6z"/>
<path class="st3" d="M287.2,268.6h25.9c11.9,0,21.5-10.3,21.5-23.2v-53.8c0-17.9-13.5-32.5-30.1-32.5h-47.4v77
	C257.1,254.1,270.6,268.6,287.2,268.6z"/>
<path class="st1" d="M313.1,273.9h-25.9c-19.3,0-35-16.9-35-37.7v-77c0-2.9,2.2-5.2,4.9-5.2h47.4c19.3,0,35,16.9,35,37.7v53.8
	C339.5,261.2,327.7,273.9,313.1,273.9z M262,164.4v71.7c0,15.1,11.3,27.2,25.3,27.2h25.9c9.2,0,16.6-8,16.6-17.9v-53.8
	c0-15.1-11.3-27.2-25.3-27.2L262,164.4L262,164.4z"/>
<path class="st1" d="M227,273.9h-25.9c-14.6,0-26.4-12.7-26.4-28.4v-53.8c0-20.8,15.7-37.7,35-37.7h47.4c2.7,0,4.9,2.4,4.9,5.2v77
	C262,257,246.3,273.9,227,273.9z M209.7,164.4c-14,0-25.3,12.2-25.3,27.2v53.8c0,9.9,7.5,17.9,16.6,17.9H227
	c14,0,25.3-12.2,25.3-27.2v-71.7L209.7,164.4L209.7,164.4z"/>
<path class="st2" d="M277.5,159.2h-40.8c-2.3,0-4.1,2-4.1,4.5v8.8c0,6,4.6,11,10.2,11h28.6c5.6,0,10.2-4.8,10.2-11v-8.8
	C281.5,161.2,279.7,159.2,277.5,159.2z"/>
<path class="st1" d="M271.4,188.5h-28.6c-8.3,0-15.1-7.2-15.1-16.2v-8.8c0-5.4,4-9.6,9-9.6h40.8c5,0,9,4.3,9,9.6v8.8
	C286.4,181.2,279.7,188.5,271.4,188.5z M237.5,164.4v7.9c0,3.1,2.4,5.8,5.3,5.8h28.6c2.9,0,5.3-2.6,5.3-5.8v-7.9H237.5z
	 M277.5,164.4L277.5,164.4L277.5,164.4z"/>
<path class="st1" d="M315.8,486.7l-72.2-0.3l-49.2,0.3c-6.3,0-11.8-4.8-12.9-11.5l-9.5-57.7c-1.1-6.5-1.6-13.2-1.6-19.9v-82.3
	c0-2.9,2.2-5.2,4.9-5.2s4.9,2.4,4.9,5.2v82.3c0,6,0.5,12.2,1.5,18.1l9.5,57.7c0.2,1.7,1.6,2.9,3.3,2.9l49.2-0.3l72.2,0.3
	c1.6,0,2.9-1.2,3.3-2.9l9.5-57.7c1-6,1.5-12,1.5-18.1v-82.3c0-2.9,2.2-5.2,4.9-5.2c2.7,0,4.9,2.4,4.9,5.2v82.3
	c0,6.7-0.5,13.4-1.6,19.9l-9.5,57.7C327.4,481.8,322.1,486.7,315.8,486.7z"/>
<path class="st1" d="M254.2,487c-2.7,0-4.9-2.4-4.9-5.2V361.3c0-2.9,2.2-5.2,4.9-5.2c2.7,0,4.9,2.4,4.9,5.2v120.4
	C259,484.6,256.9,487,254.2,487z"/>
<path class="st4" d="M198.5,344.1l30.5,32.5c7,7.4,16.1,11.1,25.2,11c9.1,0.1,18.2-3.7,25.2-11l30.5-32.5
	c13.8-14.7,13.8-38.6,0-53.3c-13.8-14.7-36.3-14.7-50.1,0l-2.5,2.6c-1.7,1.9-4.5,1.9-6.3,0l-2.5-2.6c-13.8-14.7-36.3-14.7-50.1,0
	C184.7,305.5,184.7,329.4,198.5,344.1z"/>
<path class="st1" d="M198.5,344.1l30.5,32.5c7,7.4,16.1,11.1,25.2,11c9.1,0.1,18.2-3.7,25.2-11l30.5-32.5
	c13.8-14.7,13.8-38.6,0-53.3c-13.8-14.7-36.3-14.7-50.1,0l-2.5,2.6c-1.7,1.9-4.5,1.9-6.3,0l-2.5-2.6c-13.8-14.7-36.3-14.7-50.1,0
	C184.7,305.5,184.7,329.4,198.5,344.1z"/>
<path class="st1" d="M254.3,389.4c-0.1,0-0.2,0-0.4,0c-10.1,0-19.7-4.2-26.8-11.7l-30.5-32.2c-14.6-15.4-14.6-40.5,0-55.9
	c7.1-7.6,16.7-11.7,26.8-11.7s19.7,4.2,26.9,11.7l2.5,2.6c0.8,0.8,2,0.8,2.8,0l2.5-2.6c7.1-7.5,16.7-11.7,26.9-11.7
	c10.1,0,19.7,4.2,26.9,11.7c14.6,15.4,14.6,40.5,0,55.9l-30.6,32.2C274.1,385.3,264.5,389.4,254.3,389.4z M254.2,384.9h0.1
	c8.8,0,17.1-3.6,23.4-10.2l30.6-32.2c13-13.8,13-36.1,0-49.9c-6.3-6.6-14.6-10.2-23.4-10.2c-8.8,0-17.1,3.7-23.4,10.2l-2.5,2.6
	c-1.3,1.3-3,2.1-4.9,2.1c-1.9,0-3.6-0.7-4.9-2.1l-2.5-2.6c-6.3-6.6-14.6-10.2-23.4-10.2c-8.8,0-17.1,3.7-23.4,10.2
	c-13,13.8-13,36.1,0,49.9l30.6,32.2C237,381.3,245.3,384.9,254.2,384.9C254.1,384.9,254.1,384.9,254.2,384.9z"/>
<path class="st5" d="M286.1,335.1c0,16-14.2,28.9-31.6,28.9c-17.5,0-31.6-12.9-31.6-28.9s14.2-28.9,31.6-28.9
	C271.9,306.1,286.1,319.1,286.1,335.1z"/>
<g>
	<path class="st1" d="M240,334.8h-0.9c-2.4,0-4.2-1.7-4.2-3.9v-3.1c0-2.1,1.9-3.9,4.2-3.9h0.9c2.4,0,4.2,1.7,4.2,3.9v3.1
		C244.2,333.1,242.3,334.8,240,334.8z"/>
	<path class="st1" d="M269,334.8h0.9c2.4,0,4.2-1.7,4.2-3.9v-3.1c0-2.1-1.9-3.9-4.2-3.9H269c-2.4,0-4.2,1.7-4.2,3.9v3.1
		C264.7,333.1,266.6,334.8,269,334.8z"/>
	<path class="st1" d="M248.9,327H248c-2.4,0-4.2-1.7-4.2-3.9V320c0-2.1,1.9-3.9,4.2-3.9h0.9c2.4,0,4.2,1.7,4.2,3.9v3.1
		C253.2,325.2,251.3,327,248.9,327z"/>
	<path class="st1" d="M259.8,327h0.9c2.4,0,4.2-1.7,4.2-3.9V320c0-2.1-1.9-3.9-4.2-3.9h-0.9c-2.4,0-4.2,1.7-4.2,3.9v3.1
		C255.5,325.2,257.4,327,259.8,327z"/>
	<path class="st1" d="M263.7,335.3c-0.4-0.1-0.7-0.4-0.7-0.8c0-4-3.8-7.2-8.5-7.2c-4.7,0-8.5,3.3-8.5,7.2c0,0.4-0.3,0.7-0.7,0.8
		c-3.6,0.8-6.2,3.6-6.2,6.9v0.2c0,3.9,3.8,7.1,8.4,7.1h14.1c4.7,0,8.4-3.1,8.4-7.1v-0.2C269.9,338.9,267.3,336.1,263.7,335.3z"/>
</g>
</svg>
