<?xml version="1.0" encoding="utf-8"?>
<!-- Generator: Adobe Illustrator 25.2.0, SVG Export Plug-In . SVG Version: 6.00 Build 0)  -->
<svg version="1.1" xmlns="http://www.w3.org/2000/svg" xmlns:xlink="http://www.w3.org/1999/xlink" x="0px" y="0px"
	 viewBox="0 0 100 80" style="enable-background:new 0 0 100 80;" xml:space="preserve">
<style type="text/css">
	.st0{fill:#63C035;}
	.st1{display:none;fill:#FFFFFF;}
	.st2{display:none;fill:#63C132;}
	.st3{fill:#63C132;}
	.st4{display:none;fill:#234125;}
	.st5{fill:#1E3F20;}
	.st6{fill:#FFFFFF;}
	.st7{display:none;}
	.st8{display:inline;}
	.st9{opacity:0.75;fill:#FFFFFF;}
	.st10{display:none;fill:#006837;}
	.st11{opacity:0.8;fill:#63C035;}
	.st12{fill:#234125;}
	.st13{fill:#1A1A1A;}
	.st14{fill:#FFFFFF;stroke:#1E3F20;stroke-width:0.75;stroke-miterlimit:10;}
	.st15{fill:#FFFFFF;stroke:#1A1A1A;stroke-width:0.75;stroke-miterlimit:10;}
	.st16{opacity:0.75;}
	.st17{fill:none;stroke:#234125;stroke-width:4;stroke-miterlimit:10;}
	.st18{fill:none;stroke:#234125;stroke-width:3;stroke-miterlimit:10;}
</style>
<g id="Layer_2">
</g>
<g id="Layer_1">
</g>
<g id="Layer_3">
	<g id="Layer_4_copy" class="st7">
	</g>
	<g id="Layer_4_copy_2" class="st7">
	</g>
	<g id="Layer_4" class="st7">
	</g>
	<g id="Layer_4_copy_3" class="st7">
	</g>
	<g id="Layer_4_copy_5">
	</g>
	<g id="Layer_4_copy_4" class="st7">
	</g>
</g>
<g id="Layer_10">
</g>
<g id="Layer_11">
	<g>
		<path class="st13" d="M50.3,6.13c8.52,0,17.04-0.07,25.56,0.02c12.7,0.14,20,7.58,20.04,20.28c0.04,12.09-0.03,12.16-12.22,12.16
			c-3.04,0-6.09,0.06-9.13-0.02c-4.01-0.11-6.2-2.09-6.19-6.24c0.01-1.52,0.02-3.04-0.07-4.56c-0.15-2.52-1.36-3.81-4.07-3.79
			c-9.28,0.07-18.56,0.05-27.84,0.01c-2.84-0.01-4.22,1.35-4.29,4.12c-0.03,1.37-0.1,2.74-0.01,4.1c0.27,4.23-1.88,6.26-5.91,6.35
			c-5.17,0.11-10.35,0.04-15.52,0.01c-2.51-0.01-4.41-1.11-5.4-3.47c-3.23-7.63,0.64-20.75,7.39-25.6
			c3.66-2.62,7.76-3.35,12.09-3.36C33.26,6.11,41.78,6.13,50.3,6.13z"/>
		<path class="st13" d="M80.98,73.9c0.69,0,1.25-0.64,1.29-1.44c0.37-7.1,1.78-11.86-12.57-30.49c-4.7-6.1-8.25-11.01-15.65-9.18
			c-2.24,0.56-4.55,0.67-6.79,0.12c-9.31-2.28-14.49,2.82-20.04,11.24c-7.3,11.06-10.29,15.08-9.62,28.33
			c0.04,0.8,0.61,1.43,1.29,1.43H80.98z"/>
		<path class="st13" d="M50.21,34.03c-1.6,0-3.21,0.07-4.81-0.03c-1.51-0.1-3.46,0.67-3.46-3.13c0-3.59,1.63-4.32,3.59-4.33
			c3.03-0.02,6.06-0.05,9.09,0.02c1.88,0.04,3.69,0.5,3.73,4.15c0.05,4.41-2.3,3.06-3.87,3.28C53.07,34.19,51.64,34.03,50.21,34.03z
			"/>
		<path class="st3" d="M78.07,72.05c0.62,0,1.12-0.57,1.16-1.3c0.33-6.38,1.6-10.65-11.28-27.38c-4.22-5.48-7.41-9.89-14.05-8.24
			c-2.01,0.5-4.09,0.6-6.1,0.11c-8.36-2.04-13.01,2.53-18,10.09c-6.56,9.93-9.24,13.54-8.64,25.44c0.04,0.71,0.55,1.28,1.16,1.28
			H78.07z"/>
		<path class="st14" d="M50.04,67.71c-3.78,0-7.57,0-11.35,0c-1.38,0-2.83,0.12-2.79-1.97c0.04-1.73,1.2-1.85,2.49-1.85
			c7.72,0,15.43,0,23.15,0c1.25,0,2.48,0.03,2.56,1.78c0.1,2.06-1.28,2.05-2.71,2.05C57.6,67.71,53.82,67.71,50.04,67.71z"/>
		<path class="st12" d="M50.2,32.22c-1.27,0-2.54,0.04-3.81-0.01c-1.19-0.05-2.74,0.34-2.74-1.61c0-1.85,1.29-2.23,2.84-2.23
			c2.4-0.01,4.8-0.03,7.19,0.01c1.49,0.02,2.92,0.26,2.96,2.14c0.04,2.27-1.82,1.58-3.07,1.69C52.46,32.31,51.33,32.22,50.2,32.22z"
			/>
		<path class="st3" d="M50.19,8.52c8.35,0,16.69-0.06,25.04,0.02c11.56,0.1,18.06,6.32,18.06,17.26c0,10.62,1.42,10.84-10.64,10.61
			c-0.85-0.02-1.16-0.01-1.32-0.01c-2.24,0.02-6.67,0.43-8.82-0.97c-2.36-1.54-1.35-5.81-1.75-8.8c-0.4-3.06-2.51-4.2-5.23-4.23
			c-9.24-0.12-21.34-0.14-30.57-0.01c-3.3,0.05-5.21,1.85-5.09,5.23c0.05,1.43,0.08,2.85,0.05,4.28c-0.06,2.75-1.48,4.23-4.43,4.23
			c-5.22-0.01-9.01,0.01-14.22-0.02c-2.76-0.01-4.1-1.39-4-4.03c0.01-0.14,0.02-0.29,0.01-0.43C5.94,12.08,15.37,7.63,30.97,8.46
			C37.35,8.81,43.78,8.52,50.19,8.52z"/>
		<g>
			<path class="st14" d="M49.66,60.65c-1.51,0-3.2,0.66-4.68,0.45c-2.29-0.33-4.24-1.59-4.24-4.05c-0.01-4.23,3.43-4.47,4.12-6.12
				c0.47-1.13,2.26-4.54,5.18-4.54c1.95,0,3.56,0.77,4.55,2.5c0.67,1.17,1.1,2.42,2.39,3.2c2.26,1.36,2.86,3.5,2.04,5.9
				c-0.85,2.5-2.94,3.28-5.41,3.27L49.66,60.65z"/>
			<path class="st14" d="M43.73,43.73c-0.19-1.94-0.53-3.95,1.8-4.95c1.28-0.55,2.47-0.08,3.14,1c1.01,1.62,1.12,3.48-0.09,5.04
				c-1.44,1.86-3.61,1.23-4.64-0.58L43.73,43.73z"/>
			<path class="st14" d="M43.65,46.76c0.45,1.81,0.17,3.67-2.04,4.33c-1.32,0.39-2.43-0.18-3.03-1.32c-0.8-1.53-0.88-3.27,0.15-4.68
				c1.17-1.63,3.5-1.74,4.21-0.26L43.65,46.76z"/>
			<path class="st14" d="M57.04,43.73c0.19-1.94,0.53-3.95-1.8-4.95c-1.28-0.55-2.47-0.08-3.14,1c-1.01,1.62-1.12,3.48,0.09,5.04
				c1.44,1.86,3.61,1.23,4.64-0.58L57.04,43.73z"/>
			<path class="st14" d="M57.12,46.76c-0.45,1.81-0.17,3.67,2.04,4.33c1.32,0.39,2.43-0.18,3.03-1.32c0.8-1.53,0.88-3.27-0.15-4.68
				c-1.17-1.63-3.5-1.74-4.21-0.26L57.12,46.76z"/>
		</g>
	</g>
</g>
<g id="Layer_12">
</g>
<g id="Layer_13">
</g>
<g id="Layer_14">
</g>
</svg>
