<?xml version="1.0" encoding="utf-8"?>
<!-- Generator: Adobe Illustrator 24.3.0, SVG Export Plug-In . SVG Version: 6.00 Build 0)  -->
<svg version="1.1" id="Layer_1" xmlns="http://www.w3.org/2000/svg" xmlns:xlink="http://www.w3.org/1999/xlink" x="0px" y="0px"
	 viewBox="0 0 468 468" style="enable-background:new 0 0 468 468;" xml:space="preserve">
<style type="text/css">
	.st0{fill:#83FF65;}
	.st1{fill:#94FFC1;}
	.st2{fill:#1E3F20;}
	.st3{fill:#3762CC;}
</style>
<path class="st0" d="M463.9,113.1C461.4,65.7,421.2,28,372,28H96C46.8,28,6.6,65.7,4.1,113.1H4v52.4C4,177.9,14.3,188,27,188h88.2
	c12.7,0,23-10.1,23-22.5v-33.7c0-10.3,8.6-18.7,19.2-18.7h153.3c10.6,0,19.2,8.4,19.2,18.7v33.7c0,12.4,10.3,22.5,23,22.5H441
	c12.7,0,23-10.1,23-22.5v-52.4H463.9z"/>
<path class="st1" d="M464,165.5v-7.5H329.8v7.5c0,12.4,10.3,22.5,23,22.5H441C453.7,188,464,177.9,464,165.5z"/>
<path class="st1" d="M138.2,165.5v-7.5H4v7.5C4,177.9,14.3,188,27,188h88.2C127.9,188,138.2,177.9,138.2,165.5z"/>
<path class="st0" d="M394,423.5V294.3c0-4.4-1.4-8.7-3.9-12.2l-78.9-108.8c-3.6-4.9-9.1-7.8-14.9-7.8H171.7
	c-5.8,0-11.3,2.9-14.9,7.8L77.9,282.1c-2.5,3.5-3.9,7.8-3.9,12.2v129.2c0,8.8,6.7,16,15.1,16h289.9C387.3,439.5,394,432.3,394,423.5
	z"/>
<path class="st1" d="M168,331.5h132v108H168V331.5z"/>
<path class="st2" d="M284,359.5v80H184v-80H284z"/>
<path class="st1" d="M132,379.5h-32c-4.4,0-8-3.6-8-8v-32c0-4.4,3.6-8,8-8h32c4.4,0,8,3.6,8,8v32C140,375.9,136.4,379.5,132,379.5z"
	/>
<path class="st1" d="M366,379.5h-32c-4.4,0-8-3.6-8-8v-32c0-4.4,3.6-8,8-8h32c4.4,0,8,3.6,8,8v32C374,375.9,370.4,379.5,366,379.5z"
	/>
<g>
	<path class="st2" d="M187.1,252.5c-8.1,0-14.7-6.6-14.7-14.7v-8.4c0-8.1,6.6-14.7,14.7-14.7c8.1,0,14.7,6.6,14.7,14.7v8.4
		C201.8,245.9,195.2,252.5,187.1,252.5z"/>
	<path class="st2" d="M280.9,252.5c8.1,0,14.7-6.6,14.7-14.7v-8.4c0-8.1-6.6-14.7-14.7-14.7c-8.1,0-14.7,6.6-14.7,14.7v8.4
		C266.2,245.9,272.8,252.5,280.9,252.5z"/>
	<path class="st2" d="M215.2,225.4c-8.1,0-14.7-6.6-14.7-14.7v-8.4c0-8.1,6.6-14.7,14.7-14.7s14.7,6.6,14.7,14.7v8.4
		C229.9,218.8,223.3,225.4,215.2,225.4z"/>
	<path class="st2" d="M252,225.4c8.1,0,14.7-6.6,14.7-14.7v-8.4c0-8.1-6.6-14.7-14.7-14.7s-14.7,6.6-14.7,14.7v8.4
		C237.3,218.8,243.9,225.4,252,225.4z"/>
	<path class="st2" d="M262.9,254.4c-1.3-0.3-2.2-1.4-2.2-2.7c0-13.8-11.9-24.9-26.7-24.9c-14.7,0-26.7,11.2-26.7,24.9
		c0,1.3-0.9,2.4-2.2,2.7c-11.2,2.8-19.5,12.4-19.5,23.8v0.6c0,13.6,11.8,24.6,26.4,24.6h44.1c14.6,0,26.3-11,26.3-24.6v-0.6
		C282.4,266.8,274.1,257.2,262.9,254.4z"/>
</g>
<path class="st1" d="M202,133.5h56c6.6,0,12,5.4,12,12v20h-80v-20C190,138.9,195.4,133.5,202,133.5z"/>
<path class="st2" d="M441,192h-88.2c-14.9,0-27-11.9-27-26.5v-33.7c0-8.1-6.8-14.7-15.2-14.7H157.3c-8.4,0-15.2,6.6-15.2,14.7v33.7
	c0,14.6-12.1,26.5-27,26.5H27c-14.9,0-27-11.9-27-26.5v-52.4c0-0.4,0.1-0.8,0.2-1.2C3.3,62.5,45.2,24,96,24h276
	c50.8,0,92.7,38.5,95.8,87.9c0.1,0.4,0.2,0.8,0.2,1.2v52.4C468,180.1,455.9,192,441,192z M157.3,109.1h153.3
	c12.8,0,23.2,10.2,23.2,22.7v33.7c0,10.2,8.5,18.5,19,18.5H441c10.5,0,19-8.3,19-18.5v-51.4c-0.1-0.2-0.1-0.5-0.1-0.8
	C457.5,67.7,418.9,32,372,32H96c-46.9,0-85.5,35.7-87.9,81.4c0,0.3-0.1,0.5-0.1,0.8v51.4c0,10.2,8.5,18.5,19,18.5h88.2
	c10.5,0,19-8.3,19-18.5v-33.7C134.2,119.3,144.6,109.1,157.3,109.1z"/>
<path class="st3" d="M378.9,443.5H89.1c-10.5,0-19.1-9-19.1-20V294.3c0-5.2,1.7-10.4,4.7-14.6l78.9-108.8c4.3-5.9,11.1-9.4,18.2-9.4
	h124.5c7.1,0,13.9,3.5,18.2,9.4l78.9,108.8c3,4.2,4.7,9.3,4.7,14.6v129.2C398,434.5,389.5,443.5,378.9,443.5z M171.7,169.5
	c-4.6,0-8.8,2.2-11.7,6.1L81.1,284.5c-2,2.8-3.1,6.3-3.1,9.9v129.2c0,6.6,5,12,11.1,12h289.9c6.1,0,11.1-5.4,11.1-12V294.3
	c0-3.6-1.1-7.1-3.1-9.9l-78.9-108.8c-2.8-3.9-7.1-6.1-11.7-6.1H171.7z"/>
<path class="st2" d="M270,169.5h-80c-2.2,0-4-1.8-4-4v-20c0-8.8,7.2-16,16-16h56c8.8,0,16,7.2,16,16v20
	C274,167.7,272.2,169.5,270,169.5z M194,161.5h72v-16c0-4.4-3.6-8-8-8h-56c-4.4,0-8,3.6-8,8V161.5z"/>
<path class="st2" d="M378.9,443.5H89.1c-10.5,0-19.1-9-19.1-20V294.3c0-5.2,1.7-10.4,4.7-14.6l78.9-108.8c4.3-5.9,11.1-9.4,18.2-9.4
	h124.5c7.1,0,13.9,3.5,18.2,9.4l78.9,108.8c3,4.2,4.7,9.3,4.7,14.6v129.2C398,434.5,389.5,443.5,378.9,443.5z M171.7,169.5
	c-4.6,0-8.8,2.2-11.7,6.1L81.1,284.5c-2,2.8-3.1,6.3-3.1,9.9v129.2c0,6.6,5,12,11.1,12h289.9c6.1,0,11.1-5.4,11.1-12V294.3
	c0-3.6-1.1-7.1-3.1-9.9l-78.9-108.8c-2.8-3.9-7.1-6.1-11.7-6.1H171.7z"/>
<path class="st2" d="M300,443.5H168c-2.2,0-4-1.8-4-4v-108c0-2.2,1.8-4,4-4h132c2.2,0,4,1.8,4,4v108
	C304,441.7,302.2,443.5,300,443.5z M172,435.5h124v-100H172V435.5z"/>
<path class="st1" d="M306,359.5H162c-2.2,0-4-1.8-4-4v-20c0-2.2,1.8-4,4-4h144c2.2,0,4,1.8,4,4v20C310,357.7,308.2,359.5,306,359.5z
	"/>
<path class="st2" d="M306,363.5H162c-4.4,0-8-3.6-8-8v-20c0-4.4,3.6-8,8-8h144c4.4,0,8,3.6,8,8v20C314,359.9,310.4,363.5,306,363.5z
	 M162,335.5v20h144l0-20H162z"/>
<path class="st2" d="M132,383.5h-32c-6.6,0-12-5.4-12-12v-32c0-6.6,5.4-12,12-12h32c6.6,0,12,5.4,12,12v32
	C144,378.1,138.6,383.5,132,383.5z M100,335.5c-2.2,0-4,1.8-4,4v32c0,2.2,1.8,4,4,4h32c2.2,0,4-1.8,4-4v-32c0-2.2-1.8-4-4-4H100z"/>
<path class="st2" d="M366,383.5h-32c-6.6,0-12-5.4-12-12v-32c0-6.6,5.4-12,12-12h32c6.6,0,12,5.4,12,12v32
	C378,378.1,372.6,383.5,366,383.5z M334,335.5c-2.2,0-4,1.8-4,4v32c0,2.2,1.8,4,4,4h32c2.2,0,4-1.8,4-4v-32c0-2.2-1.8-4-4-4H334z"/>
</svg>
