<?xml version="1.0" encoding="utf-8"?>
<!-- Generator: Adobe Illustrator 25.2.0, SVG Export Plug-In . SVG Version: 6.00 Build 0)  -->
<svg version="1.1" id="Layer_1" xmlns="http://www.w3.org/2000/svg" xmlns:xlink="http://www.w3.org/1999/xlink" x="0px" y="0px"
	 viewBox="0 0 190 188.2" style="enable-background:new 0 0 190 188.2;" xml:space="preserve">
<style type="text/css">
	.st0{fill:#63C132;}
	.st1{display:none;}
	.st2{display:inline;fill:#63C132;}
	.st3{display:inline;}
	.st4{fill:#1E3F20;}
	.st5{fill:#FFFFFF;}
	.st6{display:inline;fill:#FFFFFF;}
	.st7{display:inline;fill:#1E3F20;}
	.st8{fill:#1E3F20;stroke:#1E3F20;stroke-width:0.75;stroke-miterlimit:10;}
	.st9{fill:#63C035;}
	.st10{display:none;fill:#FFFFFF;}
	.st11{display:none;fill:#63C132;}
	.st12{display:none;fill:#234125;}
	.st13{fill:none;}
	.st14{opacity:0.15;fill:#1E3F20;enable-background:new    ;}
	.st15{opacity:0.7;fill:none;stroke:#FFFFFF;stroke-width:5;stroke-miterlimit:10;enable-background:new    ;}
	.st16{opacity:0.7;}
	.st17{fill:#DB4A39;}
	.st18{fill:#3B5998;}
	.st19{fill:none;stroke:#FFFFFF;stroke-width:7.5;stroke-miterlimit:10;}
	.st20{fill:#234125;}
	.st21{fill:none;stroke:#1E3F20;stroke-width:7.5;stroke-miterlimit:10;}
	.st22{fill:none;stroke:#1E3F20;stroke-width:5.5;stroke-miterlimit:10;}
	.st23{fill:#1A1A1A;}
	.st24{opacity:0.2;fill:#1E3F20;enable-background:new    ;}
	.st25{fill:none;stroke:#1E3F20;stroke-width:4;stroke-miterlimit:10;}
	.st26{fill:none;stroke:#1E3F20;stroke-width:6;stroke-miterlimit:10;}
	.st27{display:none;opacity:0.2;fill:#1E3F20;enable-background:new    ;}
	.st28{fill:#1E3F20;stroke:#1E3F20;stroke-miterlimit:10;}
	.st29{fill-rule:evenodd;clip-rule:evenodd;fill:#1E3F20;}
	.st30{display:none;fill:#1E3F20;}
	.st31{opacity:0.2;fill:#FFFFFF;enable-background:new    ;}
	.st32{fill-rule:evenodd;clip-rule:evenodd;fill:#FFFFFF;}
	.st33{opacity:0.5;fill:#1E3F20;enable-background:new    ;}
	.st34{opacity:0.95;fill:#1E3F20;enable-background:new    ;}
	.st35{fill:#63C132;stroke:#1E3F20;stroke-width:4;stroke-miterlimit:10;}
	.st36{fill-rule:evenodd;clip-rule:evenodd;fill:#FFFFFF;stroke:#1E3F20;stroke-width:4;stroke-miterlimit:10;}
	.st37{fill:#63C132;stroke:#1E3F20;stroke-width:3.5;stroke-miterlimit:10;}
	.st38{fill:#63C132;stroke:#1E3F20;stroke-width:5;stroke-miterlimit:10;}
	.st39{fill:#FFFFFF;stroke:#1E3F20;stroke-miterlimit:10;}
	.st40{opacity:0.75;fill:#FFFFFF;enable-background:new    ;}
	.st41{fill:#FFFFFF;stroke:#1E3F20;stroke-width:0.75;stroke-miterlimit:10;}
	.st42{fill:#FFFFFF;stroke:#1A1A1A;stroke-width:0.75;stroke-miterlimit:10;}
	.st43{clip-path:url(#SVGID_2_);fill:#FFFFFF;}
	.st44{display:none;fill:#006837;}
	.st45{opacity:0.75;}
	.st46{fill:none;stroke:#234125;stroke-width:4;stroke-miterlimit:10;}
	.st47{fill:none;stroke:#234125;stroke-width:3;stroke-miterlimit:10;}
	.st48{fill-rule:evenodd;clip-rule:evenodd;fill:#63C132;}
	.st49{fill:none;stroke:#1E3F20;stroke-width:5;stroke-miterlimit:10;}
	.st50{fill:#63C132;stroke:#1E3F20;stroke-width:2;stroke-miterlimit:10;}
	.st51{fill:#1E3F20;stroke:#1E3F20;stroke-width:2;stroke-miterlimit:10;}
	.st52{fill:#63C132;stroke:#1E3F20;stroke-width:3;stroke-miterlimit:10;}
	.st53{fill:#63C132;stroke:#1E3F20;stroke-miterlimit:10;}
	.st54{display:none;fill:#63C132;stroke:#1E3F20;stroke-width:2;stroke-miterlimit:10;}
	.st55{fill:#63C132;stroke:#FFFFFF;stroke-width:0.75;stroke-miterlimit:10;}
	.st56{fill:#63C132;stroke:#FFFFFF;stroke-width:0.5;stroke-miterlimit:10;}
	.st57{display:inline;fill-rule:evenodd;clip-rule:evenodd;fill:#1E3F20;}
	.st58{display:inline;fill-rule:evenodd;clip-rule:evenodd;fill:#FFFFFF;}
	.st59{fill:#63C132;stroke:#1E3F20;stroke-width:5;stroke-linecap:round;stroke-linejoin:round;stroke-miterlimit:10;}
	.st60{fill:#63C132;stroke:#1E3F20;stroke-width:6;stroke-linecap:round;stroke-linejoin:round;stroke-miterlimit:10;}
	.st61{fill:none;stroke:#000000;stroke-width:5;stroke-miterlimit:10;}
	.st62{clip-path:url(#SVGID_4_);fill:#63C132;}
	.st63{clip-path:url(#SVGID_6_);fill:#1E3F20;}
	.st64{clip-path:url(#SVGID_8_);fill:#63C132;}
	.st65{clip-path:url(#SVGID_10_);fill:#1E3F20;}
	.st66{clip-path:url(#SVGID_12_);fill:#63C132;}
	.st67{clip-path:url(#SVGID_14_);fill:#63C132;}
	.st68{clip-path:url(#SVGID_16_);fill:#63C132;}
	.st69{clip-path:url(#SVGID_18_);fill:#63C132;}
	.st70{clip-path:url(#SVGID_20_);fill:#63C132;}
	.st71{clip-path:url(#SVGID_20_);fill:#1E3F20;}
	.st72{clip-path:url(#SVGID_22_);fill:#63C132;}
	.st73{clip-path:url(#SVGID_22_);fill:#1E3F20;}
	.st74{clip-path:url(#SVGID_24_);fill:#63C132;}
	.st75{clip-path:url(#SVGID_24_);fill:#1E3F20;}
	.st76{clip-path:url(#SVGID_26_);fill:#63C132;}
	.st77{clip-path:url(#SVGID_26_);fill:#1E3F20;}
	.st78{clip-path:url(#SVGID_28_);fill:#63C132;}
	.st79{clip-path:url(#SVGID_28_);fill:#1E3F20;}
	.st80{clip-path:url(#SVGID_30_);fill:#63C132;}
	.st81{clip-path:url(#SVGID_30_);fill:#1E3F20;}
	.st82{clip-path:url(#SVGID_32_);fill:#63C132;}
	.st83{clip-path:url(#SVGID_32_);fill:#1E3F20;}
	.st84{clip-path:url(#SVGID_34_);fill:#63C132;}
	.st85{clip-path:url(#SVGID_34_);fill:#1E3F20;}
	.st86{opacity:0.7;fill:none;stroke:#FFFFFF;stroke-width:2;stroke-miterlimit:10;enable-background:new    ;}
	.st87{fill:none;stroke:#1E3F20;stroke-width:3;stroke-miterlimit:10;}
	.st88{fill:none;stroke:#1E3F20;stroke-width:2;stroke-miterlimit:10;}
</style>
<g id="Layer_3">
</g>
<g id="Layer_15">
</g>
<g>
	<g>
		<g>
			<path class="st35" d="M159.4,89.8h12.1c1,0,1.8,0.7,1.8,1.6c0,0,0,0,0,0c0,22.8,0,45.7,0,68.5c0,2.1-0.2,2.3-3,2.3
				c-3.3,0-6.6,0-9.9,0c-2.6,0-1.8-0.2-1.8-2.1c0-9.1,0.1-18.2,0.1-27.3c0-10.5-0.1-21.1-0.1-31.6c0-3.2,0-6.4,0-9.8
				C158.7,90.6,158.4,89.8,159.4,89.8z"/>
			<path class="st35" d="M173.7,89.8l-15.9,0c-0.9,0-1.6-0.8-1.6-1.7l0,0c0-17,0-34.1,0-51.1c0-1.3,0-2.7,0.3-4
				c0.1-0.4,1-1.1,1.5-1.1c5.5-0.1,10-0.1,15.7-0.1c0.9,0,1.7,0.8,1.7,1.8c0,18,0,36.1,0,54.3C175.4,89,174.6,89.8,173.7,89.8z"/>
			<path class="st4" d="M172.1,31.1h-12.8c-1.7,0-3.2-1.3-3.5-3c-0.3-2.2-0.4-4.3,2.4-6c3.6-2.1,8.9-2.3,12.6-0.8
				c2.9,1.2,4.4,3.1,4.7,5.9C175.8,29.3,174.2,31.1,172.1,31.1z"/>
			<path class="st4" d="M185.7,100.8c0,0.8,0.1,1.4-0.9,1.9c-1.7,0.8-4.7,0.2-4.8-1.3c-0.1-1.7,0-3.4-0.1-5.1c0-10.7,0-47.8,0-53.7
				c0.4-3.6-3.6-5.5-3.6-5.5l0-3.3c4.5,0.2,9.2,3.6,9.2,7.1C185.8,48.9,185.8,89.6,185.7,100.8z"/>
			<path class="st4" d="M160.4,162.3c3.7,0,6.9,0,10.5,0c-1.7,5.3-3.4,10.6-5,15.8c-0.1,0-0.2,0-0.4,0
				C163.8,173,162.1,167.8,160.4,162.3z"/>
		</g>
		<path class="st59" d="M100.3,8v30.8c0,2.8,2.3,5,5.1,5H134c4.4,0,6.7-5.2,3.7-8.4L109.1,4.6C106,1.3,100.3,3.5,100.3,8z"/>
	</g>
	<path class="st60" d="M135.2,185.2h-124c-2.2,0-3.9-1.8-3.9-3.9V6.9C7.3,4.8,9,3,11.2,3h93.2c2.2,0,3.9,1.8,3.9,3.9v25.6
		c0,2.2,1.8,3.9,3.9,3.9l23,0c2.2,0,3.9,1.8,3.9,3.9v140.9C139.1,183.4,137.4,185.2,135.2,185.2z"/>
	<circle class="st38" cx="71.1" cy="80.5" r="41.7"/>
	<g>
		<path class="st5" d="M54.7,101.6c-0.8-0.7-2.2-1.6-2.3-1.6l-4.3-2.7c-0.7-0.5-1.4-1-2-1.6c-4.1-4.1-6.1-8.9-3.8-14.8
			c2.5-6.1,7.2-9.3,13.8-8c3.8,0.7,6.7-1,9.9-2.1c4.8-1.7,8.5-0.9,12.2,2.5c3.8,3.3,5.1,7,4.2,12.1c-0.6,3.5-1.8,6.7-0.5,10.5
			c2.2,6.5-0.1,11.9-5.5,15.3c-5.3,3.3-10.2,1.9-14.7-1.6c-0.7-0.5-1.3-1.1-1.9-1.8l-3.3-4C56.5,103.6,55.5,102.3,54.7,101.6z"/>
		<path class="st5" d="M71.9,58.5c2.5-3.6,4.4-6.8,9.6-5.1c2.8,1,4.1,3.5,3.6,6.3c-0.8,4.2-3.3,7.6-7.5,8.5c-5,1.1-7.9-3.2-6.6-7.8
			L71.9,58.5z"/>
		<path class="st5" d="M66.2,63.2c-1.4,4-4.2,7.2-9.1,5.6c-2.9-1-4.2-3.5-3.9-6.4c0.4-3.9,2.4-7.3,6.1-8.7c4.2-1.6,8.6,2.3,7.7,6.3
			L66.2,63.2z"/>
		<g>
			<path class="st5" d="M93.1,77.3c3-3.1,5.8-5.6,3.4-10.6c-1.3-2.8-4-3.6-6.6-2.7c-3.9,1.4-6.8,4.5-6.9,9c-0.2,5.3,4.3,7.6,8.5,5.5
				L93.1,77.3z"/>
			<path class="st5" d="M89.5,83.9c-3.6,2.1-6.2,5.4-3.9,10.2c1.4,2.8,4,3.8,6.7,3c3.7-1,6.6-3.6,7.3-7.5c0.8-4.5-3.6-8.5-7.2-6.9
				L89.5,83.9z"/>
		</g>
	</g>
	<rect x="26.3" y="134" class="st4" width="93.1" height="6.1"/>
	<rect x="26.3" y="146.6" class="st4" width="93.1" height="6.1"/>
	<rect x="26.3" y="159.3" class="st4" width="93.1" height="6.1"/>
</g>
</svg>
