<?xml version="1.0" encoding="utf-8"?>
<!-- Generator: Adobe Illustrator 25.0.1, SVG Export Plug-In . SVG Version: 6.00 Build 0)  -->
<svg version="1.1" id="Layer_1" xmlns="http://www.w3.org/2000/svg" xmlns:xlink="http://www.w3.org/1999/xlink" x="0px" y="0px"
	 viewBox="0 0 488 488" style="enable-background:new 0 0 488 488;" xml:space="preserve">
<style type="text/css">
	.st0{fill:#83FF65;}
	.st1{fill:#63C132;}
	.st2{fill:#A4C9FF;}
	.st3{fill:#F9CFCF;}
	.st4{fill:#1E3F20;}
</style>
<path class="st0" d="M20.2,87.1h29.5c8.4,0,15.2,6.8,15.2,15.2v19.4H5v-19.4C5,93.9,11.8,87.1,20.2,87.1z"/>
<path class="st0" d="M447,5.2H150.8c-19.8,0-35.9,15.6-35.9,34.9v410.2c0,4.8,1,9.4,2.8,13.6c0.9,2.1,2,4.1,3.3,5.9
	c6.5,9.3,17.4,15.4,29.8,15.4h296.2c19.8,0,35.9-15.6,35.9-34.9V40.1C482.9,20.8,466.8,5.2,447,5.2z"/>
<path class="st1" d="M428,36h-258c-17.2,0-31.3,13.5-31.3,30.2v355.5c0,4.2,0.9,8.1,2.4,11.8c0.8,1.8,1.7,3.6,2.9,5.1
	c5.7,8.1,15.2,13.3,26,13.3h258c17.2,0,31.3-13.5,31.3-30.2V66.2C459.2,49.5,445.2,36,428,36z"/>
<path class="st2" d="M65,360.1H5V148.9h60V360.1z"/>
<path class="st3" d="M65,360.1H5l26.5,41.3c1.5,2.4,5.5,2.4,7,0L65,360.1z"/>
<path class="st0" d="M5,117.7h60v31.2H5V117.7z"/>
<path class="st4" d="M438.4,330.6H169.2c-4.4,0-8-3.6-8-8s3.6-8,8-8h269.3c4.4,0,8,3.6,8,8S442.9,330.6,438.4,330.6z"/>
<path class="st4" d="M438.4,378.3H169.2c-4.4,0-8-3.6-8-8s3.6-8,8-8h269.3c4.4,0,8,3.6,8,8S442.9,378.3,438.4,378.3z"/>
<path class="st4" d="M438.8,425.9H169.2c-4.4,0-8-3.6-8-8s3.6-8,8-8h269.6c4.4,0,8,3.6,8,8S443.2,425.9,438.8,425.9z"/>
<path class="st4" d="M438.4,282.6H169.2c-4.4,0-8-3.6-8-8s3.6-8,8-8h269.3c4.4,0,8,3.6,8,8S442.9,282.6,438.4,282.6z"/>
<path class="st4" d="M374.7,159c0,39.7-32.2,71.9-71.9,71.9s-71.9-32.2-71.9-71.9s32.2-71.9,71.9-71.9S374.7,119.2,374.7,159z"/>
<path class="st0" d="M358.7,159c0,30.9-25,55.9-55.9,55.9s-55.9-25-55.9-55.9s25-55.9,55.9-55.9S358.7,128.1,358.7,159z"/>
<g>
	<path class="st4" d="M269.7,158.3h-2c-5.3,0-9.7-4.3-9.7-9.7v-7.8c0-5.4,4.3-9.7,9.7-9.7h2c5.3,0,9.7,4.3,9.7,9.7v7.8
		C279.4,153.9,275.1,158.3,269.7,158.3z"/>
	<path class="st4" d="M335.9,158.3h2c5.3,0,9.7-4.3,9.7-9.7v-7.8c0-5.4-4.3-9.7-9.7-9.7h-2c-5.3,0-9.7,4.3-9.7,9.7v7.8
		C326.2,153.9,330.5,158.3,335.9,158.3z"/>
	<path class="st4" d="M290.2,138.8h-2c-5.3,0-9.7-4.3-9.7-9.7v-7.8c0-5.4,4.3-9.7,9.7-9.7h2c5.3,0,9.7,4.3,9.7,9.7v7.8
		C299.8,134.5,295.5,138.8,290.2,138.8z"/>
	<path class="st4" d="M314.9,138.8h2c5.3,0,9.7-4.3,9.7-9.7v-7.8c0-5.4-4.3-9.7-9.7-9.7h-2c-5.3,0-9.7,4.3-9.7,9.7v7.8
		C305.2,134.5,309.5,138.8,314.9,138.8z"/>
	<path class="st4" d="M323.8,159.6c-0.9-0.2-1.6-1-1.6-1.9c0-9.9-8.7-17.9-19.4-17.9c-10.7,0-19.4,8-19.4,17.9
		c0,0.9-0.7,1.7-1.6,1.9c-8.2,2-14.2,8.9-14.2,17.1v0.4c0,9.8,8.6,17.7,19.1,17.7h32.1c10.6,0,19.1-7.9,19.1-17.7v-0.4
		C338,168.5,331.9,161.6,323.8,159.6z"/>
</g>
<path class="st4" d="M302.8,234.9c-41.9,0-75.9-34.1-75.9-75.9s34.1-75.9,75.9-75.9s75.9,34.1,75.9,75.9S344.7,234.9,302.8,234.9z
	 M302.8,91c-37.5,0-67.9,30.5-67.9,67.9s30.5,67.9,67.9,67.9s67.9-30.5,67.9-67.9S340.3,91,302.8,91z"/>
<path class="st4" d="M447.1,488H150.9c-13.3,0-25.6-6.4-33.1-17.1c-1.4-2.1-2.7-4.3-3.7-6.6c-2.1-4.8-3.2-9.9-3.2-15.2V38.9
	c0.1-21.4,18-38.9,40-38.9h296.2c22,0,39.9,17.5,39.9,38.9v410.2C487,470.5,469.1,488,447.1,488z M150.9,8
	C133.3,8,119,21.9,119,38.9v410.2c0,4.2,0.8,8.2,2.5,12c0.8,1.8,1.8,3.6,2.9,5.2c5.9,8.6,15.9,13.7,26.5,13.7h296.2
	c17.6,0,31.9-13.9,31.9-30.9V38.9c0-17-14.3-30.9-31.9-30.9C447.1,8,150.9,8,150.9,8z"/>
<path class="st4" d="M20.2,87.1h29.5c8.4,0,15.2,6.8,15.2,15.2v19.4H5v-19.4C5,93.9,11.8,87.1,20.2,87.1z"/>
<path class="st1" d="M65,360.1H5V148.9h60V360.1z"/>
<path class="st4" d="M65,360.1H5l26.5,41.3c1.5,2.4,5.5,2.4,7,0L65,360.1z"/>
<path class="st4" d="M35,407.1c-2.8,0-5.4-1.4-6.9-3.6L1.6,362.2C1.2,361.6,1,360.8,1,360V102.4c0-10.6,8.6-19.2,19.2-19.2h29.5
	c10.6,0,19.2,8.6,19.2,19.2v257.7c0,0.8-0.2,1.5-0.6,2.2l-26.5,41.3C40.4,405.8,37.8,407.1,35,407.1z M9,358.9l25.9,40.3
	c0,0,0.3,0,0.4-0.1L61,358.9V102.4c0-6.2-5-11.2-11.2-11.2H20.2C14,91.1,9,96.2,9,102.4V358.9z M65,360.1L65,360.1L65,360.1z"/>
</svg>
