<?xml version="1.0" encoding="utf-8"?>
<!-- Generator: Adobe Illustrator 25.0.1, SVG Export Plug-In . SVG Version: 6.00 Build 0)  -->
<svg version="1.1" id="Capa_1" xmlns="http://www.w3.org/2000/svg" xmlns:xlink="http://www.w3.org/1999/xlink" x="0px" y="0px"
	 viewBox="0 0 486 486" style="enable-background:new 0 0 486 486;" xml:space="preserve">
<style type="text/css">
	.st0{fill:#83FF65;}
	.st1{fill:#63C132;}
	.st2{fill:#1E3F20;}
</style>
<path class="st0" d="M42.6,294.8l109.7,120.3c25,27.4,57.9,41.1,90.7,40.9c32.8,0.2,65.6-13.5,90.7-40.9l109.7-120.3
	c49.8-54.6,49.8-143,0-197.6c-49.8-54.6-130.4-54.6-180.2,0l-8.9,9.8c-6.2,6.8-16.3,6.8-22.5,0l-8.9-9.8
	c-49.8-54.6-130.4-54.6-180.2,0C-7.1,151.7-7.1,240.2,42.6,294.8z"/>
<path class="st1" d="M77.1,285.8l91,92.4c20.8,21.1,48,31.5,75.2,31.4c27.2,0.1,54.4-10.3,75.2-31.4l91-92.4
	c41.3-41.9,41.3-109.9,0-151.8c-41.3-41.9-108.2-41.9-149.5,0l-7.4,7.5c-5.2,5.2-13.5,5.2-18.7,0l-7.4-7.5
	c-41.3-41.9-108.2-41.9-149.5,0C35.9,176,35.9,243.9,77.1,285.8z"/>
<path class="st2" d="M242.4,461.7c-35.4,0-68.7-15.1-93.7-42.6L38.9,298.8c-51.7-56.7-51.7-149,0-205.7
	C64,65.7,97.3,50.5,132.8,50.5c35.4,0,68.8,15.1,93.8,42.6l8.9,9.8c2,2.2,4.7,3.4,7.6,3.4c2.9,0,5.5-1.2,7.5-3.4l8.9-9.8
	c25.1-27.5,58.4-42.6,93.8-42.6c35.4,0,68.8,15.1,93.8,42.6c51.7,56.7,51.7,149,0,205.7L337.4,419.1c-25.1,27.5-58.4,42.6-93.8,42.6
	C243.2,461.7,242.8,461.7,242.4,461.7z M243,450.2h0.5c32.7,0,63.4-13.9,86.4-39.2l109.7-120.3c47.7-52.2,47.7-137.3,0-189.5
	C416.6,75.9,385.9,62,353.2,62c-32.6,0-63.3,13.9-86.4,39.2L258,111c-4,4.4-9.3,6.8-15,6.8c-5.6,0-11-2.4-15-6.8l-8.9-9.8
	C196.1,75.9,165.4,62,132.8,62s-63.3,13.9-86.4,39.2c-47.7,52.2-47.7,137.3,0,189.5L156,411c23.1,25.3,53.7,39.2,86.4,39.2H243z"/>
<g>
	<path class="st2" d="M157.6,276.4H157c-14.7,0-26.6-13-26.6-29.1v-15.7c0-16.1,11.9-29.1,26.6-29.1h0.7c14.7,0,26.6,13,26.6,29.1
		v15.7C184.3,263.4,172.3,276.4,157.6,276.4z"/>
	<path class="st2" d="M329,276.4h0.7c14.7,0,26.6-13,26.6-29.1v-15.7c0-16.1-11.9-29.1-26.6-29.1H329c-14.7,0-26.6,13-26.6,29.1
		v15.7C302.4,263.4,314.3,276.4,329,276.4z"/>
	<path class="st2" d="M209.2,223.5h-0.7c-14.7,0-26.6-13-26.6-29.1v-15.7c0-16.1,11.9-29.1,26.6-29.1h0.7c14.7,0,26.6,13,26.6,29.1
		v15.7C235.8,210.4,223.9,223.5,209.2,223.5z"/>
	<path class="st2" d="M276,223.5h0.7c14.7,0,26.6-13,26.6-29.1v-15.7c0-16.1-11.9-29.1-26.6-29.1H276c-14.7,0-26.6,13-26.6,29.1
		v15.7C249.3,210.4,261.3,223.5,276,223.5z"/>
	<path class="st2" d="M296.3,280.1c-2.4-0.6-4-2.8-4-5.3c0-27-21.9-48.8-48.9-48.8c-27,0-48.9,21.9-48.9,48.8c0,2.5-1.7,4.6-4,5.3
		c-20.6,5.5-35.8,24.3-35.8,46.6v1.2c0,26.6,21.6,48.2,48.3,48.2h80.9c26.7,0,48.3-21.6,48.3-48.2v-1.2
		C332.1,304.4,316.9,285.6,296.3,280.1z"/>
</g>
</svg>
