<?xml version="1.0" encoding="utf-8"?>
<!-- Generator: Adobe Illustrator 25.2.0, SVG Export Plug-In . SVG Version: 6.00 Build 0)  -->
<svg version="1.1" xmlns="http://www.w3.org/2000/svg" xmlns:xlink="http://www.w3.org/1999/xlink" x="0px" y="0px"
	 viewBox="0 0 80 80" style="enable-background:new 0 0 80 80;" xml:space="preserve">
<style type="text/css">
	.st0{fill:#63C035;}
	.st1{display:none;fill:#FFFFFF;}
	.st2{display:none;fill:#63C132;}
	.st3{fill:#63C132;}
	.st4{display:none;fill:#234125;}
	.st5{fill:#1E3F20;}
	.st6{fill:#FFFFFF;}
	.st7{display:none;}
	.st8{display:inline;}
	.st9{opacity:0.75;fill:#FFFFFF;}
	.st10{display:none;fill:#006837;}
	.st11{opacity:0.8;fill:#63C035;}
	.st12{fill:#234125;}
	.st13{fill:#1A1A1A;}
	.st14{fill:#FFFFFF;stroke:#1E3F20;stroke-width:0.75;stroke-miterlimit:10;}
	.st15{fill:#FFFFFF;stroke:#1A1A1A;stroke-width:0.75;stroke-miterlimit:10;}
	.st16{opacity:0.75;}
	.st17{fill:none;stroke:#234125;stroke-width:4;stroke-miterlimit:10;}
	.st18{fill:none;stroke:#234125;stroke-width:3;stroke-miterlimit:10;}
</style>
<g id="Layer_2">
</g>
<g id="Layer_1">
</g>
<g id="Layer_3">
	<g id="Layer_4_copy" class="st7">
	</g>
	<g id="Layer_4_copy_2" class="st7">
	</g>
	<g id="Layer_4" class="st7">
	</g>
	<g id="Layer_4_copy_3" class="st7">
	</g>
	<g id="Layer_4_copy_5">
	</g>
	<g id="Layer_4_copy_4" class="st7">
	</g>
</g>
<g id="Layer_10">
</g>
<g id="Layer_11">
	<g>
		<path class="st13" d="M3.64,39.71C3.8,19.53,20.54,3.1,40.45,3.57c19.95,0.47,36.45,17.65,35.9,37.38
			c-0.54,19.58-17.07,35.56-36.68,35.48C19.39,76.35,3.47,60.13,3.64,39.71z"/>
		<path class="st12" d="M39.88,71.49c-17.6-0.05-31.94-13.9-32.3-31.18C7.23,23.11,22.42,8.29,40.22,8.47
			c17.51,0.17,31.71,14.45,31.58,31.79C71.68,57.76,57.6,71.54,39.88,71.49z"/>
		<g>
			<path class="st6" d="M38.64,60.2c-2.85,0-6.03,1.25-8.82,0.85c-4.32-0.62-7.99-2.99-8-7.64c-0.02-7.97,6.46-8.42,7.77-11.54
				c0.89-2.13,4.26-8.56,9.76-8.56c3.67,0,6.71,1.45,8.57,4.71c1.26,2.21,2.07,4.57,4.5,6.03c4.26,2.55,5.39,6.6,3.84,11.12
				c-1.61,4.71-5.54,6.18-10.2,6.16"/>
			<path class="st6" d="M27.46,28.31c-0.36-3.65-1.01-7.46,3.39-9.33c2.42-1.03,4.67-0.14,5.93,1.89c1.9,3.06,2.11,6.57-0.17,9.49
				c-2.72,3.5-6.8,2.33-8.75-1.09"/>
			<path class="st6" d="M27.3,34.03c0.84,3.42,0.33,6.92-3.84,8.16c-2.49,0.74-4.58-0.35-5.71-2.49c-1.51-2.89-1.65-6.16,0.27-8.83
				c2.21-3.06,6.59-3.28,7.93-0.48"/>
			<path class="st6" d="M52.54,28.31c0.36-3.65,1.01-7.46-3.39-9.33c-2.42-1.03-4.67-0.14-5.93,1.89c-1.9,3.06-2.11,6.57,0.17,9.49
				c2.72,3.5,6.8,2.33,8.75-1.09"/>
			<path class="st6" d="M52.7,34.03c-0.84,3.42-0.33,6.92,3.84,8.16c2.49,0.74,4.58-0.35,5.71-2.49c1.51-2.89,1.65-6.16-0.27-8.83
				c-2.21-3.06-6.59-3.28-7.93-0.48"/>
		</g>
	</g>
</g>
<g id="Layer_12">
</g>
<g id="Layer_13">
</g>
<g id="Layer_14">
</g>
</svg>
