<?xml version="1.0" encoding="utf-8"?>
<!-- Generator: Adobe Illustrator 25.2.0, SVG Export Plug-In . SVG Version: 6.00 Build 0)  -->
<svg version="1.1" xmlns="http://www.w3.org/2000/svg" xmlns:xlink="http://www.w3.org/1999/xlink" x="0px" y="0px"
	 viewBox="0 0 100 100" style="enable-background:new 0 0 100 100;" xml:space="preserve">
<style type="text/css">
	.st0{fill:#63C035;}
	.st1{display:none;fill:#FFFFFF;}
	.st2{display:none;fill:#63C132;}
	.st3{fill:#63C132;}
	.st4{display:none;fill:#234125;}
	.st5{fill:#1E3F20;}
	.st6{fill:#FFFFFF;}
	.st7{display:none;}
	.st8{display:inline;}
	.st9{opacity:0.15;fill:#1E3F20;}
	.st10{opacity:0.7;fill:none;stroke:#FFFFFF;stroke-width:5;stroke-miterlimit:10;}
	.st11{opacity:0.7;}
	.st12{fill:#DB4A39;}
	.st13{fill:#3B5998;}
	.st14{fill:none;stroke:#FFFFFF;stroke-width:7.5;stroke-miterlimit:10;}
	.st15{fill:#234125;}
	.st16{fill:none;stroke:#1E3F20;stroke-width:7.5;stroke-miterlimit:10;}
	.st17{opacity:0.2;fill:#1E3F20;}
	.st18{display:none;fill:#63C035;}
	.st19{fill:none;stroke:#1E3F20;stroke-width:5.5;stroke-miterlimit:10;}
	.st20{fill:#1A1A1A;}
	.st21{fill:none;stroke:#1E3F20;stroke-width:7;stroke-miterlimit:10;}
	.st22{fill:none;stroke:#1E3F20;stroke-width:4;stroke-miterlimit:10;}
	.st23{opacity:0.75;fill:#FFFFFF;}
	.st24{fill:#FFFFFF;stroke:#1E3F20;stroke-width:0.75;stroke-miterlimit:10;}
	.st25{fill:#FFFFFF;stroke:#1A1A1A;stroke-width:0.75;stroke-miterlimit:10;}
	.st26{clip-path:url(#SVGID_2_);fill:#FFFFFF;}
	.st27{display:none;fill:#006837;}
	.st28{opacity:0.75;}
	.st29{fill:none;stroke:#234125;stroke-width:4;stroke-miterlimit:10;}
	.st30{fill:none;stroke:#234125;stroke-width:3;stroke-miterlimit:10;}
</style>
<g id="Layer_2">
</g>
<g id="Layer_1">
</g>
<g id="Layer_3">
	<g id="Layer_4_copy" class="st7">
	</g>
	<g id="Layer_4_copy_2" class="st7">
	</g>
	<g id="Layer_4" class="st7">
	</g>
	<g id="Layer_4_copy_3" class="st7">
	</g>
	<g id="Layer_4_copy_5">
	</g>
	<g id="Layer_4_copy_4" class="st7">
	</g>
</g>
<g id="Layer_15">
	<g>
		<path class="st5" d="M3.35,44.49c0.47-15.01,6.14-22.94,19.84-28.1c2.32-0.87,4.38-2.2,5.95-4.45c5.98-8.6,15.28-11.61,25.18-8.46
			c1.51,0.48,3.11,1.56,4.5,1.33c5.61-0.92,9.71,1.99,14.16,4.58c5.21,3.02,8.3,8.29,13.34,11.5c9.73,6.19,13.08,24.22,7.93,33.47
			c-1.69,3.03-5.8,7.17-1.64,13.7c0.69,1.09-0.74,2.85-1.24,3.82c-2.57,4.93-7.15,9.68-15.97,10.07c-5.8,0.26-9.6,2.67-13.13,6.59
			c-1.6,1.78-3.31,3.48-5.01,5.17c-5.11,5.07-7.72,5.51-12.94,0.62C31.84,82.62,19.43,70.85,7.97,58.13
			C5.13,53.99,3.7,49.63,3.35,44.49z"/>
		<path class="st3" d="M16.65,49.65c0.61,0.78,1.75,1.68,2.89,2.48c2.97,2.09,6.36,3.55,9.95,4.11C41,58.06,56.1,53.43,62.67,45.14
			c1.22-1.54,2.86-3.06,4.61-3.94c1.09-0.55,1.75-0.36,2.05,1.25c0.86,4.55,2.8,5.93,7.1,8.18c2.51,1.31,4.2,3.71,5.03,6.55
			c-0.52,6.96-6.43,13.79-13.24,14.61C58.05,73.01,50.79,89.4,41.76,85.54l-7.17-7.02c-7.15-6.55-13.68-13.61-20.33-20.66
			c-3.33-3.54-5.23-7.87-5.61-12.73c-0.81-10.38,3.83-18.67,13.06-23.3c0.9-0.45,3.65-2.13,4.65-1.21c0.94,0.87-0.01,2.91-0.27,4.44
			c-0.45,2.75-1.1,5.04-4.15,6.11c-2.62,0.92-4.91,1.81-7.17,3.06c-2.68,1.49-2.89,4.71-2.37,7.51
			C12.41,41.75,12.45,44.32,16.65,49.65z M78.81,59.43c0.52-1.19-1.16-1.72-2.72-1.54c-1.51,0.18-3.8,0.51-3.25,1.89
			c0.46,1.15,2.2-0.58,2.99-0.47C78.02,59.49,78.35,60.5,78.81,59.43z"/>
		<path class="st6" d="M23.76,52.36c1.76,1.02,6.49,2.08,7.13,2.13c10.14,0.82,18.78-2.16,27.1-7.6c1.08-0.71,1.18-0.98,2.06-1.94
			c-1.61,0.23-3.23,0.42-4.84,0.7c-11.33,1.93-20.73-3.02-23.83-12.36c-1.5-4.51-0.6-11.01-0.74-15.58c-1.34,1.37-1.92,5-2.08,6.81
			c-0.61,6.93-6,9.1-11.9,11.09c1.41,1.76,4.15,1.5,4.1,4.27c-0.04,2.43-1.07,3.92-3.1,5c-0.68,0.37-0.86,0.74-0.81,1.11
			c0.25,1.66,1.63,3.44,3.19,4.38L23.76,52.36z"/>
		<path class="st6" d="M81.47,57.17c-0.52,6.96-6.32,13.79-13.13,14.61c-10.18,1.23-19.6-0.78-29.35,6.26
			c-1.09,0.79-2.91,1-3.8,1.07c4.75,5.23,9.9,9.98,14.85,13.11c1.31,0.83,3.1-0.99,4.19-2.35c1.84-2.31,4.43-4.04,6.4-6.25
			C63.83,80,67.4,78.03,72.58,78c5.08-0.03,9.44-2.77,12.76-6.92c3.12-3.9,1.05-7.11-1.22-10.34C83.3,59.57,82.42,58.3,81.47,57.17z
			"/>
		<path class="st3" d="M87.74,55.43c-1.45,2.17-2.86,2.62-4.24,0.15c-2.26-4.02-5.15-7.22-9.56-8.99c-2.15-0.87-1.69-3.3-2.07-5.11
			c-0.22-1.05,0.76-1.39,1.64-1.75c7.06-2.87,9.37-6.37,9.18-14.15C90.41,30.66,94.69,45.06,87.74,55.43z"/>
		<path class="st3" d="M60.14,36.77c-2.1-5.06-4.2-10.08-6.3-15.14c0.18-2.11,1.86-1.35,3.04-1.56c1.11,6.39,2.79,12.52,8.39,16.6
			c3.36,2.45,8.21,1.65,11.26-1.03l1.4-1.25c0.01,0.01,0.02,0.01,0.02,0.02c4.24-5.99,3.08-11.14-3.64-16.2
			c-4.34-4.71-9.07-8.54-16.11-7.29c-1.32,0.24-2.15-0.86-3.2-1.34c-7.49-3.43-14.42-2.2-20.29,3.68c-1.87,1.85-4.41,3.21-4.47,6.34
			c0.13,4.58-0.37,9.16,1.13,13.68c3.11,9.34,12.5,14.29,23.83,12.36c1.6-0.27,3.22-0.47,4.84-0.7c0.46-0.57,0.9-1.16,1.39-1.69
			C65.01,39.4,64.98,39.43,60.14,36.77 M34.39,29.85c2.15-0.64,4.76-0.6,7.54,1.39c0.14,0.23,0.15,0.24,0.15,0.23
			c0.83,2.42-1.46,0.52-3.35-0.07c-0.45-0.14-0.93-0.18-1.4-0.14c-2.61,0.23-6.28,0.12-3.63-1.15"/>
	</g>
</g>
<g id="Layer_10">
</g>
<g id="Layer_11">
</g>
<g id="Layer_12">
</g>
<g id="Layer_13">
</g>
<g id="Layer_14">
</g>
</svg>
