<?xml version="1.0" encoding="utf-8"?>
<!-- Generator: Adobe Illustrator 25.1.0, SVG Export Plug-In . SVG Version: 6.00 Build 0)  -->
<svg version="1.0" id="Capa_1" xmlns="http://www.w3.org/2000/svg" xmlns:xlink="http://www.w3.org/1999/xlink" x="0px" y="0px"
	 viewBox="0 0 141 141" style="enable-background:new 0 0 141 141;" xml:space="preserve">
<style type="text/css">
	.st0{fill:#FFFFFF;}
</style>
<g>
	<g>
		<path class="st0" d="M57.8,106.5L116,72.9c0.9-0.6,1.5-1.5,1.5-2.5s-0.6-2.1-1.5-2.5L57.8,34.3c-0.9-0.6-2.1-0.6-3,0
			c-0.9,0.6-1.5,1.5-1.5,2.5v15.6H3c-1.6,0-3,1.3-3,2.9v30.1c0,1.6,1.3,2.9,3,2.9h50.4V104c0,1,0.6,2.1,1.5,2.5
			c0.4,0.3,1,0.4,1.5,0.4C56.8,107,57.3,106.8,57.8,106.5z"/>
		<path class="st0" d="M119.3,0H59c-1.6,0-3,1.3-3,2.9v8.8c0,1.6,1.3,2.9,3,2.9h60.2c3.8,0,7.1,3.1,7.1,7.1v97.4
			c0,3.8-3.1,7.1-7.1,7.1H59c-1.6,0-3,1.3-3,2.9v8.8c0,1.6,1.3,2.9,3,2.9h60.2c12,0,21.9-9.7,21.9-21.8V21.8
			C141,9.7,131.2,0,119.3,0z"/>
	</g>
</g>
</svg>
