<?xml version="1.0" encoding="utf-8"?>
<!-- Generator: Adobe Illustrator 25.2.0, SVG Export Plug-In . SVG Version: 6.00 Build 0)  -->
<svg version="1.1" id="Layer_1" xmlns="http://www.w3.org/2000/svg" xmlns:xlink="http://www.w3.org/1999/xlink" x="0px" y="0px"
	 viewBox="0 0 120 120" style="enable-background:new 0 0 120 120;" xml:space="preserve">
<style type="text/css">
	.st0{fill:#63C132;}
	.st1{display:none;}
	.st2{display:inline;fill:#63C132;}
	.st3{display:inline;}
	.st4{fill:#1E3F20;}
	.st5{fill:#FFFFFF;}
	.st6{display:inline;fill:#FFFFFF;}
	.st7{display:inline;fill:#1E3F20;}
	.st8{fill:#1E3F20;stroke:#1E3F20;stroke-width:0.75;stroke-miterlimit:10;}
	.st9{fill:#63C035;}
	.st10{display:none;fill:#FFFFFF;}
	.st11{display:none;fill:#63C132;}
	.st12{display:none;fill:#234125;}
	.st13{fill:none;}
	.st14{opacity:0.15;fill:#1E3F20;enable-background:new    ;}
	.st15{opacity:0.7;fill:none;stroke:#FFFFFF;stroke-width:5;stroke-miterlimit:10;enable-background:new    ;}
	.st16{opacity:0.7;}
	.st17{fill:#DB4A39;}
	.st18{fill:#3B5998;}
	.st19{fill:none;stroke:#FFFFFF;stroke-width:7.5;stroke-miterlimit:10;}
	.st20{fill:#234125;}
	.st21{fill:none;stroke:#1E3F20;stroke-width:7.5;stroke-miterlimit:10;}
	.st22{fill:none;stroke:#1E3F20;stroke-width:5.5;stroke-miterlimit:10;}
	.st23{fill:#1A1A1A;}
	.st24{opacity:0.2;fill:#1E3F20;enable-background:new    ;}
	.st25{fill:none;stroke:#1E3F20;stroke-width:4;stroke-miterlimit:10;}
	.st26{fill:none;stroke:#1E3F20;stroke-width:6;stroke-miterlimit:10;}
	.st27{display:none;opacity:0.2;fill:#1E3F20;enable-background:new    ;}
	.st28{fill:#1E3F20;stroke:#1E3F20;stroke-miterlimit:10;}
	.st29{fill-rule:evenodd;clip-rule:evenodd;fill:#1E3F20;}
	.st30{display:none;fill:#1E3F20;}
	.st31{opacity:0.2;fill:#FFFFFF;enable-background:new    ;}
	.st32{fill-rule:evenodd;clip-rule:evenodd;fill:#FFFFFF;}
	.st33{opacity:0.5;fill:#1E3F20;enable-background:new    ;}
	.st34{opacity:0.95;fill:#1E3F20;enable-background:new    ;}
	.st35{fill:#63C132;stroke:#1E3F20;stroke-width:4;stroke-miterlimit:10;}
	.st36{fill-rule:evenodd;clip-rule:evenodd;fill:#FFFFFF;stroke:#1E3F20;stroke-width:4;stroke-miterlimit:10;}
	.st37{fill:#63C132;stroke:#1E3F20;stroke-width:3.5;stroke-miterlimit:10;}
	.st38{fill:#63C132;stroke:#1E3F20;stroke-width:5;stroke-miterlimit:10;}
	.st39{fill:#FFFFFF;stroke:#1E3F20;stroke-miterlimit:10;}
	.st40{opacity:0.75;fill:#FFFFFF;enable-background:new    ;}
	.st41{fill:#FFFFFF;stroke:#1E3F20;stroke-width:0.75;stroke-miterlimit:10;}
	.st42{fill:#FFFFFF;stroke:#1A1A1A;stroke-width:0.75;stroke-miterlimit:10;}
	.st43{clip-path:url(#SVGID_2_);fill:#FFFFFF;}
	.st44{display:none;fill:#006837;}
	.st45{opacity:0.75;}
	.st46{fill:none;stroke:#234125;stroke-width:4;stroke-miterlimit:10;}
	.st47{fill:none;stroke:#234125;stroke-width:3;stroke-miterlimit:10;}
	.st48{fill-rule:evenodd;clip-rule:evenodd;fill:#63C132;}
	.st49{fill:none;stroke:#1E3F20;stroke-width:5;stroke-miterlimit:10;}
	.st50{fill:#63C132;stroke:#1E3F20;stroke-width:2;stroke-miterlimit:10;}
	.st51{fill:#1E3F20;stroke:#1E3F20;stroke-width:2;stroke-miterlimit:10;}
	.st52{fill:#63C132;stroke:#1E3F20;stroke-width:3;stroke-miterlimit:10;}
	.st53{fill:#63C132;stroke:#1E3F20;stroke-miterlimit:10;}
	.st54{display:none;fill:#63C132;stroke:#1E3F20;stroke-width:2;stroke-miterlimit:10;}
	.st55{fill:#63C132;stroke:#FFFFFF;stroke-width:0.75;stroke-miterlimit:10;}
	.st56{fill:#63C132;stroke:#FFFFFF;stroke-width:0.5;stroke-miterlimit:10;}
	.st57{display:inline;fill-rule:evenodd;clip-rule:evenodd;fill:#1E3F20;}
	.st58{display:inline;fill-rule:evenodd;clip-rule:evenodd;fill:#FFFFFF;}
	.st59{fill:#FFFFFF;stroke:#1E3F20;stroke-width:5;stroke-linecap:round;stroke-linejoin:round;stroke-miterlimit:10;}
	.st60{fill:#FFFFFF;stroke:#1E3F20;stroke-width:6;stroke-linecap:round;stroke-linejoin:round;stroke-miterlimit:10;}
	.st61{fill:none;stroke:#000000;stroke-width:5;stroke-miterlimit:10;}
	.st62{fill:#FFFFFF;stroke:#1E3F20;stroke-width:5;stroke-miterlimit:10;}
	.st63{clip-path:url(#SVGID_4_);}
	.st64{clip-path:url(#SVGID_6_);}
	.st65{clip-path:url(#SVGID_8_);}
	.st66{clip-path:url(#SVGID_10_);}
	.st67{opacity:0.7;fill:none;stroke:#FFFFFF;stroke-width:2;stroke-miterlimit:10;enable-background:new    ;}
	.st68{fill:none;stroke:#1E3F20;stroke-width:3;stroke-miterlimit:10;}
	.st69{fill:none;stroke:#1E3F20;stroke-width:2;stroke-miterlimit:10;}
	.st70{fill:#FFFFFF;enable-background:new    ;}
	.st71{fill:#63C132;enable-background:new    ;}
	.st72{fill:#3B5998;enable-background:new    ;}
	.st73{fill:#DB4A39;enable-background:new    ;}
	.st74{clip-path:url(#SVGID_14_);}
	.st75{clip-path:url(#SVGID_16_);fill:#FFFFFF;}
	.st76{fill:#63C132;stroke:#1E3F20;stroke-width:9;stroke-miterlimit:10;}
	.st77{clip-path:url(#SVGID_18_);}
	.st78{fill:#FFFFFF;stroke:#1E3F20;stroke-width:0.5;stroke-miterlimit:10;}
	.st79{fill:#FFFFFF;stroke:#FFFFFF;stroke-width:0.25;stroke-miterlimit:10;}
</style>
<g id="Layer_1_1_">
</g>
<g id="Layer_3">
</g>
<g id="Layer_15">
</g>
<g>
	<path class="st76" d="M92.3,68.9c-2-4.5-14.4-8.4-14.4-8.4c-4.1-1.4-6.8-2.9-7.4-3.8c-0.2-0.3-0.6-0.2-0.8,0.1
		c-8.1,9.3-17.1,2.9-19.4,0c-0.2-0.3-0.6-0.4-0.8-0.1C47,60,34.3,63.4,34.3,63.4c-3.8,1.4-5.4,3.6-5.5,3.7c0,0,0,0,0,0
		c-5.7,8.5-6.4,27.5-6.4,27.5c0.1,4.3,1.9,4.8,1.9,4.8c13.2,5.9,33.8,6.9,34,7c0,0,0,0,0,0c21.3,0.4,36.8-6.1,36.8-6.1
		c2.3-1.4,2.3-2.5,2.3-2.5C99,84.2,92.3,68.9,92.3,68.9L92.3,68.9z"/>
	<path class="st76" d="M75.6,35c0.2-1.8,0.3-3.4,0.3-4.8c0-8.6-7-16.7-15.6-16.7c-8.6,0-15.6,8-15.6,16.7c0,1.3,0.1,2.9,0.2,4.7
		c-2.9-1-1,4.8-1,4.8c0.3,1.6,1.6,2.2,2,2.5c1.7,8.3,5.7,16.8,14.3,16.8c8.1,0,12.3-8.6,14.2-17c0.4-0.3,1.7-0.7,2-2.3
		C76.5,39.8,78.4,34.2,75.6,35z"/>
	<path class="st0" d="M92.3,68.9c-2-4.5-14.4-8.4-14.4-8.4c-4.1-1.4-6.8-2.9-7.4-3.8c-0.2-0.3-0.6-0.2-0.8,0.1
		c-8.1,9.3-17.1,2.9-19.4,0c-0.2-0.3-0.6-0.4-0.8-0.1C47,60,34.3,63.4,34.3,63.4c-3.8,1.4-5.4,3.6-5.5,3.7c0,0,0,0,0,0
		c-5.7,8.5-6.4,27.5-6.4,27.5c0.1,4.3,1.9,4.8,1.9,4.8c13.2,5.9,33.8,6.9,34,7c0,0,0,0,0,0c21.3,0.4,36.8-6.1,36.8-6.1
		c2.3-1.4,2.3-2.5,2.3-2.5C99,84.2,92.3,68.9,92.3,68.9L92.3,68.9z"/>
	<g>
		<defs>
			<path id="SVGID_17_" d="M92.3,68.9c-2-4.5-14.4-8.4-14.4-8.4c-4.1-1.4-6.8-2.9-7.4-3.8c-0.2-0.3-0.6-0.2-0.8,0.1
				c-8.1,9.3-17.1,2.9-19.4,0c-0.2-0.3-0.6-0.4-0.8-0.1C47,60,34.3,63.4,34.3,63.4c-3.8,1.4-5.4,3.6-5.5,3.7c0,0,0,0,0,0
				c-5.7,8.5-6.4,27.5-6.4,27.5c0.1,4.3,1.9,4.8,1.9,4.8c13.2,5.9,33.8,6.9,34,7c0,0,0,0,0,0c21.3,0.4,36.8-6.1,36.8-6.1
				c2.3-1.4,2.3-2.5,2.3-2.5C99,84.2,92.3,68.9,92.3,68.9L92.3,68.9z"/>
		</defs>
		<clipPath id="SVGID_2_">
			<use xlink:href="#SVGID_17_"  style="overflow:visible;"/>
		</clipPath>
		<g style="clip-path:url(#SVGID_2_);">
			<path class="st8" d="M59.9,61.1c-0.9,0-1.7,0.2-2.2,0.5v4.5c0.5,0.3,1.3,0.5,2.2,0.5c0.9,0,1.7-0.2,2.2-0.5l0-4.5
				C61.6,61.3,60.8,61.1,59.9,61.1z"/>
			<path class="st8" d="M48.9,58c0,0-2.7,5.4,0,11.7c3.9,0,6.7-1.6,8.4-3.2v-5.2C55.5,59.6,52.6,58,48.9,58z"/>
			<path class="st8" d="M62.5,61.2v5.2c1.8,1.6,4.6,3.2,8.4,3.2c2.7-6.3,0-11.7,0-11.7C67.3,58,64.4,59.6,62.5,61.2z"/>
		</g>
		<g style="clip-path:url(#SVGID_2_);">
			<path class="st5" d="M59.9,61.1c-0.9,0-1.7,0.2-2.2,0.5v4.5c0.5,0.3,1.3,0.5,2.2,0.5c0.9,0,1.7-0.2,2.2-0.5l0-4.5
				C61.6,61.3,60.8,61.1,59.9,61.1z M59,61.6c0.3,0,0.6,0.1,0.6,0.3s-0.2,0.4-0.5,0.5c-0.3,0-0.6-0.1-0.6-0.3
				C58.5,61.8,58.7,61.6,59,61.6z M59.1,65.4c-0.3,0-0.5-0.2-0.5-0.5c0-0.3,0.2-0.5,0.5-0.5c0.3,0,0.5,0.2,0.5,0.5
				C59.6,65.1,59.4,65.4,59.1,65.4z M60.2,63.1c0-0.3,0.2-0.5,0.5-0.5c0.3,0,0.5,0.2,0.5,0.5c0,0.3-0.2,0.5-0.5,0.5
				C60.5,63.6,60.2,63.4,60.2,63.1z M60.9,65.9c-0.3,0-0.5-0.2-0.5-0.4c0-0.2,0.2-0.4,0.5-0.4c0.3,0,0.5,0.2,0.5,0.4
				C61.5,65.7,61.2,65.9,60.9,65.9z"/>
			<path class="st5" d="M48.9,58c0,0-2.7,5.4,0,11.7c3.9,0,6.7-1.6,8.4-3.2v-5.2C55.5,59.6,52.6,58,48.9,58z M49.7,66.6
				c-0.4,0-0.7-0.4-0.7-0.9c0-0.5,0.3-0.9,0.7-0.9c0.4,0,0.7,0.4,0.7,0.9C50.3,66.2,50,66.6,49.7,66.6z M49.7,62.1
				c-0.4,0-0.7-0.4-0.7-0.8s0.3-0.8,0.7-0.8c0.4,0,0.7,0.4,0.7,0.8S50,62.1,49.7,62.1z M51.5,63.5c0-0.4,0.3-0.7,0.7-0.7
				c0.4,0,0.7,0.3,0.7,0.7c0,0.4-0.3,0.7-0.7,0.7C51.8,64.1,51.5,63.8,51.5,63.5z M52.8,68.1c-0.5,0.2-1,0.1-1-0.2
				c-0.1-0.3,0.2-0.6,0.7-0.8c0.5-0.2,1-0.1,1,0.2C53.7,67.7,53.3,68,52.8,68.1z M53.6,60.2c-0.1,0.3-0.5,0.4-1,0.2
				c-0.5-0.2-0.8-0.5-0.7-0.8c0.1-0.3,0.5-0.4,1-0.2C53.3,59.6,53.7,59.9,53.6,60.2z M54.3,65.6c-0.3,0-0.5-0.2-0.5-0.5
				c0-0.3,0.2-0.5,0.5-0.5c0.3,0,0.5,0.2,0.5,0.5C54.9,65.4,54.6,65.6,54.3,65.6z M54.3,62.7c-0.3,0-0.5-0.2-0.5-0.5
				c0-0.3,0.2-0.5,0.5-0.5c0.3,0,0.5,0.2,0.5,0.5C54.9,62.4,54.6,62.7,54.3,62.7z M55.6,63.7c0-0.2,0.2-0.4,0.4-0.4
				c0.2,0,0.4,0.2,0.4,0.4c0,0.2-0.2,0.4-0.4,0.4C55.8,64.1,55.6,63.9,55.6,63.7z M56.3,66.3c-0.2,0.1-0.4,0-0.4-0.2
				c0-0.2,0.2-0.4,0.4-0.5c0.2-0.1,0.4,0,0.4,0.2C56.7,66,56.5,66.2,56.3,66.3z M56.3,61.9c-0.2-0.1-0.4-0.3-0.4-0.5
				c0-0.2,0.2-0.2,0.4-0.2c0.2,0.1,0.4,0.3,0.4,0.5C56.7,61.9,56.5,62,56.3,61.9z"/>
			<path class="st5" d="M62.5,61.2v5.2c1.8,1.6,4.6,3.2,8.4,3.2c2.7-6.3,0-11.7,0-11.7C67.3,58,64.4,59.6,62.5,61.2z M69.6,65.7
				c0-0.5,0.3-0.9,0.7-0.9s0.7,0.4,0.7,0.9c0,0.5-0.3,0.9-0.7,0.9S69.6,66.2,69.6,65.7z M69.6,61.3c0-0.4,0.3-0.8,0.7-0.8
				s0.7,0.4,0.7,0.8s-0.3,0.8-0.7,0.8S69.6,61.8,69.6,61.3z M67.8,64.1c-0.4,0-0.7-0.3-0.7-0.7c0-0.4,0.3-0.7,0.7-0.7
				s0.7,0.3,0.7,0.7C68.4,63.8,68.1,64.1,67.8,64.1z M66.3,67.4c0.1-0.3,0.5-0.4,1-0.2c0.5,0.2,0.8,0.5,0.7,0.8
				c-0.1,0.3-0.5,0.4-1,0.2C66.6,68,66.2,67.7,66.3,67.4z M67.1,59.5c0.5-0.2,1-0.1,1,0.2c0.1,0.3-0.2,0.6-0.7,0.8
				c-0.5,0.2-1,0.1-1-0.2C66.2,59.9,66.6,59.6,67.1,59.5z M65,65.1c0-0.3,0.2-0.5,0.5-0.5c0.3,0,0.5,0.2,0.5,0.5
				c0,0.3-0.2,0.5-0.5,0.5C65.3,65.6,65,65.4,65,65.1z M65,62.1c0-0.3,0.2-0.5,0.5-0.5c0.3,0,0.5,0.2,0.5,0.5c0,0.3-0.2,0.5-0.5,0.5
				C65.3,62.7,65,62.4,65,62.1z M63.8,64.1c-0.2,0-0.4-0.2-0.4-0.4c0-0.2,0.2-0.4,0.4-0.4c0.2,0,0.4,0.2,0.4,0.4
				C64.3,63.9,64.1,64.1,63.8,64.1z M63.2,65.8c0-0.2,0.2-0.2,0.4-0.2c0.2,0.1,0.4,0.3,0.4,0.5c0,0.2-0.2,0.2-0.4,0.2
				C63.4,66.2,63.2,66,63.2,65.8z M63.2,61.7c0-0.2,0.2-0.4,0.4-0.5c0.2-0.1,0.4,0,0.4,0.2c0,0.2-0.2,0.4-0.4,0.5
				C63.4,62,63.2,61.9,63.2,61.7z"/>
		</g>
	</g>
	<path class="st0" d="M75.6,35c0.2-1.8,0.3-3.4,0.3-4.8c0-8.6-7-16.7-15.6-16.7c-8.6,0-15.6,8-15.6,16.7c0,1.3,0.1,2.9,0.2,4.7
		c-2.9-1-1,4.8-1,4.8c0.3,1.6,1.6,2.2,2,2.5c1.7,8.3,5.7,16.8,14.3,16.8c8.1,0,12.3-8.6,14.2-17c0.4-0.3,1.7-0.7,2-2.3
		C76.5,39.8,78.4,34.2,75.6,35z"/>
</g>
<g>
	<path class="st78" d="M60.3,100.1c-0.4,0-1.1,0.1-1.2,0.1l-2.2,0.4c-0.4,0.1-0.7,0.1-1.1,0c-2.4-0.1-4.4-1.1-5.3-3.6
		c-0.9-2.6-0.2-5,2.3-6.4c1.4-0.8,1.9-2.2,2.7-3.5c1.1-1.9,2.5-2.7,4.7-2.7c2.1,0,3.6,0.8,4.7,2.6c0.8,1.3,1.3,2.6,2.7,3.4
		c2.5,1.4,3.2,3.7,2.4,6.4c-0.8,2.5-2.8,3.5-5.2,3.7c-0.4,0-0.7,0-1.1,0l-2.2-0.3C61.4,100.2,60.7,100.1,60.3,100.1z"/>
	<path class="st78" d="M54.2,80.8c-0.2-1.8-0.4-3.4,1.7-4.3c1.2-0.5,2.3-0.1,2.9,1c0.9,1.5,1,3.3-0.1,4.8c-1.4,1.8-3.5,1.2-4.3-0.6
		L54.2,80.8z"/>
	<path class="st78" d="M53.6,83.9c0.6,1.7,0.6,3.4-1.5,4.3c-1.2,0.5-2.3,0.1-3-0.9c-0.9-1.4-1.2-3-0.4-4.4c0.9-1.7,3.4-1.7,4.2-0.2
		L53.6,83.9z"/>
	<path class="st78" d="M66.2,80.7c0.1-1.8,0.4-3.4-1.8-4.3c-1.2-0.5-2.3,0-2.9,1c-0.9,1.6-1,3.3,0.2,4.8c1.4,1.7,3.5,1.2,4.3-0.7
		L66.2,80.7z"/>
	<path class="st78" d="M66.8,83.8c-0.6,1.7-0.5,3.5,1.5,4.3c1.2,0.5,2.3,0.1,3-1c0.9-1.4,1.2-3,0.3-4.4c-0.9-1.7-3.5-1.6-4.2-0.1
		L66.8,83.8z"/>
</g>
<path class="st79" d="M70.5,32.2c-0.8,0-4.3,0-6,0.5c-1.7,0.5-4,0.6-4.3,0.6v0c0,0-2.5-0.1-4.3-0.6c-1.8-0.5-5.2-0.5-6-0.5
	c-0.8,0-5.3,0.6-5.5,0.7l0.2,2.1c0,0,0.8-0.1,1,1.2c0.2,1.3,1.3,4.1,2.1,5c0.8,1,2.6,1.6,4.3,1.6c1.7,0,2.9-0.2,3.9-0.9
	c1.1-0.7,2-2.1,2.5-3.8c0.5-1.7,0.5-2.3,1.7-2.3v0c1.2,0,1.2,0.7,1.8,2.3c0.5,1.7,1.4,3.1,2.5,3.8c1.1,0.7,2.2,0.9,3.9,0.9
	c1.7,0,3.5-0.6,4.3-1.6c0.8-0.9,1.9-3.7,2.1-5c0.2-1.3,1-1.2,1-1.2l0.2-2.1C75.8,32.8,71.3,32.2,70.5,32.2z M57.1,39.4
	c-0.8,2.3-3,2.8-4.9,2.8c-1.9,0-3.3-0.7-4-1.6c-0.6-0.7-1.1-2.6-1.2-3.5c-0.1-0.9-0.3-2.9,0.8-3.5c1.2-0.6,4.4-0.5,4.4-0.5
	c1.1,0,2.4,0.2,3.7,0.5c1.3,0.3,2,0.9,2.1,1.5C58,35.9,57.9,37.1,57.1,39.4z M73.5,37.1c-0.1,0.9-0.7,2.8-1.2,3.5
	c-0.7,0.9-2.1,1.6-4,1.6c-1.9,0-4.1-0.5-4.9-2.8c-0.8-2.3-1-3.5-0.8-4.2c0.1-0.7,0.9-1.2,2.1-1.5c1.3-0.3,2.6-0.5,3.7-0.5
	c0,0,3.2-0.2,4.4,0.5C73.8,34.3,73.6,36.3,73.5,37.1z"/>
</svg>
