<?xml version="1.0" encoding="utf-8"?>
<!-- Generator: Adobe Illustrator 25.2.0, SVG Export Plug-In . SVG Version: 6.00 Build 0)  -->
<svg version="1.1" xmlns="http://www.w3.org/2000/svg" xmlns:xlink="http://www.w3.org/1999/xlink" x="0px" y="0px"
	 viewBox="0 0 100 105" style="enable-background:new 0 0 100 105;" xml:space="preserve">
<style type="text/css">
	.st0{fill:#63C035;}
	.st1{display:none;fill:#FFFFFF;}
	.st2{display:none;fill:#63C132;}
	.st3{fill:#63C132;}
	.st4{display:none;fill:#234125;}
	.st5{fill:#1E3F20;}
	.st6{fill:#FFFFFF;}
	.st7{display:none;}
	.st8{display:inline;}
	.st9{opacity:0.15;fill:#1E3F20;}
	.st10{opacity:0.7;fill:none;stroke:#FFFFFF;stroke-width:5;stroke-miterlimit:10;}
	.st11{opacity:0.7;}
	.st12{fill:#DB4A39;}
	.st13{fill:#3B5998;}
	.st14{fill:none;stroke:#FFFFFF;stroke-width:7.5;stroke-miterlimit:10;}
	.st15{fill:#234125;}
	.st16{fill:none;stroke:#1E3F20;stroke-width:7.5;stroke-miterlimit:10;}
	.st17{opacity:0.2;fill:#1E3F20;}
	.st18{display:none;fill:#63C035;}
	.st19{fill:none;stroke:#1E3F20;stroke-width:5.5;stroke-miterlimit:10;}
	.st20{fill:#1A1A1A;}
	.st21{fill:none;stroke:#1E3F20;stroke-width:7;stroke-miterlimit:10;}
	.st22{fill:none;stroke:#1E3F20;stroke-width:4;stroke-miterlimit:10;}
	.st23{opacity:0.75;fill:#FFFFFF;}
	.st24{fill:#FFFFFF;stroke:#1E3F20;stroke-width:0.75;stroke-miterlimit:10;}
	.st25{fill:#FFFFFF;stroke:#1A1A1A;stroke-width:0.75;stroke-miterlimit:10;}
	.st26{clip-path:url(#SVGID_2_);fill:#FFFFFF;}
	.st27{display:none;fill:#006837;}
	.st28{opacity:0.75;}
	.st29{fill:none;stroke:#234125;stroke-width:4;stroke-miterlimit:10;}
	.st30{fill:none;stroke:#234125;stroke-width:3;stroke-miterlimit:10;}
</style>
<g id="Layer_2">
</g>
<g id="Layer_1">
</g>
<g id="Layer_3">
	<g id="Layer_4_copy" class="st7">
	</g>
	<g id="Layer_4_copy_2" class="st7">
	</g>
	<g id="Layer_4" class="st7">
	</g>
	<g id="Layer_4_copy_3" class="st7">
	</g>
	<g id="Layer_4_copy_5">
	</g>
	<g id="Layer_4_copy_4" class="st7">
	</g>
</g>
<g id="Layer_15">
	<g>
		<path class="st6" d="M73.93,67.81c-1.88-4.52-6.27-7.68-11.38-7.68H37.83c-6.82,0-12.36,5.65-12.36,12.62v3.84
			c0,1.11,0.16,2.19,0.42,3.21v8.34c0,3.51,2.79,6.36,6.23,6.36H69.1c3.44,0,6.23-2.85,6.23-6.36V71.78
			C75.33,70.27,74.79,68.9,73.93,67.81z"/>
		<ellipse class="st15" cx="50.4" cy="62.64" rx="7.45" ry="5.76"/>
		<path class="st15" d="M48.57,94.79c-20.29,4.48-28.02,0.4-34.13-11.83c-4.09-8.18-1.75-20.45,3.53-28.75
			c-4.7-1.38-9.65-3.19-14.34-10.35c-5.57-8.51,1.04-10.59,4.38-19.5c0.98-2.6,3.24-6.53,4.69-8.9c4.34-7.1,10.05-8.63,17.07-4.34
			c2.91,1.78,6.45,2.33,9.71,1.3c4.64-1.47,9.51-1.14,14.26-0.84c6.88,0.45,13.37,2.21,20.22-2.19c4.11-2.63,9.5,0.49,12.15,4.99
			c4.12,6.98,8.04,14.14,11.37,21.52c2.3,5.09,0.74,9.9-4.12,13.07c-3.64,2.38-7.37,4.72-12.26,4.93c7.07,10.4,7.58,20.97,2.85,31.8
			c-6.24,14.29-22.05,10.84-31.24,9.18 M26.89,78.49c0,1.88-0.04,3.76,0.01,5.63c0.09,3.77-0.21,8.33,4.73,8.86
			c5.32,0.57,11.55,2.45,15.39-3.43c3.43-5.26,1.21-11.39,1.65-17.11c0.3-3.91-3.58-2.58-5.31-3.97c-0.63-0.5-1.49-1.19-1.54-1.85
			c-0.35-4.75-3.15-5.67-7.17-4.86c-4.39,0.88-7.06,3.53-7.49,8 M73.59,69.23c-0.58-4.52-3.56-6.76-7.9-7.58
			c-4.05-0.76-6.22,0.63-6.68,4.86c-0.13,1.2-1.27,2.33-2.6,2.4c-4.56,0.23-4.45,3.31-4.31,6.6c0.12,2.91-0.05,5.84,0.06,8.75
			c0.23,5.68,3.13,8.67,8.9,9.12c11.19,0.88,12.88-0.57,12.89-11.67c0-0.83,0-1.67,0-2.5 M50.59,66.46
			c1.97-0.46,5.57,0.82,5.63-2.81c0.06-3.58-3.47-2.14-5.36-2.07c-2.17,0.08-5.87-1.7-6.22,1.85
			C44.29,67.03,47.96,66.14,50.59,66.46z"/>
		<path class="st3" d="M50.33,14.91c23.16-1.7,28.1,15.25,26.68,33.37c-0.11,1.46-0.53,2.76-2.15,2.09
			c-1.72-0.71-4.56,0.23-4.9-2.78c-0.19-1.66,0.04-3.37-0.13-5.03c-0.22-2.14-1.4-3.53-3.68-3.59c-2.57-0.07-4.42,1.57-4.06,3.82
			c1.23,7.73-3.92,6.57-8.42,6.54c-2.95-0.02-5.91-0.07-8.85,0.01c-4.64,0.13-9.59,0.95-8.29-6.61c0.35-2.06-1.15-3.61-3.42-3.74
			c-2.55-0.14-3.94,1.29-4.18,3.74c-0.17,1.68,0.04,3.39-0.12,5.07c-0.19,1.95-1.98,1.95-3.32,2.31c-1.31,0.35-1.67-0.56-2.02-1.71
			c-3.14-10.33,1.44-24.17,9.84-30.25C38.54,14.37,44.46,14.93,50.33,14.91z"/>
		<path class="st3" d="M75.85,85.78c0-4.96,0.12-9.91-0.03-14.87c-0.25-8.72-3.89-12.08-12.59-12.71
			c-8.62-0.63-17.19-0.61-25.81,0.01c-8.64,0.62-12.22,4.04-12.45,12.86c-0.14,5.22-0.02,10.45-0.02,15.62
			c-1.88,1.06-2.74-0.36-3.55-1.34c-6.16-7.4-5.1-16.04-2.54-24.01c2.29-7.11,8.87-8.99,16.18-8.76
			c10.22,0.31,20.46,0.04,30.69,0.09c10.23,0.05,15.73,5.14,16.35,15.23C82.5,74.68,81.43,85.44,75.85,85.78z"/>
		<path class="st15" d="M24.29,13.99c2.28,0.04,4.7,0.53,5.81,2.46c1.13,1.95-1.39,3.01-2.38,4.28c-5.48,7.06-6.75,15.07-6.3,23.74
			c0.31,6.07-1.58,7.21-7.05,4.6C5.14,44.67,5,36.68,8.82,32.85c3.33-3.34,4.31-8.55,6.72-12.69
			C17.46,16.88,19.72,13.68,24.29,13.99z"/>
		<path class="st15" d="M75.6,14.01c4.1-0.33,6.3,2.55,8.02,5.42c3.3,5.5,6.18,11.26,9.16,16.94c1.41,2.7,1.57,5.37-0.74,7.78
			c-2.98,3.1-6.28,5.7-10.77,5.88c-1.88,0.07-1.91-1.65-2.03-3.09c-0.36-4.38-0.83-8.76-1.12-13.15c-0.33-5.06-2.87-9.06-5.79-12.95
			c-1.08-1.44-4.2-2.22-2.7-4.59C70.78,14.43,73.27,13.88,75.6,14.01z"/>
	</g>
</g>
<g id="Layer_10">
</g>
<g id="Layer_11">
</g>
<g id="Layer_12">
</g>
<g id="Layer_13">
</g>
<g id="Layer_14">
</g>
</svg>
