<?xml version="1.0" encoding="utf-8"?>
<!-- Generator: Adobe Illustrator 25.2.0, SVG Export Plug-In . SVG Version: 6.00 Build 0)  -->
<svg version="1.1" xmlns="http://www.w3.org/2000/svg" xmlns:xlink="http://www.w3.org/1999/xlink" x="0px" y="0px"
	 viewBox="0 0 100 100" style="enable-background:new 0 0 100 100;" xml:space="preserve">
<style type="text/css">
	.st0{fill:#63C035;}
	.st1{display:none;fill:#FFFFFF;}
	.st2{display:none;fill:#63C132;}
	.st3{fill:#63C132;}
	.st4{display:none;fill:#234125;}
	.st5{fill:#1E3F20;}
	.st6{fill:#FFFFFF;}
	.st7{display:none;}
	.st8{display:inline;}
	.st9{opacity:0.15;fill:#1E3F20;}
	.st10{opacity:0.7;fill:none;stroke:#FFFFFF;stroke-width:5;stroke-miterlimit:10;}
	.st11{opacity:0.7;}
	.st12{fill:#DB4A39;}
	.st13{fill:#3B5998;}
	.st14{fill:none;stroke:#FFFFFF;stroke-width:7.5;stroke-miterlimit:10;}
	.st15{fill:#234125;}
	.st16{fill:none;stroke:#1E3F20;stroke-width:7.5;stroke-miterlimit:10;}
	.st17{opacity:0.2;fill:#1E3F20;}
	.st18{display:none;fill:#63C035;}
	.st19{fill:none;stroke:#1E3F20;stroke-width:5.5;stroke-miterlimit:10;}
	.st20{fill:#1A1A1A;}
	.st21{fill:none;stroke:#1E3F20;stroke-width:7;stroke-miterlimit:10;}
	.st22{fill:none;stroke:#1E3F20;stroke-width:4;stroke-miterlimit:10;}
	.st23{opacity:0.75;fill:#FFFFFF;}
	.st24{fill:#FFFFFF;stroke:#1E3F20;stroke-width:0.75;stroke-miterlimit:10;}
	.st25{fill:#FFFFFF;stroke:#1A1A1A;stroke-width:0.75;stroke-miterlimit:10;}
	.st26{clip-path:url(#SVGID_2_);fill:#FFFFFF;}
	.st27{display:none;fill:#006837;}
	.st28{opacity:0.75;}
	.st29{fill:none;stroke:#234125;stroke-width:4;stroke-miterlimit:10;}
	.st30{fill:none;stroke:#234125;stroke-width:3;stroke-miterlimit:10;}
</style>
<g id="Layer_2">
</g>
<g id="Layer_1">
</g>
<g id="Layer_3">
	<g id="Layer_4_copy" class="st7">
	</g>
	<g id="Layer_4_copy_2" class="st7">
	</g>
	<g id="Layer_4" class="st7">
	</g>
	<g id="Layer_4_copy_3" class="st7">
	</g>
	<g id="Layer_4_copy_5">
	</g>
	<g id="Layer_4_copy_4" class="st7">
	</g>
</g>
<g id="Layer_15">
	<g>
		<g>
			<g>
				<path class="st5" d="M65.63,69.94c8.98,8.98,17.95,17.95,26.93,26.93c2.73,2.73,6.98-1.51,4.24-4.24
					c-8.98-8.98-17.95-17.95-26.93-26.93C67.14,62.96,62.9,67.2,65.63,69.94L65.63,69.94z"/>
			</g>
		</g>
		<path class="st19" d="M66.14,66.08c-6.25,6.25-14.25,9.71-22.42,10.36c-10.09,0.81-20.46-2.64-28.18-10.36
			c-13.97-13.97-13.97-36.63,0-50.6s36.63-13.97,50.6,0S80.11,52.1,66.14,66.08z"/>
		<g>
			<path class="st6" d="M53.4,49.18c-0.93-2.19-3.11-3.73-5.64-3.73H35.52c-3.38,0-6.12,2.74-6.12,6.12v1.86
				c0,0.54,0.08,1.06,0.21,1.56v4.05c0,1.7,1.38,3.09,3.09,3.09h18.32c1.7,0,3.09-1.38,3.09-3.09v-7.94
				C54.1,50.37,53.83,49.71,53.4,49.18z"/>
			<ellipse class="st5" cx="41.85" cy="47.14" rx="3.78" ry="2.93"/>
			<path class="st5" d="M40.94,62.72c-9.95,2.2-13.73,0.2-16.73-5.8c-2-4.01-0.86-10.02,1.73-14.09c-2.3-0.68-4.73-1.56-7.03-5.07
				c-2.73-4.17,0.51-5.19,2.15-9.56c0.48-1.28,1.59-3.2,2.3-4.36c2.13-3.48,4.92-4.23,8.37-2.12c1.43,0.87,3.16,1.14,4.76,0.64
				c2.27-0.72,4.66-0.56,6.99-0.41c3.37,0.22,6.55,1.08,9.91-1.07c2.01-1.29,4.66,0.24,5.96,2.45c2.02,3.42,3.94,6.93,5.57,10.55
				c1.12,2.49,0.36,4.85-2.02,6.41c-1.79,1.17-3.61,2.31-6.01,2.42c3.46,5.1,3.71,10.28,1.4,15.59c-3.06,7.01-10.81,5.31-15.31,4.5
				 M30.32,54.73c0,0.92-0.02,1.84,0,2.76c0.04,1.85-0.1,4.08,2.32,4.34c2.61,0.28,5.66,1.2,7.54-1.68
				c1.68-2.58,0.59-5.58,0.81-8.39c0.15-1.92-1.75-1.27-2.6-1.94c-0.31-0.24-0.73-0.58-0.76-0.91c-0.17-2.33-1.54-2.78-3.52-2.38
				c-2.15,0.43-3.46,1.73-3.67,3.92 M53.21,50.19c-0.28-2.22-1.75-3.31-3.87-3.71c-1.99-0.37-3.05,0.31-3.27,2.38
				C46,49.44,45.44,50,44.79,50.03c-2.23,0.11-2.18,1.62-2.11,3.23c0.06,1.43-0.03,2.86,0.03,4.29c0.11,2.78,1.54,4.25,4.36,4.47
				c5.48,0.43,6.31-0.28,6.32-5.72c0-0.41,0-0.82,0-1.23 M41.93,48.83c0.97-0.23,2.73,0.4,2.76-1.38c0.03-1.76-1.7-1.05-2.63-1.01
				c-1.06,0.04-2.88-0.83-3.05,0.9C38.85,49.11,40.65,48.67,41.93,48.83z"/>
			<path class="st3" d="M41.8,23.67c11.18-0.82,13.57,7.36,12.88,16.12c-0.06,0.71-0.25,1.33-1.04,1.01
				c-0.83-0.34-2.2,0.11-2.37-1.34c-0.09-0.8,0.02-1.63-0.06-2.43c-0.11-1.03-0.68-1.7-1.78-1.73c-1.24-0.03-2.13,0.76-1.96,1.84
				c0.6,3.73-1.89,3.17-4.06,3.16c-1.43-0.01-2.85-0.03-4.28,0.01c-2.24,0.06-4.63,0.46-4-3.19c0.17-1-0.56-1.74-1.65-1.8
				c-1.23-0.07-1.9,0.62-2.02,1.8c-0.08,0.81,0.02,1.64-0.06,2.45c-0.09,0.94-0.96,0.94-1.6,1.12c-0.63,0.17-0.81-0.27-0.97-0.83
				c-1.52-4.99,0.69-11.67,4.75-14.61C36.11,23.41,38.97,23.68,41.8,23.67z"/>
			<path class="st3" d="M54.79,58.91c0-2.52,0.06-5.04-0.01-7.56c-0.13-4.43-1.98-6.14-6.4-6.46c-4.38-0.32-8.74-0.31-13.12,0
				c-4.39,0.31-6.21,2.05-6.33,6.53c-0.07,2.65-0.01,5.31-0.01,7.94c-0.96,0.54-1.39-0.18-1.81-0.68
				c-3.13-3.76-2.59-8.16-1.29-12.21c1.16-3.61,4.51-4.57,8.22-4.45c5.2,0.16,10.4,0.02,15.6,0.05c5.2,0.02,7.99,2.61,8.31,7.74
				C58.17,53.26,57.62,58.73,54.79,58.91z"/>
			<path class="st15" d="M28.58,22.42c1.16,0.02,2.39,0.27,2.96,1.25c0.57,0.99-0.71,1.53-1.21,2.18c-2.78,3.59-3.43,7.66-3.2,12.07
				c0.16,3.09-0.8,3.66-3.58,2.34c-4.69-2.24-4.77-6.3-2.82-8.25c1.69-1.7,2.19-4.35,3.42-6.45C25.1,23.88,26.26,22.26,28.58,22.42z
				"/>
			<path class="st15" d="M54.66,22.42c2.08-0.17,3.2,1.3,4.08,2.75c1.68,2.79,3.14,5.72,4.65,8.61c0.72,1.37,0.8,2.73-0.37,3.95
				c-1.51,1.58-3.19,2.9-5.48,2.99c-0.96,0.04-0.97-0.84-1.03-1.57c-0.18-2.23-0.42-4.45-0.57-6.68c-0.17-2.57-1.46-4.6-2.94-6.58
				c-0.55-0.73-2.13-1.13-1.37-2.34C52.21,22.64,53.48,22.36,54.66,22.42z"/>
		</g>
	</g>
</g>
<g id="Layer_10">
</g>
<g id="Layer_11">
</g>
<g id="Layer_12">
</g>
<g id="Layer_13">
</g>
<g id="Layer_14">
</g>
</svg>
