<?xml version="1.0" encoding="utf-8"?>
<!-- Generator: Adobe Illustrator 25.0.1, SVG Export Plug-In . SVG Version: 6.00 Build 0)  -->
<svg version="1.1" id="Capa_1" xmlns="http://www.w3.org/2000/svg" xmlns:xlink="http://www.w3.org/1999/xlink" x="0px" y="0px"
	 viewBox="0 0 512 512" style="enable-background:new 0 0 512 512;" xml:space="preserve">
<style type="text/css">
	.st0{fill:#63C132;stroke:#63C132;stroke-width:11;stroke-miterlimit:10;}
	.st1{fill:#63C132;stroke:#63C132;stroke-width:6;stroke-miterlimit:10;}
	.st2{fill:#63C132;}
	.st3{fill:#63C132;stroke:#63C132;stroke-width:0.5;stroke-miterlimit:10;}
</style>
<g id="shopping-shop-store-market-booth">
	<path class="st0" d="M272,432h128c13.3,0,24-10.7,24-24V296c0-13.3-10.7-24-24-24H272c-13.3,0-24,10.7-24,24v112
		C248,421.3,258.7,432,272,432z M264,296c0-4.4,3.6-8,8-8h128c4.4,0,8,3.6,8,8v112c0,4.4-3.6,8-8,8H272c-4.4,0-8-3.6-8-8V296z"/>
	<path class="st0" d="M376,344h16v-32c0-4.4-3.6-8-8-8h-32v16h24V344z"/>
	<rect x="176" y="376" class="st0" width="16" height="16"/>
	<path class="st1" d="M472,448h-16V255.2c18.6-3.8,32-20.2,32-39.2c0-0.4,0-0.8-0.1-1.1l-14-98.2c-1.7-11.8-11.8-20.6-23.8-20.6H392
		V40c0-13.2-10.8-24-24-24H144c-13.2,0-24,10.8-24,24v56H61.8c-11.9,0.1-22,8.8-23.8,20.6l-14,98.2c-0.1,0.4-0.1,0.7-0.1,1.1
		c0,19,13.4,35.4,32,39.2V448H40c-13.3,0-24,10.7-24,24s10.7,24,24,24h432c13.3,0,24-10.7,24-24S485.3,448,472,448z M424,112h26.2
		c4,0,7.3,2.9,7.8,6.9l14,97.7c-0.2,13.3-11,23.9-24.3,23.7s-23.9-11-23.7-24.3V112z M392,184v-72h16v104c0,13.3-10.7,24-24,24
		s-24-10.7-24-24v-8h8C381.2,208,392,197.2,392,184z M136,40c0-4.4,3.6-8,8-8h224c4.4,0,8,3.6,8,8v144c0,4.4-3.6,8-8,8H144
		c-4.4,0-8-3.6-8-8V40z M344,208v8c0,13.3-10.7,24-24,24s-24-10.7-24-24v-8H344z M280,208v8c0,13.3-10.7,24-24,24
		c-13.3,0-24-10.7-24-24v-8H280z M216,208v8c0,13.3-10.7,24-24,24s-24-10.7-24-24v-8H216z M104,112h16v72c0,13.2,10.8,24,24,24h8v8
		c0,13.3-10.7,24-24,24s-24-10.7-24-24V112z M96,240c13.3,17.7,38.3,21.3,56,8c3-2.3,5.7-5,8-8c13.3,17.7,38.3,21.3,56,8
		c3-2.3,5.7-5,8-8c13.3,17.7,38.3,21.3,56,8c3-2.3,5.7-5,8-8c13.3,17.7,38.3,21.3,56,8c3-2.3,5.7-5,8-8c13.3,17.7,38.3,21.3,56,8
		c3-2.3,5.7-5,8-8c5.9,7.8,14.4,13.2,24,15.1V448H216V336c0-35.3-28.7-64-64-64s-64,28.7-64,64v112H72V255.1
		C81.6,253.2,90.1,247.8,96,240z M200,336v112h-96V336c0-26.5,21.5-48,48-48S200,309.5,200,336z M40,216.6l14-97.7
		c0.5-3.9,3.9-6.9,7.8-6.9H88v104c0.2,13.3-10.5,24.1-23.7,24.3S40.2,229.8,40,216.6L40,216.6z M472,480H40c-4.4,0-8-3.6-8-8
		s3.6-8,8-8h432c4.4,0,8,3.6,8,8S476.4,480,472,480z"/>
	<path class="st2" d="M281.7,130.1l14.1-56.2c0.6-2.4,0.1-4.9-1.4-6.9c-1.5-1.9-3.9-3.1-6.3-3H184v-8c0-4.4-3.6-8-8-8h-24v16h16v8
		c0,4.4,3.6,8,8,8h9.8l12.6,50.1c-12.2,5.3-17.8,19.5-12.6,31.7c5.3,12.2,19.5,17.8,31.7,12.6c11.7-5.1,17.4-18.4,13.1-30.3h18.9
		c-4.5,12.5,2.1,26.2,14.5,30.7c12.5,4.5,26.2-2.1,30.7-14.5C298.9,148.3,293.2,135.1,281.7,130.1z M208,160c-4.4,0-8-3.6-8-8
		s3.6-8,8-8s8,3.6,8,8S212.4,160,208,160z M216,128h-1.8l-4-16h5.8V128z M216,96h-9.8l-4-16H216V96z M248,128h-16v-16h16V128z
		 M248,96h-16V80h16V96z M264,80h13.8l-4,16H264V80z M264,112h5.8l-4,16H264V112z M272,160c-4.4,0-8-3.6-8-8s3.6-8,8-8s8,3.6,8,8
		S276.4,160,272,160z"/>
	<path class="st3" d="M352,96v-8c0-13.3-10.7-24-24-24s-24,10.7-24,24v8c-4.4,0-8,3.6-8,8v32c0,4.4,3.6,8,8,8h48c4.4,0,8-3.6,8-8
		v-32C360,99.6,356.4,96,352,96z M320,88c0-4.4,3.6-8,8-8s8,3.6,8,8v8h-16V88z M344,128h-32v-16h32V128z"/>
</g>
</svg>
