<svg id="Capa_1" enable-background="new 0 0 497 497" height="512" viewBox="0 0 497 497" width="512" xmlns="http://www.w3.org/2000/svg"><g><path d="m314.767 497h107.663c5.698 0 9.723-5.631 7.831-11.006-4.538-12.889-16.821-22.127-31.262-22.127h-30.951z" fill="#f8f6f6"/><path d="m430.26 485.994c-4.538-12.889-16.821-22.127-31.262-22.127h-23c14.441 0 26.724 9.238 31.262 22.127 1.893 5.375-2.133 11.006-7.831 11.006h23c5.699 0 9.724-5.631 7.831-11.006z" fill="#f6e0b9"/><path d="m182.233 497h-107.662c-5.698 0-9.723-5.631-7.831-11.006 4.538-12.889 16.821-22.127 31.262-22.127h25.951z" fill="#f8f6f6"/><path d="m347.9 303.854 35.851 103.473c8.471 24.449 2.233 51.589-16.064 69.886-12.669 12.669-29.853 19.787-47.769 19.787h-10.755c-7.261 0-14.475-1.171-21.363-3.467l-17.937-5.979c-13.867-4.622-28.859-4.622-42.726 0l-17.937 5.979c-6.888 2.296-14.102 3.467-21.363 3.467h-10.755c-17.917 0-35.1-7.117-47.769-19.787-18.297-18.297-24.535-45.437-16.064-69.886l35.851-103.473v-18.354h199.576z" fill="#eed6ad"/><g fill="#e2c48c"><path d="m204.137 487.554-17.937 5.979c-4.945 1.648-10.058 2.706-15.236 3.178 2.026.184 4.066.289 6.118.289h10.755c7.261 0 14.475-1.171 21.363-3.467l17.937-5.979c3.236-1.078 6.534-1.895 9.863-2.47-10.94-1.89-22.232-1.074-32.863 2.47z"/><path d="m383.751 407.327-35.851-103.473.775-18.355h-23l-.775 18.355 35.851 103.473c8.471 24.449 2.233 51.589-16.064 69.886-11.219 11.219-25.978 18.073-41.651 19.498 2.035.185 4.079.289 6.128.289h10.755c17.917 0 35.1-7.117 47.769-19.787 18.295-18.296 24.534-45.436 16.063-69.886z"/></g><path d="m248.5 314.766c29.534 0 86.557-1.318 116.724-18.201v-.003c24.104-12.046 40.66-36.954 40.66-65.734 0-16.938-5.735-32.535-15.368-44.958-10.14-13.077-17.235-28.225-20.419-44.464-1.115-5.685-3.657-13.641-5.655-19.455-1.367-3.977.562-8.35 4.445-9.965 8.566-3.563 22.256-11.841 26.504-29.286 9.981-40.983-51.805-93.141-83.938-80.88-23.392 8.926-18.286 29.877-13.778 40.616.777 1.851-1.328 3.585-3.009 2.487-13.826-8.591-29.523-13.448-46.166-13.448-16.644 0-32.341 4.857-46.167 13.448-1.681 1.098-3.786-.636-3.009-2.487 4.508-10.738 9.614-31.69-13.778-40.616-32.132-12.261-93.919 39.897-83.938 80.88 4.249 17.445 17.938 25.724 26.504 29.286 3.883 1.615 5.812 5.988 4.445 9.965-1.998 5.813-4.54 13.77-5.655 19.455-3.184 16.239-10.279 31.386-20.419 44.464-9.633 12.423-15.368 28.02-15.368 44.958 0 28.779 16.556 53.688 40.66 65.734v.003c30.168 16.883 87.191 18.201 116.725 18.201z" fill="#eed6ad"/><g><path d="m405.884 230.828c0-16.938-5.735-32.535-15.368-44.958-10.14-13.077-17.235-28.225-20.419-44.464-1.115-5.685-3.657-13.641-5.655-19.455-1.367-3.977.562-8.35 4.445-9.965 8.566-3.563 22.256-11.841 26.504-29.286 9.981-40.983-51.805-93.141-83.938-80.88-.02.008-.038.016-.059.024 31.754 8.898 68.905 48.381 60.996 80.856-4.249 17.445-17.939 25.724-26.504 29.286-3.883 1.615-5.812 5.988-4.445 9.965 1.998 5.813 4.54 13.77 5.655 19.455 3.184 16.239 10.279 31.386 20.419 44.464 9.633 12.423 15.368 28.02 15.368 44.958 0 28.779-16.555 53.688-40.66 65.734v.003c-26.615 14.894-74.121 17.673-105.224 18.121 4.152.06 8.022.08 11.5.08 29.534 0 86.557-1.318 116.724-18.201v-.003c24.105-12.046 40.661-36.954 40.661-65.734z" fill="#e2c48c"/></g><path d="m368.903 111.988c-.354.147-.686.325-1.006.515-.039.014-.078.027-.117.04-1.532.527-2.762-1.307-1.714-2.544 3.524-4.157 7.967-11.101 8.358-19.996.378-8.603-5.378-19.948-16.476-20.329-4.536-.155-7.618 1.213-9.711 3.158-3.855 3.581-9.984 2.821-12.564-1.764-9.455-16.801-21.577-45.803-3.217-60.577 3.299-2.655 6.789-4.475 10.328-5.657 29.502 12.722 59.846 48.215 52.625 77.866-4.25 17.447-17.94 25.725-26.506 29.288z" fill="#f8f6f6"/><path d="m372.767 80.958c1.218 2.98 1.783 6.166 1.656 9.045-.391 8.895-4.834 15.839-8.358 19.996-1.048 1.236.182 3.071 1.714 2.544.026-.009.052-.018.078-.027.327-.196.666-.378 1.029-.529 8.566-3.563 22.256-11.841 26.504-29.286 7.221-29.648-23.118-65.138-52.617-77.863-3.536 1.182-7.023 3.001-10.319 5.654-.274.22-.519.454-.779.68 24.54 15.515 45.97 44.536 41.092 69.786z" fill="#f6e0b9"/><path d="m405.884 230.828c0-15.604-4.876-30.062-13.174-41.957l-20.066 18.834c-5.243 4.921-12.164 7.661-19.355 7.661h-18.509c-7.5 0-14.694-2.98-19.998-8.283-5.304-5.304-12.497-8.283-19.998-8.283h-92.553c-7.501 0-14.694 2.98-19.998 8.283-5.304 5.304-12.497 8.283-19.998 8.283h-18.509c-7.191 0-14.112-2.739-19.355-7.661l-20.075-18.843c-8.302 11.896-13.18 26.358-13.18 41.966 0 28.779 16.556 53.688 40.66 65.734v.003c30.167 16.883 87.19 18.201 116.724 18.201s86.557-1.318 116.724-18.201v-.003c24.104-12.046 40.66-36.954 40.66-65.734z" fill="#f8f6f6"/><path d="m405.884 230.828c0-15.603-4.876-30.062-13.174-41.956v-.001l-15.228 14.293c3.477 8.539 5.402 17.875 5.402 27.664 0 28.779-16.555 53.688-40.66 65.734v.003c-26.615 14.894-74.121 17.673-105.224 18.121 4.152.06 8.022.08 11.5.08 29.534 0 86.557-1.318 116.724-18.201v-.003c24.104-12.046 40.66-36.954 40.66-65.734z" fill="#f6e0b9"/><path d="m231.933 248.5 3.785 24.366c.843 5.059 5.221 8.767 10.35 8.767h4.865c5.129 0 9.506-3.708 10.349-8.767l3.785-24.366z" fill="#fff"/><path d="m128.114 111.988c.354.147.686.325 1.006.515.039.014.078.027.117.04 1.532.527 2.762-1.307 1.714-2.544-3.524-4.157-7.967-11.101-8.358-19.996-.378-8.603 5.378-19.948 16.476-20.329 4.536-.155 7.618 1.213 9.711 3.158 3.855 3.581 9.984 2.821 12.564-1.764 9.455-16.801 21.576-45.803 3.217-60.577-3.299-2.655-6.789-4.475-10.328-5.657-29.502 12.722-59.846 48.215-52.625 77.866 4.25 17.447 17.94 25.725 26.506 29.288z" fill="#f8f6f6"/><path d="m289.917 220.015c-4.143 0-7.5 3.358-7.5 7.5 0 7.436-6.049 13.484-13.484 13.484h-12.974c.027-.257.041-.519.041-.783v-29.85c0-4.142-3.357-7.5-7.5-7.5-4.142 0-7.5 3.358-7.5 7.5v29.85c0 .265.014.526.041.783h-12.973c-7.436 0-13.484-6.049-13.484-13.484 0-4.142-3.358-7.5-7.5-7.5s-7.5 3.358-7.5 7.5c0 15.707 12.778 28.484 28.484 28.484h40.865c15.706 0 28.484-12.778 28.484-28.484 0-4.142-3.357-7.5-7.5-7.5z" fill="#e2c48c"/><path d="m228.676 182.233h39.647c3.218 0 6.305 1.278 8.581 3.554 6.16 6.16 4.015 16.612-4.074 19.847l-21.359 8.544c-1.907.763-4.035.763-5.942 0l-21.359-8.544c-8.088-3.235-10.234-13.687-4.074-19.847 2.275-2.276 5.362-3.554 8.58-3.554z" fill="#e59298"/><path d="m276.904 185.787c-2.276-2.276-5.362-3.554-8.581-3.554h-23c3.218 0 6.305 1.278 8.581 3.554 6.16 6.16 4.015 16.612-4.074 19.847l-12.83 5.132 8.529 3.412c1.907.763 4.035.763 5.942 0l21.359-8.544c8.089-3.235 10.234-13.687 4.074-19.847z" fill="#e17780"/><ellipse cx="198.8" cy="149.1" fill="#716e6e" rx="16.567" ry="16.567" transform="matrix(.942 -.335 .335 .942 -38.44 75.145)"/><ellipse cx="298.2" cy="149.1" fill="#716e6e" rx="16.567" ry="16.567" transform="matrix(.912 -.411 .411 .912 -34.926 135.635)"/><path d="m165.667 381.033h49.7v45.217h-49.7z" fill="#f8f6f6"/><path d="m281.633 381.033h49.7v45.217h-49.7z" fill="#f8f6f6"/><g><path d="m198.8 438.233h-16.566c-13.271 0-24.067-10.796-24.067-24.066v-66.267c0-4.142 3.358-7.5 7.5-7.5s7.5 3.358 7.5 7.5v66.267c0 4.999 4.067 9.066 9.067 9.066h16.566c4.999 0 9.067-4.067 9.067-9.066v-49.7c0-4.142 3.358-7.5 7.5-7.5s7.5 3.358 7.5 7.5v49.7c0 13.27-10.797 24.066-24.067 24.066z" fill="#e2c48c"/></g><g><path d="m314.767 438.233h-16.567c-13.271 0-24.066-10.796-24.066-24.066v-49.7c0-4.142 3.357-7.5 7.5-7.5s7.5 3.358 7.5 7.5v49.7c0 4.999 4.067 9.066 9.066 9.066h16.566c4.999 0 9.066-4.067 9.066-9.066v-66.267c0-4.142 3.357-7.5 7.5-7.5s7.5 3.358 7.5 7.5v66.267c.001 13.27-10.795 24.066-24.065 24.066z" fill="#e2c48c"/></g></g></svg>