<?xml version="1.0" encoding="utf-8"?>
<!-- Generator: Adobe Illustrator 25.2.0, SVG Export Plug-In . SVG Version: 6.00 Build 0)  -->
<svg version="1.1" id="Layer_1" xmlns="http://www.w3.org/2000/svg" xmlns:xlink="http://www.w3.org/1999/xlink" x="0px" y="0px"
	 viewBox="0 0 80 80" style="enable-background:new 0 0 80 80;" xml:space="preserve">
<style type="text/css">
	.st0{fill:#63C132;}
	.st1{display:none;}
	.st2{display:inline;fill:#63C132;}
	.st3{display:inline;}
	.st4{fill:#1E3F20;}
	.st5{fill:#FFFFFF;}
	.st6{display:inline;fill:#FFFFFF;}
	.st7{display:inline;fill:#1E3F20;}
	.st8{fill:#1E3F20;stroke:#1E3F20;stroke-width:0.75;stroke-miterlimit:10;}
	.st9{fill:#63C035;}
	.st10{display:none;fill:#FFFFFF;}
	.st11{display:none;fill:#63C132;}
	.st12{display:none;fill:#234125;}
	.st13{fill:none;}
	.st14{opacity:0.15;fill:#1E3F20;enable-background:new    ;}
	.st15{opacity:0.7;fill:none;stroke:#FFFFFF;stroke-width:5;stroke-miterlimit:10;enable-background:new    ;}
	.st16{opacity:0.7;}
	.st17{fill:#DB4A39;}
	.st18{fill:#3B5998;}
	.st19{fill:none;stroke:#FFFFFF;stroke-width:7.5;stroke-miterlimit:10;}
	.st20{fill:#234125;}
	.st21{fill:none;stroke:#1E3F20;stroke-width:7.5;stroke-miterlimit:10;}
	.st22{fill:none;stroke:#1E3F20;stroke-width:5.5;stroke-miterlimit:10;}
	.st23{fill:#1A1A1A;}
	.st24{opacity:0.2;fill:#1E3F20;enable-background:new    ;}
	.st25{fill:none;stroke:#1E3F20;stroke-width:4;stroke-miterlimit:10;}
	.st26{fill:none;stroke:#1E3F20;stroke-width:6;stroke-miterlimit:10;}
	.st27{display:none;opacity:0.2;fill:#1E3F20;enable-background:new    ;}
	.st28{fill:#1E3F20;stroke:#1E3F20;stroke-miterlimit:10;}
	.st29{fill-rule:evenodd;clip-rule:evenodd;fill:#1E3F20;}
	.st30{display:none;fill:#1E3F20;}
	.st31{opacity:0.2;fill:#FFFFFF;enable-background:new    ;}
	.st32{fill-rule:evenodd;clip-rule:evenodd;fill:#FFFFFF;}
	.st33{opacity:0.5;fill:#1E3F20;enable-background:new    ;}
	.st34{opacity:0.95;fill:#1E3F20;enable-background:new    ;}
	.st35{fill:#63C132;stroke:#1E3F20;stroke-width:4;stroke-miterlimit:10;}
	.st36{fill-rule:evenodd;clip-rule:evenodd;fill:#FFFFFF;stroke:#1E3F20;stroke-width:4;stroke-miterlimit:10;}
	.st37{fill:#63C132;stroke:#1E3F20;stroke-width:3.5;stroke-miterlimit:10;}
	.st38{fill:#63C132;stroke:#1E3F20;stroke-width:5;stroke-miterlimit:10;}
	.st39{fill:#FFFFFF;stroke:#1E3F20;stroke-miterlimit:10;}
	.st40{opacity:0.75;fill:#FFFFFF;enable-background:new    ;}
	.st41{fill:#FFFFFF;stroke:#1E3F20;stroke-width:0.75;stroke-miterlimit:10;}
	.st42{fill:#FFFFFF;stroke:#1A1A1A;stroke-width:0.75;stroke-miterlimit:10;}
	.st43{clip-path:url(#SVGID_2_);fill:#FFFFFF;}
	.st44{display:none;fill:#006837;}
	.st45{opacity:0.75;}
	.st46{fill:none;stroke:#234125;stroke-width:4;stroke-miterlimit:10;}
	.st47{fill:none;stroke:#234125;stroke-width:3;stroke-miterlimit:10;}
	.st48{fill-rule:evenodd;clip-rule:evenodd;fill:#63C132;}
	.st49{fill:none;stroke:#1E3F20;stroke-width:5;stroke-miterlimit:10;}
	.st50{fill:#63C132;stroke:#1E3F20;stroke-width:2;stroke-miterlimit:10;}
	.st51{fill:#1E3F20;stroke:#1E3F20;stroke-width:2;stroke-miterlimit:10;}
	.st52{fill:#63C132;stroke:#1E3F20;stroke-width:3;stroke-miterlimit:10;}
	.st53{fill:#63C132;stroke:#1E3F20;stroke-miterlimit:10;}
	.st54{display:none;fill:#63C132;stroke:#1E3F20;stroke-width:2;stroke-miterlimit:10;}
	.st55{fill:#63C132;stroke:#FFFFFF;stroke-width:0.75;stroke-miterlimit:10;}
	.st56{fill:#63C132;stroke:#FFFFFF;stroke-width:0.5;stroke-miterlimit:10;}
	.st57{display:inline;fill-rule:evenodd;clip-rule:evenodd;fill:#1E3F20;}
	.st58{display:inline;fill-rule:evenodd;clip-rule:evenodd;fill:#FFFFFF;}
	.st59{fill:#FFFFFF;stroke:#1E3F20;stroke-width:5;stroke-linecap:round;stroke-linejoin:round;stroke-miterlimit:10;}
	.st60{fill:#FFFFFF;stroke:#1E3F20;stroke-width:6;stroke-linecap:round;stroke-linejoin:round;stroke-miterlimit:10;}
	.st61{fill:none;stroke:#000000;stroke-width:5;stroke-miterlimit:10;}
	.st62{fill:#FFFFFF;stroke:#1E3F20;stroke-width:5;stroke-miterlimit:10;}
	.st63{clip-path:url(#SVGID_4_);}
	.st64{clip-path:url(#SVGID_6_);}
	.st65{clip-path:url(#SVGID_8_);}
	.st66{clip-path:url(#SVGID_10_);}
	.st67{opacity:0.7;fill:none;stroke:#FFFFFF;stroke-width:2;stroke-miterlimit:10;enable-background:new    ;}
	.st68{fill:none;stroke:#1E3F20;stroke-width:3;stroke-miterlimit:10;}
	.st69{fill:none;stroke:#1E3F20;stroke-width:2;stroke-miterlimit:10;}
	.st70{fill:#FFFFFF;enable-background:new    ;}
	.st71{fill:#63C132;enable-background:new    ;}
	.st72{fill:#3B5998;enable-background:new    ;}
	.st73{fill:#DB4A39;enable-background:new    ;}
	.st74{clip-path:url(#SVGID_14_);}
</style>
<g id="Layer_15">
</g>
<path class="st4" d="M40.1,14.5c0.4-0.5,0.8-1.1,1.2-1.6c0.8-0.8,1.6-1.5,2.4-2.2C45,9.6,46.5,8.9,48,8.3c0.8-0.3,1.7-0.6,2.5-0.7
	c1.7-0.3,3.3-0.6,5-0.7c1.5,0,3,0.2,4.4,0.5c1.5,0.3,2.9,0.8,4.3,1.4c1.7,0.7,3.2,1.8,4.6,3c0.9,0.8,1.8,1.7,2.6,2.7
	c0.6,0.8,1.2,1.7,1.7,2.7c0.6,1.1,1.2,2.3,1.7,3.5c0.2,0.5,0.4,1,0.5,1.5c0.3,0.9,0.5,1.9,0.7,2.9c0.7,3.2,0.7,6.5,0.2,9.8
	c-0.2,1.5-0.7,3-1.1,4.4c-0.2,0.7-0.4,1.5-0.7,2.2c-0.4,0.9-0.8,1.8-1.2,2.7c-0.4,0.7-0.7,1.4-1.1,2.1c-0.5,0.9-1.1,1.8-1.6,2.7
	c-0.4,0.6-0.8,1.3-1.3,1.9c-0.7,1-1.5,1.9-2.3,2.9c-0.6,0.7-1.1,1.4-1.7,2.1c-0.5,0.6-1.1,1.1-1.6,1.7c-1,1-2.1,2-3.2,3
	c-0.9,0.8-1.9,1.7-2.8,2.5c-0.8,0.7-1.7,1.3-2.6,1.9c-1.2,0.9-2.4,1.9-3.7,2.8c-1.2,0.8-2.4,1.5-3.6,2.2c-0.9,0.6-1.9,1.2-2.8,1.7
	c-0.8,0.4-1.6,0.8-2.4,1.2c-0.5,0.3-1.1,0.5-1.6,0.8c-0.4,0.2-0.7,0.2-1.1,0c-1.3-0.7-2.7-1.3-4-2c-1.4-0.8-2.8-1.6-4.2-2.4
	c-1.6-1-3.1-2-4.7-3.1c-1-0.7-2.1-1.5-3-2.3c-1.4-1.2-2.8-2.4-4.1-3.6c-0.7-0.6-1.4-1.2-2-1.9c-1-1-2-2.1-2.9-3.1
	c-0.9-1-1.7-2-2.5-3c-0.9-1.1-1.7-2.2-2.4-3.4c-0.9-1.4-1.8-2.9-2.6-4.4c-0.5-0.9-0.8-1.9-1.2-2.8c-0.7-1.6-1.2-3.3-1.6-5
	C4.2,35.7,4,34.9,3.9,34c-0.3-1.9-0.4-3.8-0.2-5.7c0.1-1.2,0.2-2.5,0.5-3.7c0.3-1.4,0.8-2.8,1.4-4.2c0.6-1.4,1.3-2.8,2.1-4.1
	c0.7-1.1,1.4-2.2,2.3-3.1c0.7-0.8,1.4-1.5,2.3-2c1.2-0.8,2.4-1.6,3.7-2.3c0.5-0.3,1.2-0.5,1.8-0.7c1.2-0.4,2.4-0.7,3.7-0.9
	C22.6,7,23.8,6.9,25,6.9c1.4,0,2.9,0.2,4.3,0.5c1.4,0.3,2.8,0.8,4.1,1.4c1.9,0.9,3.7,2.1,5.1,3.7C39,13.2,39.6,13.8,40.1,14.5z"/>
<g>
	<defs>
		<path id="SVGID_13_" d="M34,21.1c0.4-0.5,0.8-1.1,1.2-1.6c0.8-0.8,1.6-1.5,2.4-2.2c1.2-1.1,2.7-1.8,4.2-2.4
			c0.8-0.3,1.7-0.6,2.5-0.7c1.7-0.3,3.3-0.6,5-0.7c1.5,0,3,0.2,4.4,0.5c1.5,0.3,2.9,0.8,4.3,1.4c1.7,0.7,3.2,1.8,4.6,3
			c0.9,0.8,1.8,1.7,2.6,2.7c0.6,0.8,1.2,1.7,1.7,2.7c0.6,1.1,1.2,2.3,1.7,3.5c0.2,0.5,0.4,1,0.5,1.5c0.3,0.9,0.5,1.9,0.7,2.9
			c0.7,3.2,0.7,6.5,0.2,9.8c-0.2,1.5-0.7,3-1.1,4.4c-0.2,0.7-0.4,1.5-0.7,2.2c-0.4,0.9-0.8,1.8-1.2,2.7c-0.4,0.7-0.7,1.4-1.1,2.1
			c-0.5,0.9-1.1,1.8-1.6,2.7c-0.4,0.6-0.8,1.3-1.3,1.9c-0.7,1-1.5,1.9-2.3,2.9c-0.6,0.7-1.1,1.4-1.7,2.1c-0.5,0.6-1.1,1.1-1.6,1.7
			c-1,1-2.1,2-3.2,3c-0.9,0.8-1.9,1.7-2.8,2.5c-0.8,0.7-1.7,1.3-2.6,1.9c-1.2,0.9-2.4,1.9-3.7,2.8c-1.2,0.8-2.4,1.5-3.6,2.2
			c-0.9,0.6-1.9,1.2-2.8,1.7c-0.8,0.4-1.6,0.8-2.4,1.2c-0.5,0.3-1.1,0.5-1.6,0.8c-0.4,0.2-0.7,0.2-1.1,0c-1.3-0.7-2.7-1.3-4-2
			c-1.4-0.8-2.8-1.6-4.2-2.4c-1.6-1-3.1-2-4.7-3.1c-1-0.7-2.1-1.5-3-2.3c-1.4-1.2-2.8-2.4-4.1-3.6c-0.7-0.6-1.4-1.2-2-1.9
			c-1-1-2-2.1-2.9-3.1c-0.9-1-1.7-2-2.5-3c-0.9-1.1-1.7-2.2-2.4-3.4c-0.9-1.4-1.8-2.9-2.6-4.4c-0.5-0.9-0.8-1.9-1.2-2.8
			c-0.7-1.6-1.2-3.3-1.6-5c-0.2-0.8-0.3-1.7-0.5-2.5c-0.3-1.9-0.4-3.8-0.2-5.7c0.1-1.2,0.2-2.5,0.5-3.7c0.3-1.4,0.8-2.8,1.4-4.2
			c0.6-1.4,1.3-2.8,2.1-4.1c0.7-1.1,1.4-2.2,2.3-3.1c0.7-0.8,1.4-1.5,2.3-2c1.2-0.8,2.4-1.6,3.7-2.3c0.5-0.3,1.2-0.5,1.8-0.7
			c1.2-0.4,2.4-0.7,3.7-0.9c1.2-0.2,2.3-0.3,3.5-0.3c1.4,0,2.9,0.2,4.3,0.5c1.4,0.3,2.8,0.8,4.1,1.4c1.9,0.9,3.7,2.1,5.1,3.7
			C32.9,19.8,33.4,20.4,34,21.1z"/>
	</defs>
	<clipPath id="SVGID_2_">
		<use xlink:href="#SVGID_13_"  style="overflow:visible;"/>
	</clipPath>
	<g style="clip-path:url(#SVGID_2_);">
		<path class="st5" d="M38.9,48.4c-0.4-0.3-1-0.7-1.1-0.7l-2-1.2c-0.3-0.2-0.6-0.5-0.9-0.7c-1.9-1.8-2.9-4-1.8-6.6
			c1.1-2.7,3.3-4,6.4-3.4c1.8,0.3,3.1-0.4,4.6-0.9c2.2-0.7,4-0.3,5.8,1.2c1.8,1.5,2.4,3.1,2,5.4c-0.3,1.5-0.8,2.9-0.2,4.6
			c1.1,2.9,0,5.2-2.5,6.7c-2.5,1.4-4.8,0.8-6.9-0.8c-0.3-0.2-0.6-0.5-0.9-0.8l-1.6-1.8C39.7,49.3,39.2,48.7,38.9,48.4z"/>
		<path class="st5" d="M48.6,28.7c1.4-1.6,2.4-3,5-1.9c1.4,0.6,1.9,1.8,1.6,3.1c-0.5,2-1.9,3.4-4,3.6c-2.5,0.3-3.8-1.9-3-4
			L48.6,28.7z"/>
		<path class="st5" d="M45.6,30.6c-0.8,1.8-2.3,3.1-4.7,2.2c-1.4-0.6-2-1.8-1.7-3.2c0.4-1.8,1.5-3.3,3.3-3.8
			c2.1-0.5,4.2,1.5,3.6,3.3L45.6,30.6z"/>
		<g>
			<path class="st5" d="M58.5,38.5c1.6-1.3,3.1-2.3,2.1-4.8c-0.6-1.4-1.8-1.9-3.2-1.6c-2,0.5-3.5,1.8-3.8,3.9c-0.3,2.5,1.9,3.8,4,3
				L58.5,38.5z"/>
			<path class="st5" d="M56.5,41.4c-1.9,0.8-3.3,2.2-2.3,4.6c0.6,1.4,1.8,2,3.2,1.7c1.9-0.3,3.4-1.4,3.9-3.2
				c0.6-2.1-1.5-4.1-3.4-3.6L56.5,41.4z"/>
		</g>
	</g>
</g>
</svg>
