<?xml version="1.0" encoding="utf-8"?>
<!-- Generator: Adobe Illustrator 25.2.0, SVG Export Plug-In . SVG Version: 6.00 Build 0)  -->
<svg version="1.1" id="Layer_1" xmlns="http://www.w3.org/2000/svg" xmlns:xlink="http://www.w3.org/1999/xlink" x="0px" y="0px"
	 viewBox="0 0 80 80" style="enable-background:new 0 0 80 80;" xml:space="preserve">
<style type="text/css">
	.st0{fill:#63C132;}
	.st1{display:none;}
	.st2{display:inline;fill:#63C132;}
	.st3{display:inline;}
	.st4{fill:#1E3F20;}
	.st5{fill:#FFFFFF;}
	.st6{display:inline;fill:#FFFFFF;}
	.st7{display:inline;fill:#1E3F20;}
	.st8{fill:#1E3F20;stroke:#1E3F20;stroke-width:0.75;stroke-miterlimit:10;}
	.st9{fill:#63C035;}
	.st10{display:none;fill:#FFFFFF;}
	.st11{display:none;fill:#63C132;}
	.st12{display:none;fill:#234125;}
	.st13{fill:none;}
	.st14{opacity:0.15;fill:#1E3F20;enable-background:new    ;}
	.st15{opacity:0.7;fill:none;stroke:#FFFFFF;stroke-width:5;stroke-miterlimit:10;enable-background:new    ;}
	.st16{opacity:0.7;}
	.st17{fill:#DB4A39;}
	.st18{fill:#3B5998;}
	.st19{fill:none;stroke:#FFFFFF;stroke-width:7.5;stroke-miterlimit:10;}
	.st20{fill:#234125;}
	.st21{fill:none;stroke:#1E3F20;stroke-width:7.5;stroke-miterlimit:10;}
	.st22{fill:none;stroke:#1E3F20;stroke-width:5.5;stroke-miterlimit:10;}
	.st23{fill:#1A1A1A;}
	.st24{opacity:0.2;fill:#1E3F20;enable-background:new    ;}
	.st25{fill:none;stroke:#1E3F20;stroke-width:4;stroke-miterlimit:10;}
	.st26{fill:none;stroke:#1E3F20;stroke-width:6;stroke-miterlimit:10;}
	.st27{display:none;opacity:0.2;fill:#1E3F20;enable-background:new    ;}
	.st28{fill:#1E3F20;stroke:#1E3F20;stroke-miterlimit:10;}
	.st29{fill-rule:evenodd;clip-rule:evenodd;fill:#1E3F20;}
	.st30{display:none;fill:#1E3F20;}
	.st31{opacity:0.2;fill:#FFFFFF;enable-background:new    ;}
	.st32{fill-rule:evenodd;clip-rule:evenodd;fill:#FFFFFF;}
	.st33{opacity:0.5;fill:#1E3F20;enable-background:new    ;}
	.st34{opacity:0.95;fill:#1E3F20;enable-background:new    ;}
	.st35{fill:#63C132;stroke:#1E3F20;stroke-width:4;stroke-miterlimit:10;}
	.st36{fill-rule:evenodd;clip-rule:evenodd;fill:#FFFFFF;stroke:#1E3F20;stroke-width:4;stroke-miterlimit:10;}
	.st37{fill:#63C132;stroke:#1E3F20;stroke-width:3.5;stroke-miterlimit:10;}
	.st38{fill:#63C132;stroke:#1E3F20;stroke-width:5;stroke-miterlimit:10;}
	.st39{fill:#FFFFFF;stroke:#1E3F20;stroke-miterlimit:10;}
	.st40{opacity:0.75;fill:#FFFFFF;enable-background:new    ;}
	.st41{fill:#FFFFFF;stroke:#1E3F20;stroke-width:0.75;stroke-miterlimit:10;}
	.st42{fill:#FFFFFF;stroke:#1A1A1A;stroke-width:0.75;stroke-miterlimit:10;}
	.st43{clip-path:url(#SVGID_2_);fill:#FFFFFF;}
	.st44{display:none;fill:#006837;}
	.st45{opacity:0.75;}
	.st46{fill:none;stroke:#234125;stroke-width:4;stroke-miterlimit:10;}
	.st47{fill:none;stroke:#234125;stroke-width:3;stroke-miterlimit:10;}
	.st48{fill-rule:evenodd;clip-rule:evenodd;fill:#63C132;}
	.st49{fill:none;stroke:#1E3F20;stroke-width:5;stroke-miterlimit:10;}
	.st50{fill:#63C132;stroke:#1E3F20;stroke-width:2;stroke-miterlimit:10;}
	.st51{fill:#1E3F20;stroke:#1E3F20;stroke-width:2;stroke-miterlimit:10;}
	.st52{fill:#63C132;stroke:#1E3F20;stroke-width:3;stroke-miterlimit:10;}
	.st53{fill:#63C132;stroke:#1E3F20;stroke-miterlimit:10;}
	.st54{display:none;fill:#63C132;stroke:#1E3F20;stroke-width:2;stroke-miterlimit:10;}
	.st55{fill:#63C132;stroke:#FFFFFF;stroke-width:0.75;stroke-miterlimit:10;}
	.st56{fill:#63C132;stroke:#FFFFFF;stroke-width:0.5;stroke-miterlimit:10;}
	.st57{display:inline;fill-rule:evenodd;clip-rule:evenodd;fill:#1E3F20;}
	.st58{display:inline;fill-rule:evenodd;clip-rule:evenodd;fill:#FFFFFF;}
	.st59{fill:#FFFFFF;stroke:#1E3F20;stroke-width:5;stroke-linecap:round;stroke-linejoin:round;stroke-miterlimit:10;}
	.st60{fill:#FFFFFF;stroke:#1E3F20;stroke-width:6;stroke-linecap:round;stroke-linejoin:round;stroke-miterlimit:10;}
	.st61{fill:none;stroke:#000000;stroke-width:5;stroke-miterlimit:10;}
	.st62{fill:#FFFFFF;stroke:#1E3F20;stroke-width:5;stroke-miterlimit:10;}
	.st63{clip-path:url(#SVGID_4_);}
	.st64{clip-path:url(#SVGID_6_);}
	.st65{clip-path:url(#SVGID_8_);}
	.st66{clip-path:url(#SVGID_10_);}
	.st67{opacity:0.7;fill:none;stroke:#FFFFFF;stroke-width:2;stroke-miterlimit:10;enable-background:new    ;}
	.st68{fill:none;stroke:#1E3F20;stroke-width:3;stroke-miterlimit:10;}
	.st69{fill:none;stroke:#1E3F20;stroke-width:2;stroke-miterlimit:10;}
	.st70{fill:#FFFFFF;enable-background:new    ;}
	.st71{fill:#63C132;enable-background:new    ;}
	.st72{fill:#3B5998;enable-background:new    ;}
	.st73{fill:#DB4A39;enable-background:new    ;}
	.st74{clip-path:url(#SVGID_14_);}
	.st75{clip-path:url(#SVGID_16_);fill:#FFFFFF;}
</style>
<g id="Layer_15">
</g>
<g>
	<g>
		<path class="st4" d="M41.4,73.3c-1.3,0-3.4,0.3-3.6,0.3l-6.4,1c-1.1,0.1-2.2,0.2-3.3,0.1c-7.3-0.5-13.4-3.5-16-11.1
			c-2.7-7.9-0.8-14.9,6.6-19.2c4.2-2.4,5.6-6.5,7.8-10.3c3.2-5.6,7.4-8,13.8-7.8c6.4,0,10.7,2.5,14.2,8.1c2.3,3.8,3.9,7.9,8.2,10.5
			c7.6,4.4,9.8,11.5,7.4,19.3C67.9,71.8,62,74.6,54.7,75c-1.1,0.1-2.2,0-3.3-0.2L45,73.7C44.8,73.7,42.7,73.4,41.4,73.3z"/>
		<path class="st4" d="M22,17.6c-0.6-5.6-1.4-10.3,5-12.9c3.5-1.5,6.8,0,8.7,3.1c2.8,4.7,3.2,10.1-0.1,14.4c-4,5.2-10.3,3.5-12.8-2
			L22,17.6z"/>
		<path class="st4" d="M20.4,26.9c2,5,1.9,10.4-4.1,12.9c-3.6,1.5-7,0.2-9.1-2.9c-2.9-4.1-3.7-9-1.4-13.4c2.7-5,10.2-4.9,12.7-0.3
			L20.4,26.9z"/>
		<g>
			<path class="st4" d="M58.1,18c0.3-5.5,1-10.2-5.6-13.1c-3.6-1.5-6.8-0.2-8.6,2.9c-2.6,4.6-2.7,10,0.8,14.4
				c4.2,5.3,10.5,3.7,12.8-1.7L58.1,18z"/>
			<path class="st4" d="M60.1,27.3c-1.7,5-1.4,10.4,4.7,13c3.7,1.6,7,0.3,9-2.7c2.7-4.1,3.3-9,0.8-13.4c-2.9-5-10.5-5.2-12.7-0.6
				L60.1,27.3z"/>
		</g>
	</g>
	<g>
		<defs>
			<path id="SVGID_15_" d="M41.4,73.3c-1.3,0-3.4,0.3-3.6,0.3l-6.4,1c-1.1,0.1-2.2,0.2-3.3,0.1c-7.3-0.5-13.4-3.5-16-11.1
				c-2.7-7.9-0.8-14.9,6.6-19.2c4.2-2.4,5.6-6.5,7.8-10.3c3.2-5.6,7.4-8,13.8-7.8c6.4,0,10.7,2.5,14.2,8.1c2.3,3.8,3.9,7.9,8.2,10.5
				c7.6,4.4,9.8,11.5,7.4,19.3C67.9,71.8,62,74.6,54.7,75c-1.1,0.1-2.2,0-3.3-0.2L45,73.7C44.8,73.7,42.7,73.4,41.4,73.3z"/>
		</defs>
		<clipPath id="SVGID_2_">
			<use xlink:href="#SVGID_15_"  style="overflow:visible;"/>
		</clipPath>
		<path class="st43" d="M34.2,41.6L34.2,41.6c0,2.6,2.2,4.8,4.8,4.8h1.6c2.6,0,4.8-2.2,4.8-4.8v0c0-2.6-2.2-4.8-4.8-4.8h-1.6
			C36.4,36.8,34.2,39,34.2,41.6z"/>
		<path class="st43" d="M40.5,50.6h-1.3c-2.4,0-4.3,2-4.3,4.3v20.7c0,2.4,2,4.3,4.3,4.3h1.3c2.4,0,4.3-2,4.3-4.3V55
			C44.8,52.6,42.9,50.6,40.5,50.6z"/>
	</g>
</g>
</svg>
