<?xml version="1.0" encoding="utf-8"?>
<!-- Generator: Adobe Illustrator 25.2.0, SVG Export Plug-In . SVG Version: 6.00 Build 0)  -->
<svg version="1.1" id="Layer_1" xmlns="http://www.w3.org/2000/svg" xmlns:xlink="http://www.w3.org/1999/xlink" x="0px" y="0px"
	 viewBox="0 0 280 88.7" style="enable-background:new 0 0 280 88.7;" xml:space="preserve">
<style type="text/css">
	.st0{fill:#63C132;}
	.st1{display:none;}
	.st2{display:inline;fill:#63C132;}
	.st3{display:inline;}
	.st4{fill:#1E3F20;}
	.st5{fill:#FFFFFF;}
	.st6{display:inline;fill:#FFFFFF;}
	.st7{display:inline;fill:#1E3F20;}
	.st8{fill:#1E3F20;stroke:#1E3F20;stroke-width:0.75;stroke-miterlimit:10;}
	.st9{fill:#63C035;}
	.st10{display:none;fill:#FFFFFF;}
	.st11{display:none;fill:#63C132;}
	.st12{display:none;fill:#234125;}
	.st13{fill:none;}
	.st14{opacity:0.15;fill:#1E3F20;enable-background:new    ;}
	.st15{opacity:0.7;fill:none;stroke:#FFFFFF;stroke-width:5;stroke-miterlimit:10;enable-background:new    ;}
	.st16{opacity:0.7;}
	.st17{fill:#DB4A39;}
	.st18{fill:#3B5998;}
	.st19{fill:none;stroke:#FFFFFF;stroke-width:7.5;stroke-miterlimit:10;}
	.st20{fill:#234125;}
	.st21{fill:none;stroke:#1E3F20;stroke-width:7.5;stroke-miterlimit:10;}
	.st22{fill:none;stroke:#1E3F20;stroke-width:5.5;stroke-miterlimit:10;}
	.st23{fill:#1A1A1A;}
	.st24{opacity:0.2;fill:#1E3F20;enable-background:new    ;}
	.st25{fill:none;stroke:#1E3F20;stroke-width:4;stroke-miterlimit:10;}
	.st26{fill:none;stroke:#1E3F20;stroke-width:6;stroke-miterlimit:10;}
	.st27{display:none;opacity:0.2;fill:#1E3F20;enable-background:new    ;}
	.st28{fill:#1E3F20;stroke:#1E3F20;stroke-miterlimit:10;}
	.st29{fill-rule:evenodd;clip-rule:evenodd;fill:#1E3F20;}
	.st30{display:none;fill:#1E3F20;}
	.st31{opacity:0.2;fill:#FFFFFF;enable-background:new    ;}
	.st32{fill-rule:evenodd;clip-rule:evenodd;fill:#FFFFFF;}
	.st33{opacity:0.5;fill:#1E3F20;enable-background:new    ;}
	.st34{opacity:0.95;fill:#1E3F20;enable-background:new    ;}
	.st35{fill:#63C132;stroke:#1E3F20;stroke-width:4;stroke-miterlimit:10;}
	.st36{fill-rule:evenodd;clip-rule:evenodd;fill:#FFFFFF;stroke:#1E3F20;stroke-width:4;stroke-miterlimit:10;}
	.st37{fill:#63C132;stroke:#1E3F20;stroke-width:3.5;stroke-miterlimit:10;}
	.st38{fill:#63C132;stroke:#1E3F20;stroke-width:5;stroke-miterlimit:10;}
	.st39{fill:#FFFFFF;stroke:#1E3F20;stroke-miterlimit:10;}
	.st40{opacity:0.75;fill:#FFFFFF;enable-background:new    ;}
	.st41{fill:#FFFFFF;stroke:#1E3F20;stroke-width:0.75;stroke-miterlimit:10;}
	.st42{fill:#FFFFFF;stroke:#1A1A1A;stroke-width:0.75;stroke-miterlimit:10;}
	.st43{clip-path:url(#SVGID_2_);fill:#FFFFFF;}
	.st44{display:none;fill:#006837;}
	.st45{opacity:0.75;}
	.st46{fill:none;stroke:#234125;stroke-width:4;stroke-miterlimit:10;}
	.st47{fill:none;stroke:#234125;stroke-width:3;stroke-miterlimit:10;}
	.st48{fill-rule:evenodd;clip-rule:evenodd;fill:#63C132;}
	.st49{fill:none;stroke:#1E3F20;stroke-width:5;stroke-miterlimit:10;}
	.st50{fill:#63C132;stroke:#1E3F20;stroke-width:2;stroke-miterlimit:10;}
	.st51{fill:#1E3F20;stroke:#1E3F20;stroke-width:2;stroke-miterlimit:10;}
	.st52{fill:#63C132;stroke:#1E3F20;stroke-width:3;stroke-miterlimit:10;}
	.st53{fill:#63C132;stroke:#1E3F20;stroke-miterlimit:10;}
	.st54{display:none;fill:#63C132;stroke:#1E3F20;stroke-width:2;stroke-miterlimit:10;}
	.st55{fill:#63C132;stroke:#FFFFFF;stroke-width:0.75;stroke-miterlimit:10;}
	.st56{fill:#63C132;stroke:#FFFFFF;stroke-width:0.5;stroke-miterlimit:10;}
	.st57{display:inline;fill-rule:evenodd;clip-rule:evenodd;fill:#1E3F20;}
	.st58{display:inline;fill-rule:evenodd;clip-rule:evenodd;fill:#FFFFFF;}
	.st59{fill:#FFFFFF;stroke:#1E3F20;stroke-width:5;stroke-linecap:round;stroke-linejoin:round;stroke-miterlimit:10;}
	.st60{fill:#FFFFFF;stroke:#1E3F20;stroke-width:6;stroke-linecap:round;stroke-linejoin:round;stroke-miterlimit:10;}
	.st61{fill:none;stroke:#000000;stroke-width:5;stroke-miterlimit:10;}
	.st62{fill:#FFFFFF;stroke:#1E3F20;stroke-width:5;stroke-miterlimit:10;}
	.st63{clip-path:url(#SVGID_4_);}
	.st64{clip-path:url(#SVGID_6_);}
	.st65{clip-path:url(#SVGID_8_);}
	.st66{clip-path:url(#SVGID_10_);}
	.st67{opacity:0.7;fill:none;stroke:#FFFFFF;stroke-width:2;stroke-miterlimit:10;enable-background:new    ;}
	.st68{fill:none;stroke:#1E3F20;stroke-width:3;stroke-miterlimit:10;}
	.st69{fill:none;stroke:#1E3F20;stroke-width:2;stroke-miterlimit:10;}
	.st70{fill:#FFFFFF;stroke:#1E3F20;stroke-width:3;stroke-miterlimit:10;}
	.st71{clip-path:url(#SVGID_12_);fill:#63C132;}
	.st72{clip-path:url(#SVGID_12_);fill:#FFFFFF;stroke:#1E3F20;stroke-width:6;stroke-miterlimit:10;}
	.st73{fill:#FFFFFF;enable-background:new    ;}
	.st74{fill:#63C132;enable-background:new    ;}
	.st75{fill:#3B5998;enable-background:new    ;}
	.st76{fill:#DB4A39;enable-background:new    ;}
	.st77{clip-path:url(#SVGID_16_);}
	.st78{clip-path:url(#SVGID_18_);fill:#FFFFFF;}
	.st79{fill:#63C132;stroke:#1E3F20;stroke-width:9;stroke-miterlimit:10;}
	.st80{clip-path:url(#SVGID_20_);}
	.st81{fill:#FFFFFF;stroke:#1E3F20;stroke-width:0.5;stroke-miterlimit:10;}
	.st82{fill:#FFFFFF;stroke:#FFFFFF;stroke-width:0.25;stroke-miterlimit:10;}
</style>
<g>
	<rect class="st0" width="280" height="88.7"/>
	<path class="st5" d="M120.1,50.9C75.1,47.7,33.4,48.7,0,58.2v30.5h261.3C227.8,68,177.3,55,120.1,50.9z"/>
</g>
<g>
	<path class="st5" d="M213.4,80.6c-1.2,0.8-3,2.3-3.2,2.5l-5.5,4.9c-1,0.8-2,1.5-3,2.1c-7.3,3.9-14.9,4.5-22.3-1.7
		c-7.7-6.4-10.4-14.8-6.1-23.6c2.5-5,1.1-10,0.7-15.2c-0.6-7.6,2-12.6,8.1-16.4c6-3.9,11.8-4,18.7-0.3c4.7,2.5,8.8,5.7,14.5,5.7
		c10-0.1,16.7,5.7,19.4,15.3c2.7,9.1-1.1,15.5-7.8,20.4c-1,0.7-2.1,1.3-3.2,1.8l-6.8,2.8C216.9,79,214.7,79.8,213.4,80.6z"/>
	<path class="st5" d="M157.8,36.4c-4.4-5.7-8.5-10.2-3.8-17.3c2.6-3.9,6.9-4.4,10.9-2.2c6.1,3.3,10,8.9,9.7,15.8
		c-0.4,8.2-8,10.4-14.3,6.1L157.8,36.4z"/>
	<path class="st5" d="M162.6,47.5c5.4,4.2,9.1,10.1,4.7,16.7c-2.6,3.9-6.9,4.7-11.2,2.7c-5.7-2.6-9.9-7.4-10.6-13.7
		c-0.7-7.2,6.9-12,12.6-8.5L162.6,47.5z"/>
	<g>
		<path class="st5" d="M194.5,13.5c-3.5-6.2-6-11.8-14.6-10.6c-4.7,0.6-7,4.2-6.7,8.7c0.6,6.7,4.1,12.6,10.7,15.2
			c7.9,3,13.1-2.7,11.7-10.1L194.5,13.5z"/>
		<path class="st5" d="M202.9,22.3c1.7,6.6,5.6,12.2,13.6,11.1c4.8-0.7,7.3-4.1,7.2-8.7c-0.1-6.2-2.7-11.9-8.3-15
			c-6.4-3.6-14.1,1.1-13.2,7.5L202.9,22.3z"/>
	</g>
</g>
</svg>
