<?xml version="1.0" encoding="utf-8"?>
<!-- Generator: Adobe Illustrator 25.2.0, SVG Export Plug-In . SVG Version: 6.00 Build 0)  -->
<svg version="1.1" id="Layer_1" xmlns="http://www.w3.org/2000/svg" xmlns:xlink="http://www.w3.org/1999/xlink" x="0px" y="0px"
	 viewBox="0 0 280 88.7" style="enable-background:new 0 0 280 88.7;" xml:space="preserve">
<style type="text/css">
	.st0{fill:#63C132;}
	.st1{display:none;}
	.st2{display:inline;fill:#63C132;}
	.st3{display:inline;}
	.st4{fill:#1E3F20;}
	.st5{fill:#FFFFFF;}
	.st6{display:inline;fill:#FFFFFF;}
	.st7{display:inline;fill:#1E3F20;}
	.st8{fill:#1E3F20;stroke:#1E3F20;stroke-width:0.75;stroke-miterlimit:10;}
	.st9{fill:#63C035;}
	.st10{display:none;fill:#FFFFFF;}
	.st11{display:none;fill:#63C132;}
	.st12{display:none;fill:#234125;}
	.st13{fill:none;}
	.st14{opacity:0.15;fill:#1E3F20;enable-background:new    ;}
	.st15{opacity:0.7;fill:none;stroke:#FFFFFF;stroke-width:5;stroke-miterlimit:10;enable-background:new    ;}
	.st16{opacity:0.7;}
	.st17{fill:#DB4A39;}
	.st18{fill:#3B5998;}
	.st19{fill:none;stroke:#FFFFFF;stroke-width:7.5;stroke-miterlimit:10;}
	.st20{fill:#234125;}
	.st21{fill:none;stroke:#1E3F20;stroke-width:7.5;stroke-miterlimit:10;}
	.st22{fill:none;stroke:#1E3F20;stroke-width:5.5;stroke-miterlimit:10;}
	.st23{fill:#1A1A1A;}
	.st24{opacity:0.2;fill:#1E3F20;enable-background:new    ;}
	.st25{fill:none;stroke:#1E3F20;stroke-width:4;stroke-miterlimit:10;}
	.st26{fill:none;stroke:#1E3F20;stroke-width:6;stroke-miterlimit:10;}
	.st27{display:none;opacity:0.2;fill:#1E3F20;enable-background:new    ;}
	.st28{fill:#1E3F20;stroke:#1E3F20;stroke-miterlimit:10;}
	.st29{fill-rule:evenodd;clip-rule:evenodd;fill:#1E3F20;}
	.st30{display:none;fill:#1E3F20;}
	.st31{opacity:0.2;fill:#FFFFFF;enable-background:new    ;}
	.st32{fill-rule:evenodd;clip-rule:evenodd;fill:#FFFFFF;}
	.st33{opacity:0.5;fill:#1E3F20;enable-background:new    ;}
	.st34{opacity:0.95;fill:#1E3F20;enable-background:new    ;}
	.st35{fill:#63C132;stroke:#1E3F20;stroke-width:4;stroke-miterlimit:10;}
	.st36{fill-rule:evenodd;clip-rule:evenodd;fill:#FFFFFF;stroke:#1E3F20;stroke-width:4;stroke-miterlimit:10;}
	.st37{fill:#63C132;stroke:#1E3F20;stroke-width:3.5;stroke-miterlimit:10;}
	.st38{fill:#63C132;stroke:#1E3F20;stroke-width:5;stroke-miterlimit:10;}
	.st39{fill:#FFFFFF;stroke:#1E3F20;stroke-miterlimit:10;}
	.st40{opacity:0.75;fill:#FFFFFF;enable-background:new    ;}
	.st41{fill:#FFFFFF;stroke:#1E3F20;stroke-width:0.75;stroke-miterlimit:10;}
	.st42{fill:#FFFFFF;stroke:#1A1A1A;stroke-width:0.75;stroke-miterlimit:10;}
	.st43{clip-path:url(#SVGID_2_);fill:#FFFFFF;}
	.st44{display:none;fill:#006837;}
	.st45{opacity:0.75;}
	.st46{fill:none;stroke:#234125;stroke-width:4;stroke-miterlimit:10;}
	.st47{fill:none;stroke:#234125;stroke-width:3;stroke-miterlimit:10;}
	.st48{fill-rule:evenodd;clip-rule:evenodd;fill:#63C132;}
	.st49{fill:none;stroke:#1E3F20;stroke-width:5;stroke-miterlimit:10;}
	.st50{fill:#63C132;stroke:#1E3F20;stroke-width:2;stroke-miterlimit:10;}
	.st51{fill:#1E3F20;stroke:#1E3F20;stroke-width:2;stroke-miterlimit:10;}
	.st52{fill:#63C132;stroke:#1E3F20;stroke-width:3;stroke-miterlimit:10;}
	.st53{fill:#63C132;stroke:#1E3F20;stroke-miterlimit:10;}
	.st54{display:none;fill:#63C132;stroke:#1E3F20;stroke-width:2;stroke-miterlimit:10;}
	.st55{fill:#63C132;stroke:#FFFFFF;stroke-width:0.75;stroke-miterlimit:10;}
	.st56{fill:#63C132;stroke:#FFFFFF;stroke-width:0.5;stroke-miterlimit:10;}
	.st57{display:inline;fill-rule:evenodd;clip-rule:evenodd;fill:#1E3F20;}
	.st58{display:inline;fill-rule:evenodd;clip-rule:evenodd;fill:#FFFFFF;}
	.st59{fill:#FFFFFF;stroke:#1E3F20;stroke-width:5;stroke-linecap:round;stroke-linejoin:round;stroke-miterlimit:10;}
	.st60{fill:#FFFFFF;stroke:#1E3F20;stroke-width:6;stroke-linecap:round;stroke-linejoin:round;stroke-miterlimit:10;}
	.st61{fill:none;stroke:#000000;stroke-width:5;stroke-miterlimit:10;}
	.st62{fill:#FFFFFF;stroke:#1E3F20;stroke-width:5;stroke-miterlimit:10;}
	.st63{clip-path:url(#SVGID_4_);}
	.st64{clip-path:url(#SVGID_6_);}
	.st65{clip-path:url(#SVGID_8_);}
	.st66{clip-path:url(#SVGID_10_);}
	.st67{opacity:0.7;fill:none;stroke:#FFFFFF;stroke-width:2;stroke-miterlimit:10;enable-background:new    ;}
	.st68{fill:none;stroke:#1E3F20;stroke-width:3;stroke-miterlimit:10;}
	.st69{fill:none;stroke:#1E3F20;stroke-width:2;stroke-miterlimit:10;}
	.st70{fill:#FFFFFF;stroke:#1E3F20;stroke-width:3;stroke-miterlimit:10;}
	.st71{clip-path:url(#SVGID_12_);fill:#63C132;}
	.st72{clip-path:url(#SVGID_12_);fill:#FFFFFF;stroke:#1E3F20;stroke-width:6;stroke-miterlimit:10;}
	.st73{fill:#FFFFFF;enable-background:new    ;}
	.st74{fill:#63C132;enable-background:new    ;}
	.st75{fill:#3B5998;enable-background:new    ;}
	.st76{fill:#DB4A39;enable-background:new    ;}
	.st77{clip-path:url(#SVGID_16_);}
	.st78{clip-path:url(#SVGID_18_);fill:#FFFFFF;}
	.st79{fill:#63C132;stroke:#1E3F20;stroke-width:9;stroke-miterlimit:10;}
	.st80{clip-path:url(#SVGID_20_);}
	.st81{fill:#FFFFFF;stroke:#1E3F20;stroke-width:0.5;stroke-miterlimit:10;}
	.st82{fill:#FFFFFF;stroke:#FFFFFF;stroke-width:0.25;stroke-miterlimit:10;}
</style>
<g>
	<rect class="st0" width="280" height="88.7"/>
	<path class="st5" d="M140.2,73.6C87.6,69.9,39,71,0,82.1v35.6h304.9C265.8,93.5,206.8,78.4,140.2,73.6z"/>
</g>
<g>
	<path class="st5" d="M266,97c-1.4,0.9-3.4,2.7-3.6,2.9l-6.2,5.7c-1.1,0.9-2.2,1.7-3.5,2.4c-8.4,4.4-17.2,5-25.9-2.5
		c-9.1-7.8-12.4-17.8-7.6-28.2c2.7-5.9,1.1-11.9,0.5-18.1c-0.8-9.1,2-15,9-19.3c6.9-4.5,13.6-4.5,21.7,0c5.5,3.1,10.3,7,17,7.1
		c11.6,0.1,19.5,7.2,22.9,18.6c3.3,10.9-0.9,18.5-8.6,24c-1.1,0.8-2.4,1.5-3.7,2.1l-7.9,3.2C270,95.2,267.5,96.1,266,97z"/>
	<path class="st5" d="M200.7,43.6c-5-6.5-9.7-11.8-4.4-19.9c2.9-4.4,7.9-5.1,12.5-2.6c7,3.8,11.5,10.2,11.1,18.1
		c-0.5,9.4-9.2,12-16.4,7L200.7,43.6z"/>
	<path class="st5" d="M206.2,56.3c6.2,4.8,10.4,11.6,5.4,19.2c-3,4.5-7.9,5.4-12.8,3.1c-6.6-3-11.4-8.5-12.1-15.7
		c-0.8-8.2,8-13.7,14.4-9.8L206.2,56.3z"/>
	<g>
		<path class="st5" d="M242.8,17.3c-4-7.2-6.9-13.5-16.7-12.2c-5.4,0.7-8.1,4.8-7.7,10c0.6,7.7,4.7,14.5,12.2,17.4
			c9,3.5,15-3.1,13.4-11.6L242.8,17.3z"/>
		<path class="st5" d="M252.5,27.4c1.9,7.5,6.5,14,15.7,12.8c5.5-0.8,8.3-4.7,8.3-10c-0.1-7.1-3.2-13.7-9.6-17.3
			c-7.3-4.1-16.2,1.3-15.2,8.6L252.5,27.4z"/>
	</g>
</g>
</svg>
