<svg id="Layer_1" data-name="Layer 1" xmlns="http://www.w3.org/2000/svg" viewBox="0 0 280 88.7"><defs><style>.cls-1{fill:#efe508;}.cls-2{fill:#fff;}</style></defs><rect class="cls-1" width="280" height="88.7"/><path class="cls-2" d="M140.2,61.6C87.6,57.9,39,59,0,70.1v35.6H304.9C265.8,81.5,206.8,66.4,140.2,61.6Z"/><path class="cls-2" d="M262.7,97.9c-1.4.9-3.4,2.7-3.6,2.8l-6.1,5.6a18.5,18.5,0,0,1-3.4,2.3c-8.2,4.3-16.8,4.9-25.3-2.4-8.9-7.6-12.1-17.4-7.4-27.5,2.7-5.8,1.1-11.6.5-17.7-.8-8.9,1.9-14.7,8.8-18.8,6.8-4.4,13.3-4.4,21.2,0,5.4,3,10.1,6.9,16.6,6.9,11.3.1,19,7,22.4,18.2,3.3,10.7-.9,18-8.4,23.5a21.22,21.22,0,0,1-3.6,2.1L266.7,96A37.07,37.07,0,0,0,262.7,97.9Z"/><path class="cls-2" d="M198.9,45.7c-4.9-6.3-9.5-11.5-4.3-19.4,2.9-4.3,7.7-5,12.3-2.5,6.8,3.7,11.3,10,10.9,17.7-.5,9.2-9,11.7-16.1,6.9Z"/><path class="cls-2" d="M204.2,58.2c6.1,4.7,10.2,11.3,5.3,18.8-2.9,4.4-7.8,5.3-12.5,3.1-6.4-3-11.2-8.3-11.9-15.3-.8-8,7.8-13.4,14.1-9.6Z"/><path class="cls-2" d="M240,20.1c-3.9-7-6.7-13.2-16.3-11.9-5.2.7-7.9,4.7-7.5,9.8.6,7.5,4.6,14.1,12,17,8.8,3.4,14.7-3,13.1-11.3Z"/><path class="cls-2" d="M249.4,29.9c1.9,7.4,6.3,13.7,15.3,12.5,5.4-.7,8.2-4.6,8.1-9.8-.1-6.9-3.1-13.4-9.3-16.9-7.2-4-15.8,1.3-14.9,8.4Z"/></svg>