<?xml version="1.0" encoding="utf-8"?>
<!-- Generator: Adobe Illustrator 24.3.0, SVG Export Plug-In . SVG Version: 6.00 Build 0)  -->
<svg version="1.1" id="Layer_1" xmlns="http://www.w3.org/2000/svg" xmlns:xlink="http://www.w3.org/1999/xlink" x="0px" y="0px"
	 viewBox="0 0 1920 1080" style="enable-background:new 0 0 1920 1080;" xml:space="preserve">
<style type="text/css">
	.st0{fill:#FFFFFF;}
	.st1{fill:#63C132;}
</style>
<path class="st0" d="M951.53,450.65c-1.01,0.63,1.02,6.37,4,11c0.49,0.76,1.96,3.04,6,7c5.27,5.17,9.98,8.61,12,10
	c1.57,1.08,6.1,4.15,14,8c3.25,1.58,11.15,5.29,23,9c8.52,2.67,17.94,5.62,31,7c13.07,1.38,23.34,0.51,28,0
	c4.38-0.48,13.21-1.68,24-5c3.38-1.04,11.81-3.78,22-9c10.53-5.4,18.11-10.96,22-14c2.43-1.89,10.29-8.16,19-18
	c5.83-6.59,10.11-12.59,13-17c3.33-5.08,8.99-14.38,14-27c2.19-5.51,5.06-12.85,7-23c1.4-7.32,1.78-13.26,2-17
	c0.09-1.47,0.49-8.49,0-18c-0.27-5.33-0.58-11.34-2-19c-0.4-2.18-2-10.43-6-21c-2.3-6.08-8.42-20.89-21-37
	c-11.19-14.33-22.13-22.82-25-25c-7.93-6.01-14.64-9.66-19-12c-15.73-8.45-28.86-12.14-32-13c-6.7-1.83-18.81-5.04-35-5
	c-14.17,0.03-24.88,2.53-31,4c-3.85,0.92-12.92,3.26-24,8c-6.52,2.78-17.58,7.59-30,17c-2.48,1.88-13.64,10.47-25,25
	c-3.67,4.7-11.92,15.84-19,32c-3.58,8.16-8.23,19.02-10,34c-0.77,6.54-1.42,12.46,0,20c0.95,5.03,3.1,17.03,13,26
	c5.27,4.78,10.46,6.65,17,9c8.45,3.04,14.92,3.74,28,5c13.78,1.32,25.1,2.32,33,3c0.22,24.8,0.21,42.93,0,46
	c-0.12,1.81-0.5,3.5-0.5,3.5c-0.23,1.01-0.59,2.33-1.5,4.5c-1.24,2.96-1.85,4.45-3,6c-2.2,2.95-4.91,4.46-6,5
	c-5.73,2.86-11.35,1.44-13,1c-2.35-0.63-4.6-2.09-9-5c-3.17-2.09-7.13-4.71-12-9C954.13,452.89,952.28,450.18,951.53,450.65z"/>
<path class="st1" d="M1008.02,375.84l-0.93-0.08c-10.71-0.92-21.71-1.92-32.69-2.97c-12.56-1.21-15.98-1.66-20.71-3.36
	c-4.76-1.71-6.26-2.31-7.01-3c-2.31-2.09-3.1-6.33-3.63-9.14l-0.04-0.19c-0.55-2.93-0.36-5.2,0.31-10.94
	c1.28-10.85,4.68-18.62,7.69-25.47c4.03-9.19,9.27-18.03,15.15-25.56c8.56-10.95,17.07-17.74,19.48-19.56
	c9.74-7.38,18.46-11.1,23.68-13.33c6.3-2.69,12.95-4.91,19.21-6.42c4.91-1.18,13.12-3.15,24.06-3.17h0.2
	c12.37,0,21.43,2.47,26.85,3.95c3.77,1.03,13.82,4.1,25.69,10.48c3.52,1.89,8.85,4.75,15.06,9.47c3.11,2.36,11.23,8.99,19.49,19.57
	c8.9,11.4,13.93,22.15,16.59,29.16c2.86,7.56,4.14,13.6,4.56,15.85c1.06,5.69,1.29,10.24,1.54,15.05
	c0.38,7.47,0.11,13.13,0.01,14.69c-0.18,3.02-0.45,7.59-1.52,13.15c-1.45,7.57-3.65,13.12-5.42,17.58
	c-3.03,7.63-6.79,14.9-11.2,21.61c-3.11,4.73-6.6,9.3-10.38,13.58c-6.31,7.13-12.1,11.98-14.99,14.23
	c-5.28,4.12-11.07,7.8-17.23,10.95c-5.61,2.87-11.53,5.3-17.14,7.02c-6.05,1.86-12.43,3.19-18.46,3.85
	c-4.48,0.49-8.24,0.53-10.59,0.56c-1.38,0.02-4.6,0.14-8.63-0.24c-2.03-0.19-3.41-0.29-5-1c-1.92-0.86-3.22-2.1-4-3
	c-1.06-1.98-2.43-5.06-3-9c-0.46-3.16-0.16-5.33,0-9c0.01-0.12,0-4.42,0-13c0-6.41-0.09-16.66-0.5-32.77l-0.01-1.08"/>
<path class="st0" d="M1006.9,376.56c0.04-1.11,0.09-2.25,0.13-3.41c0.09-2.21,0.75-6.81,2-16c1.15-8.45,1.73-12.67,2-14
	c0.69-3.33,4.39-21.27,19-29c11.96-6.33,24.66-2.36,29-1c15.01,4.69,22.85,16.02,27,22c3.24,4.67,8.83,12.95,10,25
	c0.41,4.21,1.2,12.37-3,21c-4.66,9.57-12.71,14.05-18,17c-14.96,8.33-29.38,7.55-39,7c-0.88-0.05-1.74-0.1-2.58-0.15"/>
<path class="st0" d="M1006.87,377.2"/>
<path class="st0" d="M1007.29,389.07"/>
<path class="st0" d="M1008.03,369.15"/>
<path class="st0" d="M1008.03,367.15"/>
<path class="st0" d="M1044.03,467.15"/>
<path class="st0" d="M1026.03,351.15"/>
<circle class="st0" cx="1086.03" cy="294.15" r="10"/>
<circle class="st0" cx="1127.03" cy="341.15" r="10"/>
<path class="st0" d="M1034.51,402.88"/>
<path class="st1" d="M1034.75,374.61c0.25,0.1,0.39,0.15,0.41,0.15c3.48,0.6,14.53,2.17,26.37-1.11c3.6-1,7.62-2.48,11-6
	c1.67-1.74,4.88-5.07,5-10c0.03-1.12-0.03-5.63-3-8c-1.41-1.12-2.15-0.71-5-2c-0.83-0.38-3.94-1.58-6-4c-3.06-3.61-1.8-6.81-5-9
	c-2.89-1.98-6.1-1.99-8-2c-0.41,0-3.48,0-6,1c-6.1,2.42-8.16,11.35-9,15c-1.87,8.11-1.56,17.69-0.51,26.33"/>
</svg>
