<?xml version="1.0" encoding="utf-8"?>
<!-- Generator: Adobe Illustrator 25.2.0, SVG Export Plug-In . SVG Version: 6.00 Build 0)  -->
<svg version="1.1" xmlns="http://www.w3.org/2000/svg" xmlns:xlink="http://www.w3.org/1999/xlink" x="0px" y="0px"
	 viewBox="0 0 150 150" style="enable-background:new 0 0 150 150;" xml:space="preserve">
<style type="text/css">
	.st0{fill:#63C035;}
	.st1{display:none;fill:#FFFFFF;}
	.st2{display:none;fill:#63C132;}
	.st3{fill:#63C132;}
	.st4{display:none;fill:#234125;}
	.st5{fill:#1E3F20;}
	.st6{fill:#FFFFFF;}
	.st7{display:none;}
	.st8{display:inline;}
	.st9{opacity:0.15;fill:#1E3F20;}
	.st10{opacity:0.7;fill:none;stroke:#FFFFFF;stroke-width:5;stroke-miterlimit:10;}
	.st11{opacity:0.7;}
	.st12{fill:#DB4A39;}
	.st13{fill:#3B5998;}
	.st14{fill:none;stroke:#FFFFFF;stroke-width:7.5;stroke-miterlimit:10;}
	.st15{fill:#234125;}
	.st16{fill:none;stroke:#1E3F20;stroke-width:7.5;stroke-miterlimit:10;}
	.st17{fill:none;stroke:#1E3F20;stroke-width:5.5;stroke-miterlimit:10;}
	.st18{fill:#1A1A1A;}
	.st19{opacity:0.2;fill:#1E3F20;}
	.st20{fill:none;stroke:#1E3F20;stroke-width:4;stroke-miterlimit:10;}
	.st21{fill:none;stroke:#1E3F20;stroke-width:6;stroke-miterlimit:10;}
	.st22{display:none;opacity:0.2;fill:#1E3F20;}
	.st23{fill:#1E3F20;stroke:#1E3F20;stroke-width:0.75;stroke-miterlimit:10;}
	.st24{fill:#1E3F20;stroke:#1E3F20;stroke-miterlimit:10;}
	.st25{fill-rule:evenodd;clip-rule:evenodd;fill:#1E3F20;}
	.st26{display:none;fill:#1E3F20;}
	.st27{opacity:0.2;fill:#FFFFFF;}
	.st28{fill-rule:evenodd;clip-rule:evenodd;fill:#FFFFFF;}
	.st29{opacity:0.5;fill:#1E3F20;}
	.st30{opacity:0.95;fill:#1E3F20;}
	.st31{opacity:0.75;fill:#FFFFFF;}
	.st32{fill:#FFFFFF;stroke:#1E3F20;stroke-width:0.75;stroke-miterlimit:10;}
	.st33{fill:#FFFFFF;stroke:#1A1A1A;stroke-width:0.75;stroke-miterlimit:10;}
	.st34{clip-path:url(#SVGID_2_);fill:#FFFFFF;}
	.st35{display:none;fill:#006837;}
	.st36{opacity:0.75;}
	.st37{fill:none;stroke:#234125;stroke-width:4;stroke-miterlimit:10;}
	.st38{fill:none;stroke:#234125;stroke-width:3;stroke-miterlimit:10;}
</style>
<g id="Layer_2">
</g>
<g id="Layer_1">
</g>
<g id="Layer_3">
	<g id="Layer_4_copy" class="st7">
	</g>
	<g id="Layer_4_copy_2" class="st7">
	</g>
	<g id="Layer_4" class="st7">
	</g>
	<g id="Layer_4_copy_3" class="st7">
	</g>
	<g id="Layer_4_copy_5">
	</g>
	<g id="Layer_4_copy_4" class="st7">
	</g>
</g>
<g id="Layer_15">
	<g>
		<g>
			<g>
				<g>
					<path class="st5" d="M68.42,106.61c-7.64-1.58-14.87-4.43-17.24-8.81c-0.65,1.06-1.29,2.23-1.29,3.38
						c0,4.05,5.72,8.32,14.75,10.41L68.42,106.61z"/>
				</g>
				<g>
					<path class="st5" d="M85.57,106.61c7.64-1.58,14.9-4.28,17.23-8.7c0.65,1.06,1.3,2.12,1.3,3.27c0,4.05-5.72,8.32-14.75,10.41
						L85.57,106.61z"/>
				</g>
				<path class="st5" d="M102.11,97.45c-4.09-2.74-13.75-4.66-25.03-4.66c-11.13,0-20.69,1.88-24.87,4.56c0,0,0.95,2.08,3.37,3.6
					c4.85-1.88,12.52-3.1,21.5-3.1c9.07,0,16.81,1.25,21.65,3.16C101.1,99.47,102.11,97.45,102.11,97.45z"/>
				<polygon class="st5" points="81.95,129.09 81.79,124.26 72.5,124.26 72.04,138.41 				"/>
				<path class="st5" d="M70.46,106.6c-1.04,1.39-4.11,5.5-4.09,5.5l6.11,10.49h9.33l2.41-4.16l3.75-6.48l-3.92-5.28H74.05
					L70.46,106.6z"/>
			</g>
			<g>
				<path class="st5" d="M134.45,62.8L134.45,62.8C134.45,62.79,134.45,62.79,134.45,62.8c-0.01-0.01-0.01-0.02-0.01-0.03
					c-7.05-16.67-19.65-27.68-29.8-26.86l-2.38-0.1c-1.37-0.06-2.69-0.77-3.34-1.98c-2.23-4.21-11.97-7.33-21.96-7.33
					S57.23,29.61,55,33.82c-0.65,1.22-1.96,1.93-3.34,1.98l-2.38,0.1c-10.15-0.81-22.75,10.2-29.8,26.86c0,0.01-0.01,0.02-0.01,0.02
					c0,0,0,0,0,0l0,0c-0.67,1.65-1.07,3.63-1.07,5.77c0,5.71,1.12,10.11,4.91,11.71c4.04,2.67,6.58,7.13,6.58,15.9
					c0,2.18,1.09,4.09,2.75,5.25c1.03,0.72,2.28,1.14,3.63,1.14c0.62,0,1.22-0.09,1.79-0.26c4.74-0.82,9.58-3.9,11.41-10.3
					c-0.04,8.13,5.19,14.87,12.28,15.5c1.28,0.11,2.61,0.05,3.91-0.17c0.06,0.15,0.12,0.28,0.15,0.37
					c1.38,3.31,5.87,3.45,11.21,3.45c5.13,0,9.48,0.04,11.04-3.06c0.07-0.14,0.19-0.41,0.31-0.71c1.26,0.19,2.54,0.23,3.76,0.12
					c7.11-0.63,12.35-7.41,12.28-15.56c1.82,6.45,6.67,9.54,11.42,10.36c0.57,0.17,1.17,0.26,1.79,0.26c1.35,0,2.6-0.42,3.63-1.14
					c1.66-1.15,2.75-3.07,2.75-5.25c0-8.77,2.55-13.23,6.58-15.9c3.79-1.6,4.91-6,4.91-11.71C135.51,66.43,135.12,64.44,134.45,62.8
					z"/>
				<path class="st3" d="M130.87,62.98L130.87,62.98C130.87,62.98,130.87,62.98,130.87,62.98c0-0.01-0.01-0.02-0.01-0.03
					c-6.61-15.5-18.42-25.75-27.93-24.99l-2.23-0.09c-1.36-0.06-2.54-0.85-3.23-2.02c-2.27-3.82-11.26-6.64-20.48-6.64
					s-18.21,2.82-20.48,6.64c-0.69,1.17-1.87,1.96-3.23,2.02l-2.23,0.09c-9.51-0.76-21.32,9.49-27.93,24.99
					c0,0.01-0.01,0.01-0.01,0.02c0,0,0,0,0,0l0,0c-0.63,1.53-1,3.38-1,5.37c0,5.31,1.05,9.4,4.6,10.89
					c3.78,2.48,5.15,5.62,5.15,13.78c0,2.02,1.02,3.81,2.58,4.88c0.97,0.67,2.08,0.74,3.35,0.74c0.58,0,1.14-0.09,1.68-0.24
					c4.73-0.81,8.11-4.11,9.01-11.44c1.05-16.06-0.49-31.52,0.36-34.51c1.17-4.11,5.33-5.46,2.43,1.25
					c-1.19,2.76,0.65,19.69,0.12,33.93c-0.02,0.46,0.35,0.83,0.81,0.83l18.96-5.28c3.64-0.82,7.42-0.83,11.07-0.03l19.56,5.31
					c0.46,0,0.82-0.37,0.81-0.83c-0.52-14.23,1.32-31.17,0.12-33.93c-2.9-6.71,1.26-5.36,2.43-1.25c0.85,2.99-0.69,18.44,0.36,34.51
					c0.9,7.33,4.27,10.63,9.01,11.44c0.53,0.15,1.09,0.24,1.68,0.24c1.27,0,2.38-0.08,3.35-0.74c1.56-1.07,2.58-2.86,2.58-4.88
					c0-8.15,1.37-11.3,5.15-13.78c3.55-1.48,4.6-5.58,4.6-10.89C131.87,66.36,131.5,64.51,130.87,62.98z M64.51,63.85
					c-2.62,0.49-4.88-1.75-4.38-4.35c0.28-1.45,1.47-2.63,2.93-2.9c2.62-0.49,4.88,1.75,4.38,4.35
					C67.16,62.4,65.97,63.58,64.51,63.85z M90.9,63.85c-2.62,0.49-4.88-1.75-4.38-4.35c0.28-1.45,1.47-2.63,2.93-2.9
					c2.62-0.49,4.88,1.75,4.38,4.35C93.55,62.4,92.36,63.58,90.9,63.85z"/>
				<g>
					<path class="st6" d="M76.37,100.27c-1.95,2.49-4.88,5.26-8.19,5.84c-0.4,0.07-0.64,0.39-0.49,0.69
						c1.15,2.3,4.89,2.21,9.33,2.21c4.27,0,7.88,0.22,9.19-1.94c0.18-0.3-0.05-0.65-0.47-0.73c-3.36-0.63-6.32-3.48-8.25-6.07
						C77.24,99.95,76.63,99.94,76.37,100.27z"/>
					<path class="st6" d="M102.79,88.8c-0.19-3.35-3.98-7.05-7.98-9.01c-6.49-3.43-10.12-7.87-11.54-11.9c0,0-2.46-4.79-2.19-16.53
						c0.23-9.75,0.29-17.85,0.11-21.33c-0.02-0.37-0.31-0.67-0.69-0.7c-1.17-0.09-2.35-0.14-3.54-0.14c-1.19,0-2.38,0.05-3.55,0.14
						c-0.38,0.03-0.67,0.33-0.69,0.7c-0.18,3.48-0.11,11.57,0.11,21.33c0.27,11.74-2.19,16.53-2.19,16.53
						c-1.42,4.04-5.05,8.47-11.54,11.9c-4,1.96-7.8,5.67-7.98,9.01c-0.78,8.33,4.37,15.52,11.51,16.15
						c5.91,0.52,12.84-2.63,13.08-10.57c0.02-0.62-0.23-1.23-0.71-1.64l-4.5-3.89c-1.71-1.85-0.37-4.8,2.18-4.8h8.35
						c2.55,0,3.9,2.95,2.18,4.8l-4.52,3.91c-0.44,0.38-0.71,0.91-0.71,1.48c0.04,8.21,7.35,11.24,13.3,10.72
						C98.42,104.31,103.56,97.13,102.79,88.8z"/>
				</g>
			</g>
			<path class="st5" d="M46.07,58.41c1.2-0.01,1.73,0.71,1.96,1.81c0.05,0.25,0.12,0.54,0.28,0.71c0.24,0.24,0.55,0.51,0.85,0.55
				c0.53,0.07,1.08-0.03,1.67-0.07c0.06,0.3,0.12,0.57,0.18,0.85c0.83,4.14,3.53,6.86,7.51,7.11c2.37,0.15,4.78-0.09,7.16-0.29
				c1.24-0.1,2.4-0.62,3.43-1.43c2.53-2,3.66-4.76,4.07-7.92c0.1-0.75-0.01-1.57,0.8-2.01c0.1-0.05,0.19-0.2,0.2-0.32
				c0.06-0.6,0.5-0.66,0.92-0.68c1.27-0.05,2.54-0.12,3.81-0.09c0.92,0.02,2-0.16,2.36,1.15c0.01,0.02,0.03,0.05,0.05,0.06
				c0.62,0.28,0.62,0.87,0.66,1.43c0.12,1.78,0.58,3.47,1.38,5.03c1.17,2.29,2.86,3.98,5.36,4.61c2.7,0.68,5.45,0.8,8.18,0.45
				c3.82-0.48,6.22-2.78,7.17-6.66c0.1-0.42,0.19-0.84,0.3-1.32c0.42,0.04,0.74,0.08,1.06,0.1c1.23,0.08,1.31,0.02,1.71-1.19
				c0.03-0.1,0.07-0.19,0.09-0.29c0.19-1.04,0.79-1.55,1.81-1.59c0.17-0.01,0.44-0.24,0.48-0.41c0.26-1.22-0.17-2.03-1.27-2.53
				c-0.25-0.11-0.51-0.22-0.76-0.32c-5.68-2-11.5-3.06-17.51-2.75c-2.57,0.13-5.11,0.56-7.49,1.67c-0.78,0.37-1.56,0.76-1.56,1.83
				c-2.25-0.44-4.45-0.44-6.7,0c0.01-1.05-0.73-1.46-1.5-1.8c-2.45-1.11-5.06-1.56-7.71-1.71c-4.39-0.26-8.71,0.38-12.96,1.43
				c-1.86,0.46-3.67,1.15-5.47,1.82c-0.81,0.3-1.27,1.69-0.93,2.5C45.74,58.27,45.94,58.41,46.07,58.41z M85.32,55.49
				c1.65-0.42,3.32-0.74,5-1c0.81-0.13,1.66-0.02,2.48-0.02c2.36-0.12,4.69,0.07,6.91,1.01c2.04,0.86,3.45,2.33,3.65,4.65
				c0.09,1.05-0.2,2.2-0.53,3.23c-0.93,2.93-2.74,4.87-5.88,5.2c-2.47,0.26-4.93,0.36-7.37-0.15c-3.22-0.67-5.1-2.93-6.16-6.01
				c-0.27-0.8-0.38-1.67-0.53-2.51C82.65,58.27,83.74,55.89,85.32,55.49z M51.92,59.41c0.49-1.78,1.58-3.04,3.23-3.78
				c1.76-0.8,3.61-1.17,5.53-1.21c2.68-0.07,5.36-0.04,7.98,0.63c1,0.25,1.98,0.6,2.64,1.48c0.87,1.16,1.16,2.46,0.93,3.94
				c-0.44,2.8-1.64,5.09-3.87,6.78c-1.56,1.18-3.38,1.32-5.2,1.47c-0.52,0.04-1.04,0.01-1.56,0.01c0,0.03,0,0.06-0.01,0.1
				c-1.13-0.1-2.26-0.19-3.4-0.29c-3.05-0.28-4.81-2.19-5.78-5.02C51.94,62.19,51.52,60.83,51.92,59.41z"/>
		</g>
	</g>
</g>
<g id="Layer_10">
</g>
<g id="Layer_11">
</g>
<g id="Layer_12">
</g>
<g id="Layer_13">
</g>
<g id="Layer_14">
</g>
</svg>
