<?xml version="1.0" encoding="utf-8"?>
<!-- Generator: Adobe Illustrator 25.2.0, SVG Export Plug-In . SVG Version: 6.00 Build 0)  -->
<svg version="1.1" xmlns="http://www.w3.org/2000/svg" xmlns:xlink="http://www.w3.org/1999/xlink" x="0px" y="0px"
	 viewBox="0 0 150 150" style="enable-background:new 0 0 150 150;" xml:space="preserve">
<style type="text/css">
	.st0{fill:#63C035;}
	.st1{display:none;fill:#FFFFFF;}
	.st2{display:none;fill:#63C132;}
	.st3{fill:#63C132;}
	.st4{display:none;fill:#234125;}
	.st5{fill:#1E3F20;}
	.st6{fill:#FFFFFF;}
	.st7{display:none;}
	.st8{display:inline;}
	.st9{opacity:0.15;fill:#1E3F20;}
	.st10{opacity:0.7;fill:none;stroke:#FFFFFF;stroke-width:5;stroke-miterlimit:10;}
	.st11{opacity:0.7;}
	.st12{fill:#DB4A39;}
	.st13{fill:#3B5998;}
	.st14{fill:none;stroke:#FFFFFF;stroke-width:7.5;stroke-miterlimit:10;}
	.st15{fill:#234125;}
	.st16{fill:none;stroke:#1E3F20;stroke-width:7.5;stroke-miterlimit:10;}
	.st17{fill:none;stroke:#1E3F20;stroke-width:5.5;stroke-miterlimit:10;}
	.st18{fill:#1A1A1A;}
	.st19{opacity:0.2;fill:#1E3F20;}
	.st20{fill:none;stroke:#1E3F20;stroke-width:4;stroke-miterlimit:10;}
	.st21{fill:none;stroke:#1E3F20;stroke-width:6;stroke-miterlimit:10;}
	.st22{display:none;opacity:0.2;fill:#1E3F20;}
	.st23{fill:#1E3F20;stroke:#1E3F20;stroke-width:0.75;stroke-miterlimit:10;}
	.st24{fill:#1E3F20;stroke:#1E3F20;stroke-miterlimit:10;}
	.st25{fill-rule:evenodd;clip-rule:evenodd;fill:#1E3F20;}
	.st26{display:none;fill:#1E3F20;}
	.st27{opacity:0.2;fill:#FFFFFF;}
	.st28{fill-rule:evenodd;clip-rule:evenodd;fill:#FFFFFF;}
	.st29{opacity:0.5;fill:#1E3F20;}
	.st30{opacity:0.95;fill:#1E3F20;}
	.st31{opacity:0.75;fill:#FFFFFF;}
	.st32{fill:#FFFFFF;stroke:#1E3F20;stroke-width:0.75;stroke-miterlimit:10;}
	.st33{fill:#FFFFFF;stroke:#1A1A1A;stroke-width:0.75;stroke-miterlimit:10;}
	.st34{clip-path:url(#SVGID_2_);fill:#FFFFFF;}
	.st35{display:none;fill:#006837;}
	.st36{opacity:0.75;}
	.st37{fill:none;stroke:#234125;stroke-width:4;stroke-miterlimit:10;}
	.st38{fill:none;stroke:#234125;stroke-width:3;stroke-miterlimit:10;}
</style>
<g id="Layer_2">
</g>
<g id="Layer_1">
</g>
<g id="Layer_3">
	<g id="Layer_4_copy" class="st7">
	</g>
	<g id="Layer_4_copy_2" class="st7">
	</g>
	<g id="Layer_4" class="st7">
	</g>
	<g id="Layer_4_copy_3" class="st7">
	</g>
	<g id="Layer_4_copy_5">
	</g>
	<g id="Layer_4_copy_4" class="st7">
	</g>
</g>
<g id="Layer_15">
	<g>
		<g>
			<g>
				<path class="st5" d="M126.35,44.02c-3.26-8.97-15.95-0.09-18.57,6.57c-0.24,0.61-1.02,0.78-1.51,0.34
					c-4.12-3.68-9.52-6.83-14.68-8.31c-10.91-3.13-22.54-3.13-33.45,0C53,44.1,47.6,47.24,43.49,50.92
					c-0.49,0.44-1.29,0.27-1.53-0.35c-2.64-6.66-15.31-15.51-18.56-6.55c-5.01,13.78,5.46,15.71,11.64,19.79
					c0.41,0.27,0.49,0.85,0.19,1.24c-13.52,18.25-9.92,31.54-9.92,31.54c1.97,9.85,13.88,22,26.12,22
					c18.5,0.01,10.57-6.26,23.44-6.26c12.87,0.01,4.08,5.77,23.44,6.26c12.24,0.31,24.15-12.15,26.12-22c0,0,3.61-13.3-9.93-31.56
					c-0.29-0.39-0.21-0.95,0.19-1.22C120.87,59.73,131.37,57.81,126.35,44.02z"/>
				<path class="st3" d="M111.43,62.55c5.92-3.08,16.21-5.73,11.59-15.92c-2.92-6.43-12.29,2.81-14.63,8.67
					c-0.3,0.75-1.27,0.88-1.79,0.26c-4.17-4.93-10.69-7.78-16.78-9.44c-9.8-2.67-20.11-2.73-29.94-0.18
					c-6.15,1.6-12.78,4.4-16.96,9.38c-0.51,0.6-1.46,0.49-1.77-0.24c-2.41-5.82-11.66-14.92-14.59-8.45
					C21.94,56.81,32.25,59,38.18,62.03c0.6,0.31,0.93,0.98,0.79,1.65l-0.03,0.16c-0.05,0.23-0.15,0.44-0.29,0.63
					C26.21,80.64,28.29,91.51,28.29,91.51c-0.3,12.17,10.37,22.17,21.32,22.85c16.43,1.03,13.88-5.49,25.19-5.58
					c11.3,0.09,8.21,5.68,25.19,5.58c10.97-0.06,21.62-10.68,21.32-22.85c0,0,2.08-10.52-10.36-26.69c-0.14-0.18-0.24-0.4-0.28-0.62
					C110.51,63.53,110.83,62.86,111.43,62.55z"/>
				<g>
					<path class="st6" d="M105.32,90.04c-4.12-2.31-8.11-3.6-14.95-3.6c-6.02,0-11.47,1.14-15.5,2.98
						c-4.03-1.84-9.48-2.98-15.5-2.98c-6.87,0-11.36,1.28-15.48,3.6c-2.92,1.56-5.72,2-7.38,2c-4.44,0-8.04-2.68-8.04-5.99
						c0-0.1,0.01-0.2,0.02-0.31c-0.59,3.69-0.32,5.94-0.32,5.94c0.4,13.02,10.5,22,21.45,22.68c16.43,1.03,13.88-5.49,25.19-5.58
						c11.3,0.09,8.21,5.68,25.19,5.58c10.97-0.06,21.51-10.62,21.59-22.82c0,0,0.1-1.99-0.45-5.49c-0.01,3.31-3.57,5.98-7.97,5.98
						C111.56,92.04,107.81,91.49,105.32,90.04z"/>
				</g>
				<g>
					<path class="st5" d="M79.43,84.98c-1.66-0.03-2.9,0.08-4.47-0.01c-1.57-0.08-2.99-0.3-4.45-0.47
						c-2.01-0.23-4.25,0.64-3.77,3.13c0.86,4.5,3.88,7.89,7.64,8.09c3.76,0.2,7.13-2.84,8.47-7.22
						C83.59,86.07,81.45,85.02,79.43,84.98z"/>
					<g>
						<g>
							<path class="st5" d="M73.63,94.88c-0.25,2.72-0.78,6.24-3.52,7.59c-3.21,1.58-8.5-0.12-8.52-4.16c-0.01-1.16-1.81-1.16-1.8,0
								c0.03,4.77,5.24,7.29,9.51,6.34c4.57-1.01,5.76-5.68,6.13-9.76C75.54,93.73,73.74,93.74,73.63,94.88L73.63,94.88z"/>
						</g>
					</g>
					<g>
						<g>
							<path class="st5" d="M73.39,94.7c-0.18,4.16,0.5,9.01,5.03,10.5c4.22,1.39,9.51-0.5,10.15-5.26c0.16-1.22-1.76-1.21-1.92,0
								c-0.54,4.01-6.39,4.78-9.13,2.66c-2.34-1.81-2.33-5.21-2.21-7.9C75.36,93.47,73.44,93.47,73.39,94.7L73.39,94.7z"/>
						</g>
					</g>
				</g>
			</g>
			<path class="st5" d="M63.37,74.38c0.43,1.9-1.85,0.22-4.09-0.01c-2.23-0.24-4.65,0.99-4-0.84c0.67-1.87,3.39-2.03,4.29-1.93
				C60.58,71.71,62.93,72.44,63.37,74.38z"/>
			<circle class="st5" cx="90.36" cy="72.59" r="3.89"/>
			<path class="st5" d="M80.97,80.13c0.62,0.96,1.41,1.82,2.37,2.43c2.3,1.47,4.97,1.8,7.53,1.8c2.88,0,5.67-1.31,8.05-3.86
				c1.61-1.73,2.24-3.63,2.59-4.98c0.3-1.18,0.81-4.17,0.96-4.76c0.81-3.26,11.09-4.6,11.09-4.6l-0.2-1.94c0,0-9.67,1.75-9.98,1.87
				c-0.32,0.12-6.01-2.89-12.82-2.89c-4.51,0-8.04,1.86-9.91,3.11c-0.86,0.58-1.61,1.29-2.24,2.11l-1.83,2.36
				c-0.73,0.94-2.15,0.97-2.92,0.06l-2.25-2.66c-0.52-0.62-1.11-1.17-1.76-1.63c-1.76-1.24-5.46-3.35-10.26-3.35
				c-6.8,0-12.5,3.01-12.81,2.89c-0.32-0.12-9.63-1.87-9.63-1.87l-0.2,1.94c0,0,10.12,2.07,10.74,4.6c0.14,0.59,0.66,3.58,0.96,4.76
				c0.35,1.36,0.98,3.26,2.59,4.98c2.37,2.56,5.17,3.86,8.05,3.86c2.56,0,5.23-0.33,7.53-1.79c0.97-0.62,1.76-1.48,2.38-2.44
				l3.19-4.93c0.39-0.75,2.81-0.71,2.81-0.71s2.41-0.04,2.81,0.71L80.97,80.13z M69.13,76.18c-1.6,5.39-6.26,6.79-9.8,6.79
				c-3.54,0-7.09-3.11-8.1-4.85c-1.02-1.75-2.71-6.76-0.97-10.14c1.74-3.38,10.29-3.92,15.38-1.45
				C70.14,68.7,70.74,70.79,69.13,76.18z M98.71,78.12c-1.02,1.75-4.56,4.85-8.1,4.85c-3.54,0-8.2-1.41-9.8-6.79
				c-1.6-5.39-1-7.48,3.49-9.65c5.09-2.47,13.64-1.93,15.38,1.45C101.42,71.36,99.72,76.37,98.71,78.12z"/>
			<g id="_x32_">
				<g>
					<path class="st23" d="M64.11,25.9c-0.26-0.03-0.56,0.03-0.83,0.16c-0.17,0.08-0.32,0.18-0.46,0.3
						c-0.28,0.25-6.94,6.24-9.31,8.87c-2.72,3.02-3.4,6.77-3.43,7.6c-0.01,0.18-0.03,0.35-0.08,0.5c-0.3-0.05-0.71-0.02-1.22,0.14
						c-0.21,0.06-0.41,0.14-0.61,0.23c-0.89,0.41-1.59,1.04-1.92,1.69c-0.71-0.17-1.64-0.05-2.54,0.36c-0.2,0.09-0.39,0.2-0.58,0.31
						c-0.45,0.29-0.74,0.57-0.9,0.84c-0.15-0.07-0.29-0.16-0.43-0.27c-0.66-0.52-3.93-2.46-8-2.36c-3.54,0.08-12.42,1.23-12.79,1.28
						c-0.18,0.02-0.36,0.08-0.52,0.15c-0.27,0.13-0.51,0.31-0.66,0.53c-0.23,0.33-5.63,8.23-2.43,17.05
						c0.01,0.02,0.02,0.04,0.03,0.06c2.91,5.17,7.78,7.53,11.36,8.59c0.18,0.05,0.39,0.05,0.61,0.01c0.07,0.13,0.2,0.22,0.38,0.27
						c1.28,0.32,2.11,0.41,2.15,0.41c0.26,0.03,0.56-0.03,0.83-0.16c0.17-0.08,0.32-0.18,0.46-0.3c0.28-0.25,6.94-6.24,9.31-8.87
						c2.72-3.02,3.4-6.77,3.43-7.61c0.01-0.18,0.03-0.35,0.08-0.5c0.31,0.05,0.71,0.02,1.22-0.14c0.21-0.06,0.41-0.14,0.61-0.23
						c0.89-0.41,1.59-1.04,1.92-1.69c0.71,0.17,1.64,0.05,2.54-0.36c0.2-0.09,0.39-0.2,0.58-0.31c0.45-0.29,0.74-0.57,0.9-0.84
						c0.15,0.07,0.29,0.16,0.43,0.27c0.66,0.52,3.93,2.46,8,2.36c3.54-0.08,12.42-1.23,12.8-1.28c0.18-0.02,0.36-0.08,0.52-0.15
						c0.27-0.13,0.51-0.31,0.66-0.53c0.02-0.03,0.59-0.85,1.25-2.23c0.12-0.25,0.09-0.49-0.1-0.64c-0.06-0.05-0.14-0.09-0.22-0.11
						c0.01,0,0.03-0.01,0.04-0.01c0.07-0.02,0.13-0.05,0.19-0.08c0.36-0.17,0.65-0.44,0.77-0.72c1.26-3.19,2.37-8.09,0.49-13.26
						c-0.01-0.02-0.02-0.04-0.03-0.06C74.02,27,64.51,25.94,64.11,25.9z"/>
					<g id="_x31_1">
						<g>
							<path class="st6" d="M44.94,53.28c-0.24,1.09-1.1,3.41-4.23,6.7c1.82-3.03,2.69-5.36,3.07-7.09
								c-0.71,0.69-1.84,1.42-3.65,1.97c1.32-0.88,2.2-1.69,2.77-2.39c-0.89-0.1-2.03-0.09-3.49,0.12c1.63-0.78,2.98-0.99,3.95-1
								c-0.96-0.5-2.46-0.89-4.77-0.78c2.76-0.63,4.32-0.37,5.12-0.07c-0.02-0.05-0.05-0.11-0.07-0.16
								c-1.24-0.75-3.56-1.66-7.85-2.15c3.36-0.12,6.2,0.49,7.24,0.75c-0.04-0.11-0.08-0.21-0.11-0.3l-0.06-0.16
								c-0.14-0.36-0.49-0.61-0.96-0.74c-0.24-0.07-0.53-0.2-0.81-0.41c-0.76-0.58-3.79-2.06-7.21-1.91
								c-3.42,0.15-12.35,1.46-12.35,1.46s-5.48,7.44-2.61,15.48c2.71,4.77,7.49,6.76,10.56,7.58c2.21-1.65,5.21-4.04,8.4-6.97
								c-1.89,2.83-5.69,5.86-7.47,7.2c1.19,0.26,1.95,0.32,1.95,0.32s6.82-5.92,9.16-8.41c2.34-2.49,3.2-5.75,3.25-6.71
								c0.02-0.36,0.11-0.66,0.22-0.89c0.2-0.45,0.24-0.87,0.06-1.21l-0.08-0.15C44.98,53.36,44.97,53.33,44.94,53.28z"/>
							<path class="st6" d="M48.93,44.5c-1.05,0.33-1.82,1.19-1.69,1.82l0.44,2.19l-1.37-1.77c-0.4-0.51-1.55-0.49-2.49,0.09
								c-0.34,0.21-0.55,0.43-0.46,0.62l1.49,3.24l1.49,3.24c0.09,0.19,0.39,0.18,0.78,0.06c1.05-0.33,1.82-1.19,1.69-1.82
								l-0.44-2.19l1.37,1.77c0.4,0.51,1.55,0.49,2.49-0.09c0.34-0.21,0.55-0.43,0.46-0.62l-1.49-3.24l-1.49-3.24
								C49.61,44.36,49.31,44.38,48.93,44.5z"/>
							<path class="st6" d="M63.92,50.59c0,0,5.51-0.24,12.45-2.61c1.26-2.93,2.41-7.4,0.74-12.07c-4.22-7.42-13.44-8.12-13.44-8.12
								s-6.82,5.92-9.16,8.41c-2.34,2.49-3.2,5.75-3.25,6.71c-0.02,0.36-0.11,0.66-0.22,0.89c-0.2,0.45-0.24,0.87-0.06,1.21
								l0.08,0.15c0,0,0.07,0.14,0.17,0.37c0.41-0.83,1.83-3.51,4.22-6.1c-2.56,3.77-3.34,6.18-3.52,7.58
								c0.02,0.03,0.03,0.07,0.05,0.11c0.24-0.78,1-2.2,3.45-4.01c-1.6,1.68-2.27,3.07-2.52,4.12c0.64-0.73,1.68-1.62,3.34-2.35
								c-1.11,0.97-1.86,1.83-2.37,2.57c0.91,0.02,2.09-0.11,3.62-0.54c-1.6,1.02-2.9,1.39-3.88,1.48c1.56,0.84,3.89,1.71,7.38,2.3
								c-4.76,0.24-7.08-0.72-7.97-1.24c0.05,0.12,0.09,0.22,0.13,0.31l0.01,0.04c0.14,0.36,0.49,0.61,0.96,0.74
								c0.24,0.07,0.53,0.2,0.81,0.41c0.76,0.58,3.79,2.06,7.21,1.91c3.42-0.15,12.35-1.46,12.35-1.46s0.54-0.73,1.19-1.99
								C72.97,50,67.87,50.93,63.92,50.59z"/>
						</g>
					</g>
				</g>
			</g>
		</g>
	</g>
</g>
<g id="Layer_10">
</g>
<g id="Layer_11">
</g>
<g id="Layer_12">
</g>
<g id="Layer_13">
</g>
<g id="Layer_14">
</g>
</svg>
