<?xml version="1.0" encoding="utf-8"?>
<!-- Generator: Adobe Illustrator 25.2.0, SVG Export Plug-In . SVG Version: 6.00 Build 0)  -->
<svg version="1.1" xmlns="http://www.w3.org/2000/svg" xmlns:xlink="http://www.w3.org/1999/xlink" x="0px" y="0px"
	 viewBox="0 0 150 150" style="enable-background:new 0 0 150 150;" xml:space="preserve">
<style type="text/css">
	.st0{fill:#63C035;}
	.st1{display:none;fill:#FFFFFF;}
	.st2{display:none;fill:#63C132;}
	.st3{fill:#63C132;}
	.st4{display:none;fill:#234125;}
	.st5{fill:#1E3F20;}
	.st6{fill:#FFFFFF;}
	.st7{display:none;}
	.st8{display:inline;}
	.st9{opacity:0.15;fill:#1E3F20;}
	.st10{opacity:0.7;fill:none;stroke:#FFFFFF;stroke-width:5;stroke-miterlimit:10;}
	.st11{opacity:0.7;}
	.st12{fill:#DB4A39;}
	.st13{fill:#3B5998;}
	.st14{fill:none;stroke:#FFFFFF;stroke-width:7.5;stroke-miterlimit:10;}
	.st15{fill:#234125;}
	.st16{fill:none;stroke:#1E3F20;stroke-width:7.5;stroke-miterlimit:10;}
	.st17{fill:none;stroke:#1E3F20;stroke-width:5.5;stroke-miterlimit:10;}
	.st18{fill:#1A1A1A;}
	.st19{opacity:0.2;fill:#1E3F20;}
	.st20{fill:none;stroke:#1E3F20;stroke-width:4;stroke-miterlimit:10;}
	.st21{fill:none;stroke:#1E3F20;stroke-width:6;stroke-miterlimit:10;}
	.st22{display:none;opacity:0.2;fill:#1E3F20;}
	.st23{fill:#1E3F20;stroke:#1E3F20;stroke-width:0.75;stroke-miterlimit:10;}
	.st24{fill:#1E3F20;stroke:#1E3F20;stroke-miterlimit:10;}
	.st25{fill-rule:evenodd;clip-rule:evenodd;fill:#1E3F20;}
	.st26{display:none;fill:#1E3F20;}
	.st27{opacity:0.2;fill:#FFFFFF;}
	.st28{fill-rule:evenodd;clip-rule:evenodd;fill:#FFFFFF;}
	.st29{opacity:0.5;fill:#1E3F20;}
	.st30{opacity:0.95;fill:#1E3F20;}
	.st31{opacity:0.75;fill:#FFFFFF;}
	.st32{fill:#FFFFFF;stroke:#1E3F20;stroke-width:0.75;stroke-miterlimit:10;}
	.st33{fill:#FFFFFF;stroke:#1A1A1A;stroke-width:0.75;stroke-miterlimit:10;}
	.st34{clip-path:url(#SVGID_2_);fill:#FFFFFF;}
	.st35{display:none;fill:#006837;}
	.st36{opacity:0.75;}
	.st37{fill:none;stroke:#234125;stroke-width:4;stroke-miterlimit:10;}
	.st38{fill:none;stroke:#234125;stroke-width:3;stroke-miterlimit:10;}
</style>
<g id="Layer_2">
</g>
<g id="Layer_1">
</g>
<g id="Layer_3">
	<g id="Layer_4_copy" class="st7">
	</g>
	<g id="Layer_4_copy_2" class="st7">
	</g>
	<g id="Layer_4" class="st7">
	</g>
	<g id="Layer_4_copy_3" class="st7">
	</g>
	<g id="Layer_4_copy_5">
	</g>
	<g id="Layer_4_copy_4" class="st7">
	</g>
</g>
<g id="Layer_15">
	<g>
		<g>
			<g>
				<path class="st3" d="M82.78,24.6l-7.1,7.99h-8.29l-6.88-7.15l0.35,12.09l-0.97,8.38L62,49.13c-0.82,1.14-1.9,3.21-3.02,5.4
					l-0.01,0.01l0,0c-0.57,1.12-1.14,2.26-1.68,3.33c-23.65,12-24.35,2.38-30.06,36.96c-5.2,31.5-5,37.06,27.77,35.74
					c29.41,0.57,25.22,0.63,26.96-53.05c0.18-5.65-0.6-10.46-1.95-14.47l2.54-10.45L82.2,38.59c0,0,0.84-8.65,1.01-8.78
					S82.78,24.6,82.78,24.6z"/>
				<path class="st5" d="M91.12,122.58H75.78c-0.02,0-0.04-0.02-0.04-0.04L75.12,96.2c-0.05-2.1,0.25-4.17,0.9-6.16l6.46-19.93
					c0.46-1.43,0.66-2.95,0.56-4.46L82.1,50.06c0.01-0.01,0.01-0.02,0.02-0.04c1.6-1.31,2.5-3.36,2.4-5.48
					c-0.07-1.52-0.2-3.67-0.38-5.28c-0.02-0.14-0.05-0.29-0.1-0.42c-0.1-0.25-0.3-0.47-0.45-0.73l0.13-0.09
					c0.42-0.52,0.66-1.16,0.7-1.84c0.15-2.79,0.45-9.45,0.09-11.62c-0.09-0.51-0.39-0.95-0.83-1.19c-0.44-0.24-0.95-0.26-1.41-0.05
					c-0.63,0.29-1.71,0.97-3.92,3.48c-0.02,0.02-0.04,0.04-0.06,0.06c-1.25,1.43-2.49,3.02-3.43,4.27
					c-0.01,0.01-0.02,0.02-0.03,0.02h-6.58c-0.01,0-0.02-0.01-0.03-0.02c-0.94-1.26-2.18-2.85-3.43-4.27
					c-0.02-0.02-0.04-0.04-0.06-0.07c-2.21-2.51-3.29-3.19-3.92-3.48c-0.45-0.21-0.97-0.19-1.4,0.05c-0.44,0.24-0.74,0.68-0.83,1.19
					c-0.37,2.18-0.06,8.88,0.09,11.65c0.04,0.67,0.28,1.3,0.7,1.81l0.07,0.08c-0.15,0.26-0.3,0.49-0.4,0.74
					c-0.05,0.14-0.09,0.28-0.1,0.42c-0.19,1.61-0.31,3.76-0.39,5.28c-0.08,1.61,0.42,3.17,1.37,4.4c0.01,0.01,0.01,0.03,0,0.05
					l-3,5.75c-0.63,1.22-1.68,2.14-2.93,2.59l-10.19,3.67c-8.41,3.03-14.71,10.58-16.44,19.71c-2.21,11.63-4.75,27.59-4.31,37.59
					c0.12,2.67,0.79,5.27,1.95,7.54c1.44,2.81,3.9,6.05,10.1,6.05l55.8,0c2.35,0,4.46-1.79,4.67-4.23
					C95.79,124.91,93.71,122.58,91.12,122.58L91.12,122.58z M62.37,29.08c0.01,0.02,0.03,0.03,0.04,0.05c1.49,1.7,3,3.71,3.77,4.75
					c0.37,0.5,0.96,0.73,1.53,0.63h7.63c0.57,0.1,1.16-0.13,1.53-0.63c0.77-1.05,2.3-3.07,3.8-4.78c0,0,0.01-0.01,0.01-0.01
					c0.28-0.32,0.54-0.6,0.77-0.86c-0.01,2.23-0.12,5.17-0.25,7.67c0,0.01,0,0.02-0.01,0.03l-0.8,0.99
					c-0.5,0.62-0.49,1.52,0.01,2.14c0.3,0.38,0.47,0.66,0.57,0.86c0,0.01,0,0.01,0,0.02c0.16,1.47,0.27,3.38,0.34,4.76
					c0.05,1.04-0.38,2.04-1.17,2.69c-1.83,1.51-5.27,4.23-7.88,5.62c-0.46,0.24-1,0.24-1.46,0c-2.62-1.38-6.05-4.11-7.88-5.62
					c-0.78-0.65-1.21-1.65-1.17-2.69c0.06-1.38,0.17-3.28,0.34-4.76c0-0.01,0-0.01,0-0.02c0.1-0.2,0.27-0.48,0.57-0.86
					c0.49-0.63,0.51-1.52,0.01-2.14l-0.8-0.99c-0.01-0.01-0.01-0.02-0.01-0.03c-0.13-2.5-0.24-5.43-0.25-7.67
					C61.84,28.49,62.09,28.77,62.37,29.08L62.37,29.08z M91.12,128.55H35.08c-4.23,0-5.92-1.64-7.27-4.28
					c-0.93-1.82-1.48-3.93-1.57-6.1c-0.42-9.66,2.08-25.34,4.25-36.79C32,73.43,37.5,66.84,44.84,64.19l11.9-4.29
					c0.91-0.33,1.67-1,2.13-1.88l3.52-6.76c0.01-0.02,0.04-0.03,0.06-0.01c2.15,1.71,4.74,3.61,6.92,4.76
					c0.68,0.36,1.42,0.53,2.16,0.53c0.74,0,1.48-0.18,2.16-0.53c1.65-0.87,3.53-2.17,5.28-3.49c0.03-0.02,0.06,0,0.07,0.03
					l0.81,13.32c0.07,1.07-0.07,2.15-0.4,3.16l-6.46,19.93c-0.77,2.36-1.12,4.82-1.07,7.32l0.61,26.25c0,0.02-0.02,0.04-0.04,0.04
					h-2.16c-0.02,0-0.04-0.02-0.04-0.04l-3.52-27.58c-0.01-0.03-0.01-0.09-0.02-0.13l-4.56-23.72c-0.17-0.91-1.02-1.5-1.89-1.31
					c-0.87,0.18-1.43,1.07-1.26,1.98l4.55,23.66c0,0,0,0,0,0l0.46,3.6c-1.55-3.84-4.16-7.15-7.61-9.55
					c-0.68-0.47-1.63-0.4-2.16,0.24c-0.65,0.79-0.48,1.96,0.32,2.51c5.05,3.47,7.98,9.25,7.88,15.66
					c-0.08,5.47-2.66,10.58-6.71,14.05l-0.71,0.61c-0.01,0.01-0.02,0.01-0.03,0.01l-6.44,0c-4.78,0-9.17-2.02-13.22-4.67
					c-0.82-0.54-1.93-0.2-2.33,0.77c-0.32,0.77,0.02,1.68,0.7,2.12c5.09,3.36,10.96,5.13,16.98,5.13h40.41
					c0.69,0,1.25,0.59,1.25,1.31C92.37,127.96,91.81,128.55,91.12,128.55L91.12,128.55z M67,122.58h-7.02
					c-0.04,0-0.05-0.04-0.03-0.07c2.99-3.25,4.89-7.33,5.51-11.75c0.01-0.05,0.07-0.05,0.08,0l1.5,11.77
					C67.04,122.56,67.02,122.58,67,122.58z M67.04,122.58"/>
			</g>
			<g>
				<path class="st3" d="M123.94,102.47c-4.41-12.7-8.27-18.58-12.8-21.31l-1.61-16.93l0.12-8.24l0.82-6.59l-1.53-4.86l-7.41,8.63
					h-9.16l-7.85-8.63l-0.99,3.68l0.35,6.71v5.88l-1.21,19.69c-4.89,2.49-9.15,8.56-13.44,23.37c-6.79,23.45-1.24,31.41,27.44,25.49
					C125.49,133.21,132.58,127.35,123.94,102.47z"/>
				<path class="st6" d="M110.89,57.38c2.2,6.2,5.37,17.79,2.37,27.01c-3.75,1.76-7.91,8.98-9.16,11.28
					c-3.08,5.65-5.65,12.21-7.46,18.9c-1.8-6.69-4.38-13.24-7.46-18.9c-1.25-2.3-5.41-9.51-9.16-11.28
					c-1.26-3.88-2.1-10.4,0.32-20.26c0.63-2.55,1.36-4.84,2.01-6.67c0.04,0.11,1.01,0.21,1.04,0.32l-0.79,7.45
					c-0.21,2.01-0.19,3.97,1.5,4.98c0.02,0.01,0.04,0.02,0.06,0.03l10.72,5.77c0.54,0.29,1.13,0.43,1.72,0.43
					c0.59,0,1.18-0.14,1.72-0.43l10.72-5.77c0.02-0.01,0.04-0.02,0.06-0.03c1.7-1.01,1.72-2.96,1.5-4.98l-0.79-7.45
					C109.87,57.65,110.85,57.51,110.89,57.38L110.89,57.38z M124.77,124.93"/>
				<path class="st5" d="M123.61,96.87c-2.87-7.78-6.1-13.97-7-15.65c1.97-11.72-3.64-24.84-4.89-27.57
					c0.21-2.24,0.08-4.5-0.41-6.72l-0.78-3.57c-0.12-0.54-0.54-0.97-1.08-1.09c-0.54-0.12-1.11,0.08-1.45,0.51l-6.35,8.09
					c-0.47,0.6-1.19,0.95-1.95,0.95h-6.25c-0.63,0-1.22-0.29-1.6-0.78l-6.49-8.26c-0.34-0.44-0.91-0.64-1.45-0.51
					c-0.54,0.12-0.96,0.55-1.08,1.09l-0.78,3.57c-0.48,2.19-0.61,4.41-0.42,6.61c-0.56,1.22-2.36,5.32-3.72,10.66
					c-1.64,6.42-2.05,12.11-1.23,17c-0.89,1.65-4.13,7.86-7.01,15.67c-4.49,12.18-5.81,21.88-3.92,28.83
					c0.56,2.05,2.2,3.64,4.25,4.17c7.26,1.88,11.11,2.32,12.97,2.39c0.2,0.56,0.73,0.95,1.35,0.95h8.38c0.95,0,1.83-0.95,2.59-1.96
					c0.68-0.9,2.01-0.9,2.69,0c0.76,1.01,1.65,1.96,2.6,1.96h8.38c0.62,0,1.15-0.39,1.35-0.95c1.87-0.07,5.71-0.52,12.95-2.39
					c2.06-0.53,3.7-2.12,4.26-4.17C129.42,118.75,128.1,109.05,123.61,96.87L123.61,96.87z M84.85,47.55l0.13-0.6l5.19,6.61
					c0.56,0.72,1.42,1.13,2.33,1.13h8.42c0.87,0,1.69-0.4,2.23-1.08l4.85-6.18c0.15-0.19,0.45-0.12,0.51,0.12v0
					c0.78,3.58,0.48,7.3-0.77,10.75c-0.07,0.2-0.1,0.42-0.08,0.64l0.81,7.39c0.08,0.76-0.29,1.51-0.95,1.9l-10.48,5.44
					c-0.23,0.12-0.5,0.12-0.73,0l-10.48-5.44c-0.66-0.39-1.03-1.13-0.95-1.9l0.81-7.39c0.02-0.23-0.01-0.45-0.09-0.67
					C84.33,54.84,84.07,51.13,84.85,47.55L84.85,47.55z M82.68,58.57c0.04,0.13,0.08,0.25,0.13,0.38l-0.77,7.06
					c-0.21,1.92,0.72,3.83,2.44,4.73c0,0,0.01,0,0.01,0L95,76.21c0.53,0.27,1.11,0.41,1.69,0.41c0.58,0,1.16-0.14,1.68-0.41
					l10.51-5.46c0,0,0.01,0,0.01-0.01c1.71-0.9,2.65-2.8,2.44-4.72l-0.78-7.07c0.04-0.1,0.07-0.2,0.1-0.3
					c0.64,1.73,1.35,3.9,1.97,6.32c2.38,9.33,1.55,15.5,0.32,19.17c-3.67,1.67-7.75,8.5-8.98,10.67
					c-3.02,5.35-5.54,11.55-7.31,17.89c-1.77-6.33-4.29-12.54-7.31-17.89c-1.23-2.17-5.31-9.01-8.98-10.67
					C77.41,75.42,80.52,64.44,82.68,58.57L82.68,58.57z M82.69,129.38c-1.71-0.11-5.31-0.56-11.96-2.28
					c-1.05-0.27-1.91-1.08-2.2-2.13c-3.32-12.16,5.43-31.87,9.23-39.57c0.01,0,0.01,0,0.02,0c-0.22,2.37-1.54,12.41,3.6,25.44
					c1.17,2.96,3.46,8.54,4.08,11.31l0.41,1.72c0.22,0.92-0.14,1.88-0.89,2.45C83.83,127.18,82.65,128.24,82.69,129.38L82.69,129.38
					z M124.77,124.93c-0.29,1.06-1.13,1.89-2.19,2.17c-6.64,1.72-10.24,2.17-11.96,2.28c0.04-1.2-1.46-2.27-2.73-3.13
					c-0.63-0.42-0.86-1.22-0.57-1.92l0.49-1.96c0.85-2.88,2.75-9.01,3.92-11.97c5.13-13,4.03-22.57,3.81-24.98c0,0,0,0,0.01,0
					C119.34,93.12,128.06,112.77,124.77,124.93L124.77,124.93z M124.77,124.93"/>
				<path class="st5" d="M92.52,62c-0.35,0.01-0.72,0.07-1.09,0.18c-0.37,0.11-0.72,0.25-1.03,0.43c-0.43,0.24-1.04,0.13-1-0.35
					c0.06-0.87,0.67-1.66,1.56-1.92c0.89-0.26,1.8,0.1,2.26,0.82C93.48,61.56,93.01,61.98,92.52,62z"/>
				<path class="st5" d="M100.97,62c0.35,0.01,0.72,0.07,1.09,0.18c0.37,0.11,0.72,0.25,1.03,0.43c0.43,0.24,1.04,0.13,1-0.35
					c-0.06-0.87-0.67-1.66-1.56-1.92c-0.89-0.26-1.8,0.1-2.26,0.82C100.01,61.56,100.48,61.98,100.97,62z"/>
			</g>
			<ellipse class="st5" cx="67.78" cy="41.24" rx="1.63" ry="1"/>
			<ellipse class="st5" cx="75.29" cy="41.24" rx="1.63" ry="1"/>
		</g>
	</g>
</g>
<g id="Layer_10">
</g>
<g id="Layer_11">
</g>
<g id="Layer_12">
</g>
<g id="Layer_13">
</g>
<g id="Layer_14">
</g>
</svg>
