<?xml version="1.0" encoding="utf-8"?>
<!-- Generator: Adobe Illustrator 25.2.0, SVG Export Plug-In . SVG Version: 6.00 Build 0)  -->
<svg version="1.1" xmlns="http://www.w3.org/2000/svg" xmlns:xlink="http://www.w3.org/1999/xlink" x="0px" y="0px"
	 viewBox="0 0 150 150" style="enable-background:new 0 0 150 150;" xml:space="preserve">
<style type="text/css">
	.st0{fill:#63C035;}
	.st1{display:none;fill:#FFFFFF;}
	.st2{display:none;fill:#63C132;}
	.st3{fill:#63C132;}
	.st4{display:none;fill:#234125;}
	.st5{fill:#1E3F20;}
	.st6{fill:#FFFFFF;}
	.st7{display:none;}
	.st8{display:inline;}
	.st9{opacity:0.15;fill:#1E3F20;}
	.st10{opacity:0.7;fill:none;stroke:#FFFFFF;stroke-width:5;stroke-miterlimit:10;}
	.st11{opacity:0.7;}
	.st12{fill:#DB4A39;}
	.st13{fill:#3B5998;}
	.st14{fill:none;stroke:#FFFFFF;stroke-width:7.5;stroke-miterlimit:10;}
	.st15{fill:#234125;}
	.st16{fill:none;stroke:#1E3F20;stroke-width:7.5;stroke-miterlimit:10;}
	.st17{fill:none;stroke:#1E3F20;stroke-width:5.5;stroke-miterlimit:10;}
	.st18{fill:#1A1A1A;}
	.st19{opacity:0.2;fill:#1E3F20;}
	.st20{fill:none;stroke:#1E3F20;stroke-width:4;stroke-miterlimit:10;}
	.st21{fill:none;stroke:#1E3F20;stroke-width:6;stroke-miterlimit:10;}
	.st22{display:none;opacity:0.2;fill:#1E3F20;}
	.st23{fill:#1E3F20;stroke:#1E3F20;stroke-width:0.75;stroke-miterlimit:10;}
	.st24{fill:#1E3F20;stroke:#1E3F20;stroke-miterlimit:10;}
	.st25{fill-rule:evenodd;clip-rule:evenodd;fill:#1E3F20;}
	.st26{display:none;fill:#1E3F20;}
	.st27{opacity:0.2;fill:#FFFFFF;}
	.st28{fill-rule:evenodd;clip-rule:evenodd;fill:#FFFFFF;}
	.st29{opacity:0.5;fill:#1E3F20;}
	.st30{opacity:0.95;fill:#1E3F20;}
	.st31{opacity:0.75;fill:#FFFFFF;}
	.st32{fill:#FFFFFF;stroke:#1E3F20;stroke-width:0.75;stroke-miterlimit:10;}
	.st33{fill:#FFFFFF;stroke:#1A1A1A;stroke-width:0.75;stroke-miterlimit:10;}
	.st34{clip-path:url(#SVGID_2_);fill:#FFFFFF;}
	.st35{display:none;fill:#006837;}
	.st36{opacity:0.75;}
	.st37{fill:none;stroke:#234125;stroke-width:4;stroke-miterlimit:10;}
	.st38{fill:none;stroke:#234125;stroke-width:3;stroke-miterlimit:10;}
</style>
<g id="Layer_2">
</g>
<g id="Layer_1">
</g>
<g id="Layer_3">
	<g id="Layer_4_copy" class="st7">
	</g>
	<g id="Layer_4_copy_2" class="st7">
	</g>
	<g id="Layer_4" class="st7">
	</g>
	<g id="Layer_4_copy_3" class="st7">
	</g>
	<g id="Layer_4_copy_5">
	</g>
	<g id="Layer_4_copy_4" class="st7">
	</g>
</g>
<g id="Layer_15">
	<g>
		<g>
			<g id="_x31_4_1_">
				<g>
					<path class="st5" d="M49.05,131.25c0.75,1.04,1.2,1.8,1.98,1.68c19.25-1.61,20.77-18.68,33.8-7.25
						c-0.31-0.41,9.28,7.02,17.64,6.99c0.82,0,1.6-0.38,2.12-1.02c6.48-7.9,6.32-22.06-0.77-28.41c-0.55-0.49-1.29-0.73-2.02-0.62
						c-15.27,2.38-15.21,9.07-23.83,10.75c-0.84,0.16-1.71,0.14-2.54-0.06c-8.18-2.02-8.36-8.29-23.38-10.69
						c-0.7-0.11-1.41,0.12-1.93,0.6C42.62,109.99,43.28,123.97,49.05,131.25z"/>
					<path id="_x31_3" class="st6" d="M71.69,113.69v3.84l-6.39-0.99l3.47,1.16l-3.47,1.16l6.39-0.99v3.84c0,0-5.64,5.1-18.63,6.79
						c-4.28-4.24-3.56-10.8-3.56-10.8s-0.73-6.56,3.56-10.8C66.05,108.59,71.69,113.69,71.69,113.69z M104.4,117.69
						c0,0,0.73-6.56-3.56-10.8c-12.99,1.69-18.63,6.79-18.63,6.79v3.84l6.39-0.99l-3.47,1.16l3.47,1.16l-6.39-0.99v3.84
						c0,0,5.64,5.1,18.63,6.79C105.13,124.25,104.4,117.69,104.4,117.69z M48.73,119.31c-0.02-0.54-0.03-1.08-0.03-1.62
						c-0.02-2.94,0.25-5.96,1.81-8.62c0.56-0.96,1.3-1.86,2.26-2.57c9.43,0.49,16.05,4.83,16.05,4.83s-7.7-5.22-16.82-6.16
						c-2.95,3.06-4.81,6.88-5.04,10.82c-0.24,4.23,0.51,8.28,3.14,11.96c0.28,0.39,0.57,0.76,0.87,1.13
						c0.12,0.14,0.85,1.15,1.02,1.14c9.13-0.94,16.82-6.16,16.82-6.16s-6.62,4.34-16.05,4.83
						C49.65,126.56,48.83,122.64,48.73,119.31z M104.77,108.92c-0.37-0.64-0.78-1.26-1.23-1.86c-0.18-0.24-1.32-1.92-1.61-1.89
						c-9.13,0.94-16.82,6.16-16.82,6.16s6.62-4.34,16.05-4.83c3.03,2.27,3.88,6.06,4.02,9.31c0.16,3.73,0.12,7.9-2.23,11.21
						c-0.24,0.34-0.51,0.67-0.81,0.98c-0.14,0.14-0.76,0.88-0.98,0.87c-9.43-0.49-16.05-4.83-16.05-4.83s7.7,5.22,16.82,6.16
						c2.95-3.05,4.84-6.9,5.04-10.85C107.14,115.73,106.68,112.23,104.77,108.92z M80.13,117.15c-0.13-1.19-0.37-2.07-0.58-2.68
						c-2.16,0.54-2.6,0.38-2.6,0.38s-0.44,0.16-2.6-0.38c-0.21,0.6-0.45,1.49-0.58,2.68c-0.22-1.22-0.21-2.15-0.1-2.86
						c-0.41-0.11-0.88-0.25-1.4-0.41v3.81v3.81c0.52-0.16,0.98-0.29,1.4-0.41c-0.11-0.7-0.12-1.63,0.1-2.86
						c0.13,1.19,0.37,2.07,0.58,2.68c2.16-0.54,2.6-0.38,2.6-0.38s0.44-0.16,2.6,0.38c0.21-0.6,0.45-1.49,0.58-2.68
						c0.22,1.22,0.21,2.15,0.1,2.86c0.41,0.11,0.88,0.25,1.4,0.41v-3.81v-3.81c-0.52,0.16-0.98,0.29-1.4,0.41
						C80.35,114.99,80.36,115.93,80.13,117.15z"/>
				</g>
			</g>
			<g>
				<path class="st5" d="M134.45,65.6L134.45,65.6C134.45,65.6,134.45,65.59,134.45,65.6c-0.01-0.01-0.01-0.02-0.01-0.03
					c-7.05-16.67-19.65-27.68-29.8-26.86l-2.38-0.1c-1.37-0.06-2.69-0.77-3.34-1.98c-2.23-4.21-11.97-7.33-21.96-7.33
					S57.23,32.42,55,36.62c-0.65,1.22-1.96,1.93-3.34,1.98l-2.38,0.1c-10.15-0.81-22.75,10.2-29.8,26.86c0,0.01-0.01,0.02-0.01,0.02
					c0,0,0,0,0,0l0,0c-0.67,1.65-1.07,3.63-1.07,5.77c0,5.71,1.12,10.11,4.91,11.71c4.04,2.67,6.58,7.13,6.58,15.9
					c0,2.18,1.09,4.09,2.75,5.25c1.03,0.72,2.28,1.14,3.63,1.14c0.62,0,1.22-0.09,1.79-0.26c4.74-0.82,9.58-3.9,11.41-10.3
					c-0.04,8.13,5.19,14.87,12.28,15.5c1.28,0.11,2.61,0.05,3.91-0.17c0.06,0.15,0.12,0.28,0.15,0.37
					c1.38,3.31,5.87,3.45,11.21,3.45c5.13,0,9.48,0.04,11.04-3.06c0.07-0.14,0.19-0.41,0.31-0.71c1.26,0.19,2.54,0.23,3.76,0.12
					c7.11-0.63,12.35-7.41,12.28-15.56c1.82,6.45,6.67,9.54,11.42,10.36c0.57,0.17,1.17,0.26,1.79,0.26c1.35,0,2.6-0.42,3.63-1.14
					c1.66-1.15,2.75-3.07,2.75-5.25c0-8.77,2.55-13.23,6.58-15.9c3.79-1.6,4.91-6,4.91-11.71C135.51,69.23,135.12,67.25,134.45,65.6
					z"/>
				<path class="st3" d="M130.87,65.78L130.87,65.78C130.87,65.78,130.87,65.78,130.87,65.78c0-0.01-0.01-0.02-0.01-0.03
					c-6.61-15.5-18.42-25.75-27.93-24.99l-2.23-0.09c-1.36-0.06-2.54-0.85-3.23-2.02c-2.27-3.82-11.26-6.64-20.48-6.64
					s-18.21,2.82-20.48,6.64c-0.69,1.17-1.87,1.96-3.23,2.02l-2.23,0.09c-9.51-0.76-21.32,9.49-27.93,24.99
					c0,0.01-0.01,0.01-0.01,0.02c0,0,0,0,0,0l0,0c-0.63,1.53-1,3.38-1,5.37c0,5.31,1.05,9.4,4.6,10.89
					c3.78,2.48,5.15,5.62,5.15,13.78c0,2.02,1.02,3.81,2.58,4.88c0.97,0.67,2.08,0.74,3.35,0.74c0.58,0,1.14-0.09,1.68-0.24
					c4.73-0.81,8.11-4.11,9.01-11.44c1.05-16.06-0.49-31.52,0.36-34.51c1.17-4.11,5.33-5.46,2.43,1.25
					c-1.19,2.76,0.65,19.69,0.12,33.93c-0.02,0.46,0.35,0.83,0.81,0.83l18.96-5.28c3.64-0.82,7.42-0.83,11.07-0.03l19.56,5.31
					c0.46,0,0.82-0.37,0.81-0.83c-0.52-14.23,1.32-31.17,0.12-33.93c-2.9-6.71,1.26-5.36,2.43-1.25c0.85,2.99-0.69,18.44,0.36,34.51
					c0.9,7.33,4.27,10.63,9.01,11.44c0.53,0.15,1.09,0.24,1.68,0.24c1.27,0,2.38-0.08,3.35-0.74c1.56-1.07,2.58-2.86,2.58-4.88
					c0-8.15,1.37-11.3,5.15-13.78c3.55-1.48,4.6-5.58,4.6-10.89C131.87,69.16,131.5,67.31,130.87,65.78z M64.51,66.65
					c-2.62,0.49-4.88-1.75-4.38-4.35c0.28-1.45,1.47-2.63,2.93-2.9c2.62-0.49,4.88,1.75,4.38,4.35
					C67.16,65.2,65.97,66.38,64.51,66.65z M90.9,66.65c-2.62,0.49-4.88-1.75-4.38-4.35c0.28-1.45,1.47-2.63,2.93-2.9
					c2.62-0.49,4.88,1.75,4.38,4.35C93.55,65.2,92.36,66.38,90.9,66.65z"/>
				<g>
					<path class="st6" d="M76.37,103.07c-1.95,2.49-4.88,5.26-8.19,5.84c-0.4,0.07-0.64,0.39-0.49,0.69
						c1.15,2.3,4.89,2.21,9.33,2.21c4.27,0,7.88,0.22,9.19-1.94c0.18-0.3-0.05-0.65-0.47-0.73c-3.36-0.63-6.32-3.48-8.25-6.07
						C77.24,102.75,76.63,102.75,76.37,103.07z"/>
					<path class="st6" d="M102.79,91.6c-0.19-3.35-3.98-7.05-7.98-9.01c-6.49-3.43-10.12-7.87-11.54-11.9c0,0-2.46-4.79-2.19-16.53
						c0.23-9.75,0.29-17.85,0.11-21.33c-0.02-0.37-0.31-0.67-0.69-0.7c-1.17-0.09-2.35-0.14-3.54-0.14c-1.19,0-2.38,0.05-3.55,0.14
						c-0.38,0.03-0.67,0.33-0.69,0.7c-0.18,3.48-0.11,11.57,0.11,21.33c0.27,11.74-2.19,16.53-2.19,16.53
						c-1.42,4.04-5.05,8.47-11.54,11.9c-4,1.96-7.8,5.67-7.98,9.01c-0.78,8.33,4.37,15.52,11.51,16.15
						c5.91,0.52,12.84-2.63,13.08-10.57c0.02-0.62-0.23-1.23-0.71-1.64l-4.5-3.89c-1.71-1.85-0.37-4.8,2.18-4.8h8.35
						c2.55,0,3.9,2.95,2.18,4.8l-4.52,3.91c-0.44,0.38-0.71,0.91-0.71,1.48c0.04,8.21,7.35,11.24,13.3,10.72
						C98.42,107.11,103.56,99.93,102.79,91.6z"/>
				</g>
			</g>
			<path class="st29" d="M72.75,62.21c-0.25,3.31-3.53,7.37-9.02,11.58c-5.49,4.21-10.11,1.81-12.06-0.3
				c-2.59-2.8-6.21-10.17-1.13-14.83c5.08-4.66,15.4-3.8,19.75-1.86C71.72,57.43,72.99,58.9,72.75,62.21z M102.25,73.48
				c-1.95,2.11-6.56,4.51-12.06,0.3c-5.49-4.21-8.78-8.27-9.02-11.58c-0.24-3.31,1.02-4.77,2.46-5.41
				c4.34-1.93,14.66-2.8,19.75,1.86C108.46,63.31,104.84,70.68,102.25,73.48z"/>
			<path class="st6" d="M107.68,61.15c-0.48-1.37-1.31-2.69-2.61-3.87c-1.51-1.38-3.51-2.43-5.87-3.12
				c-2.07-0.6-4.42-0.92-6.96-0.92H61.67c-2.54,0-4.89,0.32-6.96,0.92c-2.36,0.68-4.36,1.73-5.87,3.12c-1.3,1.19-2.12,2.5-2.61,3.87
				c-1.82,5.17,1.36,11.11,3.77,13.72c0.16,0.17,0.42,0.43,0.76,0.73c1.19,1.02,3.46,2.5,6.61,2.5c2.5,0,4.99-0.93,7.39-2.77
				c1.98-1.52,3.69-3.01,5.11-4.46c3.18-3.24,4.94-6.26,5.13-8.9c0.02-0.33,0.03-0.65,0.03-0.95c0.14-0.76,0.19-1.21,0.19-1.21
				s1.2-0.33,1.67-0.34v0H77v0c0.47,0,1.68,0.34,1.68,0.34s0.05,0.44,0.19,1.21c0,0.3,0.01,0.62,0.03,0.95
				c0.2,2.64,1.96,5.66,5.14,8.9c1.42,1.45,3.13,2.94,5.11,4.46c2.4,1.84,4.89,2.77,7.39,2.77c3.15,0,5.42-1.48,6.61-2.5
				c0.35-0.3,0.6-0.56,0.76-0.73C106.32,72.26,109.5,66.32,107.68,61.15z M72.75,62.21c-0.25,3.31-3.53,7.37-9.02,11.58
				c-5.49,4.21-10.11,1.81-12.06-0.3c-2.59-2.8-6.21-10.17-1.13-14.83c5.08-4.66,15.4-3.8,19.75-1.86
				C71.72,57.43,72.99,58.9,72.75,62.21z M77.01,57.84c-0.02,0-0.07,0-0.1,0c-0.65,0.02-2.39,0.15-2.39,0.15
				c-0.32-0.79-0.76-1.41-1.25-1.89c-0.5-0.49-1.06-0.83-1.59-1.06c-0.33-0.15-0.68-0.28-1.05-0.41c-0.03-0.01-0.06-0.03-0.08-0.04
				c0,0,4.81-0.23,6.42-0.23c1.6,0,6.41,0.23,6.41,0.23c-0.02,0.01-0.06,0.03-0.09,0.04c-0.37,0.13-0.73,0.27-1.05,0.41
				c-0.53,0.24-1.09,0.58-1.59,1.06c-0.49,0.48-0.93,1.09-1.24,1.89C79.4,57.99,77.66,57.87,77.01,57.84z M102.25,73.48
				c-1.95,2.11-6.56,4.51-12.06,0.3c-5.49-4.21-8.78-8.27-9.02-11.58c-0.24-3.31,1.02-4.77,2.46-5.41
				c4.34-1.93,14.66-2.8,19.75,1.86C108.46,63.31,104.84,70.68,102.25,73.48z"/>
		</g>
	</g>
</g>
<g id="Layer_10">
</g>
<g id="Layer_11">
</g>
<g id="Layer_12">
</g>
<g id="Layer_13">
</g>
<g id="Layer_14">
</g>
</svg>
