<?xml version="1.0" encoding="utf-8"?>
<!-- Generator: Adobe Illustrator 25.2.0, SVG Export Plug-In . SVG Version: 6.00 Build 0)  -->
<svg version="1.1" xmlns="http://www.w3.org/2000/svg" xmlns:xlink="http://www.w3.org/1999/xlink" x="0px" y="0px"
	 viewBox="0 0 150 150" style="enable-background:new 0 0 150 150;" xml:space="preserve">
<style type="text/css">
	.st0{fill:#63C035;}
	.st1{display:none;fill:#FFFFFF;}
	.st2{display:none;fill:#63C132;}
	.st3{fill:#63C132;}
	.st4{display:none;fill:#234125;}
	.st5{fill:#1E3F20;}
	.st6{fill:#FFFFFF;}
	.st7{display:none;}
	.st8{display:inline;}
	.st9{opacity:0.15;fill:#1E3F20;}
	.st10{opacity:0.7;fill:none;stroke:#FFFFFF;stroke-width:5;stroke-miterlimit:10;}
	.st11{opacity:0.7;}
	.st12{fill:#DB4A39;}
	.st13{fill:#3B5998;}
	.st14{fill:none;stroke:#FFFFFF;stroke-width:7.5;stroke-miterlimit:10;}
	.st15{fill:#234125;}
	.st16{fill:none;stroke:#1E3F20;stroke-width:7.5;stroke-miterlimit:10;}
	.st17{fill:none;stroke:#1E3F20;stroke-width:5.5;stroke-miterlimit:10;}
	.st18{fill:#1A1A1A;}
	.st19{opacity:0.2;fill:#1E3F20;}
	.st20{fill:none;stroke:#1E3F20;stroke-width:4;stroke-miterlimit:10;}
	.st21{fill:none;stroke:#1E3F20;stroke-width:6;stroke-miterlimit:10;}
	.st22{display:none;opacity:0.2;fill:#1E3F20;}
	.st23{fill:#1E3F20;stroke:#1E3F20;stroke-width:0.75;stroke-miterlimit:10;}
	.st24{fill:#1E3F20;stroke:#1E3F20;stroke-miterlimit:10;}
	.st25{fill-rule:evenodd;clip-rule:evenodd;fill:#1E3F20;}
	.st26{display:none;fill:#1E3F20;}
	.st27{opacity:0.2;fill:#FFFFFF;}
	.st28{fill-rule:evenodd;clip-rule:evenodd;fill:#FFFFFF;}
	.st29{opacity:0.5;fill:#1E3F20;}
	.st30{opacity:0.95;fill:#1E3F20;}
	.st31{opacity:0.75;fill:#FFFFFF;}
	.st32{fill:#FFFFFF;stroke:#1E3F20;stroke-width:0.75;stroke-miterlimit:10;}
	.st33{fill:#FFFFFF;stroke:#1A1A1A;stroke-width:0.75;stroke-miterlimit:10;}
	.st34{clip-path:url(#SVGID_2_);fill:#FFFFFF;}
	.st35{display:none;fill:#006837;}
	.st36{opacity:0.75;}
	.st37{fill:none;stroke:#234125;stroke-width:4;stroke-miterlimit:10;}
	.st38{fill:none;stroke:#234125;stroke-width:3;stroke-miterlimit:10;}
</style>
<g id="Layer_2">
</g>
<g id="Layer_1">
</g>
<g id="Layer_3">
	<g id="Layer_4_copy" class="st7">
	</g>
	<g id="Layer_4_copy_2" class="st7">
	</g>
	<g id="Layer_4" class="st7">
	</g>
	<g id="Layer_4_copy_3" class="st7">
	</g>
	<g id="Layer_4_copy_5">
	</g>
	<g id="Layer_4_copy_4" class="st7">
	</g>
</g>
<g id="Layer_15">
	<g>
		<g>
			<path class="st5" d="M101.07,131.42c0-5.17-3.15-11.9-3.15-11.9c-6.65,0.9-17.89,8.08-18.67,8.58c-0.32-0.21-1.15-0.49-3.3-0.49
				c-2.15,0-2.98,0.28-3.3,0.49c-0.77-0.5-12.02-7.68-18.67-8.58c0,0-3.15,6.74-3.15,11.9c0,5.16,3.15,11.9,3.15,11.9
				c6.65-0.9,17.89-8.08,18.67-8.58c0.32,0.21,1.15,0.49,3.3,0.49c2.15,0,2.98-0.28,3.3-0.49c0.78,0.5,12.02,7.68,18.67,8.58
				C97.92,143.32,101.07,136.58,101.07,131.42z"/>
			<g>
				<path class="st5" d="M127.42,84.58L127.42,84.58C127.42,84.58,127.42,84.58,127.42,84.58c0-0.01-0.01-0.02-0.01-0.03
					c-6.31-14.92-17.59-24.78-26.68-24.05l-2.13-0.09c-1.23-0.05-2.41-0.69-2.99-1.77c-2-3.77-10.72-6.56-19.66-6.56
					s-17.66,2.8-19.66,6.56c-0.58,1.09-1.76,1.72-2.99,1.77l-2.13,0.09c-9.09-0.73-20.37,9.13-26.68,24.05
					c0,0.01-0.01,0.01-0.01,0.02c0,0,0,0,0,0l0,0c-0.6,1.48-0.95,3.25-0.95,5.17c0,5.11,1.01,9.05,4.4,10.48
					c3.61,2.39,5.89,6.39,5.89,14.23c0,1.95,0.98,3.66,2.46,4.7c0.92,0.64,2.04,1.02,3.25,1.02c0.56,0,1.09-0.08,1.6-0.23
					c4.24-0.73,8.57-3.49,10.21-9.22c-0.03,7.28,4.65,13.31,11,13.88c1.15,0.1,2.34,0.05,3.5-0.15c0.05,0.13,0.1,0.25,0.14,0.33
					c1.24,2.96,5.26,3.09,10.04,3.09c4.59,0,8.48,0.04,9.88-2.74c0.06-0.13,0.17-0.37,0.28-0.63c1.13,0.17,2.27,0.2,3.37,0.11
					c6.36-0.57,11.05-6.63,11-13.93c1.63,5.77,5.97,8.54,10.23,9.28c0.51,0.15,1.04,0.23,1.6,0.23c1.21,0,2.33-0.38,3.25-1.02
					c1.49-1.03,2.46-2.75,2.46-4.7c0-7.85,2.28-11.85,5.89-14.23c3.39-1.43,4.4-5.37,4.4-10.48
					C128.38,87.84,128.02,86.06,127.42,84.58z"/>
				<path class="st3" d="M124.22,84.75L124.22,84.75C124.22,84.75,124.22,84.75,124.22,84.75c0-0.01-0.01-0.02-0.01-0.02
					c-5.91-13.88-16.49-23.05-25-22.37l-2-0.08c-1.22-0.05-2.27-0.76-2.89-1.81c-2.03-3.42-10.08-5.95-18.34-5.95
					s-16.3,2.52-18.34,5.95c-0.62,1.04-1.67,1.76-2.89,1.81l-2,0.08c-8.52-0.68-19.09,8.49-25,22.37c0,0.01-0.01,0.01-0.01,0.02
					c0,0,0,0,0,0l0,0c-0.56,1.37-0.89,3.03-0.89,4.81c0,4.75,0.94,8.42,4.12,9.75c3.39,2.22,4.61,5.03,4.61,12.33
					c0,1.81,0.91,3.41,2.31,4.37c0.87,0.6,1.86,0.67,3,0.67c0.52,0,1.02-0.08,1.5-0.22c4.24-0.73,7.26-3.68,8.06-10.24
					C51.4,91.83,50.02,78,50.78,75.32c1.05-3.68,4.77-4.89,2.18,1.12c-1.07,2.47,0.58,17.63,0.11,30.37
					c-0.02,0.41,0.31,0.75,0.73,0.75l16.97-4.73c3.26-0.73,6.65-0.74,9.91-0.03l17.51,4.76c0.41,0,0.74-0.33,0.72-0.74
					c-0.47-12.74,1.18-27.9,0.11-30.37c-2.59-6.01,1.13-4.8,2.18-1.12c0.76,2.67-0.62,16.51,0.32,30.89
					c0.81,6.56,3.82,9.52,8.06,10.24c0.48,0.14,0.98,0.22,1.5,0.22c1.13,0,2.13-0.07,3-0.67c1.39-0.96,2.31-2.56,2.31-4.37
					c0-7.3,1.22-10.11,4.61-12.33c3.18-1.33,4.12-4.99,4.12-9.75C125.12,87.77,124.79,86.12,124.22,84.75z M64.81,85.53
					c-2.35,0.44-4.37-1.56-3.92-3.89c0.25-1.29,1.31-2.35,2.62-2.6c2.35-0.44,4.37,1.56,3.92,3.89
					C67.19,84.23,66.12,85.29,64.81,85.53z M88.44,85.53c-2.35,0.44-4.37-1.56-3.92-3.89c0.25-1.29,1.31-2.35,2.62-2.6
					c2.35-0.44,4.37,1.56,3.92,3.89C90.81,84.23,89.74,85.29,88.44,85.53z"/>
				<g>
					<path class="st6" d="M75.43,118.13c-1.75,2.23-4.37,4.71-7.33,5.23c-0.36,0.06-0.58,0.35-0.44,0.62
						c1.03,2.06,4.37,1.98,8.35,1.98c3.82,0,7.06,0.2,8.22-1.73c0.16-0.27-0.04-0.58-0.42-0.65c-3.01-0.56-5.66-3.12-7.38-5.43
						C76.21,117.84,75.66,117.84,75.43,118.13z"/>
					<path class="st6" d="M99.08,107.86c-0.17-2.99-3.56-6.31-7.15-8.07c-5.81-3.07-9.06-7.04-10.33-10.66c0,0-2.2-4.29-1.96-14.8
						c0.2-8.73,0.26-15.98,0.1-19.09c-0.02-0.33-0.28-0.6-0.62-0.62c-1.04-0.08-2.1-0.13-3.16-0.13c-1.07,0-2.13,0.05-3.18,0.13
						c-0.34,0.03-0.6,0.29-0.62,0.62c-0.16,3.11-0.1,10.36,0.1,19.09c0.24,10.51-1.96,14.8-1.96,14.8
						c-1.27,3.61-4.52,7.58-10.33,10.66c-3.58,1.76-6.98,5.07-7.15,8.07c-0.7,7.46,3.91,13.89,10.3,14.46
						c5.29,0.47,11.49-2.36,11.71-9.47c0.02-0.56-0.2-1.1-0.63-1.47l-4.03-3.48c-1.53-1.65-0.33-4.3,1.95-4.3h7.48
						c2.29,0,3.49,2.64,1.95,4.3l-4.04,3.5c-0.39,0.34-0.64,0.82-0.63,1.33c0.03,7.35,6.58,10.07,11.9,9.59
						C95.17,121.75,99.78,115.32,99.08,107.86z"/>
				</g>
			</g>
			<path class="st5" d="M51.93,109.02c-0.09,1.72-0.14,3.45-0.17,5.15c-0.02,1.7,0.01,3.37,0.08,4.99c0.07,1.62,0.11,3.18,0.24,4.66
				c0.13,1.48,0.14,2.88,0.19,4.18c0.08,2.59,0.14,4.74,0.19,6.25c0.03,1.51,0.05,2.37,0.05,2.37h0.19c0,0,0.02-0.86,0.05-2.37
				c0.05-1.51,0.11-3.66,0.19-6.25c0.05-1.29,0.05-2.69,0.19-4.18c0.13-1.48,0.17-3.05,0.24-4.66c0.08-1.62,0.1-3.29,0.08-4.99
				c-0.02-1.7-0.08-3.42-0.17-5.15c-0.07-1.72-0.15-3.45-0.15-5.15c-0.01-1.7,0.05-3.37,0.15-4.99c0.07-1.62,0.17-3.18,0.18-4.66
				c0.01-1.48-0.04-2.88-0.07-4.18c-0.1-2.59-0.25-4.74-0.41-6.25c-0.08-0.79-0.15-1.4-0.2-1.8l1.77,0.57l0.06-0.18
				c0,0.11,0.01,0.24,0.01,0.41c0,0.22,0.03,0.49,0.08,0.81c0.04,0.32,0.09,0.69,0.19,1.1c0.19,0.8,0.46,1.8,1.03,2.85
				c0.56,1.05,1.38,2.18,2.59,3.1c1.2,0.92,2.8,1.57,4.54,1.74c0.45,0.02,0.85,0.04,1.35,0.02c0.41-0.05,0.8-0.07,1.29-0.19
				c0.93-0.17,1.76-0.53,2.59-0.94c1.63-0.88,3.04-2.17,4.11-3.74c1.04-1.59,1.74-3.42,1.86-5.45c0.05-0.89-0.02-1.98-0.25-2.94
				c-0.25-0.97-0.63-1.91-1.16-2.76c-1.07-1.7-2.62-3.04-4.37-3.87c-0.88-0.4-1.8-0.7-2.72-0.81c-0.46-0.09-0.92-0.09-1.37-0.12
				c-0.55,0.01-0.84,0.04-1.3,0.09c-1.84,0.25-3.37,0.92-4.58,1.86c-1.2,0.94-2.02,2.08-2.59,3.13c-0.57,1.06-0.83,2.05-1.02,2.86
				c-0.09,0.41-0.15,0.77-0.18,1.09c-0.04,0.32-0.08,0.59-0.07,0.81c0,0.06,0,0.1-0.01,0.15c-0.51-0.18-1.76-0.59-2-0.38
				c-0.4,0.35-0.32,2.04-0.37,2.58c-0.15,1.51-0.3,3.67-0.41,6.25c-0.04,1.29-0.09,2.69-0.07,4.18c0.01,1.48,0.11,3.05,0.19,4.66
				c0.09,1.62,0.15,3.29,0.14,4.99C52.09,105.57,52.01,107.29,51.93,109.02z M55.87,81.53l0.02-0.07c0,0-0.01-0.01-0.02-0.01
				c0.01-0.06,0.01-0.13,0.02-0.21c0-0.21,0.04-0.47,0.09-0.77c0.04-0.3,0.14-0.64,0.25-1.01c0.23-0.74,0.62-1.61,1.26-2.43
				c0.63-0.83,1.49-1.61,2.52-2.22c1.02-0.59,2.27-1.06,3.5-1.19c1.39-0.12,2.74,0.07,4.08,0.65c0.67,0.28,1.3,0.7,1.89,1.18
				c0.58,0.5,1.1,1.1,1.56,1.75c0.45,0.67,0.81,1.41,1.1,2.19c0.28,0.8,0.44,1.57,0.52,2.52c0.03,0.81-0.02,1.72-0.21,2.57
				c-0.22,0.84-0.54,1.65-0.99,2.38c-0.46,0.71-1,1.37-1.64,1.88c-0.64,0.51-1.33,0.91-2.05,1.17c-0.71,0.26-1.46,0.44-2.14,0.47
				c-0.32,0.05-0.73,0.02-1.1,0.02c-0.29-0.01-0.67-0.05-0.99-0.1c-1.33-0.2-2.51-0.7-3.55-1.31c-1.02-0.63-1.87-1.42-2.51-2.25
				c-0.65-0.82-1.03-1.69-1.26-2.44c-0.11-0.37-0.22-0.71-0.25-1.01c-0.05-0.3-0.09-0.55-0.09-0.77c-0.03-0.42-0.04-0.64-0.04-0.65
				C55.85,81.89,55.86,81.77,55.87,81.53z"/>
			<g>
				<path class="st25" d="M105.47,62.01c3.59,0.62,7.19,1.19,10.77,1.89c0.68,0.13,1.73,0.83,1.69,1.2
					c-0.06,0.59-0.75,1.38-1.41,1.64c-2.48,0.96-4.99,2-7.62,2.54c-17.71,3.65-35.27,2.99-52.49-2.06c-4.42-1.3-8.51-3.48-12.65-5.4
					c-0.78-0.36-1.11-1.43-1.65-2.18c0.88-0.43,1.74-1.17,2.65-1.24c3.39-0.23,6.79-0.31,10.19-0.29c1.44,0.01,2.06-0.29,2.44-1.56
					c4.03-13.57,4.04-27.21,0.94-40.89c-0.29-1.28,0.06-1.85,1.5-1.98c2.85-0.25,5.7-0.64,8.56-0.71
					c15.23-0.37,30.09,1.42,44.44,5.96c1.29,0.41,2.48,1.02,3.87,1.61c-8.15,12.97-12.62,26.53-12.65,41.22
					C104.69,61.87,105.08,61.95,105.47,62.01z M102.24,19.67c-0.4-0.03-1.17,0.8-1.32,1.33c-2.19,7.6-4.61,15.17-6.33,22.85
					c-1.38,6.22-1.89,12.58-2.77,18.89c-0.1,0.73-0.1,1.47-0.17,2.72c2.3-0.37,4.36-0.63,6.36-1.07c0.42-0.09,0.9-0.85,0.92-1.31
					c0.49-14.52,4.05-28.46,10.72-41.82c0.07-0.15,0.04-0.33,0.07-0.66C107.22,20.27,104.74,19.87,102.24,19.67z"/>
				<path class="st28" d="M109.71,20.6c-2.49-0.33-4.97-0.73-7.47-0.93c-0.4-0.03-1.17,0.8-1.32,1.33
					c-2.19,7.6-4.61,15.17-6.33,22.85c-1.38,6.22-1.89,12.58-2.77,18.89c-0.1,0.73-0.1,1.47-0.17,2.72c2.3-0.37,4.36-0.63,6.36-1.07
					c0.42-0.09,0.9-0.85,0.92-1.31c0.49-14.52,4.05-28.46,10.72-41.82C109.72,21.12,109.68,20.93,109.71,20.6z"/>
			</g>
		</g>
	</g>
</g>
<g id="Layer_10">
</g>
<g id="Layer_11">
</g>
<g id="Layer_12">
</g>
<g id="Layer_13">
</g>
<g id="Layer_14">
</g>
</svg>
