<?xml version="1.0" encoding="utf-8"?>
<!-- Generator: Adobe Illustrator 25.2.0, SVG Export Plug-In . SVG Version: 6.00 Build 0)  -->
<svg version="1.1" xmlns="http://www.w3.org/2000/svg" xmlns:xlink="http://www.w3.org/1999/xlink" x="0px" y="0px"
	 viewBox="0 0 150 150" style="enable-background:new 0 0 150 150;" xml:space="preserve">
<style type="text/css">
	.st0{fill:#63C035;}
	.st1{display:none;fill:#FFFFFF;}
	.st2{display:none;fill:#63C132;}
	.st3{fill:#63C132;}
	.st4{display:none;fill:#234125;}
	.st5{fill:#1E3F20;}
	.st6{fill:#FFFFFF;}
	.st7{display:none;}
	.st8{display:inline;}
	.st9{opacity:0.15;fill:#1E3F20;}
	.st10{opacity:0.7;fill:none;stroke:#FFFFFF;stroke-width:5;stroke-miterlimit:10;}
	.st11{opacity:0.7;}
	.st12{fill:#DB4A39;}
	.st13{fill:#3B5998;}
	.st14{fill:none;stroke:#FFFFFF;stroke-width:7.5;stroke-miterlimit:10;}
	.st15{fill:#234125;}
	.st16{fill:none;stroke:#1E3F20;stroke-width:7.5;stroke-miterlimit:10;}
	.st17{fill:none;stroke:#1E3F20;stroke-width:5.5;stroke-miterlimit:10;}
	.st18{fill:#1A1A1A;}
	.st19{opacity:0.2;fill:#1E3F20;}
	.st20{fill:none;stroke:#1E3F20;stroke-width:4;stroke-miterlimit:10;}
	.st21{fill:none;stroke:#1E3F20;stroke-width:6;stroke-miterlimit:10;}
	.st22{display:none;opacity:0.2;fill:#1E3F20;}
	.st23{fill:#1E3F20;stroke:#1E3F20;stroke-width:0.75;stroke-miterlimit:10;}
	.st24{fill:#1E3F20;stroke:#1E3F20;stroke-miterlimit:10;}
	.st25{fill-rule:evenodd;clip-rule:evenodd;fill:#1E3F20;}
	.st26{display:none;fill:#1E3F20;}
	.st27{opacity:0.2;fill:#FFFFFF;}
	.st28{fill-rule:evenodd;clip-rule:evenodd;fill:#FFFFFF;}
	.st29{opacity:0.5;fill:#1E3F20;}
	.st30{opacity:0.95;fill:#1E3F20;}
	.st31{opacity:0.75;fill:#FFFFFF;}
	.st32{fill:#FFFFFF;stroke:#1E3F20;stroke-width:0.75;stroke-miterlimit:10;}
	.st33{fill:#FFFFFF;stroke:#1A1A1A;stroke-width:0.75;stroke-miterlimit:10;}
	.st34{clip-path:url(#SVGID_2_);fill:#FFFFFF;}
	.st35{display:none;fill:#006837;}
	.st36{opacity:0.75;}
	.st37{fill:none;stroke:#234125;stroke-width:4;stroke-miterlimit:10;}
	.st38{fill:none;stroke:#234125;stroke-width:3;stroke-miterlimit:10;}
</style>
<g id="Layer_2">
</g>
<g id="Layer_1">
</g>
<g id="Layer_3">
	<g id="Layer_4_copy" class="st7">
	</g>
	<g id="Layer_4_copy_2" class="st7">
	</g>
	<g id="Layer_4" class="st7">
	</g>
	<g id="Layer_4_copy_3" class="st7">
	</g>
	<g id="Layer_4_copy_5">
	</g>
	<g id="Layer_4_copy_4" class="st7">
	</g>
</g>
<g id="Layer_15">
	<g>
		<g>
			<g>
				<path class="st5" d="M39.71,77.75c0.36,0.24,0.42,0.73,0.17,1.08c-12,16.19-8.8,27.97-8.8,27.97
					c1.75,8.73,12.3,19.78,23.15,19.5c17.16-0.44,9.37-5.55,20.78-5.55c11.4,0.01,4.38,5.56,20.78,5.55
					c10.85-0.01,21.41-10.77,23.15-19.5c0,0,3.19-11.78-8.79-27.96c-0.26-0.35-0.19-0.86,0.17-1.1c5.48-3.62,14.76-5.33,10.32-17.54
					c-2.89-7.94-14.11-0.09-16.45,5.81c-0.22,0.55-0.92,0.7-1.36,0.31c-3.65-3.26-8.43-6.04-12.99-7.36
					c-9.67-2.78-19.98-2.78-29.65,0c-4.57,1.31-9.36,4.1-13.01,7.37c-0.43,0.39-1.12,0.23-1.34-0.3
					c-2.33-5.9-13.57-13.77-16.46-5.82C24.92,72.43,34.23,74.13,39.71,77.75z"/>
				<path class="st3" d="M43.3,78.08c-0.04,0.2-0.13,0.39-0.25,0.55c-11.03,14.34-9.19,23.66-9.19,23.66
					c-0.27,10.79,9.17,20.2,18.89,20.26c15.05,0.09,12.31-4.87,22.32-4.95c10.02,0.08,7.76,5.86,22.32,4.95
					c9.7-0.61,19.16-9.47,18.89-20.26c0,0,1.85-9.63-9.19-23.97c-0.13-0.16-0.22-0.36-0.26-0.56l-0.03-0.14
					c-0.12-0.59,0.17-1.18,0.7-1.46c5.25-2.69,14.39-4.63,10.3-13.65c-2.6-5.73-10.8,2.33-12.93,7.49
					c-0.27,0.65-1.11,0.75-1.56,0.21c-3.71-4.41-9.58-6.9-15.04-8.31c-8.72-2.26-17.85-2.21-26.54,0.16
					c-5.39,1.47-11.18,3.99-14.87,8.37c-0.46,0.55-1.32,0.43-1.59-0.23c-2.08-5.19-10.39-13.38-12.97-7.68
					c-4.09,9.02,5.03,11.37,10.28,14.11C43.13,76.9,43.41,77.49,43.3,78.08z"/>
				<g>
					<path class="st6" d="M41.07,102.76c-3.9,0-7.06-2.37-7.06-5.3c-0.49,3.1-0.4,4.87-0.4,4.87c0.07,10.81,9.42,20.17,19.14,20.22
						c15.05,0.09,12.31-4.87,22.32-4.95c10.02,0.08,7.76,5.86,22.32,4.95c9.7-0.61,18.65-8.57,19.01-20.11c0,0,0.24-1.99-0.29-5.26
						c0.01,0.09,0.02,0.18,0.02,0.27c0,2.93-3.19,5.31-7.13,5.31c-1.47,0-3.96-0.39-6.54-1.77c-3.65-2.06-7.63-3.19-13.72-3.19
						c-5.33,0-10.16,1.01-13.74,2.64c-3.57-1.63-8.4-2.64-13.74-2.64c-6.06,0-9.6,1.15-13.26,3.19
						C45.81,102.28,42.48,102.76,41.07,102.76z"/>
				</g>
				<g>
					<path class="st5" d="M70.96,96.51c1.47-0.02,2.57,0.07,3.97-0.01c1.39-0.07,2.65-0.27,3.94-0.42c1.78-0.2,3.77,0.56,3.34,2.78
						c-0.76,3.99-3.44,6.99-6.77,7.17c-3.34,0.18-6.32-2.52-7.5-6.4C67.27,97.48,69.17,96.54,70.96,96.51z"/>
					<g>
						<g>
							<path class="st5" d="M74.4,105.28c0.34,3.67,1.4,7.84,5.51,8.75c3.84,0.86,8.53-1.43,8.56-5.72c0.01-1.16-1.79-1.16-1.8,0
								c-0.02,3.48-4.64,5-7.41,3.6c-2.38-1.2-2.84-4.24-3.05-6.63C76.09,104.14,74.29,104.13,74.4,105.28L74.4,105.28z"/>
						</g>
					</g>
					<g>
						<g>
							<path class="st5" d="M74.5,105.13c0.1,2.34,0.13,5.33-1.92,6.91c-2.35,1.82-7.45,1.19-7.91-2.27c-0.16-1.21-2.08-1.22-1.92,0
								c0.58,4.29,5.31,6.03,9.13,4.77c4.07-1.34,4.7-5.68,4.54-9.41C76.37,103.9,74.45,103.89,74.5,105.13L74.5,105.13z"/>
						</g>
					</g>
				</g>
			</g>
			<path class="st5" d="M84.64,87.12c-0.38,1.69,1.64,0.2,3.62-0.01c1.98-0.21,4.12,0.87,3.54-0.74c-0.59-1.66-3-1.8-3.8-1.71
				C87.11,84.74,85.03,85.39,84.64,87.12z"/>
			<circle class="st5" cx="60.72" cy="85.52" r="3.45"/>
			<path class="st5" d="M99.87,127.78c0-5.12-3.12-11.78-3.12-11.78c-6.59,0.9-17.71,8-18.48,8.5c-0.32-0.21-1.14-0.48-3.26-0.48
				c-2.13,0-2.95,0.27-3.27,0.48c-0.77-0.5-11.9-7.6-18.48-8.5c0,0-3.12,6.67-3.12,11.78c0,5.11,3.12,11.78,3.12,11.78
				c6.59-0.9,17.72-8,18.48-8.5c0.32,0.21,1.14,0.48,3.27,0.48c2.13,0,2.95-0.27,3.26-0.48c0.77,0.5,11.9,7.6,18.48,8.5
				C96.75,139.56,99.87,132.9,99.87,127.78z"/>
			<path class="st5" d="M47.93,112.24c-0.09,1.71-0.14,3.42-0.16,5.1c-0.02,1.68,0.01,3.33,0.08,4.94c0.07,1.6,0.11,3.15,0.24,4.62
				c0.13,1.47,0.14,2.86,0.19,4.14c0.08,2.56,0.14,4.7,0.18,6.19c0.03,1.49,0.05,2.35,0.05,2.35h0.18c0,0,0.02-0.85,0.05-2.35
				c0.05-1.49,0.11-3.63,0.19-6.19c0.05-1.28,0.05-2.67,0.18-4.14c0.13-1.47,0.16-3.02,0.24-4.62c0.08-1.6,0.1-3.26,0.08-4.94
				c-0.02-1.68-0.08-3.39-0.16-5.1c-0.07-1.71-0.15-3.42-0.15-5.1c-0.01-1.68,0.05-3.34,0.14-4.94c0.07-1.6,0.17-3.15,0.18-4.62
				c0.01-1.47-0.04-2.86-0.07-4.14c-0.1-2.56-0.25-4.7-0.4-6.19c-0.08-0.78-0.15-1.38-0.2-1.78l1.75,0.56l0.06-0.18
				c0,0.11,0.01,0.24,0.01,0.41c0,0.22,0.03,0.49,0.08,0.8c0.04,0.32,0.09,0.68,0.18,1.08c0.19,0.8,0.45,1.78,1.02,2.83
				c0.55,1.04,1.36,2.16,2.57,3.07c1.19,0.91,2.77,1.55,4.49,1.72c0.44,0.02,0.84,0.04,1.34,0.02c0.41-0.05,0.8-0.07,1.27-0.18
				c0.92-0.17,1.75-0.52,2.57-0.93c1.61-0.88,3.01-2.15,4.07-3.7c1.03-1.58,1.72-3.39,1.85-5.4c0.05-0.88-0.02-1.96-0.25-2.91
				c-0.25-0.96-0.63-1.89-1.15-2.73c-1.06-1.68-2.6-3.01-4.33-3.83c-0.87-0.4-1.78-0.69-2.7-0.8c-0.46-0.09-0.91-0.09-1.36-0.12
				c-0.54,0.01-0.83,0.04-1.29,0.08c-1.82,0.24-3.33,0.91-4.54,1.84c-1.19,0.93-2,2.06-2.56,3.1c-0.56,1.05-0.83,2.03-1.01,2.83
				c-0.09,0.4-0.15,0.77-0.18,1.08c-0.04,0.32-0.08,0.58-0.07,0.8c0,0.06,0,0.1-0.01,0.15c-0.5-0.18-1.74-0.59-1.98-0.38
				c-0.4,0.35-0.31,2.02-0.37,2.56c-0.15,1.5-0.3,3.63-0.4,6.19c-0.04,1.28-0.09,2.67-0.07,4.14c0.01,1.47,0.11,3.02,0.18,4.62
				c0.09,1.6,0.15,3.25,0.14,4.94C48.08,108.83,48,110.53,47.93,112.24z M51.83,85.03l0.02-0.07c0,0-0.01-0.01-0.02-0.01
				c0.01-0.06,0.01-0.13,0.02-0.2c0-0.21,0.04-0.46,0.09-0.76c0.04-0.3,0.14-0.63,0.25-1c0.23-0.73,0.61-1.59,1.25-2.41
				c0.62-0.82,1.47-1.59,2.49-2.2c1.01-0.58,2.25-1.05,3.46-1.18c1.38-0.12,2.71,0.07,4.04,0.64c0.66,0.28,1.28,0.69,1.87,1.17
				c0.58,0.49,1.09,1.09,1.54,1.73c0.44,0.66,0.8,1.39,1.08,2.17c0.28,0.8,0.43,1.55,0.51,2.49c0.03,0.8-0.02,1.71-0.21,2.54
				c-0.22,0.83-0.54,1.64-0.98,2.36c-0.46,0.71-0.99,1.36-1.62,1.86c-0.63,0.5-1.32,0.9-2.03,1.16c-0.7,0.25-1.45,0.43-2.12,0.46
				c-0.32,0.05-0.72,0.02-1.09,0.02c-0.29-0.01-0.66-0.05-0.98-0.1c-1.31-0.2-2.49-0.69-3.51-1.29c-1.01-0.63-1.86-1.4-2.48-2.22
				c-0.64-0.81-1.02-1.68-1.25-2.41c-0.11-0.37-0.21-0.7-0.24-1c-0.05-0.3-0.09-0.55-0.09-0.76c-0.03-0.42-0.04-0.64-0.04-0.64
				C51.81,85.39,51.82,85.26,51.83,85.03z"/>
			<g>
				<path class="st25" d="M105.01,66.3c3.99,0.69,7.99,1.32,11.95,2.1c0.75,0.15,1.92,0.92,1.88,1.33
					c-0.06,0.65-0.83,1.53-1.57,1.82c-2.76,1.07-5.54,2.22-8.46,2.82c-19.66,4.06-39.17,3.32-58.28-2.29
					c-4.91-1.44-9.45-3.86-14.05-6c-0.87-0.4-1.24-1.59-1.84-2.42c0.98-0.48,1.93-1.3,2.95-1.37c3.76-0.26,7.54-0.35,11.31-0.32
					c1.6,0.01,2.29-0.32,2.71-1.73c4.48-15.07,4.48-30.21,1.05-45.41c-0.32-1.42,0.06-2.06,1.66-2.2c3.17-0.28,6.33-0.72,9.5-0.79
					c16.91-0.41,33.42,1.58,49.34,6.62c1.43,0.45,2.75,1.14,4.3,1.79c-9.05,14.4-14.02,29.46-14.05,45.77
					C104.15,66.15,104.58,66.23,105.01,66.3z M101.42,19.29c-0.45-0.04-1.3,0.89-1.47,1.48c-2.43,8.44-5.12,16.84-7.02,25.37
					c-1.53,6.91-2.1,13.97-3.08,20.97c-0.11,0.81-0.11,1.63-0.19,3.02c2.55-0.41,4.84-0.7,7.06-1.19c0.47-0.1,1-0.94,1.02-1.45
					c0.54-16.13,4.5-31.6,11.91-46.43c0.08-0.16,0.04-0.37,0.07-0.73C106.95,19.95,104.2,19.51,101.42,19.29z"/>
				<path class="st28" d="M109.72,20.32c-2.77-0.37-5.52-0.82-8.3-1.03c-0.45-0.04-1.3,0.89-1.47,1.48
					c-2.43,8.44-5.12,16.84-7.02,25.37c-1.53,6.91-2.1,13.97-3.08,20.97c-0.11,0.81-0.11,1.63-0.19,3.02
					c2.55-0.41,4.84-0.7,7.06-1.19c0.47-0.1,1-0.94,1.02-1.45c0.54-16.13,4.5-31.6,11.91-46.43
					C109.73,20.9,109.69,20.69,109.72,20.32z"/>
			</g>
		</g>
	</g>
</g>
<g id="Layer_10">
</g>
<g id="Layer_11">
</g>
<g id="Layer_12">
</g>
<g id="Layer_13">
</g>
<g id="Layer_14">
</g>
</svg>
