<?xml version="1.0" encoding="utf-8"?>
<!-- Generator: Adobe Illustrator 25.2.0, SVG Export Plug-In . SVG Version: 6.00 Build 0)  -->
<svg version="1.1" id="Layer_1" xmlns="http://www.w3.org/2000/svg" xmlns:xlink="http://www.w3.org/1999/xlink" x="0px" y="0px"
	 viewBox="0 0 150 150" style="enable-background:new 0 0 150 150;" xml:space="preserve">
<style type="text/css">
	.st0{fill:#63C132;}
	.st1{display:none;}
	.st2{display:inline;fill:#63C132;}
	.st3{display:inline;}
	.st4{fill:#1E3F20;}
	.st5{fill:#FFFFFF;}
	.st6{display:inline;fill:#FFFFFF;}
	.st7{display:inline;fill:#1E3F20;}
	.st8{fill:#1E3F20;stroke:#1E3F20;stroke-width:0.75;stroke-miterlimit:10;}
	.st9{fill:#63C035;}
	.st10{display:none;fill:#FFFFFF;}
	.st11{display:none;fill:#63C132;}
	.st12{display:none;fill:#234125;}
	.st13{fill:none;}
	.st14{opacity:0.15;fill:#1E3F20;enable-background:new    ;}
	.st15{opacity:0.7;fill:none;stroke:#FFFFFF;stroke-width:5;stroke-miterlimit:10;enable-background:new    ;}
	.st16{opacity:0.7;}
	.st17{fill:#DB4A39;}
	.st18{fill:#3B5998;}
	.st19{fill:none;stroke:#FFFFFF;stroke-width:7.5;stroke-miterlimit:10;}
	.st20{fill:#234125;}
	.st21{fill:none;stroke:#1E3F20;stroke-width:7.5;stroke-miterlimit:10;}
	.st22{fill:none;stroke:#1E3F20;stroke-width:5.5;stroke-miterlimit:10;}
	.st23{fill:#1A1A1A;}
	.st24{opacity:0.2;fill:#1E3F20;enable-background:new    ;}
	.st25{fill:none;stroke:#1E3F20;stroke-width:4;stroke-miterlimit:10;}
	.st26{fill:none;stroke:#1E3F20;stroke-width:6;stroke-miterlimit:10;}
	.st27{display:none;opacity:0.2;fill:#1E3F20;enable-background:new    ;}
	.st28{fill:#1E3F20;stroke:#1E3F20;stroke-miterlimit:10;}
	.st29{fill-rule:evenodd;clip-rule:evenodd;fill:#1E3F20;}
	.st30{display:none;fill:#1E3F20;}
	.st31{opacity:0.2;fill:#FFFFFF;enable-background:new    ;}
	.st32{fill-rule:evenodd;clip-rule:evenodd;fill:#FFFFFF;}
	.st33{opacity:0.5;fill:#1E3F20;enable-background:new    ;}
	.st34{opacity:0.95;fill:#1E3F20;enable-background:new    ;}
	.st35{fill:#63C132;stroke:#1E3F20;stroke-width:4;stroke-miterlimit:10;}
	.st36{fill-rule:evenodd;clip-rule:evenodd;fill:#FFFFFF;stroke:#1E3F20;stroke-width:4;stroke-miterlimit:10;}
	.st37{fill:#63C132;stroke:#1E3F20;stroke-width:3.5;stroke-miterlimit:10;}
	.st38{fill:#63C132;stroke:#1E3F20;stroke-width:5;stroke-miterlimit:10;}
	.st39{fill:#FFFFFF;stroke:#1E3F20;stroke-miterlimit:10;}
	.st40{opacity:0.75;fill:#FFFFFF;enable-background:new    ;}
	.st41{fill:#FFFFFF;stroke:#1E3F20;stroke-width:0.75;stroke-miterlimit:10;}
	.st42{fill:#FFFFFF;stroke:#1A1A1A;stroke-width:0.75;stroke-miterlimit:10;}
	.st43{clip-path:url(#SVGID_2_);fill:#FFFFFF;}
	.st44{display:none;fill:#006837;}
	.st45{opacity:0.75;}
	.st46{fill:none;stroke:#234125;stroke-width:4;stroke-miterlimit:10;}
	.st47{fill:none;stroke:#234125;stroke-width:3;stroke-miterlimit:10;}
	.st48{fill-rule:evenodd;clip-rule:evenodd;fill:#63C132;}
	.st49{fill:none;stroke:#1E3F20;stroke-width:5;stroke-miterlimit:10;}
	.st50{fill:#63C132;stroke:#1E3F20;stroke-width:2;stroke-miterlimit:10;}
	.st51{fill:#1E3F20;stroke:#1E3F20;stroke-width:2;stroke-miterlimit:10;}
	.st52{fill:#63C132;stroke:#1E3F20;stroke-width:3;stroke-miterlimit:10;}
	.st53{fill:#63C132;stroke:#1E3F20;stroke-miterlimit:10;}
	.st54{display:none;fill:#63C132;stroke:#1E3F20;stroke-width:2;stroke-miterlimit:10;}
	.st55{fill:#63C132;stroke:#FFFFFF;stroke-width:0.75;stroke-miterlimit:10;}
	.st56{fill:#63C132;stroke:#FFFFFF;stroke-width:0.5;stroke-miterlimit:10;}
	.st57{enable-background:new    ;}
	.st58{display:inline;fill-rule:evenodd;clip-rule:evenodd;fill:#1E3F20;}
	.st59{display:inline;fill-rule:evenodd;clip-rule:evenodd;fill:#FFFFFF;}
	.st60{fill:#FFFFFF;stroke:#1E3F20;stroke-width:5;stroke-linecap:round;stroke-linejoin:round;stroke-miterlimit:10;}
	.st61{fill:#FFFFFF;stroke:#1E3F20;stroke-width:6;stroke-linecap:round;stroke-linejoin:round;stroke-miterlimit:10;}
	.st62{fill:none;stroke:#000000;stroke-width:5;stroke-miterlimit:10;}
	.st63{fill:#FFFFFF;stroke:#1E3F20;stroke-width:5;stroke-miterlimit:10;}
	.st64{clip-path:url(#SVGID_4_);}
	.st65{clip-path:url(#SVGID_8_);}
	.st66{clip-path:url(#SVGID_10_);}
	.st67{clip-path:url(#SVGID_12_);}
	.st68{opacity:0.7;fill:none;stroke:#FFFFFF;stroke-width:2;stroke-miterlimit:10;enable-background:new    ;}
	.st69{fill:none;stroke:#1E3F20;stroke-width:3;stroke-miterlimit:10;}
	.st70{fill:none;stroke:#1E3F20;stroke-width:2;stroke-miterlimit:10;}
	.st71{fill:#FFFFFF;stroke:#1E3F20;stroke-width:3;stroke-miterlimit:10;}
	.st72{clip-path:url(#SVGID_14_);fill:#63C132;}
	.st73{clip-path:url(#SVGID_14_);fill:#FFFFFF;stroke:#1E3F20;stroke-width:3;stroke-miterlimit:10;}
	.st74{fill:#FFFFFF;enable-background:new    ;}
	.st75{fill:#63C132;enable-background:new    ;}
	.st76{fill:#3B5998;enable-background:new    ;}
	.st77{fill:#DB4A39;enable-background:new    ;}
	.st78{clip-path:url(#SVGID_18_);}
	.st79{clip-path:url(#SVGID_20_);fill:#FFFFFF;}
	.st80{fill:#63C132;stroke:#1E3F20;stroke-width:9;stroke-miterlimit:10;}
	.st81{clip-path:url(#SVGID_22_);}
	.st82{fill:#FFFFFF;stroke:#1E3F20;stroke-width:0.5;stroke-miterlimit:10;}
	.st83{fill:#FFFFFF;stroke:#FFFFFF;stroke-width:0.25;stroke-miterlimit:10;}
	.st84{fill:none;stroke:#234125;stroke-width:5;stroke-miterlimit:10;}
	.st85{clip-path:url(#SVGID_23_);fill:#6AB53A;}
	.st86{clip-path:url(#SVGID_24_);fill:#6AB53A;}
	.st87{fill:#6AB53A;stroke:#234125;stroke-width:3;stroke-miterlimit:10;}
	.st88{fill:#234125;stroke:#234125;stroke-width:10;stroke-miterlimit:10;}
	.st89{fill:#71B746;}
	.st90{fill:#63C132;stroke:#234125;stroke-width:5;stroke-miterlimit:10;}
	.st91{fill:#AEDEFF;}
</style>
<g id="Layer_15">
</g>
<g id="Capa_41">
	<ellipse class="st5" cx="103.9" cy="66.9" rx="39.1" ry="39.9"/>
	<g>
		<path class="st4" d="M126.7,33.8c8.4,5.2,14.3,12.5,17.6,21.8c1.9,5.4,2.7,11,2.4,16.7c-0.5,9.2-3.7,17.4-9.4,24.6
			c-5.9,7.5-13.5,12.5-22.6,15.2c-4.7,1.4-9.5,2-14.4,1.8c-6.3-0.3-12.3-1.7-18-4.4c-8-3.8-14.5-9.5-19.3-16.9
			c-3.3-5.1-5.6-10.7-6.7-16.6c-1-5.1-1.2-10.3-0.5-15.5c1-7.9,3.8-15.2,8.3-21.7c7.2-10.3,17-17,29.3-20c2.6-0.6,5.2-0.9,7.9-1.3
			l0.1,19.4C88,37.5,78.6,43.9,72.7,55.7c-2.4,4.8-3.3,10-3.1,15.3c0.4,9.1,3.9,17,10.3,23.4c5.1,5.1,11.3,8.4,18.4,9.7
			c9.5,1.8,18.5,0,26.7-5.1c2.3-1.4,4.5-3.1,6.4-5.1c5.9-6,9.6-13.1,10.9-21.4c1.1-7,0.3-13.9-2.3-20.5c-3-7.6-8-13.8-14.7-18.4
			L126.7,33.8z"/>
		<path class="st4" d="M123.1,34.2c-2.3,0-4.6,0-6.8,0c-1.4,0-1.6-0.2-1.6-1.6c0-0.4,0-0.9,0-1.3c0-0.9,0.4-1.2,1.3-1.2
			c2.2,0,4.4,0,6.5,0c0.2,0,0.4,0,0.6,0c0-0.3,0-0.6,0-0.9c0-2.2,0-4.4,0-6.5c0-1.1,0.3-1.4,1.4-1.4c0.5,0,1.1,0,1.6,0
			c0.9,0,1.3,0.4,1.3,1.3c0,2.3,0,4.6,0,6.9c0,0.2,0,0.3,0,0.6c0.4,0,0.8,0,1.2,0c2,0,3.9,0,5.9,0c1,0,1.3,0.3,1.4,1.3
			c0,0.5,0,1,0,1.4c0,0.9-0.4,1.3-1.3,1.3c-2.2,0-4.3,0-6.5,0c-0.2,0-0.4,0-0.7,0c0,1.4,0,2.8,0,4.1c0,1.2,0,2.3,0,3.5
			c0,0.9-0.4,1.3-1.3,1.3c-0.6,0-1.2,0-1.8,0c-0.8,0-1.2-0.4-1.2-1.3c0-2.3,0-4.6,0-7C123.2,34.7,123.1,34.5,123.1,34.2z"/>
	</g>
	<g class="st57">
		<path class="st4" d="M95.2,59.7c0-0.7,0.1-1.4,0.2-2.1c0.4-2.2,1.3-4.1,2.7-5.9c1.4-1.8,3.2-3.2,5.5-4.2c2.3-1,5-1.6,8.1-1.6
			c4.1,0,7.2,0.9,9.2,2.7c2.1,1.8,3.1,4.1,3.1,6.9c0,0.7-0.1,1.4-0.2,2.1c-0.4,2.2-1.3,4.2-2.7,5.8c-1.4,1.7-3.1,3-5.2,3.9
			c1.8,0.7,3.2,1.8,4.2,3.3c1,1.5,1.5,3.3,1.5,5.3c0,0.5-0.1,1.3-0.2,2.4c-0.5,2.7-1.5,5-3.2,7s-3.8,3.5-6.3,4.6
			c-2.5,1.1-5.3,1.6-8.3,1.6c-4,0-7.2-1-9.6-2.9c-2.4-1.9-3.6-4.5-3.6-7.9c0-0.9,0.1-1.8,0.2-2.6c0.5-2.7,1.5-5,3.1-6.9
			c1.6-1.9,3.6-3.3,6-4.1C96.8,65.6,95.2,63,95.2,59.7z M100.7,72.2c-1.9,1.3-3,3.2-3.5,5.8c-0.1,0.4-0.1,0.9-0.1,1.6
			c0,1.9,0.7,3.5,2,4.6c1.3,1.1,3.2,1.7,5.6,1.7c2,0,3.8-0.4,5.3-1.2c1.5-0.8,2.7-2,3.6-3.4c0.9-1.5,1.3-3.1,1.3-4.9
			c0-2-0.7-3.5-2-4.5c-1.3-1-3.2-1.5-5.5-1.5C104.8,70.2,102.6,70.9,100.7,72.2z M104.8,53.3c-1.6,1.2-2.6,2.9-3,5.2
			c-0.1,0.6-0.1,1-0.1,1.2c0,1.7,0.6,3,1.8,4c1.2,1,2.8,1.5,4.8,1.5c1.7,0,3.2-0.4,4.6-1.1c1.4-0.7,2.5-1.7,3.3-3
			c0.8-1.2,1.2-2.6,1.2-4.2c0-1.7-0.6-3.1-1.8-4c-1.2-0.9-2.8-1.4-5-1.4C108.4,51.5,106.4,52.1,104.8,53.3z"/>
	</g>
	<g>
		<path class="st5" d="M67.6,107.1c-1.7-4-5.6-6.8-10.1-6.8h-22c-6.1,0-11,5-11,11.2v3.4c0,1,0.1,1.9,0.4,2.9v7.4
			c0,3.1,2.5,5.6,5.5,5.6h32.9c3.1,0,5.5-2.5,5.5-5.6v-14.5C68.9,109.2,68.4,108,67.6,107.1z"/>
		<ellipse class="st20" cx="46.7" cy="102.5" rx="6.6" ry="5.1"/>
		<path class="st20" d="M45.1,131c-18,4-24.9,0.4-30.3-10.5c-3.6-7.3-1.6-18.2,3.1-25.5c-4.2-1.2-8.6-2.8-12.7-9.2
			c-4.9-7.6,0.9-9.4,3.9-17.3c0.9-2.3,2.9-5.8,4.2-7.9c3.9-6.3,8.9-7.7,15.2-3.8c2.6,1.6,5.7,2.1,8.6,1.2c4.1-1.3,8.5-1,12.7-0.7
			c6.1,0.4,11.9,2,18-1.9c3.7-2.3,8.4,0.4,10.8,4.4c3.7,6.2,7.1,12.6,10.1,19.1c2,4.5,0.7,8.8-3.7,11.6c-3.2,2.1-6.5,4.2-10.9,4.4
			c6.3,9.2,6.7,18.6,2.5,28.3c-5.5,12.7-19.6,9.6-27.7,8.2 M25.9,116.5c0,1.7,0,3.3,0,5c0.1,3.3-0.2,7.4,4.2,7.9
			c4.7,0.5,10.3,2.2,13.7-3c3-4.7,1.1-10.1,1.5-15.2c0.3-3.5-3.2-2.3-4.7-3.5c-0.6-0.4-1.3-1.1-1.4-1.6c-0.3-4.2-2.8-5-6.4-4.3
			c-3.9,0.8-6.3,3.1-6.7,7.1 M67.4,108.3c-0.5-4-3.2-6-7-6.7c-3.6-0.7-5.5,0.6-5.9,4.3c-0.1,1.1-1.1,2.1-2.3,2.1
			c-4.1,0.2-4,2.9-3.8,5.9c0.1,2.6,0,5.2,0.1,7.8c0.2,5,2.8,7.7,7.9,8.1c9.9,0.8,11.4-0.5,11.4-10.4c0-0.7,0-1.5,0-2.2 M46.9,105.9
			c1.7-0.4,5,0.7,5-2.5c0-3.2-3.1-1.9-4.8-1.8c-1.9,0.1-5.2-1.5-5.5,1.6C41.3,106.4,44.6,105.6,46.9,105.9z"/>
		<path class="st0" d="M46.7,60.1c20.6-1.5,25,13.5,23.7,29.7c-0.1,1.3-0.5,2.5-1.9,1.9c-1.5-0.6-4.1,0.2-4.4-2.5
			c-0.2-1.5,0-3-0.1-4.5c-0.2-1.9-1.2-3.1-3.3-3.2c-2.3-0.1-3.9,1.4-3.6,3.4c1.1,6.9-3.5,5.8-7.5,5.8c-2.6,0-5.2-0.1-7.9,0
			c-4.1,0.1-8.5,0.8-7.4-5.9c0.3-1.8-1-3.2-3-3.3c-2.3-0.1-3.5,1.1-3.7,3.3c-0.2,1.5,0,3-0.1,4.5c-0.2,1.7-1.8,1.7-3,2.1
			c-1.2,0.3-1.5-0.5-1.8-1.5c-2.8-9.2,1.3-21.5,8.7-26.9C36.2,59.6,41.5,60.1,46.7,60.1z"/>
		<path class="st0" d="M69.4,123c0-4.4,0.1-8.8,0-13.2c-0.2-7.7-3.5-10.7-11.2-11.3c-7.7-0.6-15.3-0.5-22.9,0
			c-7.7,0.6-10.9,3.6-11.1,11.4c-0.1,4.6,0,9.3,0,13.9c-1.7,0.9-2.4-0.3-3.2-1.2c-5.5-6.6-4.5-14.3-2.3-21.3c2-6.3,7.9-8,14.4-7.8
			c9.1,0.3,18.2,0,27.3,0.1c9.1,0,14,4.6,14.5,13.5C75.3,113.2,74.3,122.7,69.4,123z"/>
		<path class="st20" d="M23.6,59.2c2,0,4.2,0.5,5.2,2.2c1,1.7-1.2,2.7-2.1,3.8c-4.9,6.3-6,13.4-5.6,21.1c0.3,5.4-1.4,6.4-6.3,4.1
			c-8.2-3.9-8.3-11-4.9-14.4c3-3,3.8-7.6,6-11.3C17.5,61.8,19.5,59,23.6,59.2z"/>
		<path class="st20" d="M69.1,59.3c3.6-0.3,5.6,2.3,7.1,4.8c2.9,4.9,5.5,10,8.1,15.1c1.3,2.4,1.4,4.8-0.7,6.9
			c-2.6,2.8-5.6,5.1-9.6,5.2c-1.7,0.1-1.7-1.5-1.8-2.7c-0.3-3.9-0.7-7.8-1-11.7c-0.3-4.5-2.5-8.1-5.1-11.5c-1-1.3-3.7-2-2.4-4.1
			C64.9,59.6,67.1,59.2,69.1,59.3z"/>
	</g>
</g>
<ellipse class="st20" cx="35.3" cy="106.7" rx="1.3" ry="1.2"/>
<ellipse class="st20" cx="35.3" cy="114.7" rx="1.3" ry="1.2"/>
<ellipse class="st20" cx="30.9" cy="110.5" rx="1.3" ry="1.2"/>
<ellipse class="st20" cx="57.8" cy="106.7" rx="1.3" ry="1.2"/>
<ellipse class="st20" cx="57.8" cy="114.7" rx="1.3" ry="1.2"/>
<ellipse class="st20" cx="62.2" cy="110.5" rx="1.3" ry="1.2"/>
</svg>
