<?xml version="1.0" encoding="utf-8"?>
<!-- Generator: Adobe Illustrator 25.2.0, SVG Export Plug-In . SVG Version: 6.00 Build 0)  -->
<svg version="1.1" xmlns="http://www.w3.org/2000/svg" xmlns:xlink="http://www.w3.org/1999/xlink" x="0px" y="0px"
	 viewBox="0 0 150 150" style="enable-background:new 0 0 150 150;" xml:space="preserve">
<style type="text/css">
	.st0{fill:#63C035;}
	.st1{display:none;fill:#FFFFFF;}
	.st2{display:none;fill:#63C132;}
	.st3{fill:#63C132;}
	.st4{display:none;fill:#234125;}
	.st5{fill:#1E3F20;}
	.st6{fill:#FFFFFF;}
	.st7{display:none;}
	.st8{display:inline;}
	.st9{opacity:0.15;fill:#1E3F20;}
	.st10{opacity:0.7;fill:none;stroke:#FFFFFF;stroke-width:5;stroke-miterlimit:10;}
	.st11{opacity:0.7;}
	.st12{fill:#DB4A39;}
	.st13{fill:#3B5998;}
	.st14{fill:none;stroke:#FFFFFF;stroke-width:7.5;stroke-miterlimit:10;}
	.st15{fill:#234125;}
	.st16{fill:none;stroke:#1E3F20;stroke-width:7.5;stroke-miterlimit:10;}
	.st17{fill:none;stroke:#1E3F20;stroke-width:5.5;stroke-miterlimit:10;}
	.st18{fill:#1A1A1A;}
	.st19{opacity:0.2;fill:#1E3F20;}
	.st20{fill:none;stroke:#1E3F20;stroke-width:4;stroke-miterlimit:10;}
	.st21{fill:none;stroke:#1E3F20;stroke-width:6;stroke-miterlimit:10;}
	.st22{display:none;opacity:0.2;fill:#1E3F20;}
	.st23{fill:#1E3F20;stroke:#1E3F20;stroke-width:0.75;stroke-miterlimit:10;}
	.st24{fill:#1E3F20;stroke:#1E3F20;stroke-miterlimit:10;}
	.st25{fill-rule:evenodd;clip-rule:evenodd;fill:#1E3F20;}
	.st26{display:none;fill:#1E3F20;}
	.st27{opacity:0.2;fill:#FFFFFF;}
	.st28{fill-rule:evenodd;clip-rule:evenodd;fill:#FFFFFF;}
	.st29{opacity:0.5;fill:#1E3F20;}
	.st30{opacity:0.95;fill:#1E3F20;}
	.st31{opacity:0.75;fill:#FFFFFF;}
	.st32{fill:#FFFFFF;stroke:#1E3F20;stroke-width:0.75;stroke-miterlimit:10;}
	.st33{fill:#FFFFFF;stroke:#1A1A1A;stroke-width:0.75;stroke-miterlimit:10;}
	.st34{clip-path:url(#SVGID_2_);fill:#FFFFFF;}
	.st35{display:none;fill:#006837;}
	.st36{opacity:0.75;}
	.st37{fill:none;stroke:#234125;stroke-width:4;stroke-miterlimit:10;}
	.st38{fill:none;stroke:#234125;stroke-width:3;stroke-miterlimit:10;}
</style>
<g id="Layer_2">
</g>
<g id="Layer_1">
</g>
<g id="Layer_3">
	<g id="Layer_4_copy" class="st7">
	</g>
	<g id="Layer_4_copy_2" class="st7">
	</g>
	<g id="Layer_4" class="st7">
	</g>
	<g id="Layer_4_copy_3" class="st7">
	</g>
	<g id="Layer_4_copy_5">
	</g>
	<g id="Layer_4_copy_4" class="st7">
	</g>
</g>
<g id="Layer_15">
	<g>
		<path class="st22" d="M-98.8,83.75c1.99-2.92,1.99-7.24-0.01-10.15c-18.37-26.75-17.85-67.05,2.05-93.07
			c10.5-13.72,25.05-21.48,40.25-21.46l0.03,0.04c23.69-0.07,53.15,7.51,65.7,36.37C12,1.86,16.31,6.53,21.99,6.53l589.62,0.03
			v144.32H16.04c-2.56,0-4.75,2.2-5.4,5.29c-7.54,35.79-48.72,47.49-77.41,40.7c-30.16-7.14-49.97-43.45-44.26-81.11
			C-109.24,103.9-105.01,92.88-98.8,83.75z"/>
		<g>
			<g>
				<g>
					<path class="st6" d="M76.94,112.13c-2.02,0-3.82,0.46-4.97,1.18v10.24c1.15,0.72,2.95,1.18,4.97,1.18
						c2.02,0,3.82-0.46,4.97-1.18l0-10.24C80.76,112.59,78.96,112.13,76.94,112.13z"/>
					<path class="st6" d="M51.28,106.12c-1.28,3.21-4.42,13.15,0.03,24.57c0.25,0.65,0.9,1.08,1.6,1.06
						c7.84-0.29,13.66-3.46,17.56-6.86c0.36-0.32,0.56-0.78,0.56-1.26v-10.33c0-0.49-0.2-0.96-0.58-1.27
						c-4.02-3.42-10-6.63-17.57-6.96C52.19,105.02,51.54,105.46,51.28,106.12z"/>
					<path class="st6" d="M82.86,113.22v10.46c0,0.44,0.18,0.86,0.51,1.15c3.92,3.43,9.79,6.65,17.71,6.91
						c0.64,0.02,1.23-0.37,1.46-0.96c4.56-11.6,1.28-21.67,0.02-24.77c-0.24-0.59-0.83-0.98-1.46-0.96
						c-7.65,0.3-13.68,3.56-17.72,7.01C83.05,112.35,82.86,112.77,82.86,113.22z"/>
				</g>
				<g>
					<path class="st24" d="M70.46,112.01c-4.02-3.42-10-6.63-17.57-6.96c-0.71-0.03-1.35,0.41-1.61,1.06
						c-1.28,3.21-4.42,13.15,0.03,24.57c0.25,0.65,0.9,1.08,1.6,1.06c7.83-0.29,13.66-3.46,17.56-6.86
						c0.36-0.32,0.56-0.78,0.56-1.26v-10.33C71.04,112.8,70.83,112.33,70.46,112.01z M53.48,124.76c-0.82,0-1.49-0.88-1.49-1.97
						s0.67-1.97,1.49-1.97s1.49,0.88,1.49,1.97S54.31,124.76,53.48,124.76z M53.48,114.61c-0.82,0-1.49-0.83-1.49-1.86
						c0-1.03,0.67-1.86,1.49-1.86s1.49,0.83,1.49,1.86C54.97,113.78,54.31,114.61,53.48,114.61z M57.58,117.59
						c0-0.82,0.67-1.49,1.49-1.49c0.82,0,1.49,0.67,1.49,1.49c0,0.82-0.67,1.49-1.49,1.49C58.24,119.07,57.58,118.41,57.58,117.59z
						 M60.72,128.31c-1.11,0.35-2.17,0.13-2.36-0.49c-0.19-0.61,0.56-1.39,1.67-1.74s2.17-0.13,2.36,0.49
						C62.59,127.19,61.84,127.96,60.72,128.31z M62.4,110.19c-0.19,0.61-1.25,0.83-2.36,0.49c-1.11-0.35-1.86-1.12-1.67-1.74
						c0.19-0.61,1.25-0.83,2.36-0.49C61.84,108.8,62.59,109.57,62.4,110.19z M64.09,122.5c-0.69,0-1.25-0.56-1.25-1.25
						c0-0.69,0.56-1.25,1.25-1.25c0.69,0,1.25,0.56,1.25,1.25C65.34,121.94,64.78,122.5,64.09,122.5z M64.09,115.8
						c-0.69,0-1.25-0.56-1.25-1.25c0-0.69,0.56-1.25,1.25-1.25c0.69,0,1.25,0.56,1.25,1.25C65.34,115.24,64.78,115.8,64.09,115.8z
						 M67.7,126.24c-0.63,0.22-1.25,0.07-1.39-0.33c-0.14-0.4,0.25-0.91,0.88-1.13c0.63-0.22,1.25-0.07,1.39,0.33
						C68.72,125.51,68.33,126.02,67.7,126.24z M68.06,119.13c-0.54,0-0.98-0.44-0.98-0.98s0.44-0.98,0.98-0.98s0.98,0.44,0.98,0.98
						S68.6,119.13,68.06,119.13z M68.1,114.19c-0.57,0-1.03-0.46-1.03-1.03s0.46-1.03,1.03-1.03s1.03,0.46,1.03,1.03
						S68.67,114.19,68.1,114.19z"/>
					<path class="st24" d="M76.94,112.13c-2.02,0-3.82,0.46-4.97,1.18v10.24c1.15,0.72,2.95,1.18,4.97,1.18
						c2.02,0,3.82-0.46,4.97-1.18l0-10.24C80.76,112.59,78.96,112.13,76.94,112.13z M75,122c-0.69,0-1.25-0.56-1.25-1.25
						c0-0.69,0.56-1.25,1.25-1.25c0.69,0,1.25,0.56,1.25,1.25C76.25,121.44,75.69,122,75,122z M75.09,115.8
						c-0.74,0-1.34-0.47-1.34-1.04c0-0.58,0.6-1.04,1.34-1.04c0.74,0,1.34,0.47,1.34,1.04C76.44,115.33,75.83,115.8,75.09,115.8z
						 M77.59,116.78c0-0.69,0.56-1.25,1.25-1.25c0.69,0,1.25,0.56,1.25,1.25s-0.56,1.25-1.25,1.25
						C78.15,118.03,77.59,117.47,77.59,116.78z M79.22,123.22c-0.69,0-1.25-0.44-1.25-0.98c0-0.54,0.56-0.99,1.25-0.99
						c0.69,0,1.25,0.44,1.25,0.99C80.47,122.78,79.91,123.22,79.22,123.22z"/>
					<path class="st24" d="M102.57,106c-0.24-0.59-0.83-0.98-1.46-0.96c-7.65,0.3-13.68,3.56-17.72,7.01
						c-0.34,0.29-0.53,0.72-0.53,1.16v10.46c0,0.44,0.18,0.86,0.51,1.15c3.92,3.43,9.79,6.65,17.71,6.91
						c0.64,0.02,1.23-0.37,1.46-0.96C107.11,119.18,103.83,109.1,102.57,106z M93.18,108.45c1.11-0.35,2.17-0.13,2.36,0.49
						c0.19,0.61-0.56,1.39-1.67,1.74c-1.11,0.35-2.17,0.13-2.36-0.49C91.31,109.57,92.06,108.8,93.18,108.45z M86.84,112.07
						c0.67-0.34,1.37-0.3,1.57,0.09c0.2,0.39-0.18,0.98-0.85,1.32c-0.67,0.34-1.37,0.3-1.57-0.09
						C85.8,113,86.18,112.41,86.84,112.07z M84.86,118.14c0-0.54,0.44-0.98,0.98-0.98c0.54,0,0.98,0.44,0.98,0.98
						s-0.44,0.98-0.98,0.98C85.3,119.13,84.86,118.69,84.86,118.14z M86.52,124.89c-0.46,0-0.84-0.37-0.84-0.84
						c0-0.46,0.37-0.84,0.84-0.84s0.84,0.37,0.84,0.84C87.35,124.52,86.98,124.89,86.52,124.89z M89.81,122.5
						c-0.69,0-1.25-0.56-1.25-1.25c0-0.69,0.56-1.25,1.25-1.25c0.69,0,1.25,0.56,1.25,1.25C91.07,121.94,90.51,122.5,89.81,122.5z
						 M89.81,115.8c-0.69,0-1.25-0.56-1.25-1.25c0-0.69,0.56-1.25,1.25-1.25c0.69,0,1.25,0.56,1.25,1.25
						C91.07,115.24,90.51,115.8,89.81,115.8z M95.54,127.82c-0.19,0.61-1.25,0.83-2.36,0.49c-1.11-0.35-1.86-1.12-1.67-1.74
						c0.19-0.61,1.25-0.83,2.36-0.49C94.98,126.43,95.73,127.21,95.54,127.82z M94.84,119.07c-0.82,0-1.49-0.67-1.49-1.49
						c0-0.82,0.67-1.49,1.49-1.49s1.49,0.67,1.49,1.49C96.32,118.41,95.66,119.07,94.84,119.07z M100.42,124.76
						c-0.82,0-1.49-0.88-1.49-1.97s0.67-1.97,1.49-1.97c0.82,0,1.49,0.88,1.49,1.97S101.24,124.76,100.42,124.76z M100.42,114.61
						c-0.82,0-1.49-0.83-1.49-1.86c0-1.03,0.67-1.86,1.49-1.86c0.82,0,1.49,0.83,1.49,1.86
						C101.9,113.78,101.24,114.61,100.42,114.61z"/>
				</g>
			</g>
			<path class="st5" d="M134.45,64.31L134.45,64.31C134.45,64.31,134.45,64.31,134.45,64.31c-0.01-0.01-0.01-0.02-0.01-0.03
				c-7.05-16.67-19.65-27.68-29.8-26.86l-2.38-0.1c-1.37-0.06-2.69-0.77-3.34-1.98c-2.23-4.21-11.97-7.33-21.96-7.33
				S57.23,31.13,55,35.34c-0.65,1.22-1.96,1.93-3.34,1.98l-2.38,0.1c-10.15-0.81-22.75,10.2-29.8,26.86c0,0.01-0.01,0.02-0.01,0.02
				c0,0,0,0,0,0l0,0c-0.67,1.65-1.07,3.63-1.07,5.77c0,5.71,1.12,10.11,4.91,11.71c4.04,2.67,6.58,7.13,6.58,15.9
				c0,2.18,1.09,4.09,2.75,5.25c1.03,0.72,2.28,1.14,3.63,1.14c0.62,0,1.22-0.09,1.79-0.26c4.74-0.82,9.58-3.9,11.41-10.3
				c-0.04,8.13,5.19,14.87,12.28,15.5c1.28,0.11,2.61,0.05,3.91-0.17c0.06,0.15,0.12,0.28,0.15,0.37c1.38,3.31,5.87,3.45,11.21,3.45
				c5.13,0,9.48,0.04,11.04-3.06c0.07-0.14,0.19-0.41,0.31-0.71c1.26,0.19,2.54,0.23,3.76,0.12c7.11-0.63,12.35-7.41,12.28-15.56
				c1.82,6.45,6.67,9.54,11.42,10.36c0.57,0.17,1.17,0.26,1.79,0.26c1.35,0,2.6-0.42,3.63-1.14c1.66-1.15,2.75-3.07,2.75-5.25
				c0-8.77,2.55-13.23,6.58-15.9c3.79-1.6,4.91-6,4.91-11.71C135.51,67.95,135.12,65.96,134.45,64.31z"/>
			<path class="st3" d="M130.87,64.5L130.87,64.5C130.87,64.5,130.87,64.5,130.87,64.5c0-0.01-0.01-0.02-0.01-0.03
				c-6.61-15.5-18.42-25.75-27.93-24.99l-2.23-0.09c-1.36-0.06-2.54-0.85-3.23-2.02c-2.27-3.82-11.26-6.64-20.48-6.64
				s-18.21,2.82-20.48,6.64c-0.69,1.17-1.87,1.96-3.23,2.02l-2.23,0.09c-9.51-0.76-21.32,9.49-27.93,24.99
				c0,0.01-0.01,0.01-0.01,0.02c0,0,0,0,0,0l0,0c-0.63,1.53-1,3.38-1,5.37c0,5.31,1.05,9.4,4.6,10.89
				c3.78,2.48,5.15,5.62,5.15,13.78c0,2.02,1.02,3.81,2.58,4.88c0.97,0.67,2.08,0.74,3.35,0.74c0.58,0,1.14-0.09,1.68-0.24
				c4.73-0.81,8.11-4.11,9.01-11.44c1.05-16.06-0.49-31.52,0.36-34.51c1.17-4.11,5.33-5.46,2.43,1.25
				c-1.19,2.76,0.65,19.69,0.12,33.93c-0.02,0.46,0.35,0.83,0.81,0.83l18.96-5.28c3.64-0.82,7.42-0.83,11.07-0.03l19.56,5.31
				c0.46,0,0.82-0.37,0.81-0.83c-0.52-14.23,1.32-31.17,0.12-33.93c-2.9-6.71,1.26-5.36,2.43-1.25c0.85,2.99-0.69,18.44,0.36,34.51
				c0.9,7.33,4.27,10.63,9.01,11.44c0.53,0.15,1.09,0.24,1.68,0.24c1.27,0,2.38-0.08,3.35-0.74c1.56-1.07,2.58-2.86,2.58-4.88
				c0-8.15,1.37-11.3,5.15-13.78c3.55-1.48,4.6-5.58,4.6-10.89C131.87,67.88,131.5,66.03,130.87,64.5z M64.51,65.37
				c-2.62,0.49-4.88-1.75-4.38-4.35c0.28-1.45,1.47-2.63,2.93-2.9c2.62-0.49,4.88,1.75,4.38,4.35
				C67.16,63.91,65.97,65.1,64.51,65.37z M90.9,65.37c-2.62,0.49-4.88-1.75-4.38-4.35c0.28-1.45,1.47-2.63,2.93-2.9
				c2.62-0.49,4.88,1.75,4.38,4.35C93.55,63.91,92.36,65.1,90.9,65.37z"/>
			<g>
				<path class="st6" d="M76.37,101.79c-1.95,2.49-4.88,5.26-8.19,5.84c-0.4,0.07-0.64,0.39-0.49,0.69c1.15,2.3,4.89,2.21,9.33,2.21
					c4.27,0,7.88,0.22,9.19-1.94c0.18-0.3-0.05-0.65-0.47-0.73c-3.36-0.63-6.32-3.48-8.25-6.07
					C77.24,101.47,76.63,101.46,76.37,101.79z"/>
				<path class="st6" d="M102.79,90.32c-0.19-3.35-3.98-7.05-7.98-9.01c-6.49-3.43-10.12-7.87-11.54-11.9c0,0-2.46-4.79-2.19-16.53
					c0.23-9.75,0.29-17.85,0.11-21.33c-0.02-0.37-0.31-0.67-0.69-0.7c-1.17-0.09-2.35-0.14-3.54-0.14c-1.19,0-2.38,0.05-3.55,0.14
					c-0.38,0.03-0.67,0.33-0.69,0.7c-0.18,3.48-0.11,11.57,0.11,21.33C73.1,64.6,70.64,69.4,70.64,69.4
					c-1.42,4.04-5.05,8.47-11.54,11.9c-4,1.96-7.8,5.67-7.98,9.01c-0.78,8.33,4.37,15.52,11.51,16.15
					c5.91,0.52,12.84-2.63,13.08-10.57c0.02-0.62-0.23-1.23-0.71-1.64l-4.5-3.89c-1.71-1.85-0.37-4.8,2.18-4.8h8.35
					c2.55,0,3.9,2.95,2.18,4.8l-4.52,3.91c-0.44,0.38-0.71,0.91-0.71,1.48c0.04,8.21,7.35,11.24,13.3,10.72
					C98.42,105.83,103.56,98.65,102.79,90.32z"/>
			</g>
		</g>
		<path class="st5" d="M104.47,68.21c0,0-2.7-0.11-5.53-0.47c-2.87-0.36-4.5-0.62-7.52-0.55c-3.02,0.07-3.39,0.22-4.69,0.29
			c-1.3,0.07-5.76,1.01-6.87,1.15c-1.11,0.14-2.93,0.21-2.93,0.21s-1.81-0.07-2.92-0.21c-1.12-0.14-5.57-1.08-6.87-1.15
			c-1.3-0.07-1.67-0.22-4.69-0.29c-3.02-0.07-4.65,0.19-7.52,0.55c-2.82,0.35-5.53,0.47-5.53,0.47s-0.88,1.96-0.65,2.32
			c0.23,0.36,1.39,0.72,2,1.36c0.6,0.64,1.02,2.5,1.21,3.39c0.19,0.89,1.49,3.61,2.41,4.29c0.93,0.68,3.48,1.93,8.03,1.71
			c4.55-0.21,7.01-0.89,8.73-2.5c1.72-1.61,3.2-3,4.18-6.57c0,0,0.14-0.46,1.63-0.46c1.49,0,1.63,0.46,1.63,0.46
			c0.97,3.57,2.46,4.96,4.18,6.57c1.72,1.61,4.18,2.29,8.73,2.5c4.55,0.21,7.1-1.04,8.03-1.71c0.93-0.68,2.23-3.39,2.41-4.29
			c0.19-0.89,0.6-2.75,1.21-3.39c0.6-0.64,1.76-1,2-1.36C105.35,70.17,104.47,68.21,104.47,68.21z M51.77,69.68
			c-0.39,0-1.27-0.18-1.27-0.41c0-0.22,0.81-0.46,1.27-0.4c0,0,0.93,0.03,0.93,0.41C52.7,69.66,52.17,69.68,51.77,69.68z
			 M73.32,72.78c-0.37,1.64-1.39,4.14-3.44,5.79c-2.04,1.64-4.6,2.14-8.12,2.14c-3.53,0-5.62-0.61-6.78-1.79
			c-0.56-0.57-3.62-5.68-1.48-8.5c2.14-2.82,11.33-2.14,11.33-2.14C73.27,68.92,73.69,71.14,73.32,72.78z M98.9,78.92
			c-1.16,1.18-3.25,1.79-6.78,1.79c-3.53,0-6.08-0.5-8.13-2.14c-2.04-1.64-3.06-4.14-3.43-5.79c-0.37-1.64,0.05-3.86,8.49-4.5
			c0,0,9.19-0.68,11.33,2.14C102.52,73.24,99.46,78.35,98.9,78.92z M102.11,69.68c-0.39,0-0.93-0.02-0.93-0.39
			c0-0.38,0.93-0.41,0.93-0.41c0.47-0.07,1.28,0.17,1.28,0.4C103.38,69.49,102.5,69.68,102.11,69.68z"/>
	</g>
</g>
<g id="Layer_10">
</g>
<g id="Layer_11">
</g>
<g id="Layer_12">
</g>
<g id="Layer_13">
</g>
<g id="Layer_14">
</g>
</svg>
