<?xml version="1.0" encoding="utf-8"?>
<!-- Generator: Adobe Illustrator 25.2.0, SVG Export Plug-In . SVG Version: 6.00 Build 0)  -->
<svg version="1.1" xmlns="http://www.w3.org/2000/svg" xmlns:xlink="http://www.w3.org/1999/xlink" x="0px" y="0px"
	 viewBox="0 0 150 150" style="enable-background:new 0 0 150 150;" xml:space="preserve">
<style type="text/css">
	.st0{fill:#63C035;}
	.st1{display:none;fill:#FFFFFF;}
	.st2{display:none;fill:#63C132;}
	.st3{fill:#63C132;}
	.st4{display:none;fill:#234125;}
	.st5{fill:#1E3F20;}
	.st6{fill:#FFFFFF;}
	.st7{display:none;}
	.st8{display:inline;}
	.st9{opacity:0.15;fill:#1E3F20;}
	.st10{opacity:0.7;fill:none;stroke:#FFFFFF;stroke-width:5;stroke-miterlimit:10;}
	.st11{opacity:0.7;}
	.st12{fill:#DB4A39;}
	.st13{fill:#3B5998;}
	.st14{fill:none;stroke:#FFFFFF;stroke-width:7.5;stroke-miterlimit:10;}
	.st15{fill:#234125;}
	.st16{fill:none;stroke:#1E3F20;stroke-width:7.5;stroke-miterlimit:10;}
	.st17{fill:none;stroke:#1E3F20;stroke-width:5.5;stroke-miterlimit:10;}
	.st18{fill:#1A1A1A;}
	.st19{opacity:0.2;fill:#1E3F20;}
	.st20{fill:none;stroke:#1E3F20;stroke-width:4;stroke-miterlimit:10;}
	.st21{fill:none;stroke:#1E3F20;stroke-width:6;stroke-miterlimit:10;}
	.st22{display:none;opacity:0.2;fill:#1E3F20;}
	.st23{fill:#1E3F20;stroke:#1E3F20;stroke-width:0.75;stroke-miterlimit:10;}
	.st24{fill:#1E3F20;stroke:#1E3F20;stroke-miterlimit:10;}
	.st25{fill-rule:evenodd;clip-rule:evenodd;fill:#1E3F20;}
	.st26{display:none;fill:#1E3F20;}
	.st27{opacity:0.2;fill:#FFFFFF;}
	.st28{fill-rule:evenodd;clip-rule:evenodd;fill:#FFFFFF;}
	.st29{opacity:0.5;fill:#1E3F20;}
	.st30{opacity:0.95;fill:#1E3F20;}
	.st31{opacity:0.75;fill:#FFFFFF;}
	.st32{fill:#FFFFFF;stroke:#1E3F20;stroke-width:0.75;stroke-miterlimit:10;}
	.st33{fill:#FFFFFF;stroke:#1A1A1A;stroke-width:0.75;stroke-miterlimit:10;}
	.st34{clip-path:url(#SVGID_2_);fill:#FFFFFF;}
	.st35{display:none;fill:#006837;}
	.st36{opacity:0.75;}
	.st37{fill:none;stroke:#234125;stroke-width:4;stroke-miterlimit:10;}
	.st38{fill:none;stroke:#234125;stroke-width:3;stroke-miterlimit:10;}
</style>
<g id="Layer_2">
</g>
<g id="Layer_1">
</g>
<g id="Layer_3">
	<g id="Layer_4_copy" class="st7">
	</g>
	<g id="Layer_4_copy_2" class="st7">
	</g>
	<g id="Layer_4" class="st7">
	</g>
	<g id="Layer_4_copy_3" class="st7">
	</g>
	<g id="Layer_4_copy_5">
	</g>
	<g id="Layer_4_copy_4" class="st7">
	</g>
</g>
<g id="Layer_15">
	<g>
		<g>
			<g>
				<path class="st5" d="M134.45,80.64L134.45,80.64C134.45,80.64,134.45,80.64,134.45,80.64c-0.01-0.01-0.01-0.02-0.01-0.03
					c-7.05-16.67-19.65-27.68-29.8-26.86l-2.38-0.1c-1.37-0.06-2.69-0.77-3.34-1.98c-2.23-4.21-11.97-7.33-21.96-7.33
					S57.23,47.46,55,51.66c-0.65,1.22-1.96,1.93-3.34,1.98l-2.38,0.1c-10.15-0.81-22.75,10.2-29.8,26.86c0,0.01-0.01,0.02-0.01,0.02
					c0,0,0,0,0,0l0,0c-0.67,1.65-1.07,3.63-1.07,5.77c0,5.71,1.12,10.11,4.91,11.71c4.04,2.67,6.58,7.13,6.58,15.9
					c0,2.18,1.09,4.09,2.75,5.25c1.03,0.72,2.28,1.14,3.63,1.14c0.62,0,1.22-0.09,1.79-0.26c4.74-0.82,9.58-3.9,11.41-10.3
					c-0.04,8.13,5.19,14.87,12.28,15.5c1.28,0.11,2.61,0.05,3.91-0.17c0.06,0.15,0.12,0.28,0.15,0.37
					c1.38,3.31,5.87,3.45,11.21,3.45c5.13,0,9.48,0.04,11.04-3.06c0.07-0.14,0.19-0.41,0.31-0.71c1.26,0.19,2.54,0.23,3.76,0.12
					c7.11-0.63,12.35-7.41,12.28-15.56c1.82,6.45,6.67,9.54,11.42,10.36c0.57,0.17,1.17,0.26,1.79,0.26c1.35,0,2.6-0.42,3.63-1.14
					c1.66-1.15,2.75-3.07,2.75-5.25c0-8.77,2.55-13.23,6.58-15.9c3.79-1.6,4.91-6,4.91-11.71
					C135.51,84.27,135.12,82.29,134.45,80.64z"/>
				<path class="st3" d="M130.87,80.82L130.87,80.82C130.87,80.82,130.87,80.82,130.87,80.82c0-0.01-0.01-0.02-0.01-0.03
					c-6.61-15.5-18.42-25.75-27.93-24.99l-2.23-0.09c-1.36-0.06-2.54-0.85-3.23-2.02c-2.27-3.82-11.26-6.64-20.48-6.64
					s-18.21,2.82-20.48,6.64c-0.69,1.17-1.87,1.96-3.23,2.02l-2.23,0.09c-9.51-0.76-21.32,9.49-27.93,24.99
					c0,0.01-0.01,0.01-0.01,0.02c0,0,0,0,0,0l0,0c-0.63,1.53-1,3.38-1,5.37c0,5.31,1.05,9.4,4.6,10.89
					c3.78,2.48,5.15,5.62,5.15,13.78c0,2.02,1.02,3.81,2.58,4.88c0.97,0.67,2.08,0.74,3.35,0.74c0.58,0,1.14-0.09,1.68-0.24
					c4.73-0.81,8.11-4.11,9.01-11.44c1.05-16.06-0.49-31.52,0.36-34.51c1.17-4.11,5.33-5.46,2.43,1.25
					c-1.19,2.76,0.65,19.69,0.12,33.93c-0.02,0.46,0.35,0.83,0.81,0.83l18.96-5.28c3.64-0.82,7.42-0.83,11.07-0.03l19.56,5.31
					c0.46,0,0.82-0.37,0.81-0.83c-0.52-14.23,1.32-31.17,0.12-33.93c-2.9-6.71,1.26-5.36,2.43-1.25c0.85,2.99-0.69,18.44,0.36,34.51
					c0.9,7.33,4.27,10.63,9.01,11.44c0.53,0.15,1.09,0.24,1.68,0.24c1.27,0,2.38-0.08,3.35-0.74c1.56-1.07,2.58-2.86,2.58-4.88
					c0-8.15,1.37-11.3,5.15-13.78c3.55-1.48,4.6-5.58,4.6-10.89C131.87,84.2,131.5,82.36,130.87,80.82z M64.51,81.7
					c-2.62,0.49-4.88-1.75-4.38-4.35c0.28-1.45,1.47-2.63,2.93-2.9c2.62-0.49,4.88,1.75,4.38,4.35
					C67.16,80.24,65.97,81.42,64.51,81.7z M90.9,81.7c-2.62,0.49-4.88-1.75-4.38-4.35c0.28-1.45,1.47-2.63,2.93-2.9
					c2.62-0.49,4.88,1.75,4.38,4.35C93.55,80.24,92.36,81.42,90.9,81.7z"/>
				<g>
					<path class="st6" d="M76.37,118.11c-1.95,2.49-4.88,5.26-8.19,5.84c-0.4,0.07-0.64,0.39-0.49,0.69
						c1.15,2.3,4.89,2.21,9.33,2.21c4.27,0,7.88,0.22,9.19-1.94c0.18-0.3-0.05-0.65-0.47-0.73c-3.36-0.63-6.32-3.48-8.25-6.07
						C77.24,117.79,76.63,117.79,76.37,118.11z"/>
					<path class="st6" d="M102.79,106.64c-0.19-3.35-3.98-7.05-7.98-9.01c-6.49-3.43-10.12-7.87-11.54-11.9
						c0,0-2.46-4.79-2.19-16.53c0.23-9.75,0.29-17.85,0.11-21.33c-0.02-0.37-0.31-0.67-0.69-0.7c-1.17-0.09-2.35-0.14-3.54-0.14
						c-1.19,0-2.38,0.05-3.55,0.14c-0.38,0.03-0.67,0.33-0.69,0.7c-0.18,3.48-0.11,11.57,0.11,21.33
						c0.27,11.74-2.19,16.53-2.19,16.53c-1.42,4.04-5.05,8.47-11.54,11.9c-4,1.96-7.8,5.67-7.98,9.01
						c-0.78,8.33,4.37,15.52,11.51,16.15c5.91,0.52,12.84-2.63,13.08-10.57c0.02-0.62-0.23-1.23-0.71-1.64l-4.5-3.89
						c-1.71-1.85-0.37-4.8,2.18-4.8h8.35c2.55,0,3.9,2.95,2.18,4.8l-4.52,3.91c-0.44,0.38-0.71,0.91-0.71,1.48
						c0.04,8.21,7.35,11.24,13.3,10.72C98.42,122.16,103.56,114.97,102.79,106.64z"/>
				</g>
			</g>
			<path class="st6" d="M46.36,74.28c0.25,0.5,1.5,1,2.15,1.9c0.65,0.9,1.1,3.49,1.3,4.73c0.2,1.25,1.6,5.04,2.6,5.98
				c1,0.95,3.75,2.69,8.65,2.39c4.9-0.3,7.55-1.25,9.4-3.49c1.85-2.24,3.45-4.19,4.5-9.17c0,0,0.15-0.65,1.75-0.65
				c1.6,0,1.75,0.65,1.75,0.65c1.05,4.98,2.65,6.93,4.5,9.17c1.85,2.24,4.5,3.19,9.4,3.49c4.9,0.3,7.65-1.45,8.65-2.39
				c1-0.95,2.4-4.74,2.6-5.98c0.2-1.25,0.65-3.84,1.3-4.73c0.65-0.9,1.9-1.4,2.15-1.9c0.25-0.5-0.7-3.24-0.7-3.24
				s-2.91-0.16-5.95-0.65c-3.09-0.5-4.85-0.86-8.1-0.76c-3.25,0.1-3.65,0.3-5.05,0.4c-1.4,0.1-6.2,1.41-7.4,1.61
				c-1.2,0.2-3.15,0.3-3.15,0.3s-1.95-0.1-3.15-0.3c-1.2-0.2-6-1.51-7.4-1.61c-1.4-0.1-1.8-0.3-5.05-0.4
				c-3.25-0.1-5.01,0.26-8.1,0.76c-3.04,0.49-5.95,0.65-5.95,0.65S46.11,73.78,46.36,74.28z M102.82,72.54c0-0.53,1-0.57,1-0.57
				c0.5-0.09,1.37,0.24,1.37,0.55c0,0.31-0.95,0.57-1.37,0.57C103.39,73.09,102.82,73.06,102.82,72.54z M89.76,71.14
				c0,0,9.9-0.95,12.2,2.99c2.3,3.94-0.99,11.07-1.6,11.86c-1.25,1.65-3.5,2.49-7.3,2.49c-3.8,0-6.55-0.7-8.75-2.99
				c-2.2-2.29-3.3-5.78-3.7-8.08C80.21,75.13,80.66,72.04,89.76,71.14z M51.46,74.13c2.3-3.94,12.2-2.99,12.2-2.99
				c9.1,0.9,9.55,3.99,9.15,6.28c-0.4,2.29-1.5,5.78-3.7,8.08c-2.2,2.29-4.95,2.99-8.75,2.99c-3.8,0-6.05-0.85-7.3-2.49
				C52.45,85.2,49.16,78.07,51.46,74.13z M48.23,72.52c0-0.31,0.87-0.65,1.37-0.55c0,0,1,0.05,1,0.57c0,0.52-0.58,0.55-1,0.55
				C49.18,73.09,48.23,72.83,48.23,72.52z"/>
			<path class="st29" d="M89.76,71.14c0,0,9.9-0.95,12.2,2.99c2.3,3.94-0.99,11.07-1.6,11.86c-1.25,1.65-3.5,2.49-7.3,2.49
				c-3.8,0-6.55-0.7-8.75-2.99c-2.2-2.29-3.3-5.78-3.7-8.08C80.21,75.13,80.66,72.04,89.76,71.14z M51.46,74.13
				c2.3-3.94,12.2-2.99,12.2-2.99c9.1,0.9,9.55,3.99,9.15,6.28c-0.4,2.29-1.5,5.78-3.7,8.08c-2.2,2.29-4.95,2.99-8.75,2.99
				c-3.8,0-6.05-0.85-7.3-2.49C52.45,85.2,49.16,78.07,51.46,74.13z"/>
			<path class="st5" d="M76.16,60.91c11.03-1.03,23.83-2.73,30.29-4.24c2.35-0.55,5.99-1.75,7.89-2.44c2.71-0.98,7.97-5.6,8.22-8.79
				c0.24-3.19-6.76-1.93-8.03-1.9c-0.38,0.01-1.16,0.07-2.08,0.15c-2.92,0.26-5.58-1.69-6.2-4.56c-1.07-4.96-2.65-12.18-3.42-15.2
				c-1.1-4.31-4.72-12.27-23.49-5.28c-4.16,1.55-8.69,1.91-13.05,1.05c-19.65-3.9-21.95,4.53-22.35,8.96
				c-0.3,3.36-0.76,11.75-1.01,16.76c-0.12,2.25-1.9,4.06-4.15,4.2c-1.38,0.09-2.72,0.19-3.25,0.26c-1.27,0.17-8.38,0.05-7.63,3.16
				c0.75,3.1,6.68,6.83,9.51,7.36c1.99,0.37,5.77,0.98,8.18,1.15C52.19,62.01,65.1,61.66,76.16,60.91z"/>
		</g>
	</g>
</g>
<g id="Layer_10">
</g>
<g id="Layer_11">
</g>
<g id="Layer_12">
</g>
<g id="Layer_13">
</g>
<g id="Layer_14">
</g>
</svg>
