<?xml version="1.0" encoding="utf-8"?>
<!-- Generator: Adobe Illustrator 25.0.1, SVG Export Plug-In . SVG Version: 6.00 Build 0)  -->
<svg version="1.1" id="Capa_1" xmlns="http://www.w3.org/2000/svg" xmlns:xlink="http://www.w3.org/1999/xlink" x="0px" y="0px"
	 viewBox="0 0 488 488" style="enable-background:new 0 0 488 488;" xml:space="preserve">
<style type="text/css">
	.st0{fill:#F9CFCF;}
	.st1{fill:#A66026;}
	.st2{fill:#EED6AD;}
	.st3{fill:#A4C9FF;}
	.st4{fill:#EFD6AD;}
	.st5{fill:#E0EBFC;}
	.st6{fill:#F9A7A7;}
	.st7{fill:#FFDC65;}
</style>
<path class="st0" d="M484.5,269.3l-52.7,108.6l-16.7-11.5l52.7-108.6c2.7-5.5,8.6-7.4,13.2-4.2C485.6,256.8,487.2,263.8,484.5,269.3
	z"/>
<path class="st1" d="M431.8,380.3c-0.3,0-0.7-0.1-1-0.3l-16.7-11.5c-0.5-0.3-0.8-0.9-1-1.5c-0.1-0.6-0.1-1.3,0.2-1.9l52.7-108.6
	c3.2-6.6,10.4-8.9,15.9-5.1c2.7,1.9,4.6,4.9,5.4,8.4c0.8,3.6,0.4,7.3-1.2,10.6l-52.7,108.6C433.2,379.9,432.5,380.3,431.8,380.3z
	 M417.9,365.6l13.2,9l51.7-106.5c1-2.1,1.3-4.5,0.8-6.9c-0.5-2.3-1.8-4.3-3.5-5.5c-3.6-2.5-8.3-1-10.4,3.3L417.9,365.6z"/>
<path class="st2" d="M460.7,318.1c-0.5-4.1-1.5-8-2.7-11.7l-18.1-77.5h-70.4l-18.1,77.5c-1.3,3.7-2.2,7.6-2.7,11.7l-0.3,2.4
	c-0.2,2-0.3,4-0.3,6.1c0,29.8,20.3,53.9,45.3,53.9H416c25,0,45.3-24.1,45.3-53.9c0-2.1-0.1-4.1-0.3-6.1L460.7,318.1z"/>
<path class="st1" d="M416,382.9h-22.6c-26.1,0-47.3-25.3-47.3-56.3c0-2,0.1-4.2,0.3-6.3l0.3-2.4c0.6-4.2,1.5-8.3,2.8-12.2l18.1-77.4
	c0.2-1,1-1.8,2-1.8h70.4c0.9,0,1.7,0.7,2,1.8l18.1,77.4c1.3,3.9,2.3,8,2.8,12.1c0,0,0,0,0,0.1l0.3,2.4c0.2,2.2,0.3,4.3,0.3,6.4
	C463.3,357.6,442.1,382.9,416,382.9z M371,231.3L353.4,307c0,0.1,0,0.2-0.1,0.3c-1.2,3.6-2.1,7.4-2.6,11.2l-0.3,2.3
	c-0.2,1.9-0.3,3.9-0.3,5.7c0,28.4,19.4,51.5,43.3,51.5H416c23.8,0,43.2-23.1,43.2-51.5c0-1.9-0.1-3.8-0.3-5.8l-0.3-2.3
	c-0.5-3.8-1.4-7.6-2.6-11.2c0-0.1-0.1-0.2-0.1-0.3l-17.7-75.7H371z"/>
<path class="st3" d="M465.2,176.3l-46.8-32.2l40-26c2.5-1.7,5.6,0.5,5.7,3.9L465.2,176.3z"/>
<path class="st0" d="M430.3,144.3l25.4-16.5c1.3-0.8,2.8,0.2,2.9,2l0.7,34.5L430.3,144.3z"/>
<path class="st1" d="M465.2,178.7c-0.3,0-0.7-0.1-1-0.3l-46.8-32.2c-0.6-0.4-1-1.3-1-2.1c0-0.9,0.4-1.7,1.1-2.1l40-26
	c1.8-1.2,4-1.2,5.8,0.1c1.8,1.2,2.9,3.4,2.9,5.9l1.1,54.3c0,0.9-0.4,1.7-1,2.1C466,178.6,465.6,178.7,465.2,178.7z M422.6,144.2
	l40.5,27.8l-1-50c0-1.1-0.6-1.6-0.9-1.8c-0.3-0.2-1-0.6-1.8,0L422.6,144.2z"/>
<path class="st3" d="M344.2,176.3l46.8-32.2l-40-26c-2.5-1.7-5.6,0.5-5.7,3.9L344.2,176.3z"/>
<path class="st0" d="M353.7,127.7l25.4,16.5l-28.9,19.9l0.7-34.5C350.9,128,352.5,126.9,353.7,127.7z"/>
<path class="st1" d="M344.2,178.7c-0.4,0-0.7-0.1-1-0.3c-0.6-0.4-1-1.3-1-2.1l1.1-54.3c0-2.5,1.1-4.7,2.9-5.9c1.8-1.2,4-1.3,5.8-0.1
	l40,26c0.6,0.4,1.1,1.2,1.1,2.1s-0.4,1.7-1,2.1l-46.8,32.2C344.9,178.6,344.5,178.7,344.2,178.7z M349.1,119.9
	c-0.4,0-0.8,0.2-0.9,0.3c-0.3,0.2-0.9,0.7-0.9,1.8l-1,50l40.5-27.8l-36.8-24C349.7,120,349.4,119.9,349.1,119.9z"/>
<path class="st4" d="M417.6,252.4h-25.8c-27.5,0-49.8-26.7-49.8-59.7s22.3-59.7,49.8-59.7h25.8c27.5,0,49.8,26.7,49.8,59.7
	S445.1,252.4,417.6,252.4z"/>
<path class="st5" d="M439.4,225c-4.5-19.5-18.6-32.9-34.7-32.9c-16.1,0-30.2,13.4-34.7,32.9l-4.3,18.6c7.6,5.6,16.5,8.8,26,8.8h25.8
	c9.5,0,18.4-3.2,26-8.8L439.4,225z"/>
<path class="st1" d="M381.1,197.9L381.1,197.9c-2.7,0-4.8-2.6-4.8-5.8v-6.8c0-3.2,2.2-5.8,4.8-5.8h0c2.7,0,4.8,2.6,4.8,5.8v6.8
	C385.9,195.3,383.7,197.9,381.1,197.9z"/>
<path class="st1" d="M429.3,197.9L429.3,197.9c-2.7,0-4.8-2.6-4.8-5.8v-6.8c0-3.2,2.2-5.8,4.8-5.8h0c2.7,0,4.8,2.6,4.8,5.8v6.8
	C434.1,195.3,432,197.9,429.3,197.9z"/>
<path class="st1" d="M411.5,219.3c-2.9,0-5.5-1.3-7.2-3.5c-1.7,2.2-4.4,3.5-7.2,3.5c-5.1,0-9.3-4.2-9.3-9.3c0-1.3,0.9-2.4,2-2.4
	c1.1,0,2,1.1,2,2.4c0,2.4,2.4,4.5,5.2,4.5c2,0,3.9-1,4.7-2.6c0.6-1,1.5-1.6,2.5-1.6c1,0,1.9,0.6,2.5,1.6c0.9,1.6,2.7,2.6,4.7,2.6
	c2.8,0,5.2-2,5.2-4.5c0-1.3,0.9-2.4,2-2.4s2,1.1,2,2.4C420.7,215.1,416.6,219.3,411.5,219.3z"/>
<path class="st6" d="M407.4,198.6l2.7-3.2c0.6-0.7,0.9-1.6,1.1-2.5c-2.1-0.5-4.3-0.8-6.5-0.8c-2.2,0-4.4,0.3-6.5,0.8
	c0.1,0.9,0.5,1.8,1.1,2.5l2.7,3.2C403.5,200.4,405.9,200.4,407.4,198.6z"/>
<path class="st1" d="M417.6,254.9h-25.8c-28.6,0-51.8-27.9-51.8-62.1c0-34.3,23.3-62.1,51.8-62.1h25.8c28.6,0,51.8,27.9,51.8,62.1
	C469.4,227,446.2,254.9,417.6,254.9z M391.8,135.4c-26.3,0-47.8,25.7-47.8,57.3c0,31.6,21.4,57.3,47.8,57.3h25.8
	c26.3,0,47.8-25.7,47.8-57.3s-21.4-57.3-47.8-57.3H391.8z"/>
<path class="st1" d="M480.9,209.5H452c-1.1,0-2-1.1-2-2.4c0-1.3,0.9-2.4,2-2.4h28.9c1.1,0,2,1.1,2,2.4
	C482.9,208.4,482,209.5,480.9,209.5z"/>
<path class="st1" d="M452,199.7c-0.7,0-1.4-0.4-1.8-1.2c-0.6-1.2-0.2-2.6,0.7-3.3L476,178c1-0.7,2.2-0.3,2.8,0.9
	c0.6,1.2,0.2,2.6-0.8,3.3L453,199.4C452.7,199.6,452.3,199.7,452,199.7z"/>
<path class="st1" d="M477,236.5c-0.3,0-0.7-0.1-1-0.3L451,218.9c-1-0.7-1.3-2.2-0.7-3.3c0.6-1.2,1.8-1.6,2.8-0.9l25.1,17.2
	c1,0.7,1.3,2.1,0.7,3.3C478.4,236,477.8,236.5,477,236.5z"/>
<path class="st1" d="M423.9,382.9h-11.5c-0.6,0-1.2-0.1-1.8-0.2c-2.7-0.6-4.6-3.5-4.6-6.9v-54.5c0-0.6-0.2-1.1-0.5-1.4
	c-0.3-0.4-0.8-0.5-1.3-0.5c-0.8,0.1-1.5,1-1.5,2.1v54.4c0,3.9-2.6,7-5.7,7h-11.5c-4.7,0-8.7-4-9.6-9.5l-1.5-9.6
	c-11.9-56-9.1-72.8-9-73.5c0.2-1.3,1.3-2.2,2.4-1.9c1.1,0.3,1.8,1.6,1.6,2.9c0,0.3-2.5,17,9,71.4c0,0,0,0.1,0,0.1l1.5,9.6
	c0.5,3.2,2.9,5.5,5.6,5.5H397c0.9,0,1.7-1,1.7-2.2v-54.4c0-3.6,2.3-6.6,5.1-7c1.6-0.2,3.2,0.5,4.4,1.7c1.2,1.3,1.9,3.1,1.9,5v54.5
	c0,1,0.6,1.9,1.3,2.1c0.3,0.1,0.7,0.1,1.1,0.1h11.5c2.7,0,5.1-2.3,5.6-5.5l1.5-9.6c0,0,0-0.1,0-0.1c11.6-54.5,9-71.2,9-71.4
	c-0.2-1.3,0.5-2.6,1.6-2.9c1.1-0.3,2.2,0.6,2.4,1.9c0.1,0.7,2.8,17.5-9,73.5l-1.5,9.6C432.6,378.9,428.6,382.9,423.9,382.9z"/>
<path class="st0" d="M312.6,268l-52.7,108.6l-16.7-11.5l52.7-108.6c2.7-5.5,8.6-7.4,13.2-4.2C313.7,255.4,315.3,262.5,312.6,268z"/>
<path class="st4" d="M259.9,378.9c-0.3,0-0.7-0.1-1-0.3l-16.7-11.5c-0.5-0.3-0.8-0.9-1-1.5c-0.1-0.6-0.1-1.3,0.2-1.9l52.7-108.6
	c3.2-6.6,10.4-8.9,15.9-5.1c2.7,1.9,4.6,4.9,5.4,8.4c0.8,3.6,0.4,7.3-1.2,10.6l-52.7,108.6C261.3,378.5,260.6,378.9,259.9,378.9z
	 M246,364.2l13.2,9l51.7-106.5c1-2.1,1.3-4.5,0.8-6.9s-1.8-4.3-3.5-5.5c-3.6-2.5-8.3-1-10.4,3.3L246,364.2z"/>
<path class="st1" d="M288.8,316.7c-0.5-4.1-1.5-8-2.7-11.7L268,227.5h-70.4L179.5,305c-1.3,3.7-2.2,7.6-2.7,11.7l-0.3,2.4
	c-0.2,2-0.3,4-0.3,6.1c0,29.8,20.3,53.9,45.3,53.9h22.6c25,0,45.3-24.1,45.3-53.9c0-2.1-0.1-4.1-0.3-6.1L288.8,316.7z"/>
<path class="st4" d="M244.1,381.5h-22.6c-26.1,0-47.3-25.3-47.3-56.3c0-2,0.1-4.2,0.3-6.3l0.3-2.4c0.6-4.2,1.5-8.3,2.8-12.2
	l18.1-77.4c0.2-1,1-1.8,2-1.8H268c0.9,0,1.7,0.7,2,1.8l18.1,77.4c1.3,3.9,2.3,8,2.8,12.1c0,0,0,0,0,0.1l0.3,2.4
	c0.2,2.2,0.3,4.3,0.3,6.4C291.4,356.2,270.2,381.5,244.1,381.5z M199.1,229.9l-17.7,75.7c0,0.1,0,0.2-0.1,0.3
	c-1.2,3.6-2.1,7.4-2.6,11.2l-0.3,2.3c-0.2,1.9-0.3,3.9-0.3,5.7c0,28.4,19.4,51.5,43.3,51.5h22.6c23.8,0,43.2-23.1,43.2-51.5
	c0-1.9-0.1-3.8-0.3-5.8l-0.3-2.3c-0.5-3.8-1.4-7.6-2.6-11.2c0-0.1-0.1-0.2-0.1-0.3l-17.7-75.7H199.1z"/>
<path class="st3" d="M293.3,174.9l-46.8-32.2l40-26c2.5-1.7,5.6,0.5,5.7,3.9L293.3,174.9z"/>
<path class="st0" d="M258.4,142.9l25.4-16.5c1.3-0.8,2.8,0.2,2.9,2l0.7,34.5L258.4,142.9z"/>
<path class="st1" d="M293.3,177.3c-0.3,0-0.7-0.1-1-0.3l-46.8-32.2c-0.6-0.4-1-1.3-1-2.1c0-0.9,0.4-1.7,1.1-2.1l40-26
	c1.8-1.2,4-1.2,5.8,0.1c1.8,1.2,2.9,3.4,2.9,5.9l1.1,54.3c0,0.9-0.4,1.7-1,2.1C294,177.2,293.7,177.3,293.3,177.3z M250.7,142.8
	l40.5,27.8l-1-50c0-1.1-0.6-1.6-0.9-1.8c-0.3-0.2-1-0.6-1.8,0L250.7,142.8z"/>
<path class="st3" d="M172.3,174.9l46.8-32.2l-40-26c-2.5-1.7-5.6,0.5-5.7,3.9L172.3,174.9z"/>
<path class="st0" d="M179.5,125.3l25.4,16.5l-28.9,19.9l0.7-34.5C176.6,125.5,178.2,124.5,179.5,125.3z"/>
<path class="st1" d="M172.3,177.3c-0.4,0-0.7-0.1-1-0.3c-0.6-0.4-1-1.3-1-2.1l1.1-54.3c0-2.5,1.1-4.7,2.9-5.9c1.8-1.2,4-1.3,5.8-0.1
	l40,26c0.6,0.4,1.1,1.2,1.1,2.1c0,0.9-0.4,1.7-1,2.1L173.3,177C173,177.2,172.6,177.3,172.3,177.3z M177.2,118.5
	c-0.4,0-0.8,0.2-0.9,0.3c-0.3,0.2-0.9,0.7-0.9,1.8l-1,50l40.5-27.8l-36.8-24C177.7,118.6,177.4,118.5,177.2,118.5z"/>
<path class="st1" d="M245.7,251h-25.8c-27.5,0-49.8-26.7-49.8-59.7s22.3-59.7,49.8-59.7h25.8c27.5,0,49.8,26.7,49.8,59.7
	S273.2,251,245.7,251z"/>
<path class="st5" d="M267.4,223.6c-4.5-19.5-18.6-32.9-34.7-32.9c-16.1,0-30.2,13.4-34.7,32.9l-4.3,18.6c7.6,5.6,16.5,8.8,26,8.8
	h25.8c9.5,0,18.4-3.2,26-8.8L267.4,223.6z"/>
<path class="st4" d="M206.8,195.5L206.8,195.5c-2.7,0-4.8-2.6-4.8-5.8v-6.8c0-3.2,2.2-5.8,4.8-5.8h0c2.7,0,4.8,2.6,4.8,5.8v6.8
	C211.6,192.9,209.5,195.5,206.8,195.5z"/>
<path class="st4" d="M257.4,196.5L257.4,196.5c-2.7,0-4.8-2.6-4.8-5.8v-6.8c0-3.2,2.2-5.8,4.8-5.8h0c2.7,0,4.8,2.6,4.8,5.8v6.8
	C262.2,193.9,260.1,196.5,257.4,196.5z"/>
<path class="st4" d="M239.5,217.9c-2.9,0-5.5-1.3-7.2-3.5c-1.7,2.2-4.4,3.5-7.2,3.5c-5.1,0-9.3-4.2-9.3-9.3c0-1.3,0.9-2.4,2-2.4
	c1.1,0,2,1.1,2,2.4c0,2.4,2.4,4.5,5.2,4.5c2,0,3.9-1,4.7-2.6c0.6-1,1.5-1.6,2.5-1.6c1,0,1.9,0.6,2.5,1.6c0.9,1.6,2.7,2.6,4.7,2.6
	c2.8,0,5.2-2,5.2-4.5c0-1.3,0.9-2.4,2-2.4c1.1,0,2,1.1,2,2.4C248.8,213.7,244.7,217.9,239.5,217.9z"/>
<path class="st6" d="M235.5,197.2l2.7-3.2c0.6-0.7,0.9-1.6,1.1-2.5c-2.1-0.5-4.3-0.8-6.5-0.8c-2.2,0-4.4,0.3-6.5,0.8
	c0.1,0.9,0.5,1.8,1.1,2.5l2.7,3.2C231.6,199,234,199,235.5,197.2z"/>
<path class="st4" d="M245.7,253.5h-25.8c-28.6,0-51.8-27.9-51.8-62.1c0-34.3,23.3-62.1,51.8-62.1h25.8c28.6,0,51.8,27.9,51.8,62.1
	C297.5,225.6,274.3,253.5,245.7,253.5z M219.9,134c-26.3,0-47.8,25.7-47.8,57.3c0,31.6,21.4,57.3,47.8,57.3h25.8
	c26.3,0,47.8-25.7,47.8-57.3S272,134,245.7,134H219.9z"/>
<path class="st4" d="M309,208.1h-28.9c-1.1,0-2-1.1-2-2.4c0-1.3,0.9-2.4,2-2.4H309c1.1,0,2,1.1,2,2.4C311,207,310.1,208.1,309,208.1
	z"/>
<path class="st4" d="M280.1,198.3c-0.7,0-1.4-0.4-1.8-1.2c-0.6-1.2-0.2-2.6,0.7-3.3l25.1-17.2c1-0.7,2.2-0.3,2.8,0.9
	c0.6,1.2,0.2,2.6-0.8,3.3L281.1,198C280.8,198.2,280.4,198.3,280.1,198.3z"/>
<path class="st4" d="M305.1,235.1c-0.3,0-0.7-0.1-1-0.3l-25.1-17.2c-1-0.7-1.3-2.2-0.7-3.3c0.6-1.2,1.8-1.6,2.8-0.9l25.1,17.2
	c1,0.7,1.3,2.1,0.7,3.3C306.5,234.7,305.8,235.1,305.1,235.1z"/>
<path class="st4" d="M183.2,207.1h-28.9c-1.1,0-2-1.1-2-2.4c0-1.3,0.9-2.4,2-2.4h28.9c1.1,0,2,1.1,2,2.4
	C185.2,206,184.3,207.1,183.2,207.1z"/>
<path class="st4" d="M158.1,234.1c-0.7,0-1.4-0.4-1.8-1.2c-0.6-1.2-0.2-2.6,0.7-3.3l25.1-17.2c1-0.7,2.2-0.3,2.8,0.9
	c0.6,1.2,0.2,2.6-0.7,3.3l-25.1,17.2C158.8,234,158.4,234.1,158.1,234.1z"/>
<path class="st4" d="M183.2,197.3c-0.3,0-0.7-0.1-1-0.3l-25.1-17.2c-1-0.7-1.3-2.1-0.7-3.3c0.6-1.2,1.8-1.6,2.8-0.9l25.1,17.2
	c1,0.7,1.3,2.2,0.7,3.3C184.5,196.9,183.9,197.3,183.2,197.3z"/>
<path class="st4" d="M252,381.5h-11.5c-0.6,0-1.2-0.1-1.8-0.2c-2.7-0.6-4.6-3.5-4.6-6.9v-54.5c0-0.6-0.2-1.1-0.5-1.4
	c-0.3-0.4-0.8-0.5-1.3-0.5c-0.8,0.1-1.5,1-1.5,2.1v54.4c0,3.9-2.6,7-5.7,7h-11.5c-4.7,0-8.7-4-9.6-9.5l-1.5-9.6
	c-11.9-56-9.1-72.8-9-73.5c0.2-1.3,1.3-2.2,2.4-1.9c1.1,0.3,1.8,1.6,1.6,2.9c0,0.3-2.5,17,9,71.4c0,0,0,0.1,0,0.1l1.5,9.6
	c0.5,3.2,2.9,5.5,5.6,5.5h11.5c0.9,0,1.7-1,1.7-2.2v-54.4c0-3.6,2.3-6.6,5.1-7c1.6-0.2,3.2,0.5,4.4,1.7c1.2,1.3,1.9,3.1,1.9,5v54.5
	c0,1,0.6,1.9,1.3,2.1c0.3,0.1,0.7,0.1,1.1,0.1H252c2.7,0,5.1-2.3,5.6-5.5l1.5-9.6c0,0,0-0.1,0-0.1c11.6-54.5,9-71.2,9-71.4
	c-0.2-1.3,0.5-2.6,1.6-2.9c1.1-0.3,2.2,0.6,2.4,1.9c0.1,0.7,2.8,17.5-9,73.5l-1.5,9.6C260.7,377.5,256.7,381.5,252,381.5z"/>
<path class="st0" d="M158.2,266.2l-52.7,108.6l-16.7-11.5l52.7-108.6c2.7-5.5,8.6-7.4,13.2-4.2C159.3,253.7,160.9,260.7,158.2,266.2
	z"/>
<path class="st1" d="M105.5,377.2c-0.3,0-0.7-0.1-1-0.3l-16.7-11.5c-0.5-0.3-0.8-0.9-1-1.5c-0.1-0.6-0.1-1.3,0.2-1.9l52.7-108.6
	c3.2-6.6,10.4-8.9,15.9-5.1c2.7,1.9,4.6,4.9,5.4,8.4c0.8,3.6,0.4,7.3-1.2,10.6L107.2,376C106.9,376.8,106.2,377.2,105.5,377.2z
	 M91.6,362.4l13.2,9L156.4,265c1-2.1,1.3-4.5,0.8-6.9c-0.5-2.3-1.8-4.3-3.5-5.5c-3.6-2.5-8.3-1-10.4,3.3L91.6,362.4z"/>
<path class="st7" d="M134.4,315c-0.5-4.1-1.5-8-2.7-11.7l-18.1-77.5H43.2l-18.1,77.5c-1.3,3.7-2.2,7.6-2.7,11.7l-0.3,2.4
	c-0.2,2-0.3,4-0.3,6.1c0,29.8,20.3,53.9,45.3,53.9h22.6c25,0,45.3-24.1,45.3-53.9c0-2.1-0.1-4.1-0.3-6.1L134.4,315z"/>
<path class="st1" d="M89.7,379.7H67.1c-26.1,0-47.3-25.3-47.3-56.3c0-2,0.1-4.2,0.3-6.3l0.3-2.4c0.6-4.2,1.5-8.3,2.8-12.2l18.1-77.4
	c0.2-1,1-1.8,2-1.8h70.4c0.9,0,1.7,0.7,2,1.8l18.1,77.4c1.3,3.9,2.3,8,2.8,12.1c0,0,0,0,0,0.1l0.3,2.4c0.2,2.2,0.3,4.3,0.3,6.4
	C137,354.5,115.8,379.7,89.7,379.7z M44.7,228.2L27,303.9c0,0.1,0,0.2-0.1,0.3c-1.2,3.6-2.1,7.4-2.6,11.2l-0.3,2.3
	c-0.2,1.9-0.3,3.9-0.3,5.7c0,28.4,19.4,51.5,43.3,51.5h22.6c23.8,0,43.2-23.1,43.2-51.5c0-1.9-0.1-3.8-0.3-5.8l-0.3-2.3
	c-0.5-3.8-1.4-7.6-2.6-11.2c0-0.1-0.1-0.2-0.1-0.3l-17.7-75.7H44.7z"/>
<path class="st3" d="M138.9,173.1l-46.8-32.2l40-26c2.5-1.7,5.6,0.5,5.7,3.9L138.9,173.1z"/>
<path class="st0" d="M103.9,141.1l25.4-16.5c1.3-0.8,2.8,0.2,2.9,2l0.7,34.5L103.9,141.1z"/>
<path class="st1" d="M138.9,175.5c-0.3,0-0.7-0.1-1-0.3l-46.8-32.2c-0.6-0.4-1-1.3-1-2.1c0-0.9,0.4-1.7,1.1-2.1l40-26
	c1.8-1.2,4-1.2,5.8,0.1c1.8,1.2,2.9,3.4,2.9,5.9l1.1,54.3c0,0.9-0.4,1.7-1,2.1C139.6,175.4,139.3,175.5,138.9,175.5z M96.3,141
	l40.5,27.8l-1-50c0-1.1-0.6-1.6-0.9-1.8c-0.3-0.2-1-0.6-1.8,0L96.3,141z"/>
<path class="st3" d="M17.8,173.1l46.8-32.2l-40-26c-2.5-1.7-5.6,0.5-5.7,3.9L17.8,173.1z"/>
<path class="st0" d="M27.4,124.6l25.4,16.5L23.9,161l0.7-34.5C24.6,124.8,26.1,123.7,27.4,124.6z"/>
<path class="st1" d="M17.8,175.5c-0.4,0-0.7-0.1-1-0.3c-0.6-0.4-1-1.3-1-2.1l1.1-54.3c0-2.5,1.1-4.7,2.9-5.9c1.8-1.2,4-1.3,5.8-0.1
	l40,26c0.6,0.4,1.1,1.2,1.1,2.1s-0.4,1.7-1,2.1l-46.8,32.2C18.5,175.4,18.2,175.5,17.8,175.5z M22.8,116.8c-0.4,0-0.8,0.2-0.9,0.3
	c-0.3,0.2-0.9,0.7-0.9,1.8l-1,50L60.5,141l-36.8-24C23.3,116.8,23,116.8,22.8,116.8z"/>
<path class="st7" d="M91.3,249.3H65.5c-27.5,0-49.8-26.7-49.8-59.7s22.3-59.7,49.8-59.7h25.8c27.5,0,49.8,26.7,49.8,59.7
	S118.8,249.3,91.3,249.3z"/>
<path class="st5" d="M113,221.9c-4.5-19.5-18.6-32.9-34.7-32.9c-16.1,0-30.2,13.4-34.7,32.9l-4.3,18.6c7.6,5.6,16.5,8.8,26,8.8h25.8
	c9.5,0,18.4-3.2,26-8.8L113,221.9z"/>
<path class="st1" d="M54.8,194.7L54.8,194.7c-2.7,0-4.8-2.6-4.8-5.8v-6.8c0-3.2,2.2-5.8,4.8-5.8h0c2.7,0,4.8,2.6,4.8,5.8v6.8
	C59.6,192.1,57.4,194.7,54.8,194.7z"/>
<path class="st1" d="M103,194.7L103,194.7c-2.7,0-4.8-2.6-4.8-5.8v-6.8c0-3.2,2.2-5.8,4.8-5.8h0c2.7,0,4.8,2.6,4.8,5.8v6.8
	C107.8,192.1,105.6,194.7,103,194.7z"/>
<path class="st1" d="M85.1,216.1c-2.9,0-5.5-1.3-7.2-3.5c-1.7,2.2-4.4,3.5-7.2,3.5c-5.1,0-9.3-4.2-9.3-9.3c0-1.3,0.9-2.4,2-2.4
	c1.1,0,2,1.1,2,2.4c0,2.4,2.4,4.5,5.2,4.5c2,0,3.9-1,4.7-2.6c0.6-1,1.5-1.6,2.5-1.6c1,0,1.9,0.6,2.5,1.6c0.9,1.6,2.7,2.6,4.7,2.6
	c2.8,0,5.2-2,5.2-4.5c0-1.3,0.9-2.4,2-2.4s2,1.1,2,2.4C94.4,211.9,90.2,216.1,85.1,216.1z"/>
<path class="st6" d="M81.1,195.5l2.7-3.2c0.6-0.7,0.9-1.6,1.1-2.5c-2.1-0.5-4.3-0.8-6.5-0.8c-2.2,0-4.4,0.3-6.5,0.8
	c0.1,0.9,0.5,1.8,1.1,2.5l2.7,3.2C77.2,197.3,79.6,197.3,81.1,195.5z"/>
<path class="st1" d="M91.3,251.7H65.5c-28.6,0-51.8-27.9-51.8-62.1c0-34.3,23.3-62.1,51.8-62.1h25.8c28.6,0,51.8,27.9,51.8,62.1
	C143.1,223.8,119.9,251.7,91.3,251.7z M65.5,132.3c-26.3,0-47.8,25.7-47.8,57.3c0,31.6,21.4,57.3,47.8,57.3h25.8
	c26.3,0,47.8-25.7,47.8-57.3s-21.4-57.3-47.8-57.3H65.5z"/>
<path class="st1" d="M31.1,206.3H2.2c-1.1,0-2-1.1-2-2.4c0-1.3,0.9-2.4,2-2.4h28.9c1.1,0,2,1.1,2,2.4
	C33.1,205.3,32.2,206.3,31.1,206.3z"/>
<path class="st1" d="M6,233.3c-0.7,0-1.4-0.4-1.8-1.2c-0.6-1.2-0.2-2.6,0.7-3.3l25.1-17.2c1-0.7,2.2-0.3,2.8,0.9
	c0.6,1.2,0.2,2.6-0.7,3.3L7,233C6.7,233.2,6.4,233.3,6,233.3z"/>
<path class="st1" d="M31.1,196.6c-0.3,0-0.7-0.1-1-0.3L5,179c-1-0.7-1.3-2.1-0.7-3.3c0.6-1.2,1.8-1.6,2.8-0.9L32.1,192
	c1,0.7,1.3,2.2,0.7,3.3C32.5,196.1,31.8,196.6,31.1,196.6z"/>
<path class="st1" d="M97.6,379.7H86.1c-0.6,0-1.2-0.1-1.8-0.2c-2.7-0.6-4.6-3.5-4.6-6.9v-54.5c0-0.6-0.2-1.1-0.5-1.4
	c-0.3-0.4-0.8-0.5-1.3-0.5c-0.8,0.1-1.5,1-1.5,2.1v54.4c0,3.9-2.6,7-5.7,7H59.2c-4.7,0-8.7-4-9.6-9.5l-1.5-9.6
	c-11.9-56-9.1-72.8-9-73.5c0.2-1.3,1.3-2.2,2.4-1.9c1.1,0.3,1.8,1.6,1.6,2.9c0,0.3-2.5,17,9,71.4c0,0,0,0.1,0,0.1l1.5,9.6
	c0.5,3.2,2.9,5.5,5.6,5.5h11.5c0.9,0,1.7-1,1.7-2.2v-54.4c0-3.6,2.3-6.6,5.1-7c1.6-0.2,3.2,0.5,4.4,1.7c1.2,1.3,1.9,3.1,1.9,5v54.5
	c0,1,0.6,1.9,1.3,2.1c0.3,0.1,0.7,0.1,1.1,0.1h11.5c2.7,0,5.1-2.3,5.6-5.5l1.5-9.6c0,0,0-0.1,0-0.1c11.6-54.5,9-71.2,9-71.4
	c-0.2-1.3,0.5-2.6,1.6-2.9c1.1-0.3,2.2,0.6,2.4,1.9c0.1,0.7,2.8,17.5-9,73.5l-1.5,9.6C106.3,375.8,102.2,379.7,97.6,379.7z"/>
<path class="st1" d="M352.9,205.7h-28.9c-1.1,0-2-1.1-2-2.4c0-1.3,0.9-2.4,2-2.4h28.9c1.1,0,2,1.1,2,2.4
	C354.9,204.6,354,205.7,352.9,205.7z"/>
<path class="st1" d="M327.8,232.7c-0.7,0-1.4-0.4-1.8-1.2c-0.6-1.2-0.2-2.6,0.7-3.3l25.1-17.2c1-0.7,2.2-0.3,2.8,0.9
	c0.6,1.2,0.2,2.6-0.7,3.3l-25.1,17.2C328.5,232.6,328.2,232.7,327.8,232.7z"/>
<path class="st1" d="M352.9,195.9c-0.3,0-0.7-0.1-1-0.3l-25.1-17.2c-1-0.7-1.3-2.1-0.7-3.3c0.6-1.2,1.8-1.6,2.8-0.9l25.1,17.2
	c1,0.7,1.3,2.2,0.7,3.3C354.3,195.5,353.6,195.9,352.9,195.9z"/>
</svg>
