<?xml version="1.0" encoding="utf-8"?>
<!-- Generator: Adobe Illustrator 25.0.1, SVG Export Plug-In . SVG Version: 6.00 Build 0)  -->
<svg version="1.1" id="Capa_1" xmlns="http://www.w3.org/2000/svg" xmlns:xlink="http://www.w3.org/1999/xlink" x="0px" y="0px"
	 viewBox="0 0 512 512" style="enable-background:new 0 0 512 512;" xml:space="preserve">
<style type="text/css">
	.st0{fill:#EED6AD;}
	.st1{fill:#A66028;}
	.st2{fill:#FFDC64;}
	.st3{fill:#F3D57A;}
</style>
<circle class="st0" cx="256" cy="366.9" r="128"/>
<path class="st1" d="M238.9,221.9c0,9.4,7.6,17.1,17.1,17.1s17.1-7.6,17.1-17.1v-17.1c0-9.4-7.6-17.1-17.1-17.1s-17.1,7.6-17.1,17.1
	L238.9,221.9z"/>
<path class="st2" d="M170.7,153.6H17.1C7.6,153.6,0,146,0,136.5V68.3c0-9.4,7.6-17.1,17.1-17.1h153.6h238.9h85.3
	c9.4,0,17.1,7.6,17.1,17.1v68.3c0,9.4-7.6,17.1-17.1,17.1h-85.3L170.7,153.6L170.7,153.6z"/>
<path class="st1" d="M494.9,51.2h-23.7c9.4,0,17.1,7.6,17.1,17.1v68.3c0,9.4-7.6,17.1-17.1,17.1h23.7c9.4,0,17.1-7.6,17.1-17.1V68.3
	C512,58.8,504.4,51.2,494.9,51.2z"/>
<path class="st0" d="M341.3,51.2H221.9c-9.4,0-17.1,7.6-17.1,17.1v68.3c0,9.4,7.6,17.1,17.1,17.1h119.5v17.1
	c0,9.4-7.6,17.1-17.1,17.1H187.7c-9.4,0-17.1-7.6-17.1-17.1V34.1c0-9.4,7.6-17.1,17.1-17.1h136.5c9.4,0,17.1,7.6,17.1,17.1
	L341.3,51.2z"/>
<path class="st2" d="M401.1,170.7H384c-4.7,0-8.5-3.8-8.5-8.5V42.7c0-4.7,3.8-8.5,8.5-8.5h17.1c4.7,0,8.5,3.8,8.5,8.5v119.5
	C409.6,166.8,405.8,170.7,401.1,170.7z"/>
<path class="st3" d="M307.2,119.5c9.4,0,17.1-7.6,17.1-17.1s-7.6-17.1-17.1-17.1H256c-9.4,0-17.1,7.6-17.1,17.1s7.6,17.1,17.1,17.1
	H307.2z"/>
<g>
	<path class="st1" d="M128,110.1h-8.5c-4.3,0-7.7-3.5-7.7-7.7c0-4.3,3.5-7.7,7.7-7.7h8.5c4.3,0,7.7,3.5,7.7,7.7
		C135.7,106.7,132.3,110.1,128,110.1z"/>
</g>
<g>
	<path class="st1" d="M59.7,110.1h-8.5c-4.3,0-7.7-3.5-7.7-7.7c0-4.3,3.5-7.7,7.7-7.7h8.5c4.3,0,7.7,3.5,7.7,7.7
		C67.5,106.7,64,110.1,59.7,110.1z"/>
</g>
<g>
	<path class="st1" d="M460.8,110.1h-8.5c-4.3,0-7.7-3.5-7.7-7.7c0-4.3,3.5-7.7,7.7-7.7h8.5c4.3,0,7.7,3.5,7.7,7.7
		C468.5,106.7,465.1,110.1,460.8,110.1z"/>
</g>
<g>
	<g>
		<path class="st1" d="M317.6,153.6v17.1c0,9.4-7.6,17.1-17.1,17.1h23.7c9.4,0,17.1-7.6,17.1-17.1v-17.1H317.6z"/>
		<path class="st1" d="M324.3,17.1h-23.7c9.4,0,17.1,7.6,17.1,17.1v17.1h23.7V34.1C341.3,24.7,333.7,17.1,324.3,17.1z"/>
	</g>
	<path class="st1" d="M307.2,85.3h-23.7c9.4,0,17.1,7.6,17.1,17.1s-7.6,17.1-17.1,17.1h23.7c9.4,0,17.1-7.6,17.1-17.1
		C324.3,93,316.6,85.3,307.2,85.3z"/>
	<path class="st1" d="M375.5,60.5V76h34.1V60.5H375.5z"/>
	<path class="st1" d="M375.5,128.8v15.5h34.1v-15.5L375.5,128.8z"/>
	<path class="st1" d="M256,238.9c-4,0-7.9,0.2-11.8,0.6c65.1,6,116.2,60.8,116.2,127.4s-51,121.5-116.2,127.4
		c3.9,0.4,7.9,0.6,11.8,0.6c70.7,0,128-57.3,128-128C384,296.2,326.7,238.9,256,238.9L256,238.9z"/>
	<circle class="st1" cx="256" cy="307.2" r="17.1"/>
	<ellipse class="st1" cx="324.2" cy="341.3" rx="17.1" ry="17.1"/>
	
		<ellipse transform="matrix(0.23 -0.9732 0.9732 0.23 -187.7901 445.5739)" class="st1" cx="187.7" cy="341.5" rx="17.1" ry="17.1"/>
	<path class="st1" d="M233.3,375.6l-0.6,1.5c-4.7,11.4-10.9,21.8-18.5,30.7l-5.4,6.3c-6.5,7.7-4.9,20.9,3.3,25.8
		c8.5,5.1,18.5,5.1,27,0l3.2-1.9c8.5-5.1,18.5-5.1,27,0l3.2,1.9c8.5,5.1,18.5,5.1,27,0l0.5-0.3c8-4.8,9.8-17.7,3.6-25.4l-7.8-9.8
		c-6.5-8-11.9-17.2-16.1-27.2l-0.8-1.9C269.3,352.6,242.5,352.8,233.3,375.6L233.3,375.6z"/>
</g>
</svg>
