<?xml version="1.0" encoding="utf-8"?>
<!-- Generator: Adobe Illustrator 25.0.1, SVG Export Plug-In . SVG Version: 6.00 Build 0)  -->
<svg version="1.1" id="Capa_1" xmlns="http://www.w3.org/2000/svg" xmlns:xlink="http://www.w3.org/1999/xlink" x="0px" y="0px"
	 viewBox="0 0 487 487" style="enable-background:new 0 0 487 487;" xml:space="preserve">
<style type="text/css">
	.st0{fill:#EED6AD;}
	.st1{fill:#A66026;}
	.st2{fill:#A66028;}
	.st3{fill:#A66027;}
	.st4{fill:#FFDC64;}
	.st5{fill:#A65F29;}
</style>
<g>
	<path class="st0" d="M80.8,252.4h-0.7c-20.5,0-37.1-17.6-37.1-39.3v-28.5c0-21.7,16.6-39.3,37.1-39.3h0.7
		c20.5,0,37.1,17.6,37.1,39.3v28.5C117.9,234.8,101.3,252.4,80.8,252.4z"/>
	<path class="st0" d="M406.2,252.4h0.7c20.5,0,37.1-17.6,37.1-39.3v-28.5c0-21.7-16.6-39.3-37.1-39.3h-0.7
		c-20.5,0-37.1,17.6-37.1,39.3v28.5C369.1,234.8,385.7,252.4,406.2,252.4z"/>
	<path class="st0" d="M178.6,152.7h-0.7c-20.5,0-37.1-17.6-37.1-39.3V84.9c0-21.7,16.6-39.3,37.1-39.3h0.7
		c20.5,0,37.1,17.6,37.1,39.3v28.5C215.7,135.1,199.1,152.7,178.6,152.7z"/>
	<path class="st0" d="M305.7,152.7h0.7c20.5,0,37.1-17.6,37.1-39.3V84.9c0-21.7-16.6-39.3-37.1-39.3h-0.7
		c-20.5,0-37.1,17.6-37.1,39.3v28.5C268.6,135.1,285.2,152.7,305.7,152.7z"/>
</g>
<path class="st1" d="M79.9,252.4h-0.7c-22.3,0-40.4-19.2-40.4-42.9V181c0-23.6,18.1-42.9,40.4-42.9h0.7c22.3,0,40.4,19.2,40.4,42.9
	v28.5C120.3,233.2,102.2,252.4,79.9,252.4z M79.2,145.3c-18.6,0-33.7,16-33.7,35.8v28.5c0,19.7,15.1,35.8,33.7,35.8h0.7
	c18.6,0,33.7-16,33.7-35.8V181c0-19.7-15.1-35.8-33.7-35.8L79.2,145.3L79.2,145.3z"/>
<path class="st2" d="M404.4,252.4h-0.7c-22.3,0-40.4-19.2-40.4-42.9V181c0-23.6,18.1-42.9,40.4-42.9h0.7c22.3,0,40.4,19.2,40.4,42.9
	v28.5C444.8,233.2,426.7,252.4,404.4,252.4z M403.7,145.3c-18.6,0-33.7,16-33.7,35.8v28.5c0,19.7,15.1,35.8,33.7,35.8h0.7
	c18.6,0,33.7-16,33.7-35.8V181c0-19.7-15.1-35.8-33.7-35.8L403.7,145.3L403.7,145.3z"/>
<path class="st1" d="M178.6,156.2h-0.7c-22.3,0-40.4-19.2-40.4-42.9V84.9c0-23.6,18.1-42.9,40.4-42.9h0.7
	c22.3,0,40.4,19.2,40.4,42.9v28.5C219,137,200.9,156.2,178.6,156.2z M177.9,49.1c-18.6,0-33.7,16-33.7,35.8v28.5
	c0,19.7,15.1,35.8,33.7,35.8h0.7c18.6,0,33.7-16,33.7-35.8V84.9c0-19.7-15.1-35.8-33.7-35.8L177.9,49.1L177.9,49.1z"/>
<path class="st3" d="M306.3,156.2h-0.7c-22.3,0-40.4-19.2-40.4-42.9V84.9c0-23.6,18.1-42.9,40.4-42.9h0.7
	c22.3,0,40.4,19.2,40.4,42.9v28.5C346.8,137,328.6,156.2,306.3,156.2z M305.7,49.1c-18.6,0-33.7,16-33.7,35.8v28.5
	c0,19.7,15.1,35.8,33.7,35.8h0.7c18.6,0,33.7-16,33.7-35.8V84.9c0-19.7-15.1-35.8-33.7-35.8L305.7,49.1L305.7,49.1z"/>
<path class="st4" d="M339.3,280.2c-4.3-1.2-7.3-5.1-7.3-9.6c0-49.1-39.6-89-88.5-89c-48.9,0-88.5,39.8-88.5,89c0,4.5-3,8.4-7.3,9.6
	c-37.3,10-64.8,44.2-64.8,84.9v2.2c0,48.5,39.1,87.9,87.4,87.9h146.4c48.3,0,87.4-39.4,87.4-87.9v-2.2
	C404.1,324.4,376.6,290.2,339.3,280.2z"/>
<path class="st5" d="M316.7,459H170.3c-50,0-90.7-41.1-90.7-91.7v-2.2c0-41.5,27.7-77.9,67.4-88.6c2.8-0.8,4.7-3.2,4.7-5.9
	c0-51.2,41.2-92.8,91.8-92.8c50.6,0,91.8,41.6,91.8,92.8c0,2.7,1.9,5.1,4.7,5.9c39.7,10.7,67.4,47.1,67.4,88.6v2.2
	C407.4,417.9,366.7,459,316.7,459z M243.5,185.4c-46.9,0-85.1,38.2-85.1,85.2c0,6.3-4.1,11.7-9.9,13.3
	c-36.6,9.8-62.2,43.2-62.2,81.2v2.2c0,46.4,37.7,84.1,84.1,84.1h146.3c46.3,0,84.1-37.7,84.1-84.1v-2.2c0-38-25.6-71.4-62.2-81.2
	c-5.8-1.6-9.9-7-9.9-13.3C328.6,223.7,290.4,185.4,243.5,185.4z"/>
<path class="st2" d="M195.1,323.4l25.8-29.3c1.3-1.5,3.4-1.5,4.7,0l8.6,9.7c2,2.3,5.4,0.9,5.7-2.3l2.5-31.8l1.1-13.2
	c0.2-2.4-1.6-4.3-3.6-4.1l-11.6,1.2l-28,2.9c-2.8,0.3-4.1,4.2-2.1,6.5l8.6,9.7c1.3,1.5,1.3,3.9,0,5.4L181.2,307
	c-0.6,0.6-1.4,0.7-2.1,0.2c-18.8-13.5-44.1-10.6-60.1,8.6c-16.8,20.1-17.4,52.1-1.2,72.9c18.3,23.7,50.2,24.5,69.6,2.6
	c15.6-17.7,18.1-44.8,7.5-65.6C194.5,325,194.6,324,195.1,323.4z M134.2,375.2c-10.8-12.2-10.8-32.1,0-44.3
	c10.8-12.2,28.3-12.2,39,0c10.8,12.2,10.8,32.1,0,44.3C162.5,387.4,145,387.4,134.2,375.2z"/>
<path class="st2" d="M301.7,363.5c21.7-4.8,37.8-24,37.1-46.8c-0.7-23.9-20.2-43.7-44.5-45.2c-27.7-1.7-50.8,19.8-50.8,46.5
	c0,21.6,15.1,39.8,35.5,45.1c0.7,0.2,1.3,0.8,1.3,1.6v11.4c0,0.9-0.7,1.6-1.7,1.6h-20.1c-1.8,0-3.3,1.5-3.3,3.3v13.1
	c0,1.8,1.5,3.3,3.3,3.3h20.1c0.9,0,1.7,0.7,1.7,1.6v40.9c0,1.8,1.5,3.3,3.3,3.3H297c1.8,0,3.3-1.5,3.3-3.3V399
	c0-0.9,0.7-1.6,1.7-1.6h20.1c1.8,0,3.3-1.5,3.3-3.3V381c0-1.8-1.5-3.3-3.3-3.3h-20.1c-0.9,0-1.7-0.7-1.7-1.6v-11
	C300.4,364.3,300.9,363.7,301.7,363.5z M263.8,321.6c-2.3-17.6,12.9-32.5,31-30.3c12.3,1.5,22.2,11.2,23.8,23.2
	c2.3,17.6-12.9,32.5-31,30.3C275.3,343.3,265.4,333.6,263.8,321.6z"/>
</svg>
