<?xml version="1.0" encoding="utf-8"?>
<!-- Generator: Adobe Illustrator 25.0.1, SVG Export Plug-In . SVG Version: 6.00 Build 0)  -->
<svg version="1.1" id="Capa_1" xmlns="http://www.w3.org/2000/svg" xmlns:xlink="http://www.w3.org/1999/xlink" x="0px" y="0px"
	 viewBox="0 0 488 488" style="enable-background:new 0 0 488 488;" xml:space="preserve">
<style type="text/css">
	.st0{fill:#18CED0;}
</style>
<path class="st0" d="M272.8,240.2l30.8-30.8c1.6-1.6,4.1-1.6,5.6,0l10.2,10.2c2.4,2.4,6.5,0.9,6.8-2.5l3-33.5l1.3-13.9
	c0.2-2.5-1.9-4.6-4.3-4.3l-13.9,1.3l-33.5,3c-3.4,0.3-4.9,4.4-2.5,6.8l10.2,10.2c1.6,1.6,1.6,4.1,0,5.7l-30.4,30.4
	c-0.7,0.7-1.7,0.8-2.5,0.3c-22.4-14.2-52.7-11.2-71.8,9c-20.1,21.2-20.7,54.8-1.5,76.7c21.9,24.9,60,25.8,83.1,2.7
	c18.7-18.7,21.6-47.2,8.9-69C272.1,241.9,272.2,240.9,272.8,240.2z M200,294.7c-12.9-12.9-12.9-33.8,0-46.6
	c12.9-12.9,33.8-12.9,46.6,0c12.9,12.9,12.9,33.8,0,46.6C233.8,307.5,212.9,307.5,200,294.7z"/>
</svg>
