<?xml version="1.0" encoding="utf-8"?>
<!-- Generator: Adobe Illustrator 25.0.1, SVG Export Plug-In . SVG Version: 6.00 Build 0)  -->
<svg version="1.1" id="Capa_1" xmlns="http://www.w3.org/2000/svg" xmlns:xlink="http://www.w3.org/1999/xlink" x="0px" y="0px"
	 viewBox="0 0 488 488" style="enable-background:new 0 0 488 488;" xml:space="preserve">
<style type="text/css">
	.st0{fill:#18CED0;}
</style>
<path class="st0" d="M261.6,248.2c25.9-5.9,45.1-29.3,44.4-57.1c-0.8-29.2-24.1-53.4-53.2-55.3c-33.1-2.1-60.7,24.2-60.7,56.8
	c0,26.4,18.1,48.6,42.5,55.1c0.9,0.2,1.5,1,1.5,1.9v14c0,1.1-0.9,2-2,2h-24c-2.2,0-4,1.8-4,4v16c0,2.2,1.8,4,4,4h24c1.1,0,2,0.9,2,2
	v50c0,2.2,1.8,4,4,4h16c2.2,0,4-1.8,4-4v-50c0-1.1,0.9-2,2-2h24c2.2,0,4-1.8,4-4v-16c0-2.2-1.8-4-4-4h-24c-1.1,0-2-0.9-2-2v-13.5
	C260,249.2,260.7,248.4,261.6,248.2z M216.3,196.9c-2.7-21.5,15.5-39.7,37-37c14.7,1.9,26.5,13.7,28.4,28.4
	c2.7,21.5-15.5,39.7-37,37C230,223.5,218.2,211.6,216.3,196.9z"/>
</svg>
