<?xml version="1.0" encoding="utf-8"?>
<!-- Generator: Adobe Illustrator 25.0.1, SVG Export Plug-In . SVG Version: 6.00 Build 0)  -->
<svg version="1.1" id="Capa_1" xmlns="http://www.w3.org/2000/svg" xmlns:xlink="http://www.w3.org/1999/xlink" x="0px" y="0px"
	 viewBox="0 0 488 488" style="enable-background:new 0 0 488 488;" xml:space="preserve">
<style type="text/css">
	.st0{fill:#E2C48C;}
	.st1{fill:#EED6AD;}
	.st2{fill:#A65F29;}
	.st3{fill:#FF8899;}
	.st4{fill:#FFDC64;}
	.st5{fill:#FFDC65;}
	.st6{fill:#3762CC;}
	.st7{fill:#E0EBFC;}
</style>
<path class="st0" d="M344,104c0,55.2-44.8,100-100,100s-100-44.8-100-100S188.8,4,244,4S344,48.8,344,104z"/>
<path class="st1" d="M324,104c0,44.2-35.8,80-80,80s-80-35.8-80-80s35.8-80,80-80S324,59.8,324,104z"/>
<g>
	<path class="st2" d="M244,52c-3.3,0-6-2.7-6-6V30c0-3.3,2.7-6,6-6s6,2.7,6,6v16C250,49.3,247.3,52,244,52z"/>
	<path class="st2" d="M244,184c-3.3,0-6-2.7-6-6v-16c0-3.3,2.7-6,6-6s6,2.7,6,6v16C250,181.3,247.3,184,244,184z"/>
	<path class="st2" d="M296,104c0-3.3,2.7-6,6-6h16c3.3,0,6,2.7,6,6s-2.7,6-6,6h-16C298.7,110,296,107.3,296,104z"/>
	<path class="st2" d="M164,104c0-3.3,2.7-6,6-6h16c3.3,0,6,2.7,6,6s-2.7,6-6,6h-16C166.7,110,164,107.3,164,104z"/>
	<path class="st2" d="M280.8,140.8c2.3-2.3,6.1-2.3,8.5,0l11.3,11.3c2.3,2.3,2.3,6.1,0,8.5s-6.1,2.3-8.5,0l-11.3-11.3
		C278.4,146.9,278.4,143.1,280.8,140.8z"/>
	<path class="st2" d="M187.4,47.4c2.3-2.3,6.1-2.3,8.5,0l11.3,11.3c2.3,2.3,2.3,6.1,0,8.5s-6.1,2.3-8.5,0l-11.3-11.3
		C185.1,53.6,185.1,49.8,187.4,47.4z"/>
	<path class="st2" d="M207.2,140.8c2.3,2.3,2.3,6.1,0,8.5l-11.3,11.3c-2.3,2.3-6.1,2.3-8.5,0s-2.3-6.1,0-8.5l11.3-11.3
		C201.1,138.4,204.9,138.4,207.2,140.8z"/>
	<path class="st2" d="M300.6,47.4c2.3,2.3,2.3,6.1,0,8.5l-11.3,11.3c-2.3,2.3-6.1,2.3-8.5,0s-2.3-6.1,0-8.5l11.3-11.3
		C294.4,45.1,298.2,45.1,300.6,47.4z"/>
</g>
<path class="st3" d="M248,116.7l47.4-10.7c2.1-0.5,2.1-3.4,0-3.9L248,91.3c-1.9-0.9-4.1-1.4-6.4-1.3c-7.4,0.2-13.6,6.6-13.6,14
	c0,7.7,6.3,14,14,14C244.1,118,246.1,117.5,248,116.7z"/>
<path class="st2" d="M252,104c0,4.4-3.6,8-8,8s-8-3.6-8-8s3.6-8,8-8S252,99.6,252,104z"/>
<path class="st2" d="M264,388V202c-6.5,1.3-13.1,2-20,2s-13.5-0.7-20-2v186H264z"/>
<path class="st4" d="M244,208c-57.3,0-104-46.7-104-104S186.7,0,244,0s104,46.7,104,104S301.3,208,244,208z M244,8
	c-52.9,0-96,43.1-96,96s43.1,96,96,96s96-43.1,96-96S296.9,8,244,8z"/>
<path class="st2" d="M244,188c-46.3,0-84-37.7-84-84s37.7-84,84-84s84,37.7,84,84S290.3,188,244,188z M244,28c-41.9,0-76,34.1-76,76
	s34.1,76,76,76s76-34.1,76-76S285.9,28,244,28z"/>
<path class="st5" d="M264,392h-40c-2.2,0-4-1.8-4-4V202c0-1.2,0.5-2.3,1.5-3.1c0.9-0.8,2.1-1.1,3.3-0.8c12.6,2.6,25.8,2.6,38.4,0
	c1.2-0.2,2.4,0.1,3.3,0.8c0.9,0.8,1.5,1.9,1.5,3.1v186C268,390.2,266.2,392,264,392z M228,384h32V206.8c-10.6,1.6-21.4,1.6-32,0V384
	z"/>
<path class="st3" d="M142,484h-32c-2.2,0-4-1.8-4-4v-24h40v24C146,482.2,144.2,484,142,484z"/>
<path class="st3" d="M380,484h-32c-2.2,0-4-1.8-4-4v-24h40v24C384,482.2,382.2,484,380,484z"/>
<path class="st2" d="M142,488h-32c-4.4,0-8-3.6-8-8v-24c0-2.2,1.8-4,4-4h40c2.2,0,4,1.8,4,4v24C150,484.4,146.4,488,142,488z
	 M110,460v20h32v-20H110z"/>
<path class="st2" d="M380,488h-32c-4.4,0-8-3.6-8-8v-24c0-2.2,1.8-4,4-4h40c2.2,0,4,1.8,4,4v24C388,484.4,384.4,488,380,488z
	 M348,460v20h32v-20H348z"/>
<path class="st1" d="M413.6,428H74.4c-5.7,0-10.4-4.7-10.4-10.4v-19.2c0-5.7,4.7-10.4,10.4-10.4h339.2c5.7,0,10.4,4.7,10.4,10.4
	v19.2C424,423.3,419.3,428,413.6,428z"/>
<path class="st1" d="M397.9,456H90.1c-5.7,0-10.4-4.7-10.4-10.4V428h328.5v17.6C408.2,451.3,403.6,456,397.9,456z"/>
<path class="st6" d="M413.6,432H74.4c-7.9,0-14.4-6.5-14.4-14.4v-19.2c0-7.9,6.5-14.4,14.4-14.4h339.2c7.9,0,14.4,6.5,14.4,14.4
	v19.2C428,425.5,421.5,432,413.6,432z M74.4,392c-3.5,0-6.4,2.9-6.4,6.4v19.2c0,3.5,2.9,6.4,6.4,6.4h339.2c3.5,0,6.4-2.9,6.4-6.4
	v-19.2c0-3.5-2.9-6.4-6.4-6.4H74.4z"/>
<path class="st2" d="M397.9,460H90.1c-7.9,0-14.4-6.5-14.4-14.4V428c0-2.2,1.8-4,4-4h328.5c2.2,0,4,1.8,4,4v17.6
	C412.2,453.5,405.8,460,397.9,460z M83.8,432v13.6c0,3.5,2.9,6.4,6.4,6.4h307.7c3.5,0,6.4-2.9,6.4-6.4V432H83.8z"/>
<path class="st2" d="M413.6,432H74.4c-7.9,0-14.4-6.5-14.4-14.4v-19.2c0-7.9,6.5-14.4,14.4-14.4h339.2c7.9,0,14.4,6.5,14.4,14.4
	v19.2C428,425.5,421.5,432,413.6,432z M74.4,392c-3.5,0-6.4,2.9-6.4,6.4v19.2c0,3.5,2.9,6.4,6.4,6.4h339.2c3.5,0,6.4-2.9,6.4-6.4
	v-19.2c0-3.5-2.9-6.4-6.4-6.4H74.4z"/>
<path class="st5" d="M319.1,345.1c-7.1,0-12.4-1.3-12.8-1.5c-3.8-1-6.1-4.8-5.1-8.6c1-3.8,4.9-6,8.7-5.1c0.3,0.1,15.5,3.8,24.6-3.3
	c4.9-3.8,7.4-10.5,7.4-19.9c0-3.9,3.2-7.1,7.1-7.1s7.1,3.2,7.1,7.1c0,14-4.4,24.5-13,31.1C335.5,343.6,326.4,345.1,319.1,345.1z"/>
<path class="st2" d="M319.1,349.1c-7.5,0-13.2-1.4-13.8-1.6c-2.9-0.8-5.3-2.6-6.8-5.1s-1.9-5.5-1.2-8.4c1.5-5.9,7.6-9.4,13.5-7.9
	c3.8,0.9,14.9,2.3,21.2-2.6c3.9-3,5.8-8.6,5.8-16.7c0-6.1,5-11.1,11.1-11.1s11.1,5,11.1,11.1c0,15.4-4.9,26.9-14.5,34.3
	C338.6,346.3,329.5,349.1,319.1,349.1z M308,333.7c-1.4,0-2.7,0.9-3,2.3c-0.2,0.8-0.1,1.6,0.3,2.3c0.4,0.7,1.1,1.2,1.9,1.4
	c0.2,0.1,5.2,1.3,11.8,1.3c6,0,14.7-1.1,21.5-6.4c7.6-5.8,11.4-15.2,11.4-27.9c0-1.7-1.4-3.1-3.1-3.1s-3.1,1.4-3.1,3.1
	c0,10.7-3,18.5-9,23.1c-10.6,8.2-27.3,4.2-28,4C308.5,333.8,308.3,333.7,308,333.7z"/>
<path class="st4" d="M280.6,278.2L204.9,203v-1.2c1.1-3,1.8-6.3,1.8-9.8v-35.3c0-13.7-9.7-24.7-21.7-24.7h-31
	c-12,0-21.7,11.1-21.7,24.7v5.3c0,1.6-1,2.9-2.5,3.4l-18.2,5.4l0,0c-6.3,0-11.5,5.8-11.5,13.1v19.8c0,7.2,5.1,13.1,11.5,13.1h42.1
	c1,0,1.8,0.4,2.4,1.1v25c-13.1,13.6-12.9,35.3,0.6,48.7l27.9,27.7l23.8,31.5c7.9,21.8,28.9,37.3,53.5,37.3
	c31.4,0,56.9-25.3,56.9-56.5C318.7,306.8,302.7,285.9,280.6,278.2z"/>
<path class="st4" d="M318.7,331.5c0-31.2-25.5-56.5-56.9-56.5s-56.9,25.3-56.9,56.5s25.5,56.5,56.9,56.5S318.7,362.7,318.7,331.5z"
	/>
<path class="st5" d="M250.2,388h-46.9c-2.8,0-5.1-2.3-5.1-5.1v-1.1c0-9.1,7.4-16.5,16.5-16.5h35.5c6,0,10.8,4.8,10.8,10.8v1.1
	C261,383.2,256.2,388,250.2,388z"/>
<path class="st7" d="M121.3,185h-20.7c-0.4,1.1-0.6,2.4-0.6,3.6v17c0,6.2,5.1,11.2,11.5,11.2h27.6c2,0,3.6-1.6,3.6-3.5v-10.1
	C142.7,193.1,133.1,185,121.3,185z"/>
<path class="st5" d="M188,290.9l-32-5.3l15.2,79.4H162c-7.3,0-13.2,5.8-13.2,13.1v5.9c0,2.2,1.8,4,4,4h27.6c6,0,10.9-5,10.7-11
	L188,290.9z"/>
<path class="st2" d="M151.6,167.3L151.6,167.3c-3,0-5.4-2.4-5.4-5.3v-7c0-2.9,2.4-5.3,5.3-5.3l0,0c2.9,0,5.3,2.4,5.3,5.3v7
	C156.9,164.9,154.5,167.3,151.6,167.3z"/>
<path class="st2" d="M116,183.2v-8.8c0-1.7-0.6-3.2-1.6-4.4l-2.9,0.9c-6.3,0-11.5,5.8-11.5,13.1v6.4h8.9
	C112.8,190.3,116,187.1,116,183.2z"/>
<path class="st7" d="M108.9,194.3H100c-2.2,0-4-1.8-4-4v-6.4c0-9.2,6.6-16.7,14.8-17l2.4-0.7c1.5-0.5,3.2,0.1,4.2,1.3
	c1.6,2,2.5,4.4,2.5,6.9v8.8C120,189.3,115,194.3,108.9,194.3z M104,186.3h4.9c1.7,0,3.1-1.4,3.1-3.1v-8.4c-0.2,0-0.4,0-0.5,0
	c-4.1,0-7.5,4.1-7.5,9.1V186.3z"/>
<path class="st2" d="M261.8,392c-2.6,0-5.2-0.2-7.8-0.5c-1.2,0.3-2.5,0.5-3.8,0.5h-46.9c-5,0-9.1-4.1-9.1-9v-1.2
	c0-9.4,6.4-17.3,15-19.7c-5.5-9.2-8.3-19.7-8.3-30.6c0-14,4.9-27.7,13.9-38.5c1.4-1.7,3.9-1.9,5.6-0.5c1.7,1.4,1.9,3.9,0.5,5.6
	c-7.8,9.4-12.1,21.2-12.1,33.4c0,11.4,3.6,22.3,10.5,31.4c0.9,1.2,1.1,2.8,0.4,4.2c-0.7,1.4-2.1,2.2-3.6,2.2h-1.4
	c-6.9,0-12.6,5.6-12.6,12.4v1.2c0,0.6,0.5,1,1.1,1h46.9c0.7,0,1.5-0.1,2.2-0.4c0.6-0.2,1.2-0.3,1.8-0.2c2.5,0.4,5.1,0.5,7.5,0.5
	c29.2,0,52.9-23.5,52.9-52.5c0-2.2,1.8-4,4-4s4,1.8,4,4C322.7,364.9,295.4,392,261.8,392z"/>
<path class="st2" d="M261.8,392c-25.4,0-48.2-15.8-57.1-39.4l-11-14.5l1.4,38.8c0.1,4-1.3,7.8-4.1,10.6c-2.8,2.9-6.6,4.5-10.6,4.5
	h-27.6c-4.4,0-8-3.6-8-8v-5.9c0-9.4,7.7-17.1,17.2-17.1h4.3l-12.8-66.9c-14.3-14.4-14.9-37.7-1.6-52.9v-20.5h-40.5
	c-8.5,0-15.5-7.7-15.5-17.1v-19.8c0-9.2,6.6-16.7,14.8-17l17.4-5.2v-5c0-15.8,11.5-28.7,25.7-28.7h31c14.2,0,25.7,12.9,25.7,28.7
	V192c0,3.3-0.5,6.5-1.5,9.6l73.6,73.1c23.9,8.7,39.9,31.4,39.9,56.8C322.7,364.9,295.4,392,261.8,392z M162,369
	c-5,0-9.2,4.1-9.2,9.1v5.9h27.6c1.8,0,3.6-0.7,4.8-2s1.9-3,1.8-4.8l-1.9-51.5c-0.1-1.7,1-3.3,2.7-3.9c1.6-0.6,3.5,0,4.5,1.4l19,25.2
	c0.2,0.3,0.4,0.7,0.6,1c7.5,20.7,27.5,34.7,49.8,34.7c29.2,0,52.9-23.5,52.9-52.5c0-22.3-14.2-42.2-35.4-49.6
	c-0.6-0.2-1.1-0.5-1.5-0.9L202,206c-0.8-0.8-1.2-1.8-1.2-2.8V202c0-0.5,0.1-1,0.3-1.4c1-2.7,1.5-5.5,1.5-8.4v-35.3
	c0-11.4-7.9-20.7-17.7-20.7h-31c-9.8,0-17.7,9.3-17.7,20.7v5.3c0,3.3-2.2,6.3-5.4,7.2l-18.2,5.4c-0.4,0.1-0.8,0.2-1.1,0.2
	c-4.1,0-7.5,4.1-7.5,9.1v19.8c0,5,3.4,9.1,7.5,9.1h42.1c2,0,4,0.9,5.4,2.3c0.7,0.7,1.1,1.7,1.1,2.7v25c0,1-0.4,2-1.1,2.8
	c-11.5,12-11.3,31.3,0.5,43.1l0.7,0.7c0.6,0.6,1,1.3,1.1,2.1l13.9,72.9c0.2,1.2-0.1,2.4-0.8,3.3c-0.8,0.9-1.9,1.4-3.1,1.4H162V369z"
	/>
<path class="st7" d="M210.3,197.3H198c-9,0-16.2-7.3-16.2-16.2V132h21.4c11.7,0,21.3,9.5,21.3,21.3v29.9
	C224.4,191,218.1,197.3,210.3,197.3z"/>
<path class="st2" d="M210.3,201.3H198c-11.2,0-20.2-9.1-20.2-20.2V132c0-2.2,1.8-4,4-4h21.4c13.9,0,25.3,11.3,25.3,25.3v29.9
	C228.4,193.2,220.3,201.3,210.3,201.3z M185.8,136v45.1c0,6.8,5.5,12.2,12.2,12.2h12.3c5.6,0,10.2-4.6,10.2-10.2v-29.9
	c0-9.5-7.7-17.3-17.3-17.3L185.8,136L185.8,136z"/>
</svg>
