<?xml version="1.0" encoding="utf-8"?>
<!-- Generator: Adobe Illustrator 25.1.0, SVG Export Plug-In . SVG Version: 6.00 Build 0)  -->
<svg version="1.1" id="Capa_1" xmlns="http://www.w3.org/2000/svg" xmlns:xlink="http://www.w3.org/1999/xlink" x="0px" y="0px"
	 viewBox="0 0 512 512" style="enable-background:new 0 0 512 512;" xml:space="preserve">
<style type="text/css">
	.st0{fill:#C97840;}
	.st1{fill:#AE632C;}
	.st2{fill:#FFA73C;}
	.st3{fill:#FDC661;}
	.st4{fill:#351A0A;}
	.st5{fill:#281408;}
	.st6{fill:#412816;}
	.st7{fill:#FFC850;}
	.st8{fill:#EBAF4B;}
	.st9{fill:#FFDC64;}
	.st10{fill:#FF8087;}
	.st11{fill:#5D5360;}
	.st12{fill:#E1A546;}
	.st13{fill:#4B3F4E;}
	.st14{fill:#FFFFFF;}
	.st15{fill:#E6646E;}
	.st16{fill:#F8F6F6;}
	.st17{fill:#EED6AD;}
	.st18{fill:#E2C48C;}
	.st19{fill:#F6E0B9;}
	.st20{fill:#E59298;}
	.st21{fill:#E17780;}
	.st22{fill:#716E6E;}
</style>
<g>
	<path class="st0" d="M339.3,35.7c-2.6,1-64.7,25-70.7,75.5c-0.7,5.6-1.3,12.1-2,19.1c-1.9,18.5-4.1,39.5-6.8,50.5
		c-1.5,6-3,10.9-4.5,15.6c-3.4,10.8-6.3,20.1-6.3,35.8c0,14,5.2,27.3,14.7,37.4c9.6,10.2,22.2,15.8,35.6,15.8
		c27.8,0,50.3-23.8,50.3-53.1L339.3,35.7z"/>
	<path class="st1" d="M421.1,35.7c2.6,1,64.7,25,70.7,75.5c0.7,5.6,1.3,12.1,2,19.1c1.9,18.5,4.1,39.5,6.8,50.5
		c1.5,6,3,10.9,4.5,15.6c3.4,10.8,6.3,20.1,6.3,35.8c0,14-5.2,27.3-14.7,37.4c-9.6,10.2-22.2,15.8-35.6,15.8
		c-27.8,0-50.3-23.8-50.3-53.1L421.1,35.7z"/>
	<g>
		<path class="st2" d="M465.9,98.7c0-23.6-8.9-46.2-25.1-63.4c-16.3-17.4-37.9-27-60.7-27l-5.5,121.2l5.5,107.1
			c6.3,6.8,14.9,10.7,24.2,10.7c0.1,0,0.1,0,0.2,0c8.8,0,17.2-3.6,23.7-9.9c6.5-6.3,10.4-14.9,11.1-24.2l0.9-15.1l16.4-42.2l0.1-0.1
			C466.3,129.8,466,108.1,465.9,98.7L465.9,98.7z"/>
		<path class="st3" d="M380.2,8.3c-22.8,0-44.3,9.6-60.7,27c-16.2,17.2-25.1,39.8-25.1,63.4c-0.1,9.4-0.3,31.1,9.2,57l16.5,42.4
			l0.9,15l0,0.1c0.7,9.3,4.7,17.9,11.1,24.2s14.9,9.8,23.7,9.9c0.1,0,0.1,0,0.2,0c9.3,0,17.9-3.9,24.2-10.7L380.2,8.3
			C380.2,8.3,380.2,8.3,380.2,8.3L380.2,8.3z"/>
	</g>
	<path class="st4" d="M330.2,114.2h15.4v16.2h-15.4V114.2z"/>
	<g>
		<path class="st5" d="M414.8,114.2h15.4v16.2h-15.4V114.2z"/>
	</g>
	<g>
		<path class="st5" d="M386.4,171h-6.2l-6.8,19.3l6.8,31.5l16.7-10.8c6.1-3.9,9.9-10.9,9.9-18.5C406.8,180.7,397.7,171,386.4,171z"
			/>
		<path class="st6" d="M374,171c-11.3,0-20.4,9.6-20.4,21.5c0,7.6,3.8,14.6,9.9,18.5l16.7,10.8V171L374,171L374,171z"/>
	</g>
</g>
<g>
	<path class="st7" d="M230.6,15.5c5.7-4.8,14.3-0.6,14.3,6.9v119.9l-96.2-58.2L230.6,15.5z"/>
	<path class="st8" d="M236.1,137.1l-58.6-35.4l48.8-56.3c3.4-3.9,9.8-1.5,9.8,3.8V137.1z"/>
	<path class="st7" d="M31.7,15.5c-5.7-4.8-14.3-0.6-14.3,6.9v119.9l96.2-58.2L31.7,15.5z"/>
	<path class="st8" d="M26.2,137.1l58.6-35.4L36,45.3c-3.4-3.9-9.8-1.5-9.8,3.8V137.1z"/>
	<ellipse class="st9" cx="131.2" cy="171.4" rx="122.4" ry="118.6"/>
	<path class="st10" d="M148.6,245.3v8.9c0,9.9-7.8,17.9-17.5,17.9l0,0c-9.7,0-17.5-8-17.5-17.9v-8.9l17.5-8.9L148.6,245.3z"/>
	<path class="st11" d="M140.8,199.2h-19.3c-4.2,0-6.5,4.9-3.9,8.3l9.7,12.2c2,2.5,5.7,2.5,7.7,0l9.7-12.2
		C147.3,204.1,145,199.2,140.8,199.2z"/>
	<g>
		<path class="st12" d="M249.2,249.7c-0.7,0-1.4-0.2-2-0.5c-26.4-14.1-67.8-22.4-68.2-22.5c-2.4-0.5-3.9-2.8-3.5-5.2
			c0.5-2.4,2.7-4,5.1-3.5c1.7,0.3,43,8.7,70.6,23.4c2.1,1.1,3,3.8,1.9,6C252.3,248.9,250.8,249.7,249.2,249.7z"/>
		<path class="st12" d="M257.9,218.4c-0.4,0-0.8-0.1-1.1-0.2c-24.5-6.7-69.1-5.5-69.5-5.4c-2.5,0.1-4.4-1.9-4.5-4.3
			c-0.1-2.5,1.8-4.5,4.2-4.6c1.9-0.1,46.3-1.3,72,5.7c2.3,0.6,3.7,3.1,3.1,5.5C261.6,217.1,259.9,218.4,257.9,218.4z"/>
	</g>
	<path class="st7" d="M161.8,281.1c-67.6,0-122.4-53.1-122.4-118.6c0-48.1,29.6-89.5,72-108.1c-58.2,9.2-102.6,58-102.6,117
		C8.7,236.9,63.5,290,131.2,290c18,0,35-3.8,50.4-10.5C175.1,280.5,168.5,281.1,161.8,281.1z"/>
	<g>
		<path class="st12" d="M13.1,249.7c-1.6,0-3.1-0.9-3.9-2.4c-1.1-2.2-0.3-4.9,1.9-6c27.6-14.7,68.8-23,70.6-23.4
			c2.4-0.5,4.7,1.1,5.1,3.5c0.5,2.4-1.1,4.8-3.5,5.2c-0.4,0.1-41.8,8.4-68.2,22.5C14.5,249.6,13.8,249.7,13.1,249.7z"/>
		<path class="st12" d="M4.4,218.4c-1.9,0-3.7-1.3-4.2-3.3c-0.6-2.4,0.8-4.8,3.1-5.5c25.7-7.1,70.2-5.8,72-5.7
			c2.4,0.1,4.3,2.1,4.2,4.6c-0.1,2.5-2.2,4.4-4.5,4.3c-0.4,0-45-1.3-69.5,5.4C5.1,218.4,4.7,218.4,4.4,218.4z"/>
	</g>
	<path class="st13" d="M80.9,187.1L80.9,187.1c-8.4,0-15.3-7-15.3-15.7v-8.9c0-8.6,6.9-15.7,15.3-15.7l0,0c8.4,0,15.3,7,15.3,15.7
		v8.9C96.2,180,89.3,187.1,80.9,187.1z"/>
	<path class="st11" d="M80.9,146.8c-0.7,0-1.5,0.1-2.2,0.2v22.1c0,4.9,3.9,8.9,8.7,8.9s8.7-4,8.7-8.9v-6.7
		C96.2,153.9,89.3,146.8,80.9,146.8z"/>
	<ellipse class="st14" cx="80.9" cy="158" rx="6.6" ry="6.7"/>
	<path class="st13" d="M181.4,187.1L181.4,187.1c-8.4,0-15.3-7-15.3-15.7v-8.9c0-8.6,6.9-15.7,15.3-15.7l0,0c8.4,0,15.3,7,15.3,15.7
		v8.9C196.7,180,189.8,187.1,181.4,187.1z"/>
	<path class="st11" d="M181.4,146.8c-0.7,0-1.5,0.1-2.2,0.2v22.1c0,4.9,3.9,8.9,8.7,8.9s8.7-4,8.7-8.9v-6.7
		C196.7,153.9,189.8,146.8,181.4,146.8z"/>
	<ellipse class="st14" cx="181.4" cy="158" rx="6.6" ry="6.7"/>
	<path class="st13" d="M134.5,219.9l-9.7-19.6c-0.2-0.4-0.3-0.7-0.4-1.1h-3c-4.2,0-6.5,4.9-3.9,8.3l9.7,12.2
		c1.9,2.4,5.3,2.4,7.3,0.3C134.6,220,134.6,219.9,134.5,219.9z"/>
	<path class="st15" d="M131.2,236.3l-17.5,8.9v8.9c0,1.4,0.2,2.8,0.5,4.1c4.4-0.6,8.6-1.9,12.6-3.9v4.2c0,2.5,2,4.5,4.4,4.5
		s4.4-2,4.4-4.5v-4.2c4,2,8.2,3.3,12.6,3.9c0.3-1.3,0.5-2.7,0.5-4.1v-8.9L131.2,236.3z"/>
	<path class="st8" d="M153,249.7c-6.2,0-12.1-1.9-17.2-5.4c-2.7-1.9-6.5-1.9-9.3,0c-5.1,3.6-11,5.4-17.2,5.4c-7.5,0-14.8-2.8-20.4-8
		c-1.8-1.7-1.9-4.5-0.3-6.3c1.6-1.8,4.4-2,6.2-0.3c7.3,6.7,18.8,7.5,26.9,1.9c5.7-4,13.4-4,19.1,0c8,5.6,19.5,4.9,26.9-1.9
		c1.8-1.6,4.6-1.5,6.2,0.3c1.6,1.8,1.5,4.7-0.3,6.3C167.8,246.9,160.5,249.7,153,249.7z"/>
</g>
<g>
	<path class="st16" d="M212.6,498.2l-50.5,0c-2.7,0-4.6-2.7-3.7-5.3c2.1-6.2,7.9-10.6,14.7-10.6l12.2,0L212.6,498.2z"/>
	<path class="st17" d="M243.7,498.2c21.9,0,64.1-1,86.4-13.8v0c17.8-9.1,30.1-28.1,30.1-49.9c0-12.9-4.3-24.7-11.4-34.1
		c-7.5-9.9-12.8-21.4-15.1-33.7c-0.8-4.3-2.7-10.4-4.2-14.8c-1-3,0.4-6.3,3.3-7.6c6.3-2.7,16.5-9,19.6-22.2
		c7.4-31.1-38.4-70.7-62.2-61.4c-17.3,6.8-13.5,22.7-10.2,30.8c0.6,1.4-1,2.7-2.2,1.9c-10.2-6.5-21.9-10.2-34.2-10.2
		c-12.3,0-23.9,3.7-34.2,10.2c-1.2,0.8-2.8-0.5-2.2-1.9c3.3-8.2,7.1-24.1-10.2-30.8c-23.8-9.3-69.5,30.3-62.1,61.4
		c3.2,13.2,13.3,19.5,19.6,22.2c2.9,1.2,4.3,4.5,3.3,7.6c-1.5,4.4-3.4,10.5-4.2,14.8c-2.4,12.3-7.6,23.8-15.1,33.8
		c-7.1,9.4-11.4,21.3-11.4,34.1c0,21.8,12.3,40.7,30.1,49.9v0C179.6,497.2,221.8,498.2,243.7,498.2L243.7,498.2z"/>
	<g>
		<path class="st18" d="M360.1,434.5c0-12.9-4.3-24.7-11.4-34.1c-7.5-9.9-12.8-21.4-15.1-33.7c-0.8-4.3-2.7-10.4-4.2-14.8
			c-1-3,0.4-6.3,3.3-7.6c6.3-2.7,16.5-9,19.6-22.2c7.4-31.1-38.4-70.7-62.2-61.4c0,0,0,0,0,0c23.5,6.7,51,36.7,45.2,61.3
			c-3.1,13.2-13.3,19.5-19.6,22.2c-2.9,1.2-4.3,4.5-3.3,7.6c1.5,4.4,3.4,10.4,4.2,14.8c2.4,12.3,7.6,23.8,15.1,33.7
			c7.1,9.4,11.4,21.3,11.4,34.1c0,21.8-12.2,40.7-30.1,49.9v0c-19.7,11.3-54.9,13.4-77.9,13.8c3.1,0,5.9,0.1,8.5,0.1
			c21.9,0,64.1-1,86.4-13.8v0C347.9,475.2,360.1,456.3,360.1,434.5L360.1,434.5z"/>
	</g>
	<path class="st16" d="M332.7,344.3c-0.3,0.1-0.5,0.2-0.7,0.4c0,0-0.1,0-0.1,0c-1.1,0.4-2-1-1.3-1.9c2.6-3.2,5.9-8.4,6.2-15.2
		c0.3-6.5-4-15.1-12.2-15.4c-3.4-0.1-5.6,0.9-7.2,2.4c-2.9,2.7-7.4,2.1-9.3-1.3c-7-12.7-16-34.8-2.4-46c2.4-2,5-3.4,7.6-4.3
		c21.8,9.6,44.3,36.6,39,59.1C349.2,335.3,339.1,341.6,332.7,344.3L332.7,344.3z"/>
	<path class="st19" d="M335.6,320.7c0.9,2.3,1.3,4.7,1.2,6.9c-0.3,6.8-3.6,12-6.2,15.2c-0.8,0.9,0.1,2.3,1.3,1.9c0,0,0,0,0.1,0
		c0.2-0.1,0.5-0.3,0.8-0.4c6.3-2.7,16.5-9,19.6-22.2c5.3-22.5-17.1-49.4-39-59.1c-2.6,0.9-5.2,2.3-7.6,4.3c-0.2,0.2-0.4,0.3-0.6,0.5
		C323.3,279.6,339.2,301.6,335.6,320.7z"/>
	<path class="st16" d="M360.1,434.5c0-11.8-3.6-22.8-9.8-31.8l-14.8,14.3c-3.9,3.7-9,5.8-14.3,5.8l-13.7,0c-5.6,0-10.9-2.3-14.8-6.3
		c-3.9-4-9.3-6.3-14.8-6.3l-68.5,0c-5.6,0-10.9,2.3-14.8,6.3c-3.9,4-9.2,6.3-14.8,6.3l-13.7,0c-5.3,0-10.4-2.1-14.3-5.8l-14.9-14.3
		c-6.1,9-9.7,20-9.7,31.9c0,21.8,12.3,40.7,30.1,49.9v0c22.3,12.8,64.5,13.8,86.4,13.8c21.9,0,64.1-1,86.4-13.8v0
		C347.9,475.2,360.1,456.3,360.1,434.5z"/>
	<path class="st19" d="M360.1,434.5c0-11.8-3.6-22.8-9.8-31.8v0l-11.3,10.9c2.6,6.5,4,13.6,4,21c0,21.8-12.2,40.7-30.1,49.9v0
		c-19.7,11.3-54.9,13.4-77.9,13.8c3.1,0,5.9,0.1,8.5,0.1c21.9,0,64.1-1,86.4-13.8v0C347.9,475.2,360.1,456.3,360.1,434.5z"/>
	<path class="st14" d="M231.4,447.9l2.8,18.5c0.6,3.8,3.9,6.7,7.7,6.7l3.6,0c3.8,0,7-2.8,7.7-6.7l2.8-18.5L231.4,447.9z"/>
	<path class="st16" d="M154.5,344.4c0.3,0.1,0.5,0.2,0.7,0.4c0,0,0.1,0,0.1,0c1.1,0.4,2-1,1.3-1.9c-2.6-3.2-5.9-8.4-6.2-15.2
		c-0.3-6.5,4-15.1,12.2-15.4c3.4-0.1,5.6,0.9,7.2,2.4c2.9,2.7,7.4,2.1,9.3-1.3c7-12.8,16-34.8,2.4-46c-2.4-2-5-3.4-7.6-4.3
		c-21.8,9.7-44.3,36.6-38.9,59.1C138,335.4,148.1,341.7,154.5,344.4L154.5,344.4z"/>
	<path class="st18" d="M274.3,426.3c-3.1,0-5.6,2.6-5.5,5.7c0,5.6-4.5,10.2-10,10.2l-9.6,0c0-0.2,0-0.4,0-0.6l0-22.7
		c0-3.1-2.5-5.7-5.6-5.7c-3.1,0-5.6,2.6-5.5,5.7l0,22.7c0,0.2,0,0.4,0,0.6l-9.6,0c-5.5,0-10-4.6-10-10.2c0-3.1-2.5-5.7-5.6-5.7
		c-3.1,0-5.6,2.6-5.5,5.7c0,11.9,9.5,21.6,21.1,21.6l30.3,0c11.6,0,21.1-9.7,21.1-21.6C279.8,428.8,277.3,426.3,274.3,426.3z"/>
	<path class="st20" d="M228.9,397.6l29.3,0c2.4,0,4.7,1,6.4,2.7c4.6,4.7,3,12.6-3,15.1l-15.8,6.5c-1.4,0.6-3,0.6-4.4,0l-15.8-6.5
		c-6-2.5-7.6-10.4-3-15.1C224.3,398.6,226.6,397.6,228.9,397.6z"/>
	<path class="st21" d="M264.6,400.3c-1.7-1.7-4-2.7-6.4-2.7l-17,0c2.4,0,4.7,1,6.4,2.7c4.6,4.7,3,12.6-3,15.1l-9.5,3.9l6.3,2.6
		c1.4,0.6,3,0.6,4.4,0l15.8-6.5C267.6,412.9,269.2,405,264.6,400.3z"/>
	<ellipse class="st22" cx="206.8" cy="372.4" rx="12.3" ry="12.6"/>
	<ellipse class="st22" cx="280.5" cy="372.4" rx="12.3" ry="12.6"/>
	<path class="st16" d="M204.8,442.5l23.3,0l0,21.7l-23.3,0L204.8,442.5z"/>
</g>
</svg>
