<?xml version="1.0" encoding="utf-8"?>
<!-- Generator: Adobe Illustrator 25.0.1, SVG Export Plug-In . SVG Version: 6.00 Build 0)  -->
<svg version="1.1" id="Capa_1" xmlns="http://www.w3.org/2000/svg" xmlns:xlink="http://www.w3.org/1999/xlink" x="0px" y="0px"
	 viewBox="0 0 486 486" style="enable-background:new 0 0 486 486;" xml:space="preserve">
<style type="text/css">
	.st0{fill:#EED6AD;}
	.st1{fill:#FFDC64;}
	.st2{fill:#A66026;}
	.st3{fill:#E0EBFC;}
	.st4{fill:#FFDC65;}
	.st5{fill:#A66027;}
	.st6{fill:#A66028;}
	.st7{fill:#F9A7A7;}
	.st8{fill:#FFEA92;}
</style>
<path class="st0" d="M482,121.7C482,187,429,240,363.7,240c-65.4,0-118.3-53-118.3-118.3c0-65.3,53-118.3,118.3-118.3
	C429,3.3,482,56.3,482,121.7z"/>
<path class="st1" d="M457,121.7c0,51.5-41.8,93.3-93.3,93.3s-93.3-41.8-93.3-93.3s41.8-93.3,93.3-93.3S457,70.1,457,121.7z"/>
<path class="st2" d="M363.7,244c-67.5,0-122.3-54.9-122.3-122.3S296.2-0.7,363.7-0.7S486,54.2,486,121.7S431.1,244,363.7,244z
	 M363.7,7.3c-63,0-114.3,51.3-114.3,114.3c0,63,51.3,114.3,114.3,114.3S478,184.7,478,121.7C478,58.6,426.7,7.3,363.7,7.3z"/>
<path class="st2" d="M344.2,107.6c-9,0-17.4,2.8-23.6,7.7c2.2-22.8,10.8-26.1,19.9-26.1c8.1,0,12.5,3,14.5,10
	c0.6,2.2,2.7,3.7,4.9,3.7h12.4c1.5,0,2.9-0.7,3.9-1.8c1-1.2,1.4-2.7,1.1-4.2c-2.5-13.9-13.5-28.7-36.7-28.7c-19.1,0-42,10.1-42,58.1
	c0,28.1,4.9,60.3,43.3,60.3c23.8,0,39.1-15.6,39.1-39.7C381.1,123,366.6,107.6,344.2,107.6z M322.1,146.6c0-13.1,9.9-17.8,18.4-17.8
	c14.5,0,17.5,10.3,17.5,18.9c0,11.1-6.5,18-16.9,18C329,165.6,322.1,158.7,322.1,146.6z"/>
<path class="st2" d="M423.2,78.3h-13.9c-0.9,0-1.7-0.8-1.7-1.7V62.2c0-0.9-0.8-1.7-1.7-1.7h-9.1c-0.9,0-1.7,0.8-1.7,1.7v14.3
	c0,0.9-0.8,1.7-1.7,1.7h-13.9c-0.9,0-1.7,0.8-1.7,1.7v8.2c0,0.9,0.8,1.7,1.7,1.7h13.9c0.9,0,1.7,0.8,1.7,1.7v14.3
	c0,0.9,0.8,1.7,1.7,1.7h9.1c0.9,0,1.7-0.8,1.7-1.7V91.6c0-0.9,0.8-1.7,1.7-1.7h13.9c0.9,0,1.7-0.8,1.7-1.7V80
	C424.9,79,424.1,78.3,423.2,78.3z"/>
<path class="st3" d="M284,337.6L198.2,481l-28.3-15.8l85.9-143.4c4.4-7.4,14.2-9.9,21.8-5.6l0.6,0.3
	C285.8,320.7,288.4,330.2,284,337.6z"/>
<path class="st2" d="M198.2,483.9c-0.5,0-1-0.1-1.5-0.4l-28.3-15.8c-0.7-0.4-1.2-1-1.4-1.7c-0.2-0.7-0.1-1.5,0.3-2.2l85.9-143.4
	c5.2-8.7,16.8-11.7,25.9-6.7l0.6,0.3c4.4,2.4,7.5,6.4,8.8,11.1c1.3,4.7,0.6,9.7-1.9,13.9l-85.8,143.4
	C200.2,483.3,199.2,483.9,198.2,483.9z M173.9,464.2l23.2,12.9l84.4-140.9c1.7-2.9,2.2-6.3,1.3-9.5c-0.9-3.2-3.1-5.9-6.1-7.6
	l-0.6-0.3c-6.2-3.5-14.2-1.4-17.8,4.6L173.9,464.2z"/>
<path class="st4" d="M191.5,365.3h32.9c14.5,0,26.3,12.2,26.3,27.2v26.2c0,3-0.4,5.9-1.1,8.8l-12.9,50.2c-0.8,3-3.4,5-6.4,5h-38.8
	V365.3z"/>
<path class="st4" d="M69.9,365.3H37c-14.5,0-26.3,12.2-26.3,27.2v26.2c0,3,0.4,5.9,1.1,8.8l12.9,50.2c0.8,3,3.4,5,6.4,5h38.8V365.3z
	"/>
<path class="st2" d="M230.3,485.5h-38.8c-1.6,0-3-1.3-3-2.9V365.3c0-1.6,1.3-2.9,3-2.9h32.9c16.1,0,29.3,13.5,29.3,30.1v26.2
	c0,3.2-0.4,6.4-1.2,9.5l-12.9,50.2C238.4,482.5,234.6,485.5,230.3,485.5z M194.5,479.7h35.8c1.6,0,3-1.2,3.5-2.9l12.9-50.2
	c0.7-2.6,1-5.3,1-8.1v-26.2c0-13.4-10.5-24.3-23.3-24.3h-29.9L194.5,479.7L194.5,479.7z"/>
<path class="st2" d="M69.9,485.5H31.1c-4.3,0-8.1-3-9.2-7.2L8.9,428.1c-0.8-3.1-1.2-6.3-1.2-9.5v-26.2c0-16.6,13.1-30.1,29.3-30.1
	h32.9c1.6,0,3,1.3,3,2.9v117.3C72.8,484.2,71.5,485.5,69.9,485.5z M37,368.1c-12.9,0-23.3,10.9-23.3,24.3v26.2c0,2.7,0.3,5.4,1,8.1
	l12.9,50.2c0.4,1.7,1.9,2.9,3.5,2.9h35.8V368.1H37z"/>
<path class="st1" d="M202.8,255.9h-141L44.9,363.5c-2,12.8-3,25.7-3,38.6v55.1c0,14,12.5,25.4,27.8,25.4h125.2
	c15.4,0,27.8-11.4,27.8-25.4v-55.1c0-12.9-1-25.8-3-38.6L202.8,255.9z"/>
<path class="st2" d="M194.9,485.5H69.7c-17,0-30.8-12.7-30.8-28.2v-55.1c0-13,1-26.2,3-39l16.9-107.6c0.2-1.4,1.5-2.4,2.9-2.4h141
	c1.5,0,2.7,1,2.9,2.4l16.9,107.6c2,12.9,3,26,3,39v55.1C225.7,472.8,211.9,485.5,194.9,485.5z M64.4,258.7L47.9,363.9
	c-2,12.6-3,25.4-3,38.2v55.1c0,12.4,11.1,22.5,24.8,22.5h125.2c13.7,0,24.8-10.1,24.8-22.5v-55.1c0-12.7-1-25.6-3-38.2l-16.5-105.2
	H64.4z"/>
<path class="st0" d="M227.1,227.9l14.5-8.1c9.1-5.1,12.2-16.3,7-25.1l-26.5-44.2c-7.4-12.3-23.6-16.5-36.4-9.4l-31,17.3l36,60.1
	C198.1,230.8,214.4,235,227.1,227.9z"/>
<path class="st0" d="M37.5,227.9L23,219.8c-9.1-5.1-12.2-16.3-7-25.1l26.5-44.2c7.4-12.3,23.6-16.5,36.4-9.4l31,17.3l-36,60.1
	C66.5,230.8,50.2,235,37.5,227.9z"/>
<path class="st5" d="M213.9,234.2c-10.2,0-20.2-5.1-25.7-14.3l-36-60.1c-0.4-0.7-0.5-1.4-0.3-2.2c0.2-0.7,0.7-1.4,1.4-1.7l31-17.3
	c14.1-7.9,32.3-3.2,40.4,10.5l26.5,44.2c2.9,4.9,3.7,10.6,2.2,16.1c-1.5,5.5-5.2,10.1-10.3,12.9l-14.5,8.1
	C224,233,218.9,234.2,213.9,234.2z M158.8,159.4l34.5,57.6c6.5,10.9,21,14.6,32.3,8.4h0l14.5-8.1c3.7-2.1,6.4-5.4,7.5-9.4
	c1.1-4,0.5-8.2-1.6-11.8l-26.5-44.2c-6.5-10.9-21-14.6-32.3-8.4L158.8,159.4z"/>
<path class="st2" d="M50.8,234.2c-5,0-10.1-1.2-14.7-3.8l-14.5-8.1c-5.1-2.8-8.7-7.4-10.3-12.9c-1.5-5.5-0.7-11.2,2.2-16.1
	l26.5-44.2c8.2-13.6,26.3-18.3,40.4-10.5l31,17.3c0.7,0.4,1.2,1,1.4,1.7c0.2,0.7,0.1,1.5-0.3,2.2l-36,60.1
	C71,229.1,61,234.2,50.8,234.2z M65.6,140.5c-8.2,0-16.2,4.1-20.5,11.4l-26.5,44.2c-2.1,3.6-2.7,7.8-1.6,11.8c1.1,4,3.8,7.3,7.5,9.4
	l14.5,8.1h0c11.3,6.3,25.8,2.5,32.3-8.4l34.5-57.6l-28.4-15.8C73.6,141.5,69.6,140.5,65.6,140.5z"/>
<path class="st1" d="M139.7,324.8h-16.5c-34.5,0-62.4-27-62.4-60.3V198c0-29.8,25-53.9,55.9-53.9h29.6c30.8,0,55.9,24.1,55.9,53.9
	v66.6C202.2,297.9,174.2,324.8,139.7,324.8z"/>
<path class="st2" d="M139.7,327.7h-16.5c-36.1,0-65.4-28.3-65.4-63.1V198c0-31.3,26.4-56.8,58.8-56.8h29.6
	c32.4,0,58.8,25.5,58.8,56.8v66.6C205.2,299.4,175.8,327.7,139.7,327.7z M116.7,147c-29.2,0-52.9,22.9-52.9,51.1v66.6
	c0,31.6,26.7,57.4,59.5,57.4h16.5c32.8,0,59.5-25.7,59.5-57.4V198c0-28.1-23.7-51.1-52.9-51.1L116.7,147L116.7,147z"/>
<path class="st1" d="M43.6,284.5v-16c0-21.9,18.3-39.6,41-39.6h95.5c22.6,0,41,17.7,41,39.6v16c0,21.9-18.3,39.6-41,39.6H84.6
	C61.9,324,43.6,306.3,43.6,284.5z"/>
<g>
	<path class="st6" d="M180.1,326.9H84.6c-24.2,0-44-19-44-42.4v-16c0-23.4,19.7-42.4,44-42.4h95.5c24.2,0,44,19,44,42.4v16
		C224.1,307.9,204.3,326.9,180.1,326.9z M84.6,231.8c-21,0-38,16.5-38,36.7v16c0,20.2,17,36.7,38,36.7h95.5c21,0,38-16.5,38-36.7
		v-16c0-20.2-17-36.7-38-36.7L84.6,231.8L84.6,231.8z"/>
	<path class="st6" d="M92.1,227.3L92.1,227.3c-4.5,0-8.2-3.5-8.2-7.9v-9.5c0-4.4,3.7-7.9,8.2-7.9h0c4.5,0,8.2,3.6,8.2,7.9v9.5
		C100.3,223.8,96.6,227.3,92.1,227.3z"/>
	<path class="st6" d="M174.2,227.3L174.2,227.3c-4.5,0-8.2-3.5-8.2-7.9v-9.5c0-4.4,3.7-7.9,8.2-7.9h0c4.5,0,8.2,3.6,8.2,7.9v9.5
		C182.4,223.8,178.8,227.3,174.2,227.3z"/>
</g>
<path class="st3" d="M155,328.5h20.8c9.6,0,17.4-7.5,17.4-16.8v-39c0-13-10.9-23.5-24.3-23.5h-38.1V305
	C130.7,318,141.6,328.5,155,328.5z"/>
<path class="st3" d="M106.4,328.5H85.6c-9.6,0-17.4-7.5-17.4-16.8v-39c0-13,10.9-23.5,24.3-23.5h38.1V305
	C130.7,318,119.8,328.5,106.4,328.5z"/>
<path class="st2" d="M106.4,331.4H85.6c-11.2,0-20.3-8.8-20.3-19.6v-39c0-14.5,12.2-26.3,27.3-26.3h38.1c1.6,0,3,1.3,3,2.9V305
	C133.7,319.6,121.4,331.4,106.4,331.4z M92.5,252.1c-11.8,0-21.3,9.2-21.3,20.6v39c0,7.7,6.5,13.9,14.4,13.9h20.8
	c11.8,0,21.3-9.2,21.3-20.6v-52.9H92.5z"/>
<path class="st2" d="M175.8,331.4H155c-15.1,0-27.3-11.8-27.3-26.3v-55.8c0-1.6,1.3-2.9,3-2.9h38.1c15.1,0,27.3,11.8,27.3,26.3v39
	C196.1,322.6,187,331.4,175.8,331.4z M133.7,252.1V305c0,11.4,9.6,20.6,21.3,20.6h20.8c7.9,0,14.4-6.2,14.4-13.9v-39
	c0-11.4-9.6-20.6-21.3-20.6H133.7z"/>
<path class="st2" d="M181.2,485.5l-39.7-0.2c-4.9,0-8.9-3.9-8.9-8.6v-78.8c0-0.8-0.7-1.4-1.5-1.4c-0.8,0-1.5,0.6-1.5,1.4v78.9
	c0,4.7-4,8.6-8.9,8.6l-37.3,0.2c-4.7,0-8.6-3.2-9.4-7.6L66.4,436c-0.9-4.7-1.3-9.5-1.3-14.3v-59.6c0-1.6,1.3-2.9,3-2.9
	c1.6,0,3,1.3,3,2.9v59.6c0,4.4,0.4,8.9,1.2,13.3l7.7,41.8c0.3,1.7,1.8,2.9,3.5,2.9l37.3-0.2c1.6,0,3-1.3,3-2.9v-78.9
	c0-4,3.3-7.2,7.4-7.2c4.1,0,7.4,3.2,7.4,7.2v78.8c0,1.6,1.3,2.9,3,2.9l39.7,0.2c1.7,0,3.2-1.2,3.5-2.9l7.7-41.8
	c0.8-4.4,1.2-8.8,1.2-13.3v-59.6c0-1.6,1.3-2.9,3-2.9c1.6,0,3,1.3,3,2.9v59.6c0,4.8-0.4,9.6-1.3,14.3l-7.7,41.8
	C189.8,482.3,185.8,485.5,181.2,485.5z"/>
<path class="st7" d="M147.1,249.2h-32.9c-1.8,0-3.3,1.4-3.3,3.2v6.3c0,4.4,3.7,7.9,8.2,7.9h23c4.5,0,8.2-3.6,8.2-7.9v-6.3
	C150.4,250.6,148.9,249.2,147.1,249.2z"/>
<path class="st2" d="M142.2,269.5h-23c-6.2,0-11.2-4.8-11.2-10.8v-6.3c0-3.3,2.8-6,6.3-6h32.9c3.5,0,6.3,2.7,6.3,6v6.3
	C153.4,264.7,148.4,269.5,142.2,269.5z M114.2,252.1c-0.2,0-0.3,0.1-0.3,0.3v6.3c0,2.8,2.3,5.1,5.2,5.1h23c2.9,0,5.2-2.3,5.2-5.1
	v-6.3c0-0.2-0.1-0.3-0.3-0.3H114.2z"/>
<path class="st7" d="M206.9,425.9l32,31c7.3,7.1,16.9,10.6,26.5,10.5c9.6,0,19.2-3.5,26.5-10.5l32-31c14.5-14.1,14.5-36.8,0-50.9
	c-14.5-14.1-38.1-14.1-52.6,0l-2.6,2.5c-1.8,1.8-4.8,1.8-6.6,0l-2.6-2.5c-14.5-14.1-38.1-14.1-52.6,0
	C192.4,389,192.4,411.8,206.9,425.9z"/>
<path class="st2" d="M265.6,470.3c-0.1,0-0.2,0-0.4,0c-10.7,0-20.8-4-28.4-11.4l-32-31c-15.7-15.2-15.7-39.8,0-55
	c7.6-7.3,17.7-11.4,28.4-11.4c10.7,0,20.8,4,28.4,11.4l2.6,2.5c0.6,0.6,1.7,0.6,2.4,0l2.6-2.5c7.6-7.3,17.7-11.4,28.4-11.4h0
	c10.7,0,20.8,4,28.4,11.4c15.7,15.2,15.7,39.8,0,55l-32,31C286.4,466.3,276.3,470.3,265.6,470.3z M265.4,464.5h0.2
	c9.2,0,17.8-3.4,24.2-9.7l32-31c13.4-12.9,13.4-33.9,0-46.8c-6.5-6.3-15.1-9.7-24.2-9.7c-9.1,0-17.7,3.4-24.2,9.7l-2.6,2.5
	c-1.4,1.4-3.4,2.2-5.4,2.2h0c-2,0-4-0.8-5.4-2.2l-2.6-2.5c-6.5-6.3-15.1-9.7-24.2-9.7c-9.1,0-17.7,3.4-24.2,9.7
	c-13.3,12.9-13.3,33.9,0,46.8l32,31c6.5,6.3,15.1,9.7,24.2,9.7H265.4z"/>
<path class="st8" d="M288.8,476.3c-2.1,0-4-1.4-4.6-3.3l-18.4-61.3l-3.5,12.6c-0.6,2-2.4,3.4-4.5,3.4l-28.8,0.8
	c-2.7,0.1-4.9-1.9-4.9-4.5c-0.1-2.6,2-4.7,4.7-4.8l25.2-0.7l7.1-25.2c0.6-2,2.4-3.4,4.6-3.4c2.1,0,4.1,1.3,4.6,3.3l18.1,60.4
	l7.7-30.9c0.5-2,2.3-3.4,4.4-3.5c2.1-0.1,4,1.1,4.8,3l7.6,19.4h48.6c2.6,0,4.8,2.1,4.8,4.6c0,2.6-2.1,4.6-4.8,4.6h-51.9
	c-2,0-3.8-1.2-4.5-3l-3.3-8.4l-8.3,33.3c-0.5,2-2.4,3.5-4.6,3.5C288.8,476.3,288.8,476.3,288.8,476.3z"/>
<path class="st2" d="M288.8,479.1c-3.4,0-6.5-2.2-7.5-5.4l-15.4-51.4l-0.8,2.7c-0.9,3.2-3.8,5.4-7.3,5.5l-28.8,0.8
	c-2.1,0.1-4.1-0.7-5.6-2.1c-1.5-1.4-2.4-3.2-2.4-5.2c-0.1-2,0.7-3.9,2.1-5.4c1.4-1.5,3.4-2.3,5.4-2.3l23-0.6l6.5-23.2
	c0.9-3.2,4-5.5,7.4-5.5c3.4-0.1,6.6,2.2,7.5,5.4l15,50l5.1-20.4c0.8-3.2,3.7-5.5,7.1-5.7c3.4-0.2,6.5,1.7,7.8,4.8l6.9,17.5h46.6
	c4.3,0,7.8,3.4,7.8,7.5c0,4.1-3.5,7.5-7.8,7.5h-51.9c-3.1,0-5.9-1.8-7.1-4.5l-6.1,24.3c-0.8,3.3-3.9,5.7-7.4,5.7
	C288.9,479.1,288.8,479.1,288.8,479.1z M265.8,408.8c1.3,0,2.5,0.8,2.9,2.1l18.4,61.3c0.2,0.7,0.9,1.3,1.7,1.3v2.9l0-2.9
	c0.8,0,1.5-0.6,1.7-1.3l8.3-33.3c0.3-1.2,1.4-2.1,2.7-2.2c1.3-0.1,2.5,0.7,3,1.8l3.3,8.4c0.3,0.7,0.9,1.1,1.7,1.1h51.9
	c1,0,1.8-0.8,1.8-1.8c0-1-0.8-1.8-1.8-1.8h-48.6c-1.2,0-2.3-0.7-2.8-1.9l-7.6-19.4c-0.3-0.7-1-1.2-1.8-1.1c-0.8,0-1.5,0.6-1.7,1.3
	l-7.7,30.9c-0.3,1.3-1.5,2.2-2.8,2.2c0,0,0,0-0.1,0c-1.3,0-2.5-0.8-2.9-2.1L267.4,394c-0.2-0.7-0.9-1.3-1.7-1.3c0,0,0,0,0,0
	c-0.8,0-1.6,0.5-1.8,1.3l-7.1,25.2c-0.3,1.2-1.5,2.1-2.8,2.1l-25.2,0.7c-0.5,0-0.9,0.2-1.3,0.5s-0.5,0.8-0.5,1.3
	c0,0.5,0.2,0.9,0.6,1.2c0.3,0.3,0.8,0.5,1.3,0.5l28.8-0.8c0.8,0,1.5-0.5,1.7-1.3l3.5-12.6C263.2,409.7,264.4,408.8,265.8,408.8
	L265.8,408.8z"/>
</svg>
